<svg width="96" height="40" viewBox="0 0 96 40" fill="none" xmlns="http://www.w3.org/2000/svg">
<g clip-path="url(#clip0_114_2545)">
<path d="M34.239 24.6177C34.2382 24.7705 34.208 24.9217 34.1499 25.0631C34.1938 24.9178 34.2236 24.7687 34.239 24.6177Z" fill="white"/>
<path d="M34.031 25.6273C34.0607 25.5382 34.0607 25.4491 34.0904 25.3601C34.0922 25.3372 34.1029 25.3159 34.1201 25.3007L33.9419 25.8649L34.031 25.6273Z" fill="white"/>
<path d="M34.328 23.9347C34.3306 24.0052 34.3205 24.0756 34.2983 24.1425C34.3227 24.0761 34.3328 24.0053 34.328 23.9347Z" fill="white"/>
<path d="M23.3111 9.68077V0.0890861H21.5591V11.2843H26.2213V9.68077H23.3111Z" fill="#010100"/>
<path d="M33.3777 5.70156L32.5462 0.564218L32.4868 0.0890861H29.9033L29.0125 5.70156L28.1216 11.2843H29.7251L30.0518 9.26504H32.1899L32.279 9.71047L32.4868 11.2843H34.2686L33.3777 5.70156ZM30.2597 7.75056L30.5566 5.70156L31.1208 2.07869L31.3881 3.83074L31.6554 5.70156L31.9523 7.75056H30.2597Z" fill="#010100"/>
<path d="M20.9653 32.3682V33.6451H34.3937V32.3682H20.9653Z" fill="#010100"/>
<path d="M25.3599 38.7231V40H29.9449V38.7231H25.3599Z" fill="#010100"/>
<path d="M23.1626 35.5457V36.8226H32.1693V35.5457H23.1626Z" fill="#010100"/>
<path d="M47.305 13.6897V13.8085H47.1863V13.8976H47.0675V14.0163H46.9487V14.1351H46.8596V14.2539H46.7705V14.3727H46.6814V14.4915H46.5923V14.6102H46.5033V14.729H46.4142L45.4639 20.2821L44.5433 26.3994L42.7319 14.0757L42.6725 13.6897H37.8618V13.8085H37.743V13.8976H37.6243V14.0163H37.5055V14.1351H37.3867V14.2539H37.2382V14.3727H37.1491V14.4915H37.0007V14.6102H36.8522V14.729H36.7334L40.5047 39.1388H46.919V39.0497H47.0081V38.931H47.1269V38.8122H47.2456V38.6934H47.3347V38.5746H47.4238V38.4558H47.5129V38.337H47.602V38.2183H47.6911V38.1292H47.7802L51.4921 14.0757L51.5515 13.6897H47.305ZM47.4832 37.2383H42.4053L38.8715 14.343H42.138L45.1076 34.5657L48.0771 14.343H51.017L47.4832 37.2383Z" fill="#010100"/>
<path d="M76.7036 16.0653C75.7533 14.4915 74.031 13.6897 71.6257 13.6897H65.2708V13.8085H65.152V13.9272H65.0629V14.0163H64.9441V14.1351H64.8254V14.2539H64.7066V14.3727H64.5878V14.4915H64.469V14.6102H64.3502V14.729H64.2314V39.1388H70.5863C72.5462 39.1388 74.0607 38.6043 75.0703 37.5353H75.1L75.1891 37.4462H75.2188L75.3079 37.3571H75.3376L75.4267 37.268H75.4564L75.5455 37.1789H75.5752L75.6643 37.0898L75.783 36.971H75.8127L75.9018 36.882L75.9909 36.7929C77.0896 35.6941 77.6539 34.0906 77.6539 31.9822V20.0149C77.6539 18.3816 77.3272 17.075 76.7036 16.0653ZM77.0006 31.6852C77.0006 35.3675 75.2485 37.2383 71.7444 37.2383H66.1617V14.343H71.7444C75.2485 14.343 77.0006 16.2138 77.0006 19.8961V31.6852Z" fill="#010100"/>
<path d="M71.685 17.2532H69.3984V34.3281H71.685C73.0807 34.3281 73.7637 33.4967 73.7637 31.8337V19.7179C73.7637 18.0549 73.0807 17.2532 71.685 17.2532ZM71.8335 32.9918C71.8312 33.2108 71.8113 33.4293 71.7741 33.6451H70.0517V19.1834H70.5269C71.1802 19.1834 71.8335 19.3022 71.8335 20.876V32.9918Z" fill="#010100"/>
<path d="M86.0874 30.2598H90.0963L88.1067 16.8374L86.0874 30.2598ZM87.394 26.1618L87.8988 29.6065H86.8595L87.394 26.1618Z" fill="#010100"/>
<path d="M95.115 38.1292H95.2338L91.4031 14.0757L91.314 13.6897H85.0185V13.8085H84.9294V13.9272H84.8404V14.0163H84.6622V14.1351H84.5731V14.2539H84.484V14.3727H84.3652V14.4915H84.2464V14.6102H84.1573V14.729H84.0683L80.1484 39.1388H84.6622V39.0497H84.781V38.931H84.8997V38.8122H84.9888V38.6934H85.0779V38.5746H85.167V38.4558H85.2561V38.337H85.3452V38.2183H85.4343V38.1292H85.553L86.0282 34.9221H88.6711L88.7899 35.7832L89.2947 39.1388H94.1351V39.0497H94.2539V38.931H94.4023V38.8122H94.5508V38.6934H94.6993V38.5746H94.8478V38.4558H94.9666V38.337H95.0853V38.2183H95.2041L95.115 38.1292ZM91.1655 37.2383L90.5419 32.9918H85.7015L85.0482 37.2383H82.1084L85.7906 14.343H90.7795L94.4617 37.2383H91.1655Z" fill="#010100"/>
<path d="M11.4031 13.6897V13.8085H11.2843V13.8976H11.1952V14.0163H11.1062V14.1351H11.0171V14.2539H10.928V14.3727H10.7201V14.4915H10.631V14.6102H10.5122V14.729H10.3935L9.79955 18.7379L8.93838 24.3504L7.27543 14.0757L7.21603 13.6897H1.03935V13.8085H0.920564V13.8976H0.801781V14.0163H0.712695V14.1351H0.593912V14.2539H0.475129V14.3727H0.356347V14.4915H0.237564V14.6102H0.118783V14.729H0V39.1388H4.33556V39.0497H4.45434V38.931H4.57313V38.8122H4.66221V38.6934H4.78099V38.5746H4.89978V38.4558H5.01856V38.337H5.13734V38.2183H5.25612V38.0995H5.37491V35.1893L6.02821 39.1388H10.4529V39.0497H10.5716V38.931H10.6904V38.8122H10.7795V38.6934H10.8686V38.5746H10.9577V38.4558H11.0468V38.337H11.1359V38.2183H11.2249V38.0995H11.3437L11.7892 35.1596V39.1388H16.3623V39.0497H16.4811V38.931H16.5999V38.8122H16.7186V38.6934H16.8374V38.5746H16.9562V38.4558H17.075V38.337H17.1641V38.2183H17.2828V38.0995H17.4016V13.6897H11.4031ZM16.8968 37.2383H13.8679V20.7275H13.4521L10.928 37.268H7.83964L5.13734 20.9354L4.7216 20.9948V37.268H1.93022V14.343H6.65182L9.53229 32.0119L12.2049 14.343H16.8968V37.2383Z" fill="#010100"/>
<path d="M55.6199 13.6897V13.8085H55.5011V13.9272H55.3823V14.0163H55.2636V14.1351H55.1745V14.2539H55.0557V14.3727H54.9369V14.4915H54.8181V14.6102H54.6994V14.729H54.5806V39.1388H59.3616V39.0497H59.4803V38.931H59.5991V38.8122H59.7179V38.6934H59.8367V38.5746H59.9555V38.4558H60.0743V38.337H60.193V38.2183H60.2821V38.1292H60.4009V13.6897H55.6199ZM56.5108 20.7869V19.1834H59.7476V20.7869H56.5108ZM59.7476 22.0935V23.6971H56.5108V22.0935H59.7476ZM56.5108 24.974H59.7476V26.5776H56.5108V24.974ZM59.7476 27.8842V29.4878H56.5108V27.8842H59.7476ZM59.7476 30.7647V32.3682H56.5108V30.7647H59.7476ZM56.5108 33.6451H59.7476V37.2383H56.5108V33.6451ZM59.7476 17.9065H56.5108V14.343H59.7476V17.9065Z" fill="#010100"/>
<path d="M70.9134 13.6897C70.2635 12.5773 69.4067 11.5995 68.3892 10.8092C64.6773 7.95843 60.7575 10.0965 59.1836 11.1953H59.1539C59.9817 10.2264 60.9987 9.43689 62.1425 8.87518C63.2864 8.31347 64.5329 7.99141 65.8057 7.92873C70.6758 7.69117 73.7641 9.91834 73.7938 9.94803H73.9126C73.9423 9.91834 73.972 9.85895 73.9423 9.82925C73.4788 8.92293 72.855 8.108 72.1012 7.42391C70.9431 6.32517 68.8644 5.04826 65.7463 5.01856H65.6869C62.4204 5.01856 60.5793 7.00817 59.5399 8.8493C59.8666 6.7706 59.5993 4.03861 56.9861 2.0193C52.2348 -1.63326 47.632 0.77209 47.5726 0.801786C47.5132 0.831481 47.5132 0.861175 47.5132 0.920566L47.632 0.979957C47.6617 0.979957 51.4627 1.09874 55.1747 4.30587C56.1488 5.14839 56.9409 6.18071 57.5025 7.33973C58.0642 8.49875 58.3836 9.76013 58.4412 11.0468C57.9067 9.26504 56.1249 4.98887 51.3439 4.98887C45.3454 4.98887 43.148 9.71047 43.1183 9.74017C43.0886 9.76986 43.1183 9.82925 43.148 9.85895H43.2667C43.2964 9.82925 46.3848 7.60208 51.2846 7.86934C53.769 8.01503 56.0955 9.13559 57.7582 10.9874H57.6988C56.2734 9.97773 53.482 8.43356 50.9282 9.65108C48.3744 10.8686 47.3053 11.8486 47.2756 11.8782C47.261 11.8946 47.253 11.9157 47.253 11.9376C47.253 11.9596 47.261 11.9807 47.2756 11.997C47.2756 12.0267 47.3053 12.0564 47.3647 12.0564C47.3944 12.0564 49.5028 11.611 52.2645 11.2546C53.4991 11.1279 54.744 11.1379 55.9765 11.2843H55.9468C55.6551 11.3623 55.383 11.5003 55.1477 11.6895C54.9125 11.8787 54.7194 12.1149 54.5808 12.3831C53.6602 14.046 53.5117 14.7884 53.5117 14.8181C53.5117 14.8478 53.5117 14.9072 53.5711 14.9369H53.6008L53.6899 14.8775C54.1987 14.3078 54.7442 13.7722 55.3232 13.2739L55.4419 13.1849C55.5233 13.0859 55.6245 13.005 55.7389 12.9473C56.6201 12.5592 57.5345 12.2511 58.4709 12.0267C59.1464 12.4091 59.783 12.8567 60.3714 13.363C61.2492 14.1154 62.0821 14.9185 62.8658 15.7684H62.9846C63.044 15.7684 63.0737 15.709 63.044 15.6793C63.0143 15.6496 62.8658 14.7884 61.8265 12.9176C61.458 12.3124 60.9215 11.8275 60.2823 11.5219C62.5372 11.2873 64.8017 11.8666 66.6669 13.1552L67.3499 13.66L70.9134 13.6897Z" fill="#010100"/>
<path d="M28.3594 16.9859C26.9637 16.9859 26.251 17.8174 26.251 19.4803V23.2517C26.251 24.8849 26.9637 25.7461 28.3594 25.7461C29.7551 25.7461 30.4678 24.8849 30.4678 23.222V19.4803C30.4678 17.8174 29.7551 16.9859 28.3594 16.9859ZM28.5375 24.3801C28.5513 24.6094 28.5313 24.8396 28.4781 25.0631H27.7358L27.5576 24.974H27.4685C27.4685 24.9661 27.4654 24.9586 27.4598 24.953C27.4542 24.9474 27.4467 24.9443 27.4388 24.9443H27.3794L27.2903 24.8849L27.2309 24.8255C27.1443 24.707 27.0743 24.5771 27.0231 24.4395C26.9934 24.3801 26.9934 24.291 26.9637 24.2019C26.9266 23.9661 26.9068 23.7279 26.9043 23.4892V19.5991C26.9067 19.3703 26.9266 19.1419 26.9637 18.9161H27.2012C28.1812 18.9161 28.5375 19.3912 28.5375 20.6385V24.3801Z" fill="#010100"/>
<path d="M28.1811 30.4974C29.3883 30.4044 30.5335 29.9254 31.4476 29.1314C31.544 29.0499 31.6334 28.9605 31.7148 28.8641H31.7445V28.8047H31.8336V28.686H31.9524L32.0118 28.6266H32.0415L32.1306 28.5375H32.1603L32.2494 28.4484H32.3088L32.3681 28.389H32.4275L32.4869 28.3296H32.5463L32.6057 28.2702L32.9621 27.8842L33.0511 27.7357C33.1598 27.6217 33.2499 27.4915 33.3184 27.3497H33.3481C33.4075 27.2012 33.4966 27.0824 33.556 26.9339L33.6748 26.7261L33.8529 26.2509C33.8637 26.2389 33.8718 26.2248 33.877 26.2094C33.8821 26.1941 33.884 26.1779 33.8826 26.1618L34.0608 25.5976C34.0852 25.5312 34.0953 25.4604 34.0905 25.3898C34.1486 25.2484 34.1788 25.0971 34.1796 24.9443C34.2139 24.7881 34.2338 24.6291 34.239 24.4692C34.2611 24.4022 34.2712 24.3318 34.2687 24.2613C34.2924 24.1041 34.3023 23.9451 34.2984 23.7862V19.8367C34.3351 18.6833 34.1118 17.5364 33.6451 16.4811C33.5539 16.2833 33.4446 16.0944 33.3184 15.9169C32.3384 14.2836 30.5567 13.4224 28.1811 13.4224C26.2805 13.4224 24.7067 14.0163 23.6673 15.1151H23.6376L23.5485 15.2042H23.5188L23.4298 15.2932H23.4001C23.3605 15.3526 23.3308 15.3823 23.311 15.3823L23.1922 15.5011L23.1031 15.5902H23.0734L22.9843 15.6793L22.8358 15.8278L22.7468 15.9169C21.6183 17.0156 21.0244 18.7082 21.0244 20.7572V24.0238C21.0244 28.1218 23.2516 30.4677 27.1417 30.4677H27.2011C27.5258 30.5122 27.8543 30.5222 28.1811 30.4974ZM27.1417 28.5672L26.9041 28.5078H26.6963L26.5181 28.4484C26.2132 28.3624 25.9154 28.2532 25.6272 28.1218L25.4194 28.003L25.2412 27.9139C25.2412 27.906 25.2381 27.8984 25.2325 27.8929C25.2269 27.8873 25.2194 27.8842 25.2115 27.8842L25.0333 27.7654H24.9739L24.8552 27.6763L24.677 27.5278C23.7861 26.7558 23.2516 25.5976 23.0734 24.1128C23.0437 23.7862 23.014 23.4298 23.014 23.0438V19.7773C23.014 16.1247 24.9145 14.1351 28.3592 14.1351C30.2301 14.1351 31.6258 14.729 32.5463 15.8278C33.4669 16.9265 33.7044 18.1143 33.7044 19.7773V23.0438C33.7159 23.4012 33.6961 23.7589 33.6451 24.1128C33.4966 25.5976 32.9324 26.7558 32.0415 27.5278L31.8633 27.6763L31.6851 27.7951L31.507 27.9139H31.4773L31.3585 27.9733H31.2991L31.21 28.0327L31.0912 28.0921L30.8834 28.1811H30.824L30.2004 28.389L30.0222 28.4484H27.1417V28.5672Z" fill="#010100"/>
</g>
<defs>
<clipPath id="clip0_114_2545">
<rect width="95.2339" height="40" fill="white"/>
</clipPath>
</defs>
</svg>
