<svg xmlns="http://www.w3.org/2000/svg" width="681" height="689" fill="none" xmlns:v="https://vecta.io/nano"><path d="M400.091 288.59c-6.143-5.084-12.16-10.417-18.551-15.003s-14.029-11.683-20.831-17.803c-4.326-4.009-9.592-6.618-15.213-7.54-9.744-1.401-17.798-6.485-25.333-13.2-5.136-4.729-10.878-8.613-17.046-11.53-4.006-1.961-7.429-5.102-9.889-9.074-.838-1.259-1.416-2.702-1.694-4.232s-.249-3.111.084-4.632a9.82 9.82 0 0 0-.097-4.664c-.406-1.515-1.17-2.884-2.216-3.969a70.91 70.91 0 0 1-8.688-10.303c-3.829-5.929-5.689-13.122-5.273-20.394.652-11.681.078-23.396-1.708-34.917l-.937-9.919c.029-4.853 1.105-9.638 3.14-13.966l3.745-9.574c2.26-5.122 5.986-9.055 9.309-13.065s4.54-2.321 6.117.71 4.525 8.326 6.411 12.509 4.29 6.734 8.195 7.75 10.099 6.293 13.502 11.857c4.503 7.213 7.322 15.53 8.213 24.231.701 4.753 1.763 9.431 3.174 13.986.484 1.775 1.438 3.35 2.742 4.527 3.035 2.763 4.29 6.734 5.546 10.706l7.708 23.77c1.835 5.389 4.353 10.465 7.481 15.08l19.037 29.66a5.97 5.97 0 0 0 2.023 1.842l-7.804-14.14-13.562-27.07c-1.683-3.796-3.118-7.72-4.294-11.741-2.635-7.694-5.445-15.329-7.78-23.329l-5.179-21.469.167-1.515c.632-.111 1.277.022 1.825.375s.966.906 1.18 1.562c4.299 8.708 9.102 17.102 14.382 25.133l12.716 19.626c1.268 1.881 2.009 3.933 3.102 5.871 1.516 2.155 2.891 4.424 4.114 6.792l12.479 26.59 9.17 19.953a95.38 95.38 0 0 0 7.165 12.47l-.257-.959c-6.329-11.492-11.004-23.943-16.03-36.279s-8.86-27.358-11.507-41.517-3.854-22.945-5.605-34.476l-1.811-13.18.116-1.708c.856.074 1.667.445 2.313 1.059s1.094 1.44 1.279 2.356l7.464 20.721 6.363 17.324c3.192 8.345 6.508 16.441 10.228 24.614l-1.524-11.396c-1.471-10.552-1.903-21.255-1.289-31.924l1.429-31.771c.305-3.856.208-7.789.285-11.779 1.458-.269 2.088-.058 2.272 1.343l4.665 19.549 3.225 14.178 4.998 25.075 5.262 36.049a9.92 9.92 0 0 0 .698 3.319l.365-2.206a344.34 344.34 0 0 1 2.061-40.116l3.496-31.196c.712-7.328 1.022-14.734 1.105-22.274.327-4.489-.152-9.132-.229-13.698l.695-1.688c1.612.307 1.569 1.573 1.877 2.724.861 5.353 2.073 10.59 2.707 15.809l3.175 27.55c.672 7.501.992 15.118 1.312 22.734.274 3.876.247 8.058.169 12.049l-.636 34.015-1.114 20.816c-.421 5.564-1.421 11.108-1.791 16.864l-1.252 23.156.325 4.068.703-.231.271-1.132a212.96 212.96 0 0 1 1.329-27.147l1.551-14.906 1.626-10.341 3.164-23.157c1.137-7.885 2.502-15.636 4.043-23.444s2.227-10.955 3.629-16.423c2.887-9.919 4.968-19.991 8.31-29.641s6.717-22.025 9.926-32.884c.214-.936.478-1.858.789-2.762.249-.499 1.003-.537 1.779-1.209l.617 2.302c-1.043 6.811-2.137 13.43-2.88 19.934l-3.852 34.859-4.215 28.51a287.19 287.19 0 0 1-7.032 32.979l-8.109 33.958c-2.476 11.454-3.548 17.439-5.059 26.073-.259 1.302-.226 2.652.098 3.933l4.397-18.553 6.006-23.252c1.819-7.482 3.638-14.965 5.736-22.121s4.598-14.235 7.15-21.123 4.834-12.643 7.416-18.705l5.837-13.181 3.847-9.189c2.376-6.83 6.167-12.663 9.679-18.821s9.447-15.406 12.869-24.039l1.222-1.861c.517.362.883.931 1.023 1.585a2.83 2.83 0 0 1-.273 1.926c-3.796 9.381-5.577 19.147-8.164 28.758-2.523 10.567-5.682 20.943-9.458 31.061-5.58 14.14-10.53 28.491-15.706 42.707l.205.767 1.544-2.801 17.922-38.006c1.99-3.99 4.258-7.655 6.651-11.569s6.454-10.878 9.996-16.211l6.938-9.785c1.097-1.611 1.968-3.357 3.117-4.777l12.019-14.37a11.86 11.86 0 0 1 1.128-.786c1.29 1.247.968 2.187.068 3.108-3.974 4.594-7.211 9.888-9.572 15.655-2.114 4.24-3.949 8.806-5.785 13.372l-6.378 15.444c-1.586 4.068-2.77 8.212-4.306 12.471s-3.869 9.823-5.777 14.83-4.855 13.276-7.686 19.837l-8.419 19.243c-.442.723-.617 1.601-.489 2.456a11.24 11.24 0 0 0 1.874-2.283l18.383-27.723 12.719-19.607c1.885-3.06 4.08-5.879 6.543-8.403a76.36 76.36 0 0 0 5.943-7.79l10.54-13.468c3.022-3.702 6.273-7.271 9.523-10.839a3.49 3.49 0 0 1 1.127-.787c1.063 1.113 1.093 1.938.244 3.051-6.843 8.71-11.767 18.878-17.423 28.451l-20.056 34.323-11.539 19.012c-3.637 6.408-8.101 13.296-12.316 19.685s-6.102 10.762-9.468 16.038-7.273 12.816-12.324 18.226c-1.1 1.141-2.111 2.38-3.023 3.703l.557.652 5.973-6.964 18.592-21.948 24.797-32.327c6.472-8.288 13.555-15.982 21.177-23.003 7.182-6.734 14.642-13.142 22.154-19.358s11.422-8.749 17.133-13.123c.476-.364 1.282-.211 1.985-.441l.557.652c-.431.829-.923 1.618-1.471 2.36l-18.103 19.492a29.28 29.28 0 0 0-3.023 3.703l-15.385 19.646-11.204 15.981-14.258 18.859c-1.283 1.694-2.466 3.476-3.542 5.334 12.306-12.586 25.066-24.903 39.755-34.304 14.497-9.439 29.849-17.194 45.805-23.137 1.363.806 1.217 1.688.089 2.475a20.29 20.29 0 0 1-4.21 2.839c-6.092 3.664-11.194 8.883-16.575 13.775l-15.243 13.756-10.937 9.842-14.197 11.953c-.475.364-.776.671-.797 1.304 10.916-7.3 22.524-13.27 34.615-17.804 12.253-4.221 24.866-7.098 37.251-10.111.887 1.171.566 2.111-.262 2.59-5.835 4.624-11.443 9.382-17.381 13.622-10.325 7.137-20.473 14.216-31.457 20.317L522.5 278.767c-.352.115-.6.614-.901.921 13.946-2.897 27.665-5.929 41.589-8.193s27.805-3.261 42.059-5.007c-.06.677-.315 1.316-.728 1.827s-.963.865-1.57 1.012c-7.236 1.535-13.607 4.874-20.308 7.694l-24.973 10.264c-8.335 3.146-16.969 6.6-25.582 9.42s-16.801 5.084-25.114 7.597c-.878.288-1.706.768-3.112 1.228l1.26.422 17.272-1.899c3.194-.211 6.263-.173 9.281-.326 16.613-1.382 33.289-1.401 49.887-.058a112.45 112.45 0 0 1 24.198 3.971c.403.077.506.461 1.239 1.056a9.87 9.87 0 0 1-2.834 1.554c-5.23.46-10.511.729-15.69 1.381s-5.376 1.343-8.167 1.631c-7.163 1.093-14.43 1.803-21.593 2.897l-19.155 2.724-18.729 2.168c-6.337.614-10.233 1.055-15.339 1.266a56.99 56.99 0 0 1-16.753.269 3.02 3.02 0 0 0-1.503.101 3.26 3.26 0 0 0-1.31.82c10.044 1.093 20.037 1.995 29.832 3.588s19.972 3.894 29.673 6.561a190.78 190.78 0 0 1 28.385 10.321c9.384 3.744 18.506 8.219 27.297 13.392l-.322.94a7.57 7.57 0 0 1-2.088.057c-7.634-2.091-15.196-4.623-22.903-6.273-11.965-2.552-24.002-4.662-36.039-6.773-7.026-1.247-14-2.302-21.151-3.299s-11.501-.825-17.267-1.65-12.256-.787-18.081-3.262a6.39 6.39 0 0 0-3.07-.038c17.96 6.883 35.243 15.693 51.597 26.303 17.171 11.281 43.33 32.557 45.223 38.197-.754.039-1.633.327-2.088.058-4.646-3.07-9.292-6.139-14.063-8.96s-10.575-5.928-15.924-8.767l-18.423-10.245c-4.72-2.628-9.439-5.257-14.055-7.501s-7.035-2.705-11.321-4.432c19.613 16.115 37.645 32.749 52.954 52.778l.309 1.151c-1.201 1.228-1.934.634-2.894-.096l-16.322-12.393c-.928-1.026-1.944-1.951-3.035-2.763-6.648-5.544-13.42-10.839-20.141-15.943l-7.629-5.64 7.405 10.513c3.931 5.391 7.809 10.591 11.336 15.905s6.073 10.533 8.897 16.077c.66 1.036 1.804 3.166.376 4.259s-2.271-1.343-3.107-2.321c-3.827-5.008-7.582-10.456-11.585-15.406-4.973-6.436-10.257-12.578-15.828-18.398-2.556-2.911-4.872-6.063-6.921-9.42l-5.002-7.962.047 3.741 3.376 31.867c.92 7.002 2.42 14.024 3.743 21.103l3.247 13.545c.248.63.291 1.336.121 1.999a3.04 3.04 0 0 1-1.056 1.646l-1.929-2.916-12.435-27.857a87.04 87.04 0 0 1-3.488-11.588c-.26-.782-.773-1.43-1.444-1.822l-.613 2.705c-.808 8.403-1.615 16.806-.511 25.209.075.722.01 1.454-.189 2.149a2.96 2.96 0 0 1-1.881-.863c-.519-.512-.864-1.202-.978-1.957l-5.227-16.653-1.439-5.372c-3.648-.057-4.197.748-3.851 4.183l1.486 9.113c.686 4.162.795 8.417.324 12.623-.318 3.394-1.695 6.571-3.899 8.998-3.609 4.104-7.939 7.367-12.725 9.593-7.261 3.916-15.36 5.557-23.394 4.739-3.927-.384-7.875-.134-11.926-.269a49.5 49.5 0 0 0-.315 10.955c.701 8.326-.209 16.346-.717 24.442-.097.87-.322 1.719-.664 2.513-1.33 5.027-2.887 9.919-3.814 15.022a63.05 63.05 0 0 0-.315 10.955c.014 1.696.21 3.383.582 5.027.457 5.276-2.162 9.055-5.01 12.7a43.46 43.46 0 0 1-5.702 5.833c-.973 1.017-2.242 1.628-3.582 1.723s-2.663-.332-3.736-1.205c-3.202-2.387-5.785-5.637-7.5-9.44a37.23 37.23 0 0 0-3.352-5.371c-1.217-1.689-2.726-1.612-4.175.115-.582.772-1.06 1.632-1.42 2.551l-4.125 8.864c-3.568 8.203-5.286 17.212-5.008 26.265l-.184 20.72c-.01 7.098-2.54 13.353-5.071 19.607l-.819 1.938c-1.703 5.774-5.84 8.173-10.586 9.727a4.59 4.59 0 0 1-2.302.391 4.64 4.64 0 0 1-2.203-.803c-.665-.456-1.219-1.079-1.617-1.818a5.76 5.76 0 0 1-.672-2.432c-1.036-5.295-1.494-10.571-2.53-15.867a57.68 57.68 0 0 0-2.232-7.616c-3.025-9.861-6.628-19.742-5.104-30.466.71-5.365 1.781-10.669 3.205-15.866 2.025-6.715 4.577-13.603 7.004-20.241 1.662-4.106 2.429-8.573 2.24-13.046-.222-3.683-1.417-6.005-4.92-6.945a9.07 9.07 0 0 0-4.102-.326c-3.37.269-6.688.729-10.006 1.189s-5.517-1.323-4.963-5.678 3.238-10.034 5.777-14.83c2.428-4.59 5.418-8.799 8.885-12.509 3.074-3.511 5.745-7.099 8.593-10.744 6.092-7.804 13.711-14.009 22.286-18.149a55.33 55.33 0 0 0 8.472-5.487 22.63 22.63 0 0 0 2.723-3.396l-2.769-.345a94.45 94.45 0 0 0-21.581.805 176.81 176.81 0 0 0-19.922 4.854l-17.855 5.43c-5.801 1.899-9.711 4.432-14.757 6.293a142.95 142.95 0 0 0-25.938 13.084l-19.529 12.029c-6.62 3.837-11.773 8.864-17.66 13.296-9.87 7.405-18.574 16.307-27.608 24.691s-13.682 13.871-20.585 20.931l-4.326 4.547c-3.653 3.492-7.534 6.849-11.084 10.725s-6.243 8.096-9.339 12.24l-5.021 6.235a272.62 272.62 0 0 0-18.194 25.574c-1.098 1.612-1.866 3.741-2.788 5.295s-1.749 2.034-3.018.154c-1.656 2.291-3.433 4.476-5.321 6.542-3.426 3.626-6.954 6.868-10.608 10.36-.344.298-.749.502-1.179.595-1.23.403-2.014-.384-1.393-1.631.685-2.155 1.611-4.211 2.758-6.12 3.769-5.199 6.981-11.051 11.586-15.272s7.409-6.599 11.165-9.707c3.595-3.061 6.536-6.945 8.614-11.377l-.703.23c-4.154 3.542-8.998 5.985-14.148 7.137a76.67 76.67 0 0 0-10.971 4.01c-1.054.345-1.933.633-2.623-1.228 2.24-2.063 4.609-3.955 7.087-5.66a84.77 84.77 0 0 1 10.706-6.427c4.364-2.264 8.934-3.76 13.299-6.024 3.994-2.083 7.492-5.158 10.213-8.979a30.82 30.82 0 0 0 3.139-5.41c-1.326.294-2.609.785-3.816 1.458l-17.282 8.998c-4.625 2.521-9.516 4.403-14.559 5.602-5.376 1.343-10.731 2.053-16.034 2.955-.552.032-1.103-.073-1.611-.307-.454-.238-.827-.627-1.063-1.113.03-.737.324-1.433.819-1.938 2.081-1.37 4.253-2.569 6.495-3.587 3.321-1.581 6.714-2.97 10.165-4.164a111.02 111.02 0 0 1 15.674-4.297c6.057-.94 11.879-3.473 17.731-5.18 4.934-1.346 9.288-4.545 12.301-9.037 2.122-2.781 4.523-5.237 6.873-7.885l1.42-2.551c-3.766.877-7.345 2.545-10.538 4.911-6.677 5.226-13.63 10.012-20.824 14.332-3.214 1.753-6.72 2.76-10.298 2.954-6.615.288-13.289-1.074-19.985-1.803-.317-2.609 1.389-3.377 2.796-3.837s7.712-1.9 11.528-3.358 10.833-1.669 16.26-2.82c6.628-1.333 12.757-4.793 17.604-9.938 2.207-1.841 4.918-2.802 7.683-2.724 2.439-.173 4.93-.154 7.317-.518.877-.051 1.72-.4 2.41-.998 2.753-2.571 5.278-5.276 7.979-8.039l-.557-.652c-6.636.921-13.097 1.784-19.579 3.281s-13.453 5.449-19.824 8.787-13.093 6.791-20.595 5.909c-4.33-.461-8.96-.614-13.122-2.59-.184-1.401-.038-2.283 1.347-2.11 8.938 1.247 16.839-2.802 24.741-6.85 3.176-1.422 6.451-2.564 9.791-3.415 5.677-1.65 11.58-3.165 17.359-4.432 1.961-.307 3.949-.327 5.911-.057 5.762.438 11.557-.054 17.2-1.458 1.457-.269 2.679-2.13 3.931-3.166l-.205-.767c-2.868.396-5.712.979-8.519 1.746-7.337 2.252-15.018 2.775-22.532 1.535a34.26 34.26 0 0 0-15.668.748c-6.103 1.298-12.344 1.582-18.511.844-3.11-.148-6.226-.103-9.333.134-.535-1.285-.214-2.225.892-2.379 5.685-.191 10.495-3.645 15.438-5.89s10.65-3.069 15.974-4.604 14.138-.038 21.143 1.842c4.351 1.615 8.829 2.803 13.378 3.549 3.837.322 7.699.11 11.494-.633.227.134.527-.173.827-.48l7.079-7.118-1.085-.479c-8.321 1.055-16.358-1.113-24.439-2.015-8.377-1.161-16.86-1.187-25.258-.076-4.402.575-8.859.19-13.113-1.132l-13.43-3.741c-1.542-.509-3.05-1.13-4.514-1.861.952-.729 1.552-1.343 1.955-1.266 1.233.053 2.452.285 3.627.69 4.575 1.334 9.39 1.407 14.013.211 4.9-.978 9.873-2.398 14.876-2.993a29.69 29.69 0 0 1 9.209.115c5.97.884 11.77 2.787 17.189 5.641l9.203 3.664c3.935 1.842 8.029.71 12.029.652 2.723-.25 5.287-1.533 7.25-3.626 1.273-1.669 3.001-3.069 4.626-4.854-6.601-1.803-13.151-3.414-20.131-.92a18.65 18.65 0 0 1-10.717-.039c-6.271-1.285-12.47-3.012-18.69-4.105s-8.762-1.305-13.092-1.765l-18.424-1.689-1.561-.115c-.485-.236-.91-.598-1.239-1.055.476-.364.85-1.113 1.252-1.036 1.352-.146 2.713-.101 4.052.135 3.52.773 7.155.72 10.665-.154a24.94 24.94 0 0 0 6.225-2.456c5.552-3.894 12.19-5.475 18.692-4.451 2.593.403 5.26.365 7.678.825 7.253 1.381 13.562 4.95 19.996 8.269 3.953 2.078 8.191 3.439 12.552 4.029a14.78 14.78 0 0 0 6.653-.198c2.184-.572 4.239-1.635 6.032-3.121l2.98-2.437-3.348-.364c-11.649 0-23.157-2.626-33.805-7.713-6.935-3.211-14.351-5.024-21.892-5.352l-3.927-.384-20.096-3.645c-.133-1.209.292-1.765 1.449-1.727.255-.095.524-.135.792-.115s.529.098.769.23c4.484 1.036 9.032.173 13.508-.249s14.232-1.113 21.301-1.132c5.879.042 11.658 1.579 16.881 4.489 5.401 3.031 11.029 6.197 16.73 8.921 4.677 2.355 9.717 3.747 14.866 4.106 1.709-.465 3.304-1.344 4.665-2.571-.909-.537-1.187-.863-1.59-.94-9.369-3.01-18.32-7.378-26.615-12.988-5.656-3.813-11.985-6.289-18.582-7.272-3.217-.641-6.518-.622-9.736.058-.446 1.19-.665 2.513-1.162 3.511s-1.304.844-1.904 1.458-1.114-1.305-1.144-2.13c-.155-1.026-.177-2.072-.068-3.108-8.132-1.093-16.556-.422-24.615-1.956.314-2.399 1.347-2.111 2.504-2.072a110.91 110.91 0 0 0 22.648-3.243 94.62 94.62 0 0 1 1.832-9.573c1.33-5.027 4.362-7.271 9.116-7.367 4.094-.284 8.182.526 11.912 2.359l1.437.365c-.985-1.515-1.861-3.112-2.619-4.777-.375-.638-.611-1.363-.691-2.118s-.002-1.521.229-2.241a5.15 5.15 0 0 1 1.105-1.911c.495-.538 1.095-.946 1.755-1.193 3.252-1.328 6.815-1.389 10.087-.173 6.502 1.991 12.83 4.597 18.912 7.789 4.895 2.571 9.936 4.259 14.604 6.696s7.27 4.297 11.081 6.388c2.263 1.571 4.874 2.446 7.561 2.533.352-.115.806.153 1.209.23s7.364 3.223 10.969 4.547c2.702 1.123 5.695 1.11 8.403-.039 1.83-1.016 3.815-1.458 6.225-2.455-4.514-1.861-8.376-4.144-12.603-4.221-7.548-.414-14.979-2.136-22.016-5.103-9.607-3.741-19.088-7.732-28.622-11.914-3.441-1.847-6.795-3.883-10.047-6.101l-11.535-6.657c-3.129-1.688-6.133-3.626-9.087-5.372.365-2.206 1.42-2.552 2.68-2.13l7.004 1.881c6.529 2.244 13.357 4.182 19.637 6.925s15.213 7.54 22.907 11.281l19.881 9.976 15.513 7.233a19.67 19.67 0 0 0 4.938 1.305c.857.345 1.736.057 2.242.518s5.011.863 7.472.057 5.024-1.228 7.309-1.976c.307-.019.603-.132.855-.325s.451-.459.573-.768c-2.821-.537-5.517-1.324-8.286-1.669a109.52 109.52 0 0 1-28.854-8.499c-13.365-5.641-26.555-11.339-39.547-17.727-10.295-5.199-20.217-11.226-29.688-18.034l-2.755-2.437c-.127-.202-.21-.433-.242-.676s-.012-.49.057-.724c.301-.307.901-.921 1.304-.845l2.975 1.113c4.403-6.674 9.617-12.664 15.496-17.804 4.107-3.223 7.885-6.964 11.889-10.571s3.756-3.108 5.835-4.624c7.004-4.807 13.51-10.437 19.402-16.787l6.954-6.868c-2.168-.959-4.213-2.168-6.434-3.319l-5.754 5.64c-1.375 1.756-2.844 3.422-4.399 4.989-9.626 9.446-19.915 18.048-30.772 25.727-10.572 7.636-20.867 15.598-31.388 23.425-1.552 1.343-2.877 2.821-4.253 4.106s-1.093-1.938-.369-2.801l13.747-15.77c4.084-4.48 8.59-8.474 13.441-11.914l17.837-13.353c6.128-5.283 12.862-9.663 20.026-13.027 4.24-2.015 6.165-4.106 9.334-8.691-4.296-2.909-8.853-5.332-13.601-7.233-2.877 2.82-6.032 5.314-7.898 9.056-2.106 4.005-4.948 7.494-8.344 10.244l-31.278 25.268c-5.908 5.064-11.362 10.398-16.991 15.789-.952.729-2.028 1.708-3.105 2.686-.427-.505-.668-1.166-.677-1.856s.216-1.362.631-1.885a56.9 56.9 0 0 1 3.893-5.449l18.117-21.583c4.575-5.046 8.871-10.418 13.725-15.137 5.168-4.913 10.991-8.932 17.265-11.915 1.882-.825 3.97-.882 5.728-1.458s5.097-1.669 6.538-4.853c-3.792-2.619-7.786-4.872-11.938-6.735-.411-.036-.826.029-1.213.192s-.736.419-1.02.749c-1.567 1.752-2.903 3.734-3.967 5.889-2.646 7.962-7.594 13.756-13.503 18.821l-14.093 12.336-21.845 20.509c-3.053 2.878-6.157 5.564-9.562 8.557-.205-.767-.638-1.669-.389-2.168.422-.943.958-1.821 1.595-2.609l20.157-25.382c1.197-1.399 2.19-2.991 2.942-4.72-.776.672-1.655.96-2.431 1.631-7.213 6.053-13.835 12.907-19.758 20.452a49.82 49.82 0 0 1-4.099 4.681c-.3.307-1.128.786-1.355.652a2.33 2.33 0 0 1-.617-.795 2.54 2.54 0 0 1-.248-1.008c.126-1.006.456-1.969.965-2.821 2.62-3.779 5.467-7.424 8.19-10.82s5.621-6.849 8.571-10.111l20.598-23.022c2.039-2.075 4.343-3.814 6.839-5.161 4.13-2.786 7.923-6.132 11.289-9.957.541-.569 1.012-1.215 1.398-1.919l-5.855-3.3c-.564-.421-1.253-.595-1.932-.489s-1.299.486-1.738 1.065l-6.582 6.12c-.366.351-.641.801-.797 1.305-1.661 6.464-5.141 12.204-9.944 16.403-7.079 7.118-14.261 13.852-21.619 20.644s-11.04 9.458-16.472 14.158l-4.657 4.029c-.3.307-.703.231-1.054.346-.187-.171-.341-.381-.452-.618s-.178-.497-.196-.763a2.16 2.16 0 0 1 .092-.788c.078-.254.201-.489.363-.69 5.643-7.482 10.099-15.828 16.247-22.85l11.968-14.561c-15.26 11.453-31.073 21.995-47.367 31.579-1.269-1.88-.42-2.993.605-4.163l9.407-9.133c3.829-3.549 7.606-7.29 11.662-10.705s9.291-7.425 13.926-10.821 9.797-6.964 14.835-10.283 7.695-4.815 11.378-7.482 7.418-5.142 11.752-8.231c-2.675-1.419-4.719-2.628-6.888-3.587-.336-.124-.697-.149-1.045-.071s-.673.254-.94.512c-1.815 1.367-3.433 3.023-4.802 4.911-2.801 3.885-6.165 7.243-9.956 9.938-4.159 3.032-8.091 6.197-12.352 8.845l-18.123 11.569-31.744 18.533a46.39 46.39 0 0 0-5.483 4.508c-1.642-1.132-1.02-2.379-.171-3.491s3.396-4.452 5.145-6.485c7.32-9.075 15.145-17.689 24.568-23.905 5.514-3.684 11.204-7.425 16.871-10.533 5.45-2.996 11.095-5.542 16.888-7.616a125.5 125.5 0 0 0 16.579-8.768l-2.199-1.784-8.53-4.72a3.25 3.25 0 0 0-2.004-.662c-.716.01-1.413.261-1.996.72-3.013 1.756-5.617 4.252-7.606 7.29-2.553 3.792-5.683 7.076-9.253 9.708-5.711 4.374-11.143 9.075-16.854 13.449s-10.697 7.885-16.16 11.76-13.685 8.864-20.275 13.526a56.78 56.78 0 0 0-6.135 4.931c-.395-.372-.641-.898-.687-1.467a2.36 2.36 0 0 1 .443-1.584 118.74 118.74 0 0 1 6.659-10.11c4.948-5.794 10.124-11.454 15.578-16.787 6.005-5.885 12.572-11.044 19.585-15.387 2.607-1.689 5.089-3.127 7.644-5.007 4.793-2.963 9.845-5.386 15.079-7.233 2.936-1.171 6.049-2.399 8.934-3.761.767-.538 1.503-1.128 2.204-1.765l-3.686-2.34c-3.738-2.533-7.013-3.339-11.502-.825s-8.039 6.388-11.868 9.938c-2.748 2.79-5.724 5.301-8.888 7.501-4.634 3.396-9.496 6.657-14.41 9.727-13.921 8.734-28.291 16.575-43.036 23.483-.352.115-.754.038-1.106.154s.138-2.341 1.089-3.07l7.863-6.331c2.98-2.437 6.084-5.123 9.012-7.751 6.97-7.021 14.752-13.008 23.144-17.804 3.577-2.173 7.281-4.083 11.087-5.717 5.947-2.782 11.996-5.18 17.869-7.521a9.1 9.1 0 0 0 2.183-1.132c2.057-.883 4.24-2.015 6.246-3.089 1.326-.624 2.595-1.389 3.786-2.283l-9.945-5.717a1.38 1.38 0 0 0-.763-.305 1.37 1.37 0 0 0-.797.19c-2.358 1.189-5.046 1.861-6.62 3.837-5.051 5.41-11.194 8.883-17.338 12.355l-19.64 10.188c-3.061 1.419-6.225 2.455-9.286 3.875l-28.018 14.6c-.412.307-.871.528-1.355.653-1.217-1.689-.038-2.284.914-3.013s6.135-4.93 9.343-7.233 10.873-7.942 16.438-11.434 14.109-9.42 21.308-13.238c7.702-3.876 15.793-6.736 24.102-8.518 2.637-.863 5.222-1.919 8.335-3.147l-2.024-1.841c-1.152-.413-2.26-.96-3.304-1.631-2.478-2.11-4.763-1.362-7.524-.249s-7.117 4.834-10.448 7.386c-5.806 4.17-11.961 7.723-18.38 10.609l-34.302 15.406c-3.888 1.9-7.799 4.432-11.636 6.523l-4.592 2.13c-.166-.303-.273-.639-.316-.989s-.019-.707.068-1.048a2.72 2.72 0 0 1 .441-.936 2.46 2.46 0 0 1 .742-.672c3.58-3.051 7.057-6.485 10.916-9.209 6.714-4.912 13.583-9.248 20.451-13.584 2.674-1.566 5.429-2.956 8.252-4.163 2.71-1.304 5.244-2.551 8.005-3.664 2.855-1.213 5.772-2.238 8.737-3.07 6.328-2.072 12.707-3.952 19.086-5.832 1.466-.529 2.885-1.204 4.24-2.015l-8.075-4.451-.63-.211c-4.295-3.184-8.059-1.534-11.515 1.267l-1.852 1.65c-5.898 6.262-13.368 10.453-21.441 12.029-5.025 1.228-9.822 2.59-14.949 3.434-7.625 1.663-15.136 3.913-22.477 6.734-4.167 1.573-8.54 2.379-12.81 3.569-.843-.123-1.692-.194-2.542-.211.641-1.145 1.376-2.224 2.195-3.224 5.462-3.875 10.44-8.844 16.79-11.549s17.239-7.732 26.614-9.132a146.45 146.45 0 0 0 15.909-2.706c5.779-1.266 11.404-3.108 17.08-4.758.352-.115.652-.422 1.655-.959-4.389-2.11-7.475-5.065-12.397-3.453a22.31 22.31 0 0 1-10.709 1.42 5.94 5.94 0 0 0-2.937 1.17c-5.488 3.431-11.592 5.501-17.877 6.062-8.145.998-16.188 2.38-24.282 3.569-4.248.556-8.497 1.113-12.694 1.861l-15.227 3.108c-.352.115-.755.039-1.458.269-.059-.736.133-1.472.538-2.066s.995-1.007 1.658-1.157c11.923-4.739 23.31-10.763 35.768-14.217s21.358-4.489 32.143-1.343c1.612.307 3.151 1.055 4.754-.096.436-.135.896-.141 1.334-.019 2.902 1.554 5.611.249 8.826-.595l-1.641-1.132-5.225-3.088a7.09 7.09 0 0 0-4.03-.768c-7.05 1.596-14.268 2.062-21.426 1.381-8.73-1.147-17.379-2.916-25.892-5.295-9.422-2.34-18.72-4.93-28.455-4.872-2.805.052-5.604.341-8.372.863-.038-2.283 1.419-2.552 2.752-2.571 6.739-.537 13.375-1.458 20.042-1.554s16.256.729 24.409 1.189c1.736.058 3.421-.076 4.981.039 4.96.671 9.692 1.208 14.901 1.381a70.98 70.98 0 0 0-7.21-2.647c-11.84-2.801-22.641-8.864-33.392-14.735-4.668-2.436-9.409-4.431-14.128-7.06s-7.094-4.355-10.729-6.503c.343-1.574 1.046-1.804 2.028-1.708 10.983 2.456 21.965 4.911 32.283 9.88a170.27 170.27 0 0 1 28.903 17.248l7.248 4.93 2.572 1.036c-1.753-2.973-3-5.487-4.547-7.693-1.011-1.268-2.261-2.282-3.665-2.974-1.766-.823-3.344-2.059-4.622-3.624s-2.225-3.418-2.776-5.431l-4.61-14.351a149.09 149.09 0 0 0-8.732-22.6c1.252-1.036 2.161-.499 2.996.48 6.55 7.058 12.076 15.17 16.388 24.058 1.783 3.799 2.562 8.135 3.993 12.048a189.84 189.84 0 0 0 6.26 16.941c1.075 2.842 3.053 5.157 5.572 6.523 4.668 2.436 9.263 5.314 13.982 7.942.485.095.964.216 1.436.365l-3.051-5.679-1.29-1.247c-2.84-1.035-5.418-2.778-7.53-5.091s-3.703-5.135-4.646-8.243c-4.19-11.357-7.905-23.079-11.092-34.974-1.542-5.756-3.56-11.147-5.278-16.845l-.411-1.535c1.633-.326 2.469.653 3.305 1.631l2.64 4.144c4.496 7.502 9.343 14.888 13.589 22.888a118.04 118.04 0 0 1 6.539 17.267c2.429 6.926 4.734 14.101 6.863 21.334.605 2.302 1.665 4.428 3.105 6.228s3.226 3.23 5.231 4.189l5.071 2.514-.617-2.303c-2.699-5.794-4.872-11.76-8.575-17.017s-5.686-13.372-6.182-20.931a221.23 221.23 0 0 0-3.449-31.425l-.993-6.562c1.757-.575 2.52.844 3.004 1.938a82.49 82.49 0 0 1 3.698 8.806c2.327 6.542 4.881 13.219 6.856 19.876 1.527 4.394 2.444 9.017 2.719 13.717a119.24 119.24 0 0 0 5.221 28.759c.638 2.332 1.847 4.425 3.497 6.054s3.676 2.734 5.864 3.193l-.515-1.918c-3.432-6.389-4.58-13.526-5.903-20.605a67.04 67.04 0 0 0-2.609-11.876c-1.329-4.667-1.927-9.551-1.767-14.446-.299-8.25.208-16.346.313-24.519l-.196-7.866c.12-.759.382-1.484.768-2.13.381.71 1.239 1.056 1.393 1.631 2.064 9.132 4.781 17.842 6.318 27.147 1.62 9.051 2.297 18.28 2.018 27.512-.224 4.873-.396 9.938-.217 14.887.313 4.978 1.547 9.828 3.628 14.255.387.736.946 1.345 1.621 1.765 4.616 2.245 9.233 4.489 14.149 6.427-.218-2.141-1.089-4.134-2.472-5.659-2.449-2.799-3.905-6.463-4.109-10.341-1.307-9.946-1.953-19.987-1.932-30.044l-.38-9.267.527-.172c.37 1.145.564 2.351.574 3.568.937 9.919.189 19.972 2.056 29.795l1.486 9.113.99 1.554c.024-2.257-.132-4.51-.466-6.734-.449-3.818-1.705-7.79-.924-12.01l.566 2.11 1.691 9.88c2.433-10.187-1.977-42.341-6.237-48.251l.093 7.483c-.09-.046-.187-.072-.287-.075a.68.68 0 0 0-.291.056l-1.271-15.445-.428-4.45c1.509-.077 1.942.824 2.25 1.976l2.476 10.666c1.315 5.622 2.806 11.186 3.894 16.673.967 3.544 1.562 7.2 1.773 10.897.585 10.034.768 19.991.774 30.005.047 3.742 1.572 6.581 2.673 9.977s.836.978 1.466 1.189l6.31 3.569c-1.204-3.78-.899-7.636-4.109-10.341s-3.206-6.255-3.955-9.765c-1.286-6.455-1.646-13.095-1.068-19.684l.814-20.509a48.26 48.26 0 0 0-1.879-16.289l-.008-1.458a1.85 1.85 0 0 1 .937-.096c.315.049.614.179.873.379a2.13 2.13 0 0 1 .616.773c.147.307.225.649.227.997l5.706 21.296c1.444 5.012 2.26 10.22 2.428 15.482a11.52 11.52 0 0 0 .925 3.453c.678-7.153.923-14.344.733-21.526-.393-7.175-.259-14.523-1.809-21.736 1.003-.538 1.809-.384 2.117.767l1.028 3.837c2.403 11.108 5.385 22.236 6.557 33.747l1.28 8.346c1.032-13.277 3.572-26.63 1.834-40.251 1.758-.576 2.293.71 2.426 1.918l2.758 16.001a140.49 140.49 0 0 1 1.922 15.022c.504 9.017.605 17.957.707 26.898a138.79 138.79 0 0 1-.626 18.36c-.729 4.412.664 6.043 4.972 7.137-.091-3.447-.558-6.867-1.391-10.188-1.04-3.184-1.553-6.549-1.516-9.938-.09-4.733.11-9.469.598-14.177a320.85 320.85 0 0 0 1.194-33.364l.226-13.429c1.882-.825 2.366.268 2.55 1.669l3.156 19.626c.714 6.235 1.832 12.547 2.195 18.898s-.079 12.547-.17 18.629l-.168 1.515-3.946 13.814a10.25 10.25 0 0 0-.216 6.331c.07.708.311 1.382.699 1.952s.908 1.015 1.508 1.29l13.095 6.772-.316-2.609-2.065-9.132-.822-3.07c-2.42-4.407-3.765-9.427-3.907-14.58a157.6 157.6 0 0 1-.077-26.687c.246-5.506.088-11.089.106-16.73l-.554-17.765-.333-5.525a1.55 1.55 0 0 1 .763-.242 1.52 1.52 0 0 1 .776.175c.241.127.45.316.608.552s.262.51.3.8c2.717 8.71 5.785 17.305 7.095 26.476l1.323 7.079a114.33 114.33 0 0 1-1.21 30.447c-1.022 6.178-.834 12.585-1.504 18.648s2.189 8.883 2.792 13.276c-.073.441.66 1.036 1.115 1.305l8.881 4.604-.141-2.666-2.176-10.975-.616-2.302c-3.549-4.681-4.161-10.532-4.546-16.25-.461-10.283-.343-20.547-1.031-30.965l-2.113-26.437-.038-2.283c1.985-.441 2.696.787 3.283 2.264l2.622 9.784a157.45 157.45 0 0 1 4.565 24.174l1.29 23.367a104.25 104.25 0 0 1-.976 18.476c-.414 3.207-.067 6.471 1.01 9.477.69 1.861 1.028 3.837 1.593 5.948l19.397 8.882-3.038-7.77-2.005-7.482c-.425-2.206-1.306-4.273-2.575-6.043-2.896-4.267-5.085-9.058-6.471-14.159a95.08 95.08 0 0 1-2.247-19.089l-1.612-22.428-2.648-27.722a2.53 2.53 0 0 1 1.074-.036 2.6 2.6 0 0 1 1.002.418 2.85 2.85 0 0 1 .776.808c.207.323.354.688.431 1.074l4.061 15.156c.617 2.302 1.761 4.432 2.202 6.791l3.071 13.603a3.07 3.07 0 0 0 .815 1.611 38.57 38.57 0 0 0 .104-8.173l-.474-8.192-.577-8.575c1.685-.135 2.169.959 2.477 2.11 2.973 9.669 6.298 19.223 8.744 29.065 2.883 10.448 4.252 21.336 4.058 32.27-.088 4.329.113 8.657.602 12.95a80.67 80.67 0 0 0 1.987 13.123c.544 2.743 2.369 5.276 3.668 7.981l.733.595 9.709 4.124c-1.504-3.472-2.173-5.966-3.368-8.288-1.863-4.221-3.135-8.729-3.774-13.372-2.317-13.64-1.967-27.32-2.775-41.037s-1.158-22.159-4.439-32.979l.322-.94c1.633-.327 2.169.959 2.58 2.494l3.033 11.319 4.485 14.6a135.53 135.53 0 0 1 4.926 25.516 56.73 56.73 0 0 1-1.126 14.351l-1.808 13.947c-.356 3.665 1.272 6.888 2.725 10.168l1.782 3.799c.638 1.141 1.547 2.069 2.632 2.686 5.65 2.533 11.424 4.816 17.198 7.099.227.134.579.019 1.209.23-.589-2.736-1.918-5.21-3.814-7.099-3.489-3.031-4.95-7.77-6.184-12.374-3.661-14.252-6.343-28.79-8.021-43.493l-2.277-19.914-2.184-12.432-.09-2.475c.682-.17 1.395-.051 1.995.334s1.043 1.006 1.237 1.738c3.874 8.748 7.923 17.439 11.27 26.36s2.792 13.276 3.486 20.145c.864 10.36 1.955 20.854 3.17 31.099.921 5.453 2.11 10.846 3.564 16.154.158 1.246.648 2.41 1.41 3.348s1.76 1.609 2.871 1.928c3.1.863 5.95 2.225 8.925 3.338-3.265-7.904-6.479-15.617-9.216-23.694-2.754-7.305-4.559-15.002-5.363-22.868-1.135-9.229-1.69-18.437-3.176-27.55s-2.852-14.927-4.33-22.581l-.771-2.878c.704.161 1.358.517 1.898 1.034s.949 1.179 1.188 1.92l5.313 14.121 5.254 12.47 1.533 4.298c2.954 9.942 4.936 20.206 5.911 30.619.141 4.921-.007 9.849-.445 14.754-.259 4.828.509 9.648 2.244 14.081 1.842 5.449 5.859 8.308 11.478 10.015-1.182-4.412-2.034-8.307-3.29-12.278-2.461-6.789-4.05-13.923-4.724-21.2-.959-9.286-1.69-18.437-3-27.608s-2.003-16.038-5.342-23.502c1.604-1.151 2.388-.364 3.151 1.056l7.829 18.513.462 1.727c1.975 6.657 2.1 6.408 8.444 7.252 2.418.461 5.011.863 7.305 1.573s9.803 3.051 14.742 4.355 6.044 1.151 8.865 1.689l24.485 5.755 17.708 4.01c.802.286 1.675.224 2.44-.173l-5.701-2.724c-8.325-3.952-16.773-7.655-24.798-11.914-16.73-8.921-33.687-17.977-48.8-30.14-7.557-6.082-15.135-11.53-22.391-17.919-4.682-4.47-9.143-9.209-13.364-14.197l-.66-1.036c.797-1.305 1.479-.902 2.388-.365l10.025 6.734c1.869 1.267 3.987 2.034 5.804 3.108l23.97 12.394c8.149 4.01 12.963 5.564 19.47 8.441 1.941.825 3.81 2.092 5.803 3.108 5.628 3.166 11.329 5.89 16.782 9.113s8.838 5.871 13.133 9.056l13.991 9.4c.506.461 1.26.422 2.066.576 3.497 4.489 8.465 6.619 12.636 10.053l.373-.748-12.958-9.113M317.61 316.85l-1.456-8.288.181-3.607-.072-8.115a79.16 79.16 0 0 1 2.052 11.223 42.21 42.21 0 0 0 1.983 8.116 120.58 120.58 0 0 0 .036-11.281c-.081-3.197-.36-6.382-.834-9.535-.243-3.051-.311-6.159-3.865-7.291l1.998-2.532c-2.039-4.758-3.2-9.804-5.943-14.331l-.065 1.899a262.62 262.62 0 0 1 3.728 31.752c.088 1.273.358 2.523.801 3.702-.152 2.857.348 5.705 1.456 8.288l.368 2.801c.09.046.188.072.287.075s.199-.015.292-.055l-.771-2.878M176.551 449.018c-1.487-.557-1.487-.557-2.915.537a14.9 14.9 0 0 0 2.915-.537c3.246-.019 6.542.153 9.788.134s.9-.921 1.324-1.477l-.205-.768-10.907 2.111zm296.309-42.976l-2.066-.576 3.761 15.464.878-.288-1.131-4.221-1.258-8.979 3.398 9.113.877-13.851c-1.955 1.266-4.095 1.132-4.635 3.395m-334.2-183.352a19.75 19.75 0 0 0 .326-4.489c-.325-4.067-.598-7.943-1.275-11.895l-3.25-18.552-1.586-4.489c-.588.805-.926 1.793-.965 2.82-.112 6.715-.577 13.545-.287 20.336.021 4.403.613 8.777 1.76 12.989 1.079 4.029 1.808 8.173 2.536 12.317l1.388 5.18c.338-4.763.209-9.548-.384-14.274s-.721-9.511-.383-14.274a96.62 96.62 0 0 1 1.391 10.187l1.08 4.029-.262 2.59c.176-.057.403.077.579.019l-.668-2.494zm-77.785-4.163l7.583 1.9a24.47 24.47 0 0 1 4.235 1.534c-12.027-9.208-36.662-19.089-43.774-17.803l2.323 1.535 6.383 3.127 12.259 5.794 1.59.94 2.653 2.052 8.882 4.605c5.105 2.476 10.51 4.148 16.053 4.969-4.441-2.302-8.779-4.221-13.117-6.139-1.742-.708-3.437-1.548-5.071-2.514zm7.623 17.747c1.963.192 3.824 0 5.787.192s9.568 1.458 14.301 1.995c1.333-.019 2.821.537 4.021-.691-9.709-4.125-52.046-8-57.589-5.141l8.989 1.439 22.244 5.237c8.1 1.98 16.412 2.768 24.718 2.341a4.77 4.77 0 0 1 1.633-.327c-5.92-1.4-11.737-2.417-17.554-3.434-2.21-.403-4.397-.941-6.55-1.611zm153.729 16.441l.676 3.952c.201 4.317.277 8.883.705 13.334l1.816 9.631c2.318-17.037-2.647-58.4-7.426-62.678l.141 2.666 1.26 22.543.758 27.09c.041 4.081 1.108 8.064 3.085 11.511l-.017-2.916-1.698-19.895c-.201-.898-.227-1.834-.076-2.746a7.03 7.03 0 0 1 .951-2.55m-103.23 33.594c1.355-.652 2.483-1.439 3.837-2.091l12.721-6.043 2.607-1.689-.206-.767a118.91 118.91 0 0 0-13.453 5.448c-8.128 3.995-15.943 8.718-23.366 14.121-5.06 3.952-10.449 7.386-15.787 11.012l-1.201 1.228c1.057.033 2.105-.239 3.04-.787 4.313-2.455 8.626-4.911 13.042-6.983 7.301-3.434 14.881-6.542 22.028-10.552s9.908-5.123 14.873-8 5.989-4.048 9.072-6.101c-.494-.17-1.029-.143-1.509.077l-21.728 10.245c-1.23.402-2.563.422-3.794.825l-.176.057zm72.341 24.518l2.731-1.937-.103-.384-2.452 2.264c-.903.191-1.786.48-2.637.863l-12.579 8.71a172.8 172.8 0 0 0-17.96 13.603c-4.129 3.856-8.485 7.578-12.79 11.492s-5.484 4.508-7.804 7.981l1.406-.461c5.214-3.376 10.376-6.945 15.641-10.129 7.862-4.623 15.401-9.882 22.552-15.732 3.755-3.108 7.233-6.543 10.937-9.842l1.874-2.283c-7.799 4.431-13.896 11.645-21.849 15.501 3.405-2.993 6.912-5.602 10.368-8.403s8.661-7.636 12.841-11.3m109.976-24.116l.351-.115 5.739 27.128c1.612-21.814-4.964-41.364-14.002-60.108a2.4 2.4 0 0 0-.168 1.516l3.665 25.094c1.083 9.036 1.587 18.053 4.252 26.572l4.375 12.758.703-.23-.677-3.952-3.434-19.953a70.65 70.65 0 0 1-.804-8.71zm-203.09-74.361l-.051-.192 1.722 2.148a96.43 96.43 0 0 0 5.061 9.612l6.446 9.785.879-.288-2.532-7.31-6.577-19.549c-3.706-10.265-10.092-18.399-16.032-27.723.133 1.209.111 1.842.39 2.168l2.562 8.134 5.192 19.378a106.45 106.45 0 0 0 7.764 20.413c1.355 2.581 3.44 4.606 5.945 5.774l.248-.498-1.144-2.13a116.96 116.96 0 0 1-9.762-17.881l-.463-1.726m-10.699 38.562a36.37 36.37 0 0 0 4.343-1.631 10.66 10.66 0 0 0-4.887-1.112c-9.598-.002-19.128 1.917-28.119 5.659l-19.048 8.116c-.527.172-.776.671-1.501 1.534a17.93 17.93 0 0 1 2.615-.23c3.494-.518 7.112-1.285 10.782-1.861l18.121-3.012c6.006-1.132 9.024-1.285 13.346-2.283s9.646-2.533 14.495-3.703c.558-.281 1.035-.726 1.376-1.285a27.82 27.82 0 0 0-4 .057c-2.439.173-4.93.154-7.545.384l-.154-.575m197.456 30.503l1.859 8.365 3.272 17.919.617 2.302c.179-.206.305-.461.366-.737a1.75 1.75 0 0 0-.023-.836l-1.839-22.562c-.688-10.417-2.131-20.796-7.265-29.967l-.36-1.343-5.656-12.547a9.83 9.83 0 0 0 .098 3.933l1.413 9.554a373.02 373.02 0 0 0 5.638 40.308c.492 2.552 1.512 4.931 1.829 7.54.663 6.044 3.384 11.204 5.403 16.595l.938 1.362a45.64 45.64 0 0 0-1.683-8.422c-1.074-3.757-1.968-7.574-2.681-11.434-.81-5.161-1.216-10.245-1.85-15.464l-.076-4.566zm196.266 68.875l-1.774-2.341c.132 1.209.192 2.859 1.723 2.149a36.12 36.12 0 0 0 3.278 5.813l13.342 14.83 6.451 6.235 14.68 11.262 17.994 14.35 4.574 3.511.424-.556-19.93-18.725c8 5.907 15.618 12.406 22.802 19.454l-.66-1.036c-4.354-4.835-8.833-9.42-13.312-14.005-5.858-6.264-12.085-12.102-18.641-17.478l-19.181-15.214c-3.664-2.973-7.805-5.583-11.77-8.249zm-179.108-11.261c-.559-.25-1.093-.565-1.59-.941-7.818-3.491-15.264-7.731-23.602-9.592-.402-.077-.733-.595-1.187-.863l-9.233-4.49c-4.111-1.784-8.046-3.626-12.032-5.659s-4.998-2.955-7.621-4.183-11.981-5.467-17.785-8.575l-32.5-17.113c-.967-.226-1.956-.323-2.945-.288l-2.756-2.437c-.06.141-.168.251-.3.307l3.056 2.13 28.441 15.52 17.132 8.998 20.314 10.878c6.382 3.127 12.516 6.753 18.95 10.072l19.272 9.133 19.573 8.825c1.766.882 4.081.959 5.349 2.839l.909.537c4.389 2.111 8.603 4.279 12.941 6.197 2.871 1.461 5.959 2.357 9.122 2.648l-2.451-6.293c-.873-1.681-2.302-2.93-3.995-3.492l-9.203-3.664c-7.313-3.031-14.574-5.871-22.012-8.653-1.941-.825-3.956-1.208-5.847-1.841zm18.389 35.089c-.11-.31-.159-.642-.145-.975s.091-.659.227-.959.326-.565.56-.781.506-.375.799-.47c1.927-1.152 3.397-3.047 4.121-5.314l-9.205 4.892 3.643 3.607 21.662 22.332 20.422 21.276 5.294 6.197c-.082-1.017-.815-1.612-1.247-2.513l-1.526-2.84c-5.685-9.953-10.002-20.773-12.812-32.116l-4.781-17.842c-.153-.768-.493-1.476-.983-2.05a3.95 3.95 0 0 0-1.803-1.211 63.22 63.22 0 0 1-9.679-3.3c-.66-.437-1.437-.62-2.206-.519s-1.488.479-2.042 1.075c-.91.717-1.641 1.674-2.122 2.782-1.771 3.896-4.725 7.004-8.353 8.787m182.214-163.382l-.257-.959 8.276-13.353 12.659-21.258 2.114-4.24 2.577-2.513-.103-.384-2.298 2.84c-6.202 6.67-11.65 14.13-16.226 22.216-5.407 9.075-11.144 17.632-16.83 26.38l-18.932 28.529a243.09 243.09 0 0 0-14.37 25.574c-3.907 7.539-8.496 14.676-12.63 22.082-1.424 1.967-2.379 4.288-2.778 6.753a24.85 24.85 0 0 1 1.8-1.842c4.524-5.237 9.15-10.091 13.623-15.521s5.994-7.597 8.738-11.626l20.146-31.847 7.5-12.682 10.463-18.034 14.906-24.289c2.642-4.412 4.829-9.093 7.243-13.64l2.041-3.799a18.07 18.07 0 0 0-4.223 4.931l-14.481 23.732c-2.817 4.47-5.913 8.614-8.958 12.95zm-48.041-33.728c-.154-.575-.484-1.093-.235-1.592l4.721-28.049 3.647-22.063 1.116-7.252c-1.111 1.775-1.942 3.74-2.457 5.813l-2.171 7.598-6.563 22.6-3.419 13.641-6.629 33.056c-2 11.089-2.1 15.712-3.061 23.54l-3.336 28.221a435.31 435.31 0 0 0-1.907 40.692l.419 2.993c.668-1.307.999-2.786.957-4.278a144.75 144.75 0 0 1 3.045-26.456l6.646-30.141 3.016-13.717c.935-3.645 2.449-7.271 3.157-11.051 2.154-10.513 4.659-21.142 6.41-31.732s2.821-21.583 4.294-32.5l-.06-1.65c-.774 1.227-1.314 2.611-1.587 4.068l-3.468 18.456a85.08 85.08 0 0 1-2.711 9.861m109.274 130.958c1.106-.154 2.161-.499 3.267-.652 6.717.095 13.611.134 20.452-.02 1.128.009 2.255-.081 3.37-.268-.818-.659-1.785-1.063-2.799-1.171-6.872-.671-13.568-1.4-20.285-1.496a304.72 304.72 0 0 0-33.982.902c-5.003.595-9.86.307-14.863.902l-19.609 2.455-24.106 3.511c-3.845.633-7.939 1.766-11.909 2.648s-7.64 1.458-11.661 2.149l-3.845.633.205.767 4.206.71c6.014.326 12.08.844 18.146 1.362s8.783.672 13.362.633l34.882-1.822c7.897-.499 15.639-1.574 23.609-2.514 1.684-.134 3.267-.652 4.776-.729l32.529-4.182c2.212-.307 4.446-1.247 6.782-1.804l-.205-.767c-2.667.038-5.56-.058-8.278-.211s-9.406.575-14.168-.787l.124-.249zM408.117 187.254l-.351.115-.668-2.494-.599-7.943-2.748-23.099-2.91-25.133-.785-.786-.283 3.223c-.456 8.288-1.088 16.634-1.192 24.806a175.19 175.19 0 0 0 .343 20.548c.466 6.734 1.335 13.545 2.204 20.355s1.443 10.38 2.655 15.617l7.651 27.128 8.937 31.924c1.079 4.029 2.51 7.943 3.941 11.857a171.42 171.42 0 0 0-1.578-16.596l-3.159-24.633c-.878-8.269-.367-11.358-.803-17.267-.985-16.995-3.083-33.883-6.275-50.534l-6.498-32.097-1.902-7.098a2.31 2.31 0 0 0-.436.952c-.073.351-.066.716.02 1.062l1.931 16.48 1.92 23.579.585 10.034zm-38.087 61.93c-1.578-.663-3.051-1.588-4.368-2.744-4.552-4.144-9.031-8.729-13.758-12.815-6.174-5.739-12.078-11.816-17.689-18.207l-13.672-15.348c-.105.751-.032 1.517.214 2.225 4.049 6.762 8.577 13.164 13.543 19.147 3.497 4.489 7.419 8.422 11.04 12.662l3.043 4.221c1.672 1.957 3.643 3.607 5.263 5.372 4.428 4.393 8.555 9.094 12.931 13.295l20.861 18.629 10.643 9.036c7.102 5.813 14.504 11.319 21.958 17.017 1.466 1.19 3.232 2.072 4.874 3.204-.944-1.976-2.197-3.755-3.703-5.256l-21.532-26.131c-5.345-6.388-10.389-13.084-15.858-19.223a378.19 378.19 0 0 0-16.78-17.67c-5.718-5.64-7.968-7.616-12.138-11.05l-21.534-17.574-8.95-7.712c.343 1.208.964 2.298 1.804 3.165 4.355 4.835 8.585 9.919 13.343 14.83 7.77 8.307 15.841 16.308 23.787 24.557l6.554 6.619.124-.249zm-46.757-20.375l-.352.115.373-.748c3.091-.595 6.182-1.189 9.148-1.535s1.912 0 3.246-.019l-2.713-3.703c-1.775-2.34-3.725-4.623-5.375-7.213-.748-1.416-1.896-2.527-3.274-3.167a6.4 6.4 0 0 0-4.368-.383c-3.67.576-7.237 1.535-11.031 2.36-.93.096-1.809.384-2.739.48l-.206-.768 16.977-5.141-5.134-9.171c-1.577-3.031-4.033-5.774-5.164-9.995 1.013.302 2.006.673 2.975 1.113l5.864 4.757 13.12 11.147c-3.293-4.79-6.874-9.334-10.719-13.602-.99-1.15-2.208-2.036-3.562-2.59-4.446-2.138-9.29-3.123-14.155-2.878-3.373.374-6.722.982-10.027 1.823 3.419-2.419 7.419-3.656 11.476-3.55 4.004.354 7.987.93 11.935 1.727-.052-.192.073-.441-.155-.576a80.64 80.64 0 0 1-8.082-14.465c-.889-1.985-2.215-3.695-3.859-4.977s-3.557-2.097-5.566-2.371l-6.572-.979c-2.945-.287-6.014-.326-8.959-.613 6.43-1.689 13.002-.71 19.573.268l-.771-2.878c-2.091-4.95-4.058-10.149-6.5-14.983-.966-2.288-2.481-4.243-4.385-5.66-5.43-3.856-11.818-3.434-18.132-3.453l1.21 13.794c6.204-1.111 12.558-.217 18.279 2.571a10.76 10.76 0 0 1-3.751-.442c-3.94-1.145-8.092-1.152-12.05-.019-1.582.518-2.534 1.247-2.372 3.281l-.469 10.379c.017 2.916.561 5.66.753 8.518 3.97-.882 7.185-1.726 10.503-2.187s6.637-.921 9.766.768c-1.809.383-3.597.134-5.23.46l-10.731 2.053c-3.618.767-1.955 1.266-3.31 1.919l2.267 4.892c2.824 5.544 7.2 9.746 11.152 14.504l-.051-.192 1.482 4.106c6.636-.921 12.788-2.936 18.914-.768-1.171.227-2.358.336-3.546.326a70.01 70.01 0 0 0-11.009 1.727c-5.376 1.343-6.259 5.18-3.311 10.475 1.941 3.634 4.916 6.469 8.474 8.077 1.766.882 3.356 1.823 5.071 2.513 8.553-4.47 12.698-5.41 16.23-3.645-10.781 1.861-10.781 1.861-13.226 5.583l13.215 10.072c4.418-1.462 9.021-2.123 13.624-1.957-3.434 2.168-7.691 1.266-11.322 4.125l4.616 2.245c1.187.863 2.25 1.976 3.386 2.647s5.672 1.9 8.544 2.629 5.92 1.4 8.967 2.072l.198-.691-11.595-8.307.249-.499 7.746 3.933-8.74-10.494c-1.04-1.171-2.311-2.065-3.717-2.617s-2.911-.746-4.401-.568c-2.842.096-5.809.441-8.827.595m116.933 93.182a1.35 1.35 0 0 1-.982-.096c-5.503-3.415-11.183-6.772-17.579-7.808s-8.183-1.286-12.286-1.612-3.039.787-4.424.614c-5.607-.435-11.246.348-16.591 2.302-8.561 3.012-16.381 8.077-25.23 9.305a24.33 24.33 0 0 0 11.699.135c3.391-.902 6.937-1.228 10.379-1.938s10.225-2.514 15.374-3.991c8.384-2.566 17.316-1.707 25.12 2.417 5.474 2.59 10.202 6.677 15.354 10.207 1.41 1.053 2.745 2.22 3.995 3.492l-.425.556-3.056-2.13-12.246-7.885c-7.248-4.93-15.505-5.774-23.804-5.352-2.365-.094-4.713.53-6.782 1.803 2.542.211 5.105-.211 7.472.058 8.362.749 16.384 3.877 23.272 9.074 8.692 6.753 15.481 14.965 18.99 25.92 1.563 5.122 2.549 10.225 3.885 15.213l5.912 22.063c.989 3.296 2.404 6.416 4.204 9.267 4.377-4.355 2.989-9.535 2.81-14.485 2.619 4.777 1.816 9.631-.092 14.638 1.17-.622 2.204-1.514 3.032-2.614a10.24 10.24 0 0 0 1.761-3.755c.87-3.638.9-7.449.088-11.089l-4.434-14.408-1.71-4.24c5.259 8.921 9.162 18.494 7.844 29.986 1.31-1.093 2.517-2.327 3.602-3.683 1.295-2.303 3.241-5.027 3.503-7.617.829-9.036-.378-17.823-5.979-25.171l-11.255-14.888-1.774-2.34c.889.11 1.703.591 2.272 1.343l10.667 13.41c6.407 7.502 7.945 16.806 8.076 26.572-.023 2.802-.912 5.52-2.522 7.712-1.522 2.168-3.448 4.259-5.021 6.235l-2.299 2.84c3.595-1.443 6.712-4.042 8.939-7.454s3.458-7.477 3.531-11.655l-.864-10.36-.398-3.626c.24-.11.507-.123.755-.038 1.718 5.698 1.626 11.78 2.114 17.881 2.28-7.716 1.947-16.053-.939-23.483-4.22-12.183-12.723-21.085-21.651-29.43s-14.848-9.746-22.873-14.005l-.351.115.938 1.362-.021.633zM317.065 159.263l-.351.115c1.429-9.65 5.76-17.746 10.97-26.13-1.835-6.992-5.126-13.414-9.616-18.764-5.359 4.26-7.435 10.783-10.471 16.577 1.63-6.812 4.637-13.146 8.8-18.533-4.098-3.876-10.01-3.818-14.159-7.885l-6.102 10.762a16.01 16.01 0 0 1 1.206-4.777l2.706-6.312c.197-.69.922-1.554.592-2.072l-3.617-7.789c-2.298 2.839-1.021 6.178-2.338 9.113-.78-2.045-.985-4.302-.59-6.484.519-1.631 1.316-2.935 2.011-4.624s-1.915-5.007-4.414-6.485c-2.29 4.297-1.408 9.017-3.346 13.199l-.007-10.015c-1.698 2.225-3.932 3.166-3.336 6.101s-.819 1.938-1.171 2.053-2.174 2.59-3.55 3.875c2.235 1.822 3.957 4.294 4.971 7.137-2.623-1.228-3.094-4.413-5.936-4.317-1.682 5.142-4.799 9.919-4.239 15.579 4.265 2.36 9.247 2.398 13.014 5.755-4.308-1.093-8.47-3.069-13.422-2.283l1.233 13.162c7.317-.519 14.211-.48 20.726 3.856l-2.159-8.058-.171-3.492 3.317 8.096c.128-7.709 2.383-15.212 6.468-21.526a16.07 16.07 0 0 1-1.359 4.202c-3.171 6.58-3.929 14.22-2.118 21.353a136.07 136.07 0 0 0 3.715 11.722l4.387 10.667c-.734-14.158-.005-18.571 4.129-25.977.176-.057.403.077.579.02l-1.536 4.259c-1.662 4.228-2.513 8.78-2.5 13.371s.89 9.124 2.577 13.315c1.266 3.105 2.712 6.116 4.328 9.017 2.39 4.379 5.269 8.413 8.571 12.011-1.512-4.931-3.024-9.862-2.676-14.984s2.819-13.027 4.62-14.869a18.81 18.81 0 0 0-1.008 4.087c-1.025 4.017-1.651 8.14-1.868 12.297.021 4.698 1.251 9.286 3.547 13.238l6.227 11.108c1.878 2.861 3.999 5.521 6.335 7.943-.976-7.277-.762-14.695.63-21.909.558-3.821-.02-7.729-1.649-11.147l-1.028-3.837c2.61 3.319 6.779 15.31 6.877 19.243l-3.197-4.797-.718 10.878c-.536 4.789.193 9.635 2.099 13.967s4.91 7.966 8.657 10.475l4.573 3.511 2.044 1.209c-3.989-7.041-4.855-8.844-4.872-11.761 4.77 9.128 10.732 17.439 17.701 24.672.175-.057.3-.306.476-.364l-12.865-23.751c-.352.115-.476.364-.828.479l4.204 9.267c-.806-.154-.981-.096-1.033-.288-3.302-3.389-5.298-8.031-5.583-12.988l-.617-2.303c-1.959-3.741-4.217-7.175-5.172-11.453a9.14 9.14 0 0 0-1.093-1.938l-.527.173-1.04 11.818a45.25 45.25 0 0 1-.465-15.291c.329-1.151.269-2.391-.17-3.491l-6.226-19.665c-.417-1.146-.964-2.228-1.628-3.223-1.944 2.964-3.32 6.326-4.044 9.88a113.04 113.04 0 0 0-2.03 10.264c-.635-7.605 1.008-15.247 4.681-21.775-3.849-4.374-5.288-9.746-6.727-15.118-1.073 5.986 2.373 10.283 4.266 15.924l-1.714-.691c-4.766-6.37-5.159-13.545-3.743-21.104.415-2.249.127-4.58-.818-6.619l-3.117 4.778c-3.145 5.819-5.724 11.979-7.694 18.379m99.028 266.828l3.378 1.189c9.079 3.914 18.304 6.945 28.125 4.355 5.203-1.032 9.835-4.274 12.88-9.017-5.081 4.585-10.89 5.027-16.904 4.701-1.377-.234-2.739-.554-4.081-.96 1.195-.141 2.397-.186 3.597-.134 4.6.124 9.157-1.08 13.212-3.492l2.98-2.436c-2.812.921-4.87 1.803-7.155 2.551-4.306 1.006-8.755.967-13.032-.115-6.488-1.268-12.743-3.658-18.531-7.079l-1.869-1.266a4.94 4.94 0 0 1 2.697.786c5.092 1.881 10.287 4.144 15.504 5.775 5.119 1.514 10.528 1.474 15.647-.115 3.024-.822 5.742-2.661 7.769-5.257.973-1.362 2.071-2.974 1.33-5.026-9.291 7.424-14.667 8.767-20.522 5.467 3.648.058 6.974 1.056 10.16-.614 3.213-1.374 6.101-3.533 8.442-6.311-2.843.095-5.501 1.592-8.527.287 2.409-.997 5.054-.403 6.701-2.82l-2.953-1.746-11.681-5.774-8.5-3.895c-5.071-2.513-10.069-5.468-15.213-7.54a134.13 134.13 0 0 0-25.124-7.424c-4.66-.979-9.195-2.207-14.712-3.53 2.478 2.11 4.149 4.067 6.069 5.525 15.333 10.839 30.467 22.37 49.055 26.092a24.01 24.01 0 0 1-6.696-.729c-6.378-1.779-12.533-4.387-18.334-7.77-12.438-6.897-24.158-15.232-34.959-24.864-3.768-3.358-7.835-6.408-11.778-9.708a4.68 4.68 0 0 0-2.169-.959c5.682 8.364 10.362 17.266 17.846 23.789-1.04-.189-2.019-.657-2.851-1.362-3.279-3.316-6.39-6.825-9.318-10.513-4.197-6.036-9.005-11.532-14.332-16.384a24.51 24.51 0 0 0-4.646-3.07c.016.452.115.895.29 1.303s.423.775.729 1.076c3.369 3.633 5.88 8.109 7.32 13.046 1.997 6.024 4.293 11.741 6.817 17.593s7.298 13.679 13.213 18.629l4.882 4.662c-.703.23-1.106.153-1.385-.173-4.703-3.141-8.794-7.26-12.044-12.125-4.313-6.614-7.845-13.801-10.511-21.392l-4.542-11.242c-1.201-2.76-2.961-5.18-5.147-7.079l5.646 19.645 2.828 10.552c2.643 9.151 8.141 16.116 13.516 23.329 3.094 4.413 6.613 8.269 10.007 12.375-.681-.403-1.487-.557-2.044-1.209l-12.867-15.195-2.228-2.609 3.081 6.504c2.853 6.058 6.646 11.523 11.211 16.154 1.29 1.247 2.654 2.053 3.708 1.707.871 1.489 1.938 2.827 3.167 3.972 3.489 3.031 7.103 5.813 10.716 8.595 5.745 4.334 12.325 7.175 19.242 8.307 6.2.746 12.432 1.143 18.674 1.189 2.315.077 4.702-.288 7.141-.46s.476-.365.777-.672l-2.294-.71c5.018-.57 9.921-2.034 14.516-4.335 4.613-2.763 8.648-5.545 11.736-11.147-.828.479-1.179.595-1.304.844-6.581 6.12-14.418 8.269-22.615 9.075-6.082.699-12.222.086-18.073-1.804-3.956-1.208-8.337-1.861-11.775-4.7l-.051-.192a40.5 40.5 0 0 1 4.359 1.286 66.61 66.61 0 0 0 18.009 3.702c8.029.71 15.411-1.707 22.691-4.508a37.14 37.14 0 0 0 5.338-3.626c-2.388.364-4.167 1.573-6.328 2.072s-4.013 2.148-7.215.901a30.87 30.87 0 0 0 4.343-1.63c2.823-1.207 5.579-2.597 8.253-4.164 4.313-2.455 5.299-5.909 4.036-11.338l-3.499 4.067c-2.806 3.061-6.361 5.168-10.23 6.063-12.085 2.705-22.973-.825-33.672-6.504l-.102-.384m-88.377 61.911c-2.183 3.379-3.695 7.215-4.44 11.262-.583 3.53.201 4.317 3.519 3.856s7.845-.69 11.794-.94c2.277.112 4.433 1.132 6.06 2.867s2.614 4.066 2.773 6.553c.092 4.677-.903 9.311-2.892 13.468-4.093 8.861-7.102 18.266-8.947 27.972a55.96 55.96 0 0 0-1.456 13.833c.899 7.985 2.797 15.79 5.641 23.195 1.115 2.97 1.884 6.082 2.292 9.266.52 4.938 1.321 9.833 2.398 14.658a4.35 4.35 0 0 0 .939 2.199c.504.614 1.165 1.051 1.898 1.254 2.242.518 7.713-1.899 8.656-4.086a170.82 170.82 0 0 0 6.48-15.061c1.006-2.905 1.542-5.975 1.584-9.074.391-6.389.431-12.663.522-18.744-.136-3.42-.097-6.847.118-10.265.837-7.578 2.077-15.079 5.611-21.871 1.295-2.302 2.136-4.873 3.255-7.117a10.76 10.76 0 0 1 1.42-2.552c2.671-3.588 5.565-3.492 7.802.575l4.701 8.269c1.05 1.757 2.369 3.301 3.9 4.566.931.869 2.104 1.37 3.331 1.422s2.437-.347 3.438-1.134c2.806-2.398 5.266-5.244 7.298-8.441 1.023-1.415 1.754-3.053 2.144-4.802s.428-3.567.113-5.328c-.427-3.452-.657-6.932-.689-10.418.16-2.974.773-5.679.984-8.46-3.292-3.722-6.884-7.137-9.824-10.974-3.068-3.885-5.54-8.29-7.319-13.046l7.89 11.607c2.827 3.756 6.152 7.027 9.866 9.707 6.151-15.578 3.898-31.118 3.507-46.85-6.85-1.305-12.705-4.604-18.561-7.904-1.514 3.626-2.149 6.964-.645 10.437 2.098 4.496 4.528 8.795 7.269 12.854 1.598 2.398 2.896 5.103 4.371 7.75-5.937-7.122-10.966-15.091-14.953-23.693l-3.842 5.64c-2.92 3.813-4.979 8.321-6.009 13.155s-1.003 9.859.079 14.664c1.527 6.093 4.401 11.673 8.37 16.25l2.31 3.626c-4.609-3.724-8.201-8.749-10.398-14.543-2.423-5.577-3.546-11.732-3.271-17.919-1.669 3.051-3.337 6.101-4.778 9.286s-2.054 5.89-3.474 8.442c-.619 1.086-1.004 2.31-1.128 3.58a9.13 9.13 0 0 0 .415 3.748c.668 2.494 1.864 4.816 2.76 7.444l.925 3.454-6.197-10.284c-4.182 12.221-5.522 24.346-2.583 36.74.39 1.298.363 2.706-.078 3.99-1.155-3.017-2.057-6.144-2.695-9.343-.405-2.965-.632-5.958-.68-8.959-3.26 10.667-6.065 21.602-2.981 33.113-.311-.066-.634-.033-.93.096l-1.697-6.331a98.88 98.88 0 0 0-2.921 12.643l-.262 2.59c.063 6.658 2.27 9.9 7.868 12.241l1.539.748c-4.703.288-7.862-2.226-10.202-6.677-2.184 9.689-.471 18.936.612 27.972-2.074-2.033-1.387-5.18-2.737-8.077l-1.138 7.886a264.5 264.5 0 0 1 3.507-46.851l-3.439 5.717-3.088 5.602-.681-.402c.273-.698.606-1.366.995-1.996 1.879-3.52 3.588-7.144 5.12-10.859 2.303-6.388 3.977-12.988 5.825-19.645l7.885-29.085.717-2.322-.455-.268-8.455 8.403-.557-.652 2.752-2.571c3.265-3.212 6.069-6.945 8.315-11.07l5.42-11.166 2.29-4.297c-1.085-.474-2.253-.688-3.424-.629s-2.319.392-3.366.974l-19.237 10.264c-2.834 1.554-5.72 2.917-8.429 4.221l-.206-.767c1.655-.96 3.31-1.919 4.841-2.629 4.789-2.82 9.732-5.065 14.066-8.154a76.5 76.5 0 0 1 9.93-5.755c.779-.428 1.626-.684 2.494-.753a6.06 6.06 0 0 1 2.56.35l2.191.326c2.451-3.69 4.529-7.66 6.197-11.837-8.253 4.163-17.102 5.391-25.672 6.945a42.43 42.43 0 0 1 8.262-2.705c6.494-1.391 12.711-4.063 18.345-7.885 3.833-2.869 6.938-6.76 9.017-11.3l.892-2.379c.219-1.324-.287-1.785-1.217-1.689-4.172 5.123-8.674 9.727-15.31 10.648 5.688-2.44 10.487-6.874 13.639-12.605l-8.466-6.619c-2.028 1.708-3.528 3.243-5.256 4.643a33.25 33.25 0 0 1-5.668 3.108c-7.463 3.343-14.195 8.394-19.74 14.811-2.95 3.262-5.518 7.233-8.696 10.36s-8.014 10.763-11.856 16.404c-.403.702-.649 1.497-.716 2.321l-.051-.192zm82.854-126.047l.425-.556c.093-.04.192-.059.291-.056s.197.029.287.075l20.742 15.329c2.931 2.379 5.966 5.141 8.825 7.962l12.374 12.643 3.994 3.491c.135-.154.297-.278.476-.364l-5.321-15.578-.712-1.228c-3.438-4.906-7.389-9.355-11.773-13.257-5.346-5.224-11.241-9.738-17.561-13.449l-1.341-1.439c11.137 5.872 21.27 13.773 29.969 23.368.253-1.092.212-2.238-.119-3.3a32.48 32.48 0 0 1-1.367-5.813c-.38-2.612-1.24-5.11-2.528-7.342s-2.978-4.153-4.967-5.647c-.812-.707-1.543-1.518-2.177-2.417l.351-.115c1.869 1.266 3.789 2.724 6.288 4.201-1.912-6.121-4.978-11.728-8.999-16.461-3.542-4.145-7.592-7.735-12.036-10.666-6.59-4.397-14.158-6.751-21.9-6.811-7.265.278-14.502 1.182-21.645 2.705-6.585 1.113-13.418 2.724-20.32 1.228-2.327-.158-4.664-.023-6.966.403-2.092.42-4.213.626-6.336.614-2.264.115-4.63-.154-6.945-.23l.206.767c4.012 1.036 8.096 1.723 12.212 2.053 8.909.422 18.014.153 26.995.134 8.853-.4 17.702.641 26.256 3.089a4.92 4.92 0 0 1 2.109.606c.656.36 1.236.866 1.702 1.485l-2.066-.576a89.13 89.13 0 0 0-25.151-3.242l-24.701.576c-8.226-.019-11.955-1.094-17.618-1.535 6.093 5.521 13.466 9.098 21.316 10.341 8.471 1.43 16.808 3.657 24.919 6.657 2.747.978 5.546 2.149 8.17 3.377-4.673-1.071-9.271-2.494-13.76-4.26a16.98 16.98 0 0 0-2.872-.729l-19.445-4.067c-5.332-.959-10.437-3.044-15.028-6.139l-4.523-3.319c2.088 3.843 4.637 7.359 7.582 10.456l7.873 8.691c-.249.138-.457.351-.6.614l-13.261-13.814c1.154 4.007 3.053 7.706 5.577 10.865s5.619 5.71 9.094 7.496c4.284 2.127 8.368 4.703 12.194 7.693 8.847 7.329 19.229 10.398 29.758 12.585 1.007.049 2.017-.002 3.018-.153l-7.094-4.355-6.516-4.336c-1.92-1.458-4.265-2.36-5.636-4.624.945.345 1.844.822 2.675 1.42 8.022 5.549 16.514 10.245 25.362 14.024 4.968 2.13 9.885 4.067 14.729 6.446 8.324 3.953 16.524 8.154 24.724 12.356 1.688.869 3.423 1.626 5.196 2.264-13.497-15.406-27.564-29.373-44.178-40.001m-59.902-35.896c-1.136-.671-2.396-1.093-3.356-1.822s-.66-1.036-.99-1.554 1.127-.787 1.706-.768l9.487.441c5.039.4 10.1-.541 14.751-2.743l14.757-6.293c.703-.23 1.179-.595 2.534-1.247a263.14 263.14 0 0 1-35.065-8.135 250.15 250.15 0 0 1-33.362-13.909l.376 4.259c.244 3.051.663 6.044.731 9.152.791 10.801.073 21.679 1.04 32.423.436 5.909 2.3 10.724 8.22 12.125.579.019.909.537 1.539.748l12.376 4.086-6.441-13.333c-1.834-3.991-3.368-8.288-6.381-11.684-.609-.844-1.393-1.631-.42-2.993a47.96 47.96 0 0 0 18.498 1.247zm135.142-128.561c.313-1.343.806-2.629 1.463-3.817l16.107-34.073c4.104-8.231 7.248-17.191 12.488-24.749a5.92 5.92 0 0 0-1.976 1.899c-5.386 8.441-11.505 16.288-15.931 25.459l-1.844 3.108c-3.672 5.988-6.908 12.282-9.679 18.82l-7.878 16.979c-2.063 4.432-4.58 8.595-6.643 13.027l-9.135 21.564-9.705 23.004c-2.012 4.623-3.342 9.65-5.353 14.273-3.497 8.566-6.505 17.357-9.007 26.323l-1.206 4.777a2.13 2.13 0 0 0 1.531-.71l9.768-16.346 14.04-26.092c5.378-9.899 11.159-19.722 16.082-29.891a196.33 196.33 0 0 0 10.949-25.497c3.414-10.091 8.089-19.761 11.503-29.852s7.583-20.221 11.803-30.159l.614-2.705-.631-.211c-7.715 19.012-17.475 36.816-27.587 54.735M373.213 211.83c-5.021-7.774-9.564-15.907-13.597-24.346-4.05-8.691-8.348-16.883-12.749-25.459a4.55 4.55 0 0 0 .317 2.61l4.271 12.374c1.204 3.779 1.881 7.732 3.436 11.396 4.615 10.801 9.406 21.545 14.724 32.116 5.352 11.111 11.52 21.723 18.445 31.732 6.137 8.634 12.15 17.517 18.939 25.728s12.566 15.501 18.673 23.31c-.656-2.479-1.672-4.823-3.008-6.945l-13.525-24.788c-2.999-5.487-6.226-11.108-9.102-16.844s-5.45-11.78-8.201-17.766-7.594-16.921-11.892-25.113-10.092-18.399-15.526-27.262l-12.643-20.068-4.187-6.35c6.928 19.434 16.691 37.315 25.625 55.675zm212.326 61.737l-.257-.959-14.597 3.319-14.122 2.955-.205-.768 24.089-6.427-.206-.767c-8.321 1.055-16.693 1.919-25.087 3.415s-20.325 4.777-30.55 7.29c-5.024 1.228-10.122 2.898-15.043 4.509-10.96 3.866-21.625 8.684-31.893 14.408-3.486 1.976-7.074 3.569-10.384 5.487a84.33 84.33 0 0 1-13.972 7.08c-.579-.019-.952.729-1.677 1.592 2.564-.422 4.776-.729 6.761-1.17l41.786-8.883c4.497-1.055 9.221-1.976 13.791-3.473 10.723-3.511 21.393-7.213 31.961-11.3 6.276-2.264 12.399-5.103 18.624-7.559l7.404-3.05 13.401-5.641M430.921 295.19l-.112-1.842c-1.192-9.387-1.432-18.897-.715-28.356.594-10.628 1.818-21.046 2.639-31.54s1.397-24.039 1.631-36.011c.347-18.686-.64-37.354-1.678-56.213l-.861-5.352-1.315 16.499c-.421 5.564-1.018 11.185-1.212 16.883l-.346 18.686-.344 1.574-.738-19.167.375-9.304c.68-13.161 2.29-26.418.655-39.656l-.412-1.535-2.084 27.185-.459 3.281c-1.648 10.974-2.718 21.967-3.436 32.845l-.698 18.802c-.194 5.698-.439 11.204-.282 16.787l1.18 21.526 3.114 34.456c.776 7.064 2.555 13.945 5.273 20.394m9.895 19.089l.257.96c3.816-1.458 7.683-2.725 11.498-4.183 7.331-2.609 13.54-7.981 20.284-12.067a67.1 67.1 0 0 0 7.344-4.701l20.104-17.017 19.05-16.672 30.969-26.418c5.733-5.008 11.187-10.341 16.692-15.483l5.227-5.468c-14.991 8.981-29.309 19.252-42.819 30.716 7.689-8.04 16.064-15.255 25.009-21.545 8.845-6.235 17.969-12.144 26.865-18.188-2.06.362-4.07 1.02-5.976 1.957l-18.431 10.418c-.652.422-1.355.652-2.183 1.132s-6.216 3.914-9.299 5.966c-4.195 2.753-8.144 5.933-11.795 9.497-3.931 3.166-8.039 6.389-11.692 9.881l-33.77 33.804c-7.13 6.926-14.993 13.257-22.527 20.106-4.684 4.594-9.709 8.753-15.023 12.432-.703.231-1.304.845-2.007 1.075l-7.777 3.798zm4.421-5.621c.403.077.63.211.806.154 4.045-1.614 7.81-3.976 11.13-6.984 6.457-5.87 12.811-12.125 19.774-17.535 5.656-4.707 10.983-9.87 15.937-15.444 4.803-4.912 8.996-10.667 13.52-15.905s12.135-16.077 17.924-24.442c3.168-4.585 6.162-9.113 9.558-13.564l16.109-20.509 3.396-4.451-.557-.652a494.93 494.93 0 0 0-36.351 39.867c10.625-16.001 23.656-29.45 36.635-43.09a109.81 109.81 0 0 0-9.291 7.424l-13.764 12.855a83.23 83.23 0 0 0-11.251 12.24l-8.541 10.935-8.169 10.188-13.086 16.806-9.069 11.108c-3.023 3.703-4.37 5.813-6.844 8.71l-24.543 28.279-3.323 4.01zm-7.044-17.727l.857.345c1.287-3.76 2.574-7.52 4.087-11.146l8.849-23.349 6.609-18.859c2.355-6.197 4.499-9.612 6.408-14.619l15.852-43.589a267.17 267.17 0 0 0 10.959-32.596l3.96-15.904.24-1.957c-8.324 18.168-14.882 37.219-24.291 54.908 1.93-5.64 4.315-11.012 6.472-16.518l6.318-17.094 6.75-16.193-.681-.403a77.53 77.53 0 0 0-7.5 12.682c-3.423 8.633-7.3 16.998-10.722 25.631s-7.124 16.941-10.195 25.459c-5.353 14.274-8.991 29.238-12.907 43.877-2.514 9.17-4.625 18.418-6.736 27.665l-4.329 21.66zm-121.165-45.469l-.373.749 40.095 25.478-.373.748c-5.225-3.089-10.575-5.928-15.624-9.075s-10.677-6.312-15.778-9.65l-15.178-10.264c-4.806-3.678-9.798-7.06-14.951-10.13a22.03 22.03 0 0 0 2.713 3.703c8.495 7.444 16.866 15.137 25.859 21.583 8.151 6.002 16.588 11.528 25.276 16.557l20.014 11.185c3.81 2.091 7.672 4.374 11.783 6.158s13.292 6.082 20.027 9.094a164.56 164.56 0 0 0 24.759 9.631l1.736.058c-.783-.98-1.716-1.804-2.756-2.437l-37.634-26.283c-13.241-9.469-27.209-17.672-41.749-24.519-6.786-3.204-13.872-6.101-20.606-9.113-2.572-1.036-4.843-2.379-7.24-3.473zm275.1-12.241c-13.929 5.814-27.044 13.238-40.973 19.051l-.206-.767 41.338-21.257c-7.453.874-14.8 2.651-21.907 5.295-13.372 4.717-26.125 11.349-37.925 19.722-7.769 5.257-15.383 11.089-22.874 16.672-4.107 3.224-7.76 6.715-11.64 10.073l-11.444 9.381-4.459 3.339c26.533-10.149 51.666-23.387 76.438-37.968 11.86-6.809 23.176-14.703 33.828-23.598M392.296 200.99c-6.508-16.441-10.732-33.631-15.71-50.783l-.219 1.324 1.892 14.197 4.073 21.622c1.109 4.854 1.918 10.014 3.431 14.945 2.647 9.623 5.989 18.996 9.996 28.03 3.719 8.172 6.311 17.132 10.785 25.267 2.619 4.777 4.41 10.033 6.904 15.06l11.728 23.08 1.62 1.765-.462-1.727c-2.297-5.717-4.645-11.626-6.642-17.65l-10.007-34.495c-2.438-8.384-5.227-16.653-7.137-25.21-2.039-8.197-4.693-16.192-7.935-23.904a351.04 351.04 0 0 1-13.797-37.22l-.66-1.036-.527.173 12.44 46.428m138.343 133.126l-.155-.576 15.085 2.782.146-.882-26.397-5.756a154.72 154.72 0 0 0-20.191-2.571c-9.89-.518-19.633-1.918-29.399-2.685-3.849-.578-7.762-.494-11.596.249l.836.978a145.45 145.45 0 0 0 23.023 9.574c6.756 2.379 13.825 2.36 20.799 3.415l32.352 4.431c6.572.979 13.071 2.399 19.745 3.761l21.408 4.259 9.319 1.957.373-.749c-8.921-4.1-18.045-7.661-27.331-10.667-9.4-2.973-18.947-5.064-28.193-7.463M287.269 449.075c-4.925-2.67-10.338-4.105-15.848-4.202-6.915-.126-13.714-1.886-19.929-5.16-8.779-4.221-17.484-8.883-26.139-13.353a21.66 21.66 0 0 0-5.671-1.899c-1.839-.442-3.567.959-3.383 2.359s.839 5.986 3.441 7.847l4.419 2.935 24.433 14.121 10.772 5.237c2.396 1.094 4.895 2.571 7.159 2.456s4.767-2.187 7.125-3.377l13.621-6.964zm39.295-8.902c-2.375-1.727-4.205-.71-6.015-.326-10.222 2.164-20.255 5.31-29.984 9.401-8.811 3.877-17.368 8.422-25.608 13.602-4.737 3.012-9.145 6.542-13.831 9.746-10.092 6.575-19.571 14.222-28.298 22.831-1.5 1.535-3.052 2.877-4.729 4.47l-20.066 19.3c-3.353 3.185-6.252 6.638-9.326 10.149L175.26 544.81c-1.449 1.726-2.444 3.722-3.944 5.256-2.611 3.189-5.029 6.56-7.239 10.092.978-.625 1.864-1.408 2.629-2.322 4.223-4.93 8.219-9.995 12.67-14.791s5.557-4.95 8.258-7.713c6.003-6.139 11.903-12.662 18.133-18.667s12.811-12.125 19.444-18.054 12.293-10.494 18.604-15.482 8.369-5.871 12.579-8.71l16.417-10.802c9.361-5.853 19.164-10.809 29.299-14.811l15.262-5.832c5.046-1.861 5.676-1.65 9.192-2.801zm-87.025-40.788a23.78 23.78 0 0 0 2.323 1.535l28.081 14.178c9.336 4.873 14.715 8.537 22.731 11.338 4.638 1.612 9.006 4.355 13.842 5.276 1.672.103 3.319.478 4.886 1.113 5.57 2.513 11.668 3.328 17.649 2.36 1.809-.384 3.67-.576 5.53-.768.767-.245 1.514-.559 2.234-.94l-2.645-.595c-5.971-1.592-11.84-2.801-17.511-4.7a197.91 197.91 0 0 1-32.307-14.254l-16.152-8.902-18.071-10.36c-.682-.403-1.766-.883-2.418-.461s-5.265 3.185-8.172 5.18zm317.471-11.09c-4.696-4.361-9.764-8.222-15.135-11.53l-16.056-9.976c15.483 6.407 29.224 16.307 42.169 27.511l-.36-1.343-6.069-5.525c-12.524-10.493-25.783-19.896-39.657-28.125-8.127-4.643-16.43-9.229-24.806-13.373s-17.579-7.808-26.431-11.587c-1.592-.777-3.235-1.425-4.916-1.938.257.959.689 1.861 1.268 1.88s3.511 2.398 4.955 4.221l1.342 1.439c6.09 4.892 11.881 10.091 18.542 13.545l28.514 15.079 36.816 19.665m-364.412 55.676c4.754-.096 9.076-1.093 13.362.634l4.638 1.611c6.302 2.11 11.432 6.274 16.739 10.379l7.886 6.6c3.971 3.173 8.481 5.455 13.271 6.715a4.54 4.54 0 0 0 2.566.233c.861-.172 1.666-.59 2.334-1.212 2.855-2.187 5.99-4.048 8.845-6.235a9.12 9.12 0 0 0 1.728-1.401c-5.752-2.916-11.818-3.434-17.738-4.834-5.538-.971-10.918-2.792-15.981-5.41l-22.885-11.914c-2.905-1.361-5.977-2.253-9.122-2.648-3.575-.499-4.651.48-5.308 4.451l-.335 3.031zm-71.958-98.726c.373.007.746-.044 1.106-.154 5.44-3.242 10.83-6.676 16.498-9.784a317.42 317.42 0 0 0 34.796-21.411l8.545-5.929c3.376-2.598 6.407-5.698 9.004-9.208-.86.133-1.682.474-2.409.997l-21.133 13.18c-2.255 1.574-4.665 2.571-6.971 3.953l-.206-.768c3.434-2.168 6.817-4.528 10.024-6.83l9.746-7.156c-23.121 8.614-43.096 21.833-59 43.11zm153.614-12.529c-2.05 2.341-4.605 4.221-5.849 6.715-2.735 6.188-6.589 11.71-11.329 16.231-7.006 6.676-14.569 12.7-21.956 18.667s-11.649 8.614-17.536 13.046a17.82 17.82 0 0 0-2.277 2.206c1.715.691 2.924.921 4.235 1.535a3.03 3.03 0 0 0 2.235.135c.739-.242 1.378-.758 1.808-1.459 5.951-6.976 12.769-13.002 20.25-17.9 2.289-1.391 4.491-2.948 6.59-4.662l10.346-7.77 20.764-15.981c1.607-1.591 3.134-3.275 4.575-5.046-4.111-1.784-7.87-3.683-11.856-5.717zm-165.771 7.118l11.606-7.348 21.124-14.638c6.89-4.969 13.202-9.957 19.461-15.137a123.96 123.96 0 0 0 10.557-10.552l-.052-.192-29.845 20.624-.557-.652c4.635-3.396 9.043-6.926 13.502-10.264 4.713-2.983 9.077-6.584 12.995-10.725a47.73 47.73 0 0 0-8.634 3.454c-4.614 2.762-9.227 5.525-13.386 8.556s-12.373 9.478-18.054 14.677c-7.195 6.362-13.501 13.841-18.717 22.197zm153.023 33.785c4.914 5.937 10.545 11.113 16.741 15.387 2.499 1.477 4.874 3.203 7.248 4.93s10.283 7.693 15.611 11.166 8.736 5.487 13.104 8.23c7.288 4.9 15.035 8.939 23.112 12.048l5.95 2.226c-26.451-19.511-52.901-39.023-81.766-53.987zm64.434 54.236c-15.859-10.667-77.113-40.902-85.875-42.207a28.12 28.12 0 0 0 4.346 3.377l25.825 15.751c11.275 6.606 22.968 12.331 34.991 17.132 6.631 2.628 13.241 5.89 20.713 5.947zm42.247 1.401l-.308-1.151c-4.677-3.895-9.529-7.732-14.081-11.876s-10.218-9.593-15.078-14.888l-18.481-20.451c-1.249-1.354-2.602-2.586-4.046-3.684l-9.754 5.699 24.817 19.837 31.487 24.749a6.73 6.73 0 0 0 2.634 1.531 6.37 6.37 0 0 0 2.986.176M215.92 483.916c-2.799-1.171-5.371-2.207-7.819-3.492-7.871-4.245-16.462-6.686-25.248-7.175-4.801-.643-9.676.369-13.946 2.897a59.7 59.7 0 0 0-6.041 3.856 42.65 42.65 0 0 0 5.817 1.017c7.824-.058 15.21 2.532 22.866 3.99 5.473 1.392 11.167 1.451 16.68.173 2.336-.557 4.776-.729 7.691-1.266zm-.223-92.166l-.249.499 4.925 3.395c5.958 3.684 11.792 7.617 17.875 11.051s10.369 5.161 15.615 7.616 11.629 5.583 17.631 8.001l19.666 7.75c3.289 1.447 6.8 2.208 10.353 2.245a22.7 22.7 0 0 0-3.811-2.091l-20.532-9.554c-6.837-3.396-14.737-7.905-22.255-11.703l-30.799-14.332c-2.75-1.144-5.561-2.105-8.419-2.877zm-12.885-75.916l-19.723 17.727c2.95-3.261 6.003-6.139 8.777-9.343s6.282-5.813 8.923-10.226c-5.751 3.156-11.12 7.088-15.984 11.703-4.131 3.674-7.971 7.724-11.478 12.106-5.432 6.661-10.364 13.789-14.746 21.315-.388.581-.666 1.24-.82 1.938 6.487-5.046 12.469-10.552 18.677-15.924 7.844-6.943 15.295-14.401 22.313-22.332 1.925-1.86 3.333-4.274 4.061-6.964zm35.258 10.993l-.206-.767a8.3 8.3 0 0 0-2.109.69c-6.003 2.87-11.539 6.798-16.387 11.626-5.102 5.219-9.977 10.572-14.801 16.116s-10.57 12.643-15.767 18.936l-1.698 2.225a33.1 33.1 0 0 0 6.539-4.853l28.443-23.714c5.508-4.235 10.705-8.938 15.543-14.062.585-.515 1.047-1.177 1.345-1.929s.424-1.573.366-2.388l-20.734 16.806c3.074-3.511 6.53-6.312 9.883-9.496s7.138-5.468 9.758-9.248m-126.291-66.745l-11.412 1.65c-12.153 1.614-23.99 5.42-35.03 11.262-4.335 2.485-8.403 5.497-12.125 8.979 4.197-.748 8.116-1.823 12.21-2.955s8.789-2.877 13.234-4.125 5.127-.844 7.764-1.707l19.768-5.43c3.958-1.358 7.585-3.688 10.603-6.81l-17.723 6.638c-6.019 2.249-12.359 3.264-18.7 2.993 10.902-1.654 21.506-5.197 31.412-10.495zm35.451 27.416c-1.23.403-2.585 1.055-3.815 1.458-11.571 4.624-22.483 10.283-31.993 19.032-3.828 3.549-7.884 6.964-11.713 10.513s-3.777 3.741-6.23 6.005l2.285-.748a198.81 198.81 0 0 0 26.808-14.83l22.055-14.734c1.779-1.209 3.228-2.936 4.956-4.336l-.154-.576-23.228 11.78c6.559-5.487 14.594-8.326 21.205-13.622m206.281 135.505c.175-.058.124-.249.3-.307l-14.329-11.377-22.97-17.938c-9.635-8.107-19.736-15.534-30.24-22.236-3.862-2.283-7.848-4.316-11.659-6.407l-.373.748 1.796 1.707c1.693 1.324 3.737 2.533 5.482 4.048 4.603 4.336 10.004 7.368 14.483 11.953a132.11 132.11 0 0 0 11.449 9.189l17.23 12.931c4.471 3.127 9.293 6.139 13.888 9.017 2.057 1.377 4.18 2.633 6.361 3.76 2.778 1.804 5.68 3.358 8.582 4.912zM210.018 247.112c.403.077.755-.038 1.158.039.217 7.233-.672 14.619.879 21.832 4.784-21.391 3.935-42.399-4.708-62.524a15.07 15.07 0 0 0-.211 2.782l.085 28.144c-.015 10.648-1.488 21.565 1.34 32.117l.882 4.719.352-.115.223-26.994zm78.716 92.55c-3.033 2.151-5.401 5.256-6.792 8.902-1.354 3.784-3.538 7.152-6.36 9.803a38.8 38.8 0 0 1-3.104 2.686l6.486 3.511c5.089-3.127 10.405-6.12 15.67-9.305l-4.933-4.854a2.37 2.37 0 0 1 .639-.747c.259-.196.554-.33.863-.392a2.01 2.01 0 0 1 .932.034 2.11 2.11 0 0 1 .832.453l4.471 3.127c.349.236.744.383 1.153.43s.824-.009 1.213-.161c2.722-1.426 5.352-3.054 7.872-4.873l-18.942-8.614zm-5.085 96.616l-15.616-7.616-31.964-15.828c-6.331-2.935-13.109-4.681-19.689-7.117a5.03 5.03 0 0 0-1.611-.307l-2.14-.135a227.02 227.02 0 0 0 33.996 19.128c17.879 7.501 30.409 12.163 37.024 11.875zm-40.773-206.394c-.033 16.288 1.886 48.423 7.109 60.069l-.898-7.636-.848-7.444c-.685-5.41-.736-5.602.134-7.348 2.385 16.749 3.73 23.195 5.256 26.035 2.366-21.852-3.01-42.63-10.753-63.676zm-1.629 49.574c.036-11.28.021-22.753-2.03-33.977s-7.441-29.909-9.443-32.384l.531 4.835 2.673 32.096 1.176 16.519c.413 5.468 2.021 10.739 4.691 15.367a215.45 215.45 0 0 1-2.464-26.322c1.932 7.924 1.879 16.288 4.866 23.866zm58.199 108.032c-1.813.542-3.443 1.657-4.686 3.204l12.276 8.71 28.942 19.531c4.646 3.069 9.219 6.58 13.917 9.842a4.91 4.91 0 0 0 2.22 1.151c2.667-.039 5.685-.192 9.333-.134-21.912-13.277-43.215-25.708-62.002-42.304zm-124.037-15.52l.608.844 7.679-7.732 13.661-13.237c4.605-4.221 10.191-8.346 15.096-12.874 3.306-2.973 6.399-6.218 9.253-9.707 2.008-2.103 3.477-4.743 4.258-7.655-6.354 6.183-13.051 11.93-20.052 17.209l18.411-18.341a2.91 2.91 0 0 0-2.161.498l-11.692 9.881c-3.024 2.868-5.912 5.904-8.653 9.094-5.9 6.523-11.924 13.295-17.545 20.144-3.199 3.761-5.892 7.981-8.863 11.876zm-37.31 141.184l1.136.672a3.38 3.38 0 0 0 1.612.307c6.263-.173 12.578-.154 18.554-2.111 2.756-.883 5.659-1.047 8.475-.48 8.208 1.729 16.682 1.382 24.774-1.016-5.847-1.842-11.87-3.626-17.841-5.219-4.408-1.108-8.988-1.173-13.435-.192-2.461.806-4.9.979-7.412 1.593a62.75 62.75 0 0 0-15.863 6.446zM69.866 299.891l.257.96c.345-.298.749-.502 1.179-.595l28.377-13.257 10.765-4.777c4.064-1.957 7.901-4.048 11.914-6.197 1.895-.907 3.716-1.992 5.441-3.243l-.154-.575c-8.858 4.674-18.128 8.339-27.661 10.936 4.943-2.245 10.113-4.356 15.005-6.792 5.323-2.236 10.488-4.904 15.451-7.981-23.167 4.873-42.52 16.845-60.575 31.521zm258.488-9.305c6.612 3.773 13.526 6.888 20.656 9.304a199.53 199.53 0 0 0 29.908 8.154c7.832 1.401 15.591 3.242 23.509 2.11a30.73 30.73 0 0 1 4.703-.287c-3.686-2.341-59.28-15.022-63.001-14.639 9.492 3.837 19.249 6.852 29.183 9.017a1.09 1.09 0 0 1-.486.327 1.01 1.01 0 0 1-.569.019c-12.813-1.439-24.588-6.139-36.166-11.53-2.22-1.152-4.419-2.936-7.737-2.475zm-49.967 109.643l17.381 8.499c3.557 1.588 7.035 3.374 10.421 5.353l27.81 15.31c1.68.932 3.47 1.61 5.32 2.014.822.334 1.717.401 2.577.194s1.648-.681 2.272-1.364c-21.155-8.307-39.667-21.027-58.107-34.188-2.358 1.189-4.664 2.571-7.674 4.182zm-104.809 61.24l-.146.883c2.225.488 4.48.796 6.748.92 8.475-.479 16.44 2.13 24.258 5.622a100.48 100.48 0 0 0 22.707 6.964 37.44 37.44 0 0 0 6.014.326c-.203-.577-.602-1.044-1.114-1.305-5.299-2.647-10.472-5.544-15.719-8s-7.591-3.357-11.424-4.815c-5.855-1.957-12.013-2.635-18.124-1.996-4.351.173-8.775.787-13.2 1.401zm75.279-7.329l-2.044-1.209-12.744-6.887-15.118-8.614c-3.181-1.88-6.237-4.01-9.366-5.698-3.33-1.512-6.914-2.256-10.528-2.187-.581-.072-1.17.002-1.722.216s-1.054.563-1.466 1.019a4.34 4.34 0 0 0-.913 1.617 4.59 4.59 0 0 0-.174 1.886c5.479-.959 10.271 1.228 15.063 3.415l24.476 12.854c4.478 2.534 9.482 3.768 14.536 3.588zM124.601 232.302c1.122-19.358-4.889-36.798-12.431-53.527l2.808 24.749c.196 6.077 1.041 12.104 2.517 17.957.739 3.23 2.382 6.121 4.701 8.269l-4.159-19.089.704-.231 5.86 21.872zm72.497 38.658c.403.076.754-.039.981.095 1.13-3.112 1.995-6.329 2.587-9.611.669-7.687.582-15.425-.257-23.08l-3.695-25.919c.073-.442-.484-1.094-.587-1.478a56.51 56.51 0 0 0-.615 11.262l-.137 24.461-.417 2.015-.714 15.885a31.37 31.37 0 0 0 1.015 5.928 123.46 123.46 0 0 0 .615-11.261c.356-3.665-.093-7.483 1.193-11.243l.031 22.946zm68.649 25.727c.377.109.774.122 1.158.038l-.356-27.013.982.096 1.362 31.483c.84-2.571 1.454-5.276 2.068-7.981a41.36 41.36 0 0 0 .877-13.852c-1.537-11.317-4.069-22.438-7.561-33.209-.346-1.39-.953-2.683-1.782-3.799l3.252 54.237zm-68.611 87.159c16.409-12.26 33.198-23.809 48.668-37.431l-.154-.576-10.676 7.253-.103-.384c5.308-4.451 10.843-8.768 16.203-13.027-2.561.624-4.973 1.841-7.074 3.568l-24.023 18.092c-8.142 6.005-16.606 12.95-22.665 22.447m-31.713-144.043l.703-.23c1.418 6.005.799 12.26 3.023 18.418 1.532-9.267.604-17.727-.025-26.495s-3.088-16.518-4.917-24.058c-.313 2.398-.875 5.295-1.034 8.269-.418 10.571-1.415 21.123.483 31.77a43.17 43.17 0 0 0 3.26 11.454l-1.493-19.128zm10.707 7.137c.176-.057.403.077.755-.038 1.212 5.237.564 10.667 1.952 15.847 1.194-4.256 1.622-8.719 1.258-13.142l-2.957-28.874c-.757-4.969-2.27-9.899-3.203-14.811-.225.245-.398.54-.509.865s-.157.671-.135 1.015c.209 5.775.47 11.742.327 17.632-.572 9.776-.187 19.584 1.148 29.257l1.653 7.597.527-.172-.816-15.176zm347.953 164.033c-7.701-13.756-25.68-38.754-38.479-50.841.052.192-.021.633.155.576.815.686 1.491 1.549 1.986 2.536a8.73 8.73 0 0 1 .889 3.2c-.022.633.536 1.285.917 1.995 4.27 7.512 9.169 14.571 14.636 21.085 4.179 4.892 8.057 10.091 12.06 15.041.445.669 1.048 1.192 1.745 1.516l.351-.116-5.374-7.213.351-.115 10.865 12.719m-35.16-29.18c-.351.115-.578-.019-.754.038l-.219 1.324c-1.287 3.76-1.943 7.732-3.736 11.032a8.92 8.92 0 0 0-1.568 4.192 9.1 9.1 0 0 0 .636 4.46l.72 2.686c1.079 4.029 2.159 8.058 3.59 11.971s3.163 7.521 4.945 11.32c.154.575.836.978 1.496 2.014l-5.537-31.368.351-.115 1.491 5.564.527-.173-2.22-23.271m-276.929-61.661l-.103-.383c-.476.364-1.179.594-1.655.959-6.632 5.44-12.811 11.514-18.463 18.149-5.175 5.66-9.896 11.588-14.793 17.574-2.569 3.226-4.986 6.594-7.238 10.091 3.229-2.935 5.776-6.273 8.829-9.151l12.811-12.125c4.305-3.914 6.912-5.602 10.14-8.538s4.678-4.662 6.955-6.868c2.525-2.499 4.378-5.705 5.356-9.266l-10.565 9.093-.154-.575c3.001-3.07 6.054-5.948 9.231-9.075m-23.516-56.366a192.58 192.58 0 0 0-3.008-51.186c-.476.364-.6.614-.549.806-.769 10.686-2.241 21.602-1.626 32.461.025 6.72.789 13.406 2.277 19.914l.762 1.42c.174-2.336.06-4.685-.341-6.983l-.818-6.619-.62-7.31c.013-2.091-.955-4.278.216-6.331 1.177 7.962 1.651 16.154 3.707 23.828zm111.528 93.7a3.2 3.2 0 0 0-.776.672l11.362 11.722 15.862 15.674c7.162 7.463 12.999 16.404 21.238 22.888s11.2 9.689 16.66 14.37c-1.472-2.032-3.071-3.949-4.787-5.737l-18.679-19.76-16.904-17.42c-5.718-5.641-5.777-7.291-10.188-8.768l-.506-.461c.086-2.532-2.332-2.992-3.622-4.239s-6.399-6.044-9.66-8.941zM69.37 181.73c1.277 3.338 2.729 6.618 3.882 10.206l7.01 20.452c.49 1.804 1.369 3.451 2.563 4.802s2.668 2.369 4.299 2.967c-2.657-7.06-6.792-13.218-8.446-20.815 2.948 5.295 4.893 11.127 8.369 16.249-1.541-14.312-8.368-24.806-17.677-33.861zm124.706 314.138l.146-.882c-4.462-1.67-8.8-3.588-13.336-4.816a27.21 27.21 0 0 0-15.398-.384c-5.653 1.474-11.401 2.45-17.191 2.917-.578-.02-1.282.211-1.86.191 1.418.9 3.001 1.449 4.638 1.612 4.134.623 8.305.93 12.483.921 5.56.057 11.09-.71 16.826-.71s9.187.748 13.692 1.151zm73.153-53.796c-14.9-9.938-30.837-16.614-47.199-22.734-.9.921-1.852 1.65-2.628 2.321 4.073-.498 7.004 1.881 10.133 3.569s7.673 4.374 11.66 6.408l13.571 6.408c4.633 2.035 9.496 3.39 14.463 4.028zm-23.374-172.858a1.34 1.34 0 0 0-.755.038l-.013 2.091a254.94 254.94 0 0 0 2.199 23.905c1.045 6.753 3.993 12.048 6.517 17.9a1.43 1.43 0 0 0 .303.606 1.26 1.26 0 0 0 .533.372l5.452 3.223c-.39-2.168-1.658-4.048-1.997-6.024a55.13 55.13 0 0 0-5.818-14.581c-3.333-7.2-5.311-15.067-5.818-23.137l-.603-4.393zm-24.054 114.305c14.762-9.842 29.245-20.01 40.912-34.265-5.93 5.698-11.581 11.723-18.274 16.001a139.46 139.46 0 0 0 18.133-18.667l-13.171 10.782c-5.36 4.259-10.719 8.518-15.8 13.103-4.596 3.565-8.59 7.981-11.8 13.046zm31.734-11.434l23.187-19.07c.351-.116.6-.614.9-.921l-.205-.768-19.967 14.677c-6.663 5.103-13.51 8.806-19.688 15.003 1.242.488 2.578.633 3.889.423a7.75 7.75 0 0 0 3.626-1.632l15.786-11.012c5.111-3.76 5.535-4.317 8.215-6.446l-.257-.96c-5.265 3.185-9.767 7.79-15.135 10.591M128.739 548.148l.257.959 11.15.94c5.116.498 10.258-.748 14.721-3.568l7.096-4.202 7.49-5.583c-.812-.104-1.634.091-2.336.557-4.429 3.326-9.611 5.24-14.962 5.525-8.124.365-15.631 3.031-23.241 5.314m182.78-183.392l1.393 1.631c1.796 1.707 3.562 2.59 5.817 1.017s6.847-3.703 10.281-5.871a17.82 17.82 0 0 0 2.277-2.206l-8.882-4.605c-2.396-1.093-3.751-.441-4.313 2.456-.493 2.215-1.767 4.133-3.542 5.334a26.74 26.74 0 0 1-3.031 2.244zm-78.074 99.649c-4.676-5.162-10.034-9.527-15.898-12.95-7.094-4.355-14.655-6.888-22.947-5.008-1.106.154-2.109.691-1.646 2.418l4.857.287c5.578.35 11.056 1.731 16.199 4.087 6.661 3.453 12.898 7.463 19.435 11.166zm10.418-74.573l-6.288-4.202c-3.64 1.401-10.457 5.928-11.679 7.789l10.845 4.797 7.122-8.384zm-70.531 129.941l-.154-.575c-1.985.441-3.969.882-5.903 1.515-6.958 1.861-13.967 3.531-20.536 7.56-1.182.56-2.398 1.028-3.639 1.4l-9.316 3.051c4.514 1.507 9.379 1.243 13.756-.749 8.708-3.894 17.136-8.115 25.792-12.202zm-55.502 47.599c10.044 1.094 29.949-6.676 34.451-11.281-11.968 1.623-23.614 5.436-34.451 11.281zM262.35 376.056l-4.274-3.818-16.489 11.243 6.983 2.513c3.975-4.432 9.299-5.967 13.78-9.938zm39.559 2.072l.205.767c1.363.806 2.156 3.051 4.162 1.976 3.142-1.412 6.035-3.419 8.545-5.928l-6.832-6.945c-3.682 2.667-7.117 4.835-10.851 7.31l2.653 2.053c3.186-1.67 6.32-3.531 9.329-5.142s1.758-.576 2.345.902l-9.556 5.007zm-69.418-67.839l-6.382-3.127-6.779 6.811c-.617.563-1.148 1.23-1.574 1.976l-2.295 7.847c2.856-2.187 5.763-4.183 8.391-6.504s6.246-3.089 8.639-7.003zm-43.273 8.327l1.582-.518c4.386-2.897 8.896-6.044 13.51-8.806 3.716-2.057 6.98-4.978 9.561-8.557l-.154-.575c-2.478-2.111-4.836-.921-6.812.978s-7.731 7.54-11.457 11.473-3.829 3.549-6.054 5.947m78.476 63.829l-11.782 7.406 8.779 4.22c1.325-1.477 2.298-2.839 3.499-4.067s2.804-2.379 3.169-4.585l-3.665-2.974zm-123.685 205.57l-.505-.46c-4.479 3.488-8.767 7.261-12.842 11.3-3.894 4.303-7.151 9.242-9.652 14.638.684-.009 1.354-.229 1.933-.633l5.579-5.583c.639-.617 1.224-1.298 1.749-2.033l9.339-12.24c.534-.562 1.093-1.094 1.677-1.593l2.722-3.396zm173.354-234.981c-2.623-1.228-4.265-2.36-6.155-2.993-1.057-.26-2.165-.118-3.143.403-2.431 1.631-4.81 3.453-7.417 5.142l4.552 4.144 12.163-6.696zm-138.598-76.28l-6.991-26.092c-.305 3.856-.207 7.789-.16 11.531-.187 1.745-.228 3.505-.122 5.256.801 3.703 1.778 7.348 5.683 8.365.579.019 1.085.48 1.766.883M156.398 567.89c-.682.036-1.363.119-2.036.249-7.353 3.242-15.211 6.024-22.204 10.609-1.021.714-1.948 1.579-2.753 2.571 10.131-1.439 18.632-6.101 26.993-13.429zm25.497-289.448l6.558 3.069c-.485-3.3-1.228-6.548-2.219-9.707-1.382-3.136-2.341-6.477-2.849-9.919l-.676-3.952c-.176.057-.579-.019-.754.038-1.219 6.869.001 13.564-.06 20.471zm71.797 110.257c4.211-2.839 8.832-4.144 12.331-8.211l-2.632-2.686c-4.283 3.281-9.102 5.276-13.179 9.324l3.48 1.573zm27.723 4.278c-.412-.67-.948-1.238-1.573-1.667a4.99 4.99 0 0 0-2.061-.823 4.87 4.87 0 0 0-2.194.162c-.715.221-1.38.602-1.953 1.12a28.71 28.71 0 0 1-3.94 1.707l-2.607 1.689c3.203 1.247 5.826 2.474 8.574 3.453l5.754-5.641zm-15.258-19.837l8.245-5.621-4.676-3.895-8.918 6.676c1.834.829 3.62 1.778 5.349 2.84zm39.634-6.926l-2.932-2.379c-3.632 2.859-7.799 4.432-10.543 8.461.733.594 1.063 1.112 1.693 1.323s.703-.23 1.23-.402c3.97-1.389 7.587-3.789 10.552-7.003zm-6.832-6.945c-4.232 3.472-8.04 6.389-12.147 9.612l2.778 1.803 11.876-8.48-2.507-2.935zm-17.145 6.657c.544.649 1.279 1.068 2.078 1.187s1.614-.07 2.303-.534c3.507-2.61 7.52-4.758 10.389-9.037-3.267.653-10.714 4.969-14.77 8.384zm-3.389 14.466c2.079-1.516 3.983-2.974 6.414-4.605l-3.716-3.165c-2.431 1.631-4.738 3.012-7.52 4.758l4.822 3.012zm-9.747-6.408c1.525 2.839 3.18 1.88 4.659.979s3.559-2.418 5.814-3.991l-3.005-1.938-7.468 4.95zm-77 62.985a1.51 1.51 0 0 1-.93.096l-2.143 16.979c2.423-3.089 3.38-7.367 3.771-13.756l-.874-3.261m24.683-17.056l-.557-.652c-.528.173-1.333.019-1.861.192-3.061 1.42-3.756 3.108-1.952 6.273l2.64 4.144.528-.172c-.926-3.454-1.448-6.83 1.202-9.785zm64.687-38.294c2.478 2.111 4.763 1.362 7.91-2.59-1.114-1.304-2.229-2.609-3.832-1.458-1.492 1.18-2.86 2.537-4.078 4.048zm26.249-20.49c.96.729 1.847 1.9 2.374 1.727 1.436-.516 2.778-1.309 3.961-2.341 1.077-.978 2.38-1.822 1.939-4.182a198.91 198.91 0 0 0-8.274 4.796zm-13.817 21.219c-.909-.537-1.693-1.323-2.045-1.208s-3.837 2.091-6.143 3.472l2.829 1.995c1.728-1.4 3.331-2.551 5.359-4.259zm3.798 4.183c-2.611-3.319-3.841-2.916-6.658 1.554 2.756 2.436 4.373-.806 6.658-1.554zm91.664-129.558c-.013-.051-.008-.106.015-.153a.19.19 0 0 1 .11-.097 65.21 65.21 0 0 0-5.075-7.52 51.25 51.25 0 0 0-5.593-5.89l-.527.172 11.019 13.296m50.202 55.349l9.699-10.897-.155-.576c-2.92 4.087-7.511 6.216-9.369 11.415m-99.821 124.091l-.206-.768c-3.267.653-6.306 1.439-9.521 2.283-.403-.076-.498.998-.995 1.996l10.546-3.454m-111.137-47.291l6.714-4.911c-2.872-.729-3.648-.058-6.714 4.911zm223.44-67.322c3.108 2.322 5.693 1.266 8.308 1.036l-.257-.959c-2.491-.019-4.93.154-8.227-.019M268.77 359.346c3.043-.854 5.694-2.912 7.439-5.775-2.555 1.88-5.059 3.952-7.439 5.775zm1.765 31.559l4.24-2.014c-2.126-2.226-2.777-1.804-4.24 2.014zm-29.657 4.912a8.57 8.57 0 0 0 3.155-1.65c.941-.775 1.733-1.747 2.328-2.859-1.144.304-2.221.861-3.165 1.637s-1.732 1.753-2.318 2.872zM176.189 531.15c-3.318.46-3.494.518-4.159 3.031s2.555-1.88 4.159-3.031zm279.176-237.495l-.103-.384c-1.044 1.19-2.146 2.317-3.302 3.377l.103.383c1.103-1.21 2.264-2.357 3.477-3.434m23.058 28.97l-.146.883 3.824-.001c-.121-.266-.295-.499-.509-.681s-.464-.31-.729-.374l-2.44.173zm-133.17-165.914l-.528.173.917 1.995-.514-1.918m-61.99 238.166l-.205-.768-1.78 1.209.155.575c.627-.445 1.3-.806 2.006-1.074m237.722 15.232l.424-.556-1.971-1.65.051.192 1.671 1.957m8.569-244.881c.227.135.402.077.454.269l1.625-1.784-.103-.384-1.801 1.842m-69.217 121.999l-.051-.192-1.025 1.17.051.192c.427-.288.78-.691 1.025-1.17zm-285.744-10.359l-.051-.192-1.488-.556c-.176.057-.124.249-.3.307a5.97 5.97 0 0 0 1.663.498m102.752 72.367l.051.192 1.376-1.286-.102-.383c-.384.55-.829 1.047-1.325 1.477zm245.446 64.039l.351-.115-.763-1.42.412 1.535z" fill="#c89a60" fill-opacity=".2"/></svg>