<svg width="31" height="31" viewBox="0 0 31 31" fill="none" xmlns="http://www.w3.org/2000/svg">
<rect width="31" height="31" rx="15.5" fill="url(#paint0_radial_107_3881)"/>
<path d="M23.9727 14.0898L16.6602 6.74219C16.3086 6.42578 15.8867 6.25 15.4648 6.25C15.043 6.28516 14.6211 6.42578 14.3047 6.77734L6.99219 14.0898C6.64062 14.4062 6.5 14.8281 6.5 15.25C6.5 15.6719 6.64062 16.0938 6.99219 16.4102L14.3047 23.7578C14.6211 24.1094 15.043 24.25 15.5 24.25C15.9219 24.25 16.3438 24.0742 16.6602 23.7578L23.9727 16.4102C24.3242 16.0938 24.5 15.6719 24.5 15.25C24.4648 14.8281 24.3242 14.4062 23.9727 14.0898ZM20.9141 15.1094L17.5391 18.0625C17.1523 18.4141 16.5898 18.0977 16.5898 17.6406V15.8125H14.3398V17.5C14.3398 18.1328 13.8477 18.625 13.2148 18.625C12.5469 18.625 12.0898 18.1328 12.0898 17.5V14.6875C12.0898 14.0898 12.582 13.5625 13.2148 13.5625H16.5547V11.7344C16.5547 11.2773 17.1172 11.0312 17.4688 11.3125L20.8438 14.2656C21.0547 14.3711 21.0898 14.5469 21.0898 14.6875C21.0898 14.8633 21.0547 15.0039 20.9141 15.1094Z" fill="white"/>
<defs>
<radialGradient id="paint0_radial_107_3881" cx="0" cy="0" r="1" gradientUnits="userSpaceOnUse" gradientTransform="translate(5.8125 59.1531) rotate(-68.6337) scale(56.7252 48.534)">
<stop stop-color="#00E4CC"/>
<stop offset="1" stop-color="#0083E1"/>
</radialGradient>
</defs>
</svg>
