<svg xmlns="http://www.w3.org/2000/svg" width="442" height="528" fill="#c89a60" xmlns:v="https://vecta.io/nano"><path d="M28.046 354.872l1.344-4.299a19.76 19.76 0 0 0-1.01 2.924l-.334 1.375zm393.683 33.714l2.219-1.731 3.26-.022-2.218 1.903a2.57 2.57 0 0 0-1.202-.164l-2.059.014zm-14.407.955c4.266-1.422 8.705-2.261 13.196-2.491l-1.535 1.383c-1.03.007-2.058.186-3.088.193s-5.83.554-8.573.915zm.38-19.906l-.002-.344c.515-.003.856-.177 1.2-.179s-.513.346-.856.349l.001.171-.343.003zm5.284-5.184l1.709-1.041.867 1.367-1.537 1.04-1.039-1.366zm2.548 46.827a51.94 51.94 0 0 1 10.29-.756l-.851 1.035c-3.089-.151-6.35-.128-9.439-.279zm13.558.423l1.364-1.382a29.05 29.05 0 0 0 3.945-.198l-1.024.865-1.024.864c-.686.005-1.373-.162-2.06-.157l-1.201.008zm-7.363-23.115l2.219-1.731 3.26-.022-2.218 1.903a2.57 2.57 0 0 0-1.202-.164l-2.059.014zm-14.407.955c4.266-1.422 8.705-2.261 13.196-2.491l-1.535 1.383c-1.03.007-2.058.186-3.088.193s-5.83.554-8.573.915zm.38-19.906l-.002-.344c.515-.003.856-.177 1.2-.179s-.513.346-.856.349l.001.171-.343.003zm5.284-5.184l1.709-1.041.867 1.367-1.537 1.04-1.039-1.366zm2.548 46.827a51.94 51.94 0 0 1 10.29-.756l-.851 1.035c-3.089-.151-6.35-.128-9.439-.279zm13.558.423l1.364-1.382a29.05 29.05 0 0 0 3.945-.198l-1.024.865-1.024.864c-.686.005-1.373-.162-2.06-.157l-1.201.008zm5.629-5.014l1.877-1.557.702 2.397-1.366 1.039-.509.69-.704-2.569zm-19.187 4.591a51.94 51.94 0 0 1 10.29-.756l-.851 1.035c-3.089-.151-6.35-.128-9.439-.279zm13.558.423l1.364-1.382a29.05 29.05 0 0 0 3.945-.198l-1.024.865-1.024.864c-.686.005-1.373-.162-2.06-.157l-1.201.008zm-7.485-15.736c.431-.327.888-.617 1.367-.867 2.573-.189 4.974-.377 7.545-.737a6.86 6.86 0 0 0-1.397-3.594l1.197-.695.34-.345a78.8 78.8 0 0 1 4.361 10.437l-2.555 2.763c-2.577-.326-4.981-.653-7.556-.807l-.003-.515c2.744-.19 5.315-.55 8.058-.912-.366-3.429-.367-3.601-3.116-4.097a13.36 13.36 0 0 0-3.778-.489 38.88 38.88 0 0 0-4.463-.142zm.122-7.379l2.219-1.731 3.26-.022-2.218 1.903a2.57 2.57 0 0 0-1.202-.164l-2.059.014zm-14.407.955c4.266-1.422 8.705-2.261 13.196-2.491l-1.535 1.383c-1.03.007-2.058.186-3.088.193s-5.83.554-8.573.915zm18.504-4.071l1.366-1.039 1.211 1.536-1.023.865-1.554-1.362zm-18.124-15.835l-.002-.344c.515-.003.856-.177 1.2-.179s-.513.346-.856.349l.001.171-.343.003zM333.8 402.908c.496-2.749 2.546-4.135 4.769-5.351 4.049-2.113 8.468-3.425 13.014-3.863 12.86-1.46 25.021-4.631 36.127-11.57a52.85 52.85 0 0 1 25.691-7.037c1.887-.184 4.119.144 5.998-1.242-.485-1.466-1.486-2.705-2.818-3.485a6.35 6.35 0 0 0-4.418-.756c-.444.134-.907.195-1.371.181a64.79 64.79 0 0 0 5.985-2.957c1.561 2.391 3.292 4.61 5.023 6.829l.349.856c-.161 1.545-1.363 1.553-2.562 1.733l-7.032.562c-9.435.7-18.579 3.581-26.711 8.417a56.09 56.09 0 0 1-22.594 8.218c-4.458.545-8.913 1.433-13.197 2.32-4.035.637-7.921 2.001-11.469 4.024-3.759 2.428-3.739 5.345.051 7.55a8.75 8.75 0 0 0 5.155 1.166c5.834-.04 10.964-2.648 16.096-5.085 11.803-5.399 23.432-11.14 35.06-17.053 7.601-3.789 16.009-5.672 24.5-5.485a9.95 9.95 0 0 1 5.847 1.848c-.531.309-.995.72-1.365 1.21a4.8 4.8 0 0 0-3.095-1.008c-7.696-.619-15.423.733-22.452 3.927-5.988 2.614-11.63 5.569-17.273 8.524-8.72 4.521-17.616 8.527-26.684 12.364-3.358 1.45-6.966 2.232-10.623 2.302a12.87 12.87 0 0 1-8.773-3.201c-.564-.466-.981-1.087-1.199-1.786a3.78 3.78 0 0 1-.029-2.152zm71-56.418a10.63 10.63 0 0 0-2.43-4.102c.685-.176 1.369-.524 2.054-.7a44.17 44.17 0 0 1 3.826 7.524 78.11 78.11 0 0 0 5.231 12.319l-3.074 2.08-1.545.01c-1.199.18-2.401.188-3.429.366s-4.111 1.058-6.167 1.415l-.005-.687c3.939-1.056 7.878-2.283 11.987-3.512l-2.27-5.819c-2.571.361-4.799.719-7.198 1.25l-.005-.687c2.225-.873 4.278-1.744 6.502-2.789l-1.917-4.277c-5.152-.651-9.25 2.293-14.046 3.527 3.581-3.284 8.208-4.174 12.486-5.918zM1.975 229.617a14.6 14.6 0 0 1 2.924 1.009l13.091 7.462 14.641 8.309a55.61 55.61 0 0 1 9.827 6.797c2.971 2.704 5.69 5.672 8.125 8.867a152.09 152.09 0 0 1 13.179 20.33 111.92 111.92 0 0 1 10.969 23.434c2.631 8.39 5.09 16.781 4.635 25.707l.531 2.399 2.386-2.419c4.592-6.036 11.089-9.512 17.758-12.817s11.812-4.198 17.979-5.613l14.905-3.532a113.58 113.58 0 0 1 11.315-1.45c.316-3.948.462-7.724.951-11.503s.806-7.727 1.467-11.506.292-7.552 1.983-11.167c1.89.331 2.243 1.701 2.594 2.9l3.57 20.395c.361 2.743.207 5.318.397 8.062a3.1 3.1 0 0 0 .257 1.313c.181.414.45.783.789 1.082l.497-2.577c.143-4.291.114-8.581.429-12.701s.786-10.644 1.438-15.796c.25-1.081.647-2.123 1.18-3.096a15.26 15.26 0 0 1 2.622 7.189l1.766 7.366 3.035-33.309c2.229-.187 2.752 1.011 3.105 2.381a89.15 89.15 0 0 1 2.685 16.455c.568 7.889 1.308 15.777 2.391 23.663.149-3.261.47-6.524.447-9.955l-.877-28.135.208-20.077.498-2.406c1.892.673 1.902 2.046 2.08 3.074l2.327 14.227a25.05 25.05 0 0 0 .489-3.779l.583-15.275c.165-1.031.157-2.232 1.353-2.926s1.207.85 1.382 1.363c.944 2.803 1.708 5.664 2.289 8.564.909 4.243 1.568 8.536 1.974 12.856l2.918 25.547a32.8 32.8 0 0 0 1.256 8.056l-.739-33.111c-.417-10.979-1.349-21.955-1.94-33.104l.513-.347c.519.683 1.209 1.193 1.384 1.707l2.646 10.62.351 1.199a165.3 165.3 0 0 1 5.714 32.907l1.498 18.521a97.19 97.19 0 0 1-1.565 22.317c-1.24 6.985-1.192 14.138.142 21.105 2.564-1.562 5.128-2.952 7.52-4.512s.678-1.206.845-1.893c.83-4.124.117-8.066-.254-12.182a1.2 1.2 0 0 0-.13-.579c-.091-.179-.226-.333-.392-.446-2.764-2.727-3.131-6.328-3.154-9.76.273-10.297-.654-20.586-1.238-30.706a16.7 16.7 0 0 1-.199-4.117c.299-6.522-1.973-12.684-2.531-19.029s-2.17-16.458-3.257-24.859c-.181-1.371-1.392-2.907.482-4.807 2.628 7.875 4.224 15.586 6.848 22.946-1.602-8.397-3.031-16.795-3.952-26.055 1.206.679 1.893.674 2.239 1.186a23.15 23.15 0 0 1 2.604 4.444l6.273 14.2-5.131-22.959c1.024-.865 1.712-.526 2.233.328l1.56 2.392c5.207 8.716 10.242 17.433 13.397 27.192a23.68 23.68 0 0 0 2.615 6.16l-9.406-46.094c1.538-.869 2.405.327 3.099 1.523 2.431 4.159 4.526 8.506 6.265 12.999a175.82 175.82 0 0 1 6.491 21.061c2.996 11.648 5.65 23.47 8.132 35.293 1.038 5.076 1.476 10.256 1.306 15.434a23.34 23.34 0 0 0 1.441 10.114l4.268-3.289 6.481-5.706c1.193-1.21 2.216-2.246 1.517-4.129l-1.068-5.655c-.58-1.564-1.338-3.056-2.261-4.446-1.908-3.076-4.159-5.978-5.895-9.054a113.04 113.04 0 0 1-5.916-12.143c-1.925-5.478-3.164-11.132-4.746-16.612l-9.139-32.026a32.44 32.44 0 0 0-2.269-5.647l-.53-2.227c.736-.172 1.506-.12 2.212.151a3.78 3.78 0 0 1 1.745 1.366 45.14 45.14 0 0 1 7.972 11.615c3.475 6.496 6.439 13.34 9.745 20.181a27.91 27.91 0 0 0 1.567 3.25c-4.137-14.582-9.514-28.782-16.074-42.446 1.029-.178 1.884-.527 2.23-.186a19.7 19.7 0 0 1 3.8 3.749c2.425 3.415 4.68 7.003 6.936 10.763l3.822 6.838 3.841 9.755 4.013 9.925 2.275 6.505c1.405 4.795 2.983 9.76 4.045 14.557a46.99 46.99 0 0 1 .573 8.576c.108 2.884.472 5.753 1.087 8.572a46.08 46.08 0 0 0 2.104 6.506l10.045-11.564-.371-4.116a8.58 8.58 0 0 0-2.613-5.816 25.19 25.19 0 0 1-3.82-6.666c-5.396-11.289-8.74-23.621-12.766-35.433l-4.374-12.497-.704-2.569a2.23 2.23 0 0 1 2.92.495 54.04 54.04 0 0 1 9.361 14.007c2.962 6.672 6.267 13.342 8.032 20.537 1.229 4.11 2.973 8.216 3.859 12.5s1.27 10.115 1.991 15.258l.527 1.712c1.362-1.553 2.726-2.764 3.746-4.143l7.819-11.035c.327-.475.515-1.033.541-1.609a3.09 3.09 0 0 0-.391-1.652l-1.224-3.252c-.7-2.054-1.057-4.111-3.466-5.124s-1.383-1.535-2.075-2.389c-3.988-6.15-8.319-12.126-11.965-18.45s-8.334-14.529-12.159-21.882c-3.558-6.55-7.677-12.78-12.309-18.62.166-.243.382-.448.634-.601a2.08 2.08 0 0 1 .826-.284c.293-.034.589-.005.87.084s.538.239.756.437c2.111 1.58 4.076 3.348 5.87 5.28 5.015 5.8 9.689 11.774 14.362 17.748a16.46 16.46 0 0 0 2.42 2.558c-5.562-10.43-12.662-19.991-18.736-30.073 1.192-1.381 2.225-.873 3.089-.021s6.724 4.759 9.321 8.173c1.54 1.774 3.214 3.427 5.009 4.942l6.916 7.675c-.71-3.427-13.52-20.156-21.64-28.338a1.88 1.88 0 0 1 .552-.638c.229-.169.494-.283.775-.334a1.89 1.89 0 0 1 .843.037c.274.076.529.213.743.401a39.49 39.49 0 0 1 5.687 3.565c3.104 2.381 5.868 5.108 8.974 7.661a4.64 4.64 0 0 0 2.067 1.187l-11.988-21.883c.23-.204.5-.359.793-.454a2.22 2.22 0 0 1 .909-.099c.306.03.603.123.872.274a2.22 2.22 0 0 1 .689.601c6.144 5.006 11.606 10.795 16.246 17.22l11.093 16.398a69.47 69.47 0 0 1 4.513 7.691l9.723 16.921 1.905 2.561 3.39-6.2a1.88 1.88 0 0 0 .336-.737 1.87 1.87 0 0 0-.003-.809c-1.041-1.709-2.086-3.933-3.636-4.78-4.647-2.028-7.075-5.958-9.504-9.888l-12.844-21.534c-4.509-7.176-9.708-14.691-14.563-22.208l-3.642-5.638c1.193-1.209 2.398-.702 3.776.146 3.09 2.055 5.782 4.653 7.945 7.668 3.634 4.609 7.439 9.044 11.244 13.48a10.98 10.98 0 0 0-2.087-4.276l-11.266-16.568c-1.733-2.562-3.296-5.297-4.859-8.032 1.193-1.209 2.398-.702 3.434.32l8.637 8.521a72.59 72.59 0 0 1 5.881 6.824c5.6 6.552 10.534 13.647 14.728 21.178 2.262 4.617 4.865 8.889 7.126 13.507s1.573 4.107 2.444 6.161l2.265 4.96 4.913-9.299c.164-.619.159-1.27-.013-1.887-.834-2.419-2.486-4.472-4.672-5.803-3.79-2.205-6.218-5.963-8.644-9.55-5.199-7.515-9.884-15.205-15.082-22.719s-9.18-12.636-15.391-17.57l-.521-1.026c1.533-1.555 2.913-.535 3.948.316l6.565 6.476 4.318 4.261 6.398 7.163c3.98 4.95 8.131 9.898 11.769 15.021s5.722 8.712 8.497 13.155a15.95 15.95 0 0 1 2.786 5.986c.006.858.696 1.368 1.217 2.394 1.757-2.042 2.874-4.556 3.212-7.228.166-.859-.874-2.396-1.91-3.247a31.6 31.6 0 0 0-3.794-2.892c-4.565-3.77-8.479-8.265-11.587-13.305-2.948-4.613-6.238-9.052-9.188-13.837a27.29 27.29 0 0 1-3.656-7.868c.2-.199.442-.35.707-.442a1.9 1.9 0 0 1 .83-.094 1.88 1.88 0 0 1 .788.273 1.9 1.9 0 0 1 .594.586l4.489 4.088c7.429 7.5 14.857 14.828 19.042 24.752a27.35 27.35 0 0 0 2.256 3.759l2.607 4.787 3.046-6.198c.435-1.178.943-2.327 1.521-3.442.838-1.378 1.261-2.968 1.219-4.58a8.4 8.4 0 0 0-1.452-4.512c-1.279-2.439-3.046-4.588-5.19-6.314a61.11 61.11 0 0 1-8.299-9.21c-6.409-8.879-11.11-18.971-15.468-29.066-1.045-2.223-2.432-4.444-3.478-6.84-.149-.157-.259-.348-.32-.557s-.072-.428-.031-.641c1.712-.526 2.576.326 3.613 1.52l4.325 5.118c7.602 7.67 13.497 16.725 19.221 25.78 2.59 3.819 4.156 8.24 4.548 12.839.366 3.429 2.269 5.647 3.835 8.896.676-1.549 1.527-2.584 1.348-3.612s1.344-4.299 2.189-6.192l1.513-4.643c.107-.179.177-.378.205-.585s.014-.417-.042-.618c-1.219-2.737-2.269-5.647-4.856-7.688a26.46 26.46 0 0 1-5.009-4.771c-5.022-6.83-10.216-13.658-14.727-21.006-5.495-8.772-10.263-17.979-14.256-27.529a53.39 53.39 0 0 0-3.822-6.838l-1.389-2.393c1.364-1.382 2.056-.529 2.748.325s2.773 4.099 4.33 5.976l17.317 23.391c4.159 5.977 8.146 11.956 11.792 18.28 2.085 3.761 3.487 8.041 5.229 11.976l.703 2.397c.838 1.534 1.765 3.017 2.775 4.443 1.693-3.443 1.84-7.048 2.676-10.314l-.005-.686c-1.733-2.562-2.955-5.642-5.2-7.686a82.04 82.04 0 0 1-14.541-18.948c-5.899-9.569-11.115-19.658-16.673-29.572l-7.3-13.849-.356-1.885c2.056-.357 2.924 1.01 3.788 2.034l5.712 7.34 13.168 18.786a168.91 168.91 0 0 1 11.811 21.025l6.78 12.995 2.784 5.816 1.04 1.537 2.013-6.877-2.773-4.1c-2.6-3.757-4.516-8.034-7.799-11.443s-4.689-8.204-6.606-12.653l-6.453-15.399-8.721-20.875a73.64 73.64 0 0 0-4.693-8.891c1.709-1.041 2.402-.016 3.268 1.179l8.321 12.47c3.293 4.954 6.586 9.736 9.538 14.864 4.685 7.914 7.667 16.718 8.754 25.851a23.34 23.34 0 0 0 5.405 12.661l2.246 2.215 2.007-7.735a4.81 4.81 0 0 0-.708-3.084c-2.948-4.613-3.669-9.756-4.562-14.897l-5.733-35.823a251.81 251.81 0 0 0-5.163-27.591l-.355-1.713.34-.517c1.542-.354 2.236.843 2.93 1.868a87.86 87.86 0 0 1 10.813 25.837l1.758 6.165.686-.005-.574-8.747a245.71 245.71 0 0 1-1.416-31.734l-.062-9.265c-.007-1.029-.188-2.401 1.356-2.411s1.211 1.536 1.389 2.393l.923 9.603 1.541 24.87.09 13.383a293.17 293.17 0 0 0 .632 17.326c2.154-11.34 3.794-22.675 6.807-33.849a266.03 266.03 0 0 1 10.585-33.188c1.894 1.017 1.561 2.392 1.397 3.594l-2.656 13.23-5.844 23.891c-1.34 4.814-3.022 9.801-4.705 14.617a154.08 154.08 0 0 0-5.646 27.836l-1.291 12.02c-.16 1.717.194 3.43-.996 4.983s.178 1.028.356 1.885c.6-.289 1.117-.725 1.504-1.268a3.94 3.94 0 0 0 .705-1.836l1.336-5.5 6.725-20.465 4.886-13.246 7.4-22.185 4.035-12.382c.168-.516 1.023-.865 1.705-1.556l.878 2.911a45.66 45.66 0 0 1-.755 15.277c-.664 3.265-.814 6.526-1.65 9.792s-3.19 10.317-4.871 15.476a220.15 220.15 0 0 1-11.327 25.129 46.3 46.3 0 0 1-8.163 10.693c-2.386 2.419-2.883 5.168-3.892 8.091a.88.88 0 0 1 .384.088.85.85 0 0 1 .304.251c3.064-3.624 6.472-7.251 9.19-11.216 4.761-6.552 9.518-13.448 13.933-20.341l14.089-22.574 3.732-6.374c1.03-.007 1.55.847 1.386 1.878a14.58 14.58 0 0 1-.661 3.779c-1.679 5.502-3.013 11.174-6.069 15.999l-1.183 2.754-5.414 11.361a16.28 16.28 0 0 1-1.696 2.929l.69.51 24.899-22.647a2.75 2.75 0 0 1 .614 1.712c.004.624-.204 1.23-.591 1.72l-4.918 8.613-3.737 5.516c-5.266 7.929-11.912 14.666-18.558 21.574-4.467 4.881-9.377 9.337-14.666 13.312-3.415 2.597-7.005 4.508-10.421 6.934s-6.485 5.191-7.83 9.319l-1.17 4.469c.835.111 1.684-.049 2.422-.455a3.95 3.95 0 0 0 1.681-1.804 54.4 54.4 0 0 1 12.948-13.643 147.72 147.72 0 0 1 12.64-8.493 166.82 166.82 0 0 0 28.163-22.154l3.924-3.287c1.382 1.363.359 2.4-.321 3.262s-4.935 6.038-7.662 8.803l-17.549 18.479a78.08 78.08 0 0 1-19.466 14.031l-10.943 5.736a11.02 11.02 0 0 1-3.082 1.051 6.86 6.86 0 0 0-3.122 1.495 6.85 6.85 0 0 0-1.996 2.829c-1.852 5.332-3.36 10.661-4.866 16.334 1.874-2.072 4.264-3.804 5.621-6.215 2.929-4.9 7.028-8.996 11.93-11.921 9.565-6.585 19.128-13.342 29.211-19.415a197.21 197.21 0 0 0 22.536-16.797 9.61 9.61 0 0 1 1.368-.696l.017 2.574a2.74 2.74 0 0 1-.847 1.55c-3.405 3.97-6.637 8.11-10.215 11.909s-9.034 8.812-13.812 12.791a170.91 170.91 0 0 1-35.025 22.372l-5.643 2.784c-2.212.888-4.166 2.316-5.683 4.155s-2.547 4.03-2.997 6.37c2.571-.098 5.013-1.155 6.843-2.963 8.176-8.978 18.43-15.053 29.206-20.102 7.867-3.828 15.736-7.485 23.259-11.482s12.989-7.638 19.313-11.284c.171-.173.342-.174.857-.178.121.201.2.423.232.655a1.74 1.74 0 0 1-.047.693c-.063.226-.171.436-.318.618a1.72 1.72 0 0 1-.537.441l-4.777 4.151-8.53 7.264c-1.99 1.708-4.102 3.271-6.317 4.676-8.542 5.548-16.567 11.437-25.632 15.788-6.499 3.132-13.001 5.922-19.502 8.711a4.29 4.29 0 0 0-1.54.697c-3.074 2.08-7.018 2.45-10.441 3.846s-2.566 1.046-3.074 2.079c-2.547 3.964-4.749 8.269-7.464 12.749.879-.033 1.738-.269 2.51-.692a5.66 5.66 0 0 0 1.935-1.741c3.813-4.403 8.61-7.845 14.002-10.047l34.554-15.848c2.908-1.392 5.639-3.47 8.546-5.034l8.206-4.517c.332.525.449 1.158.325 1.766a2.4 2.4 0 0 1-.99 1.499c-3.584 2.769-6.996 5.71-10.754 8.309l-14.86 10.053c-7.19 5.005-15.009 9.039-23.255 11.997-5.651 1.754-11.472 3.681-16.947 5.948a17.5 17.5 0 0 0-9.373 9.501c4.282-1.058 8.397-1.601 11.636-4.711a14.93 14.93 0 0 1 6.5-2.962c7.367-1.765 14.562-3.53 21.93-4.952s10.285-1.614 15.425-2.679 7.194-1.936 10.791-2.818a7.71 7.71 0 0 1 3.084-.665c1.063-.008 2.116.205 3.093.623-.159 1.889-1.527 2.584-2.895 3.28-2.676 1.52-5.481 2.803-8.382 3.832-9.758 3.326-19.17 6.993-29.281 8.949l-18.682 3.215a8.24 8.24 0 0 1-4.119-.144c-4.644-1.684-7.89.397-10.442 3.674-2.016 2.884-3.776 5.939-5.257 9.13l.347.684c2.914-.534 5.657-.896 8.57-1.431.513-.187.98-.482 1.367-.867 4.596-5.522 10.928-7.967 17.782-9.386 3.952-.92 7.96-1.577 11.998-1.969a156.92 156.92 0 0 0 28.102-5.681c4.967-1.406 9.936-2.469 15.076-3.533.171-.173.515-.004 1.031.164a2.58 2.58 0 0 1-.469 1.475 2.57 2.57 0 0 1-1.231.939 66.22 66.22 0 0 1-13.858 5.928c-7.021 2.106-14.211 4.557-21.406 6.322s-19.36 4.42-29.126 6.546c-1.027.35-2.056.528-2.911.877s-6.17 1.072-9.256 1.436c-2.213.254-4.298 1.164-5.988 2.614-2.088 1.721-3.822 3.831-5.106 6.212 5.648-2.098 11.141-1.792 16.097-4.742s9.587-3.325 14.73-4.046l23.83-3.079 19.882-3.223 1.373-.009c.354 1.542-.843 2.236-1.697 2.757-5.306 1.923-10.44 4.017-15.575 5.939s-10.959 3.335-16.609 5.089c12.173-1.455 24.013-1.364 36.02-1.96.184 1.887-1.014 2.238-2.041 2.588-11.132 3.164-22.087 7.185-33.749 8.121-5.316.38-10.465.243-15.782.622s-12.866.43-19.376 2.019a19.74 19.74 0 0 1-6.348.042c-1.529-.128-3.068.071-4.514.584s-2.767 1.328-3.874 2.39c-1.484 1.382-2.851 2.883-4.088 4.489 3.263.321 6.008.303 8.229-1.085 5.127-3.123 10.956-3.849 16.783-4.918 9.598-1.609 19.212-.816 28.992-.883 8.335.084 16.659-.604 24.867-2.055 1.2-.18 2.401-.188 3.601-.368s-.5 2.234-1.699 2.585c-2.287.825-4.635 1.472-7.022 1.936l-29.129 6.031c-2.57.532-5.313.894-7.884 1.426a225.52 225.52 0 0 0 33.962-1.946c.531 2.399-1.01 2.924-2.38 3.276l-14.733 3.532-11.823 2.482c-3.941.713-8.396 1.773-12.509 2.487-.888.091-1.725.456-2.395 1.046l45.641-.309c.015 2.23-1.186 2.239-2.214 2.589s-5.652 1.411-8.566 1.945l-24.676 4.8a216.54 216.54 0 0 1-21.945 2.722c-4.892.402-9.817.03-14.593-1.102-5.501-1.507-11.17-2.498-16.821-.744-.513.175-1.2.179-1.541.525l-10.386 11.91c4.627-.889 8.748-.402 12.859-1.46 8.444-2.343 17.324-2.639 25.905-.861l41.229 7.099a51.11 51.11 0 0 0 7.211.638c.357 2.056-.843 2.236-2.042 2.416l-12.346 1.284-15.95 1.138c-1.375.037-2.751-.011-4.12-.144-6.01-.646-12.189-.947-18.03-1.937s-9.968-2.335-14.952-3.502a64.31 64.31 0 0 0-18.892-2.618 14.55 14.55 0 0 1-2.745.019l-18.909 20.375c.688.167 1.033.508 1.375.334 3.429-.366 7.036.124 10.459-1.1a31.74 31.74 0 0 1 14.403-1.642c7.898.805 15.795 1.266 23.692 1.899 1.212.422 2.369.99 3.443 1.692 3.853-1.941 7.465-4.326 10.762-7.108l3.413-2.768c.512-.518 1.199-.351 1.885-.528s.351 1.199.183 1.715l-2.678 9.97 1.719.503c3.781.833 7.732 1.492 11.513 2.496a3.78 3.78 0 0 0 3.769-.883c4.774-4.494 10.776-5.049 16.783-4.918 2.806.221 5.575.779 8.247 1.66a78.06 78.06 0 0 1 19.102 8.107c4.651 2.714 9.473 5.255 13.446 9.175l.863.852c-.017.221-.081.435-.189.629a1.55 1.55 0 0 1-.433.493 1.56 1.56 0 0 1-.599.268 1.55 1.55 0 0 1-.657-.004c-2.037-.158-4.075.305-5.844 1.328a10.13 10.13 0 0 0-4.069 4.401c-1.409 2.143-2.656 4.388-3.73 6.717-1.327 3.442-3.435 6.53-6.157 9.019a23.84 23.84 0 0 1-9.532 5.329l-24.311 8.058a53.39 53.39 0 0 0-8.555 3.661c-1.914 1.106-3.595 2.574-4.947 4.324-2.041 2.587-1.167 4.984 1.928 5.992a11.84 11.84 0 0 0 8.408-.057 60.33 60.33 0 0 0 7.7-3.141c6.327-3.303 12.654-6.434 18.113-11.275a130.15 130.15 0 0 0 14.324-13.138c3.879-4.326 8.828-7.555 14.35-9.363l1.541-.525a9.61 9.61 0 0 1 5.38-1.081c1.86.17 3.63.879 5.093 2.039l2.933 2.211c-.513.347-1.198.523-1.71.87s-4.631.374-7.206.22l4.107-1.744-.006-.857c-1.546-.162-3.096-1.009-4.294-.658-6.166 1.758-12.331 3.515-16.93 8.523a184.42 184.42 0 0 1-19.1 17.459c-2.618 2.048-5.42 3.848-8.372 5.376-4.103 2.259-8.551 4.176-12.999 6.094a15.8 15.8 0 0 1-6.03 1.522 15.79 15.79 0 0 1-6.149-.925c-4.301-1.687-5.529-5.625-2.636-9.248 1.363-1.648 3.046-3.002 4.949-3.98 3.429-1.702 6.974-3.16 10.609-4.362l24.823-8.404c2.767-1.099 5.313-2.685 7.519-4.684a14.91 14.91 0 0 0 2.892-3.622l-.348-.685c-2.228.359-4.628.718-6.857.905s-4.282 1.23-6.345.558c4.798-.891 9.24-3.838 14.739-2.674l4.228-9.123-11.491.936c3.649-1.088 7.371-1.916 11.137-2.478.685-.176 1.886-.184 2.226-.701s4.263-3.976 7.861-4.686c-2.932-2.211-5.849-2.191-8.774-3.373 1.664-.04 3.324-.166 4.974-.377-2.931-2.039-5.858-3.563-8.788-5.431a7.38 7.38 0 0 0-5.327-1.165c-2.57.532-4.968 1.235-7.366 1.766 1.357-2.24 3.931-2.258 6.151-3.817-2.578-.669-4.647-2.028-7.392-2.009a18.02 18.02 0 0 0-7.874 2.799c-1.71.869-3.419 1.91-5.128 2.951l-.346-.512 9.392-6.584c-2.678-1.028-5.559-1.419-8.415-1.144-2.571.532-4.961 2.264-7.527 3.483l-.001-.172 4.096-3.288-1.716.012c-3.429.366-5.816 2.613-8.55 4.347-6.013 3.549-10.728 8.934-13.451 15.363a137.48 137.48 0 0 0-7.24 20.468c-1.004 3.809-2.857 7.342-5.421 10.332a2.91 2.91 0 0 1-1.212 1.015 2.92 2.92 0 0 1-1.564.235 2.93 2.93 0 0 1-1.456-.616 2.92 2.92 0 0 1-.92-1.286 7.89 7.89 0 0 1-1.395-3.25c-.909-7.544-1.132-15.093 2.595-22.153l3.39-6.2c1.45-2.595 2.694-5.3 3.721-8.09 1.85-5.503 3.187-10.832 4.694-16.333.169-.344-.005-.686-.183-1.543-2.556 2.591-4.77 5.009-6.983 7.597l-.527-1.712c-3.763 1.741-7.527 3.311-11.463 4.882-1.198.523-2.911.878-3.591 1.912-.797.946-1.874 1.614-3.075 1.908-.863.23-1.637.714-2.222 1.388-1.785 1.465-3.493 3.023-5.116 4.667a94 94 0 0 0-8.511 10.01c-4.419 6.379-3.855 13.582-1.92 20.604l6.861 25.006c.286 1.529.468 3.075.546 4.629.86.337 1.895 1.017 3.272 1.694a7.9 7.9 0 0 0 1.185-2.411c1.124-4.553 1.725-9.22 1.793-13.911-.22-7.205-.097-14.412.196-21.793.445-10.298 5.365-18.568 11.833-26.333 0 0 .344.169.171-.001l-2.372 4.477c-4.526 6.553-7.147 14.233-7.571 22.187l-.416 14.587-.581 15.619a58.14 58.14 0 0 1-1.655 8.934c2.581 1.012 4.63-.375 6.337-1.759a467.17 467.17 0 0 0 16.381-13.495c6.313-5.362 10.898-12.428 16.174-18.812l11.403-13.805c2.556-2.82 5.289-5.475 8.182-7.948 3.071-2.595 11.12-5.051 16.093-5.428l-9.244 3.151a11.82 11.82 0 0 0-3.249 1.738c-6.659 4.849-11.935 11.234-17.212 17.447s-8.845 11.556-13.44 17.078c-2.554 2.934-5.625 5.529-8.179 8.463a90.76 90.76 0 0 1-15.357 12.802l-2.047 1.73c6.862-.218 11.464-4.711 16.762-7.835-4.284 4.334-9.317 7.856-14.857 10.395.518.512.864 1.024 1.38 1.192l8.961 5.602a8.58 8.58 0 0 0 4.252 1.293 8.56 8.56 0 0 0 4.329-1.008c1.06-.452 2.088-.975 3.078-1.565 2.393-1.389 4.785-2.949 7.349-4.339-3.235 3.625-7.683 5.714-11.437 8.828a15.1 15.1 0 0 0 5.658-.725 121.26 121.26 0 0 0 14.371-6.274c10.219-5.732 20.996-10.405 32.165-13.945 3.085-.909 6.023-2.258 8.724-4.005 6.29-4.393 12.988-8.174 19.999-11.289a34.09 34.09 0 0 1 4.451-1.574c-.168.516-.166.859-.337.86-8.725 3.834-17.276 8.181-24.44 14.407a8.1 8.1 0 0 1-1.71.87l-13.695 4.725a8.06 8.06 0 0 0-2.567 1.047c-3.765 1.57-7.528 3.311-11.291 5.053l-9.235 4.523-9.233 4.867c-1.539.869-3.251 1.395-4.79 2.092l.004.686 11.994-2.655c-4.785 2.95-10.27 3.845-16.098 4.742a9.93 9.93 0 0 0 1.729 1.876l12.245 9.183 19.144 14.455c2.933 2.383 5.684 3.222 8.929.97s1.882-.871 2.908-1.393l5.982-3.472.348.684c-3.759 2.428-7.516 5.027-11.274 7.626 1.067.58 2.274.851 3.486.783a6.52 6.52 0 0 0 3.375-1.172c4.617-2.434 9.233-4.867 13.677-7.471 7.861-4.686 15.376-9.885 24.451-12.692 2.912-.877 5.823-1.755 8.906-2.462l-2.048 1.558-3.596 1.054a61.26 61.26 0 0 0-14.883 6.792c-5.807 3.986-11.961 7.46-18.113 11.105-3.077 1.736-6.155 3.301-9.917 5.214l6.009.475.005.686c-2.23.187-4.63.546-6.859.733s.177.856.522 1.026l16.053 14.133c1.54 1.494 3.489 2.497 5.6 2.88a10.81 10.81 0 0 0 6.254-.729l2.739-1.049c5.474-2.439 10.598-5.905 16.42-7.661a36.9 36.9 0 0 1 18.689-2.185c-.262.3-.63.486-1.026.522a35.68 35.68 0 0 0-14.74 2.502c-4.276 2.088-8.727 3.49-12.83 5.749s-8.548 4.691-14.208 5.072c3.963 2.375 7.726.634 11.163 1.469l-8.052 1.77c13.478 13.979 28.319 26.405 39.066 42.462-2.404-1.862-4.655-3.912-6.733-6.132l-7.953-8.869c-4.148-4.433-8.64-8.864-12.958-13.125s-7.431-7.671-11.403-11.419-8.459-7.664-12.775-11.582-5.701-5.624-8.979-8.175-7.251-6.643-11.559-9.359-3.969-3.234-5.867-4.765c-5.347-4.082-10.691-7.821-15.697-12.249-6.125-4.934-12.514-9.531-19.14-13.769a17.82 17.82 0 0 0-3.1-1.695c-.022.247.033.494.158.709s.312.384.537.488l11.384 8.845 26.044 19.729c4.484 3.401 8.63 7.491 13.115 11.064a496.5 496.5 0 0 1 31.253 28.787l20.739 21.824c2.581 3.065 4.846 6.384 6.758 9.906-.803-.487-1.506-1.123-2.071-1.873-3.269-4.505-6.976-8.676-11.066-12.452l-21.599-22.16-9.327-9.031-5.176-4.255-8.112-6.98c1.061 4.626 2.117 8.565 2.83 12.507 1.074 6.684.262 13.382-.379 20.078-1.217 10.506-.972 21.129.728 31.568.178.857.699 1.883-.668 2.75l-1.451-11.659a105.98 105.98 0 0 1-.321-22.132c.148-3.433.983-6.871 1.132-10.132a52.51 52.51 0 0 0-3.051-19.884c-1.068-3.884-3.308-7.345-6.416-9.908-2.416-2.043-4.662-4.259-7.25-6.3s-5.516-3.738-8.274-5.607c1.407 5.138 3.157 10.103 2.168 16.115l-.526-1.712a32.78 32.78 0 0 0-3.69-12.845l-2.435-4.788c-.348-.684-1.208-1.021-2.069-1.53l.006 1.03c3.65 6.838 3.7 14.216 3.407 21.597s-2.985 15.292-5.338 22.686a230.8 230.8 0 0 0-7.701 28.364l-1.656 8.762c-.172.002-.516-.168-.688-.166.821-5.497 1.126-11.161 2.29-16.66s3.351-11.863 5.027-17.708 5.383-15.994 6.013-24.406c.686-6.178.059-12.43-1.84-18.348-1.063-3.309-2.841-6.343-5.208-8.887.548 4.972 2.636 9.248 1.295 13.89-.276-1.126-.456-2.273-.538-3.429-.827-4.502-2.241-8.877-4.206-13.012-1.568-3.421-4.84-5.115-8.289-7.665a53.83 53.83 0 0 1 1.825 16.117l-3.183-14.049a1.37 1.37 0 0 1-.685.176 48.89 48.89 0 0 1-2.806 16.492c-2.688 8.426-5.205 16.851-9.443 24.601-4.307 7.689-8.038 15.686-11.163 23.926l-7.412 20.298-1.351 3.269a1.37 1.37 0 0 1-.366-.636c-.062-.241-.057-.495.014-.734l4.539-13.929 3.877-10.15c1.057-3.334 2.295-6.608 3.709-9.806 2.029-4.475 4.919-8.441 6.776-12.915 2.799-6.118 5.276-12.378 7.423-18.754 1.512-4.814 3.538-9.633 4.018-14.784s.461-8.067-1.796-11.827c-.498-.591-1.08-1.107-1.726-1.533.552 5.487.929 10.461-1.097 15.279l-.016-2.23c.83-4.124-.397-8.062-.939-12.005a8.76 8.76 0 0 0-1.22-2.909c-3.295-5.125-8.799-6.976-14.135-9.513a24.19 24.19 0 0 1 .774 13.035c-.307-3.973-1.321-7.86-2.994-11.476-.35.564-.468 1.241-.331 1.89-.044 5.46-1.053 10.869-2.98 15.978a22.13 22.13 0 0 1-3.215 6.713c-3.369 3.851-7.142 7.328-11.255 10.372-8.655 6.298-16.25 13.937-22.497 22.63l-2.891 3.795a4.99 4.99 0 0 1 .498-2.406c5.09-8.322 11.604-15.684 19.243-21.75a133.27 133.27 0 0 0 13.988-12.106c1.961-1.814 3.373-4.142 4.073-6.72.669-2.578 1.682-4.987 2.18-7.564 1.034-3.035 1.307-6.278.794-9.443-1.531 2.069-1.339 4.985-3.558 6.716.149-1.861.481-3.702.992-5.498.836-3.266 1.844-6.533-1.946-8.738l-.52-.682a6.52 6.52 0 0 0-3.79-2.206l.005.687c1.756 5.994-.278 9.611-6.276 10.852-1.885.356-3.772.369-5.658.553-7.203.564-14.405 1.299-20.9 5.118l-5.981 3.644a9.61 9.61 0 0 1 2.725-3.107c6.491-4.334 13.686-6.098 21.228-7.179a74.63 74.63 0 0 0 8.916-1.09c4.796-1.233 6.654-5.536 4.227-9.294-1.173-1.851-2.85-3.328-4.834-4.257-1.721-.847-3.777-.318-5.665-.477l3.135 6.843a29 29 0 0 1-14.752.786c-3.887-.9-7.95-.669-11.711.663a20.93 20.93 0 0 0-9.515 6.859c-4.865 5.485-8.507 11.944-10.682 18.947-1.122 4.195-1.556 8.544-1.286 12.878l2.707-5.681 2.878-5.853.688.338c-1.685 4.473-4.231 8.608-4.37 13.414a32.6 32.6 0 0 1 10.736-10.883c2.76-1.956 6.036-3.053 9.417-3.153 3.346.116 6.661-.677 9.593-2.295l5.638-3.642c.62-.666 1.411-1.149 2.287-1.397s1.802-.251 2.679-.009c.65.186 1.244.529 1.73.998a4.13 4.13 0 0 1 1.056 1.695c.208.642.254 1.327.135 1.992s-.4 1.29-.817 1.821c-2.728 4.273-6.914 7.411-11.78 8.831-4.452 1.403-9.252 2.122-14.048 3.355a10.3 10.3 0 0 0-3.423 1.396c-5.801 4.844-10.052 10.535-11.545 18.095-.186 1.716-.116 3.451.206 5.146a28.31 28.31 0 0 1 7.319-8.8 2.22 2.22 0 0 1-.847 1.55c-2.148 2.51-3.606 5.536-4.231 8.78-.499 2.234-.656 4.465 1.416 6.339l2.366-5.335a6.86 6.86 0 0 1 3.406-3.798c-3.384 7.058-3.731 6.545-3.699 11.178-.066.94.145 1.879.608 2.699a4.81 4.81 0 0 0 1.997 1.916c4.384-11.354 5.232-12.904 7.792-14.981l-.675 1.721c-1.522 3.27-3.046 6.369-4.225 9.637s-.983 6.87 2.638 9.42c.837-3.094 1.159-6.185 3.028-8.943a13.38 13.38 0 0 1-.661 3.779c-1.009 2.924-.304 5.836.403 8.748.087.47.349.889.733 1.173a1.89 1.89 0 0 0 1.336.358c.731-4.351 2.212-8.541 4.378-12.384a13.02 13.02 0 0 1-.497 2.748l-1.83 8.421c-.836 3.266.724 5.657 3.654 7.525.495-2.92-.039-5.834 1.143-8.587.543 4.114-.628 8.583 2.655 11.993l-.036-5.319.944-12.704a35.36 35.36 0 0 1 6.059-17.372c5.454-7.404 12.287-13.684 20.123-18.496 1.994-1.186 4.206-1.959 6.505-2.274.847-.219 1.734-.238 2.59-.056a5.67 5.67 0 0 1 2.343 1.104c.685.544 1.235 1.239 1.606 2.032a5.67 5.67 0 0 1 .534 2.534 20.24 20.24 0 0 1-.483 4.636 34.69 34.69 0 0 1-2.526 7.053L275 461.818c-3.904 6.204-6.634 8.453-9.694 12.763s-6.623 10.169-9.848 15.338c-1.356 2.583-1.179 3.269.723 5.486l1.899 1.703c1.344-4.298 2.518-8.253 6.098-11.709-1.349 3.441-2.532 6.194-3.371 8.945s-.487 4.122 3.295 5.126l1.507-5.501c.413-1.938 1.35-3.725 2.71-5.166l-1.995 9.451c-.163 1.202-.327 2.404.879 3.082s2.928 1.525 4.822 2.542c-.045-5.083 1.158-10.1 3.504-14.609-.822 5.325-2.846 10.486-.751 15.791l4.822 2.541c.228-3.428 1.016-6.795 2.335-9.968l.016 2.403a35.33 35.33 0 0 0 .05 7.378c.188 2.4.359 2.399 3.622 2.72a45.78 45.78 0 0 1 1.441-15.281l.025 3.775.583 10.12a3.95 3.95 0 0 0 .245 1.522c.18.487.455.933.808 1.313a3.93 3.93 0 0 0 2.75 1.257c-.372-4.287-1.6-8.225-.427-12.351a4.63 4.63 0 0 1 .529 2.055c.088 3.323.87 6.591 2.296 9.594.52.854.869 1.71 2.238 1.186l-.01-1.545a31.39 31.39 0 0 1-.444-14.925l4.662-20.965c1.504-6.016 3.352-11.863 3.652-18.214a27.06 27.06 0 0 1 1.503-6.187c.594-1.319 1.463-2.495 2.55-3.449a3.62 3.62 0 0 1 1.226-.733c.453-.159.934-.227 1.414-.198s.949.153 1.38.366a3.62 3.62 0 0 1 1.13.873 10.81 10.81 0 0 1 2.619 6.675c.04 6.005-2.326 11.34-5.036 16.506l-4.915 9.128c-1.186 2.238-1.856 4.645-3.043 6.712-2.709 5.338-3.702 10.664-.747 16.306l1.222 3.081c.171-.001.342-.174.513-.175l.302-6.18.686-.004.366 3.429c.355 1.714.539 3.6 1.066 5.312a5.82 5.82 0 0 0 1.484 2.937c.766.816 1.751 1.395 2.837 1.667-.658-3.807-.626-7.701.094-11.497l.542 4.114a29.81 29.81 0 0 0 1.933 6.679 4.29 4.29 0 0 0 4.994 2.712c-.369-3.773-1.595-7.539-.763-11.32l.531 2.399 2.806 8.903c.525 1.541 1.728 1.876 3.27 1.523-.197-3.774-1.765-7.367-1.103-10.975a7.24 7.24 0 0 1 .528 2.056 18.89 18.89 0 0 0 3.835 8.897c.398.56.955.989 1.599 1.229s1.346.282 2.014.119l-1.755-5.822c-.884-3.769-.884-3.769-.55-5.144l2.975 8.559c1.221 2.909 2.773 4.099 5.69 4.08a18.88 18.88 0 0 1-3.52-13.017l.705 2.74a20.93 20.93 0 0 0 4.356 9.751c.866 1.196 1.899 1.704 3.093.666a50.59 50.59 0 0 1-2.44-5.646c-1.44-5.903-1.598-12.045-.465-18.014.936-3.994 1.369-8.09 1.29-12.191a79.51 79.51 0 0 0-2.144-12.512c-.671-4.49-.291-9.074 1.11-13.391a13.39 13.39 0 0 1 3.569-5.172c.694-.707 1.566-1.213 2.524-1.464s1.967-.24 2.918.035a5.5 5.5 0 0 1 2.488 1.526c.676.724 1.144 1.617 1.354 2.585l.366 3.43c-.129 6.74-1.122 13.436-2.954 19.924-1.614 4.211-2.736 8.595-3.343 13.064-.681 8.205.19 16.465 2.567 24.348.25.934.685 1.808 1.28 2.571a7.21 7.21 0 0 0 2.182 1.867c-.724-5.486-2.986-10.104-3.019-15.08l5.244 14.207c.874 2.396 1.045 2.395 3.787 1.862-.545-4.458-3.318-8.557-2.662-13.023l4.538 11.294c1.048 2.738 1.048 2.738 4.822 2.541l-2.472-10.278 4.348 8.55c1.39 2.564 1.733 2.562 4.984 1.167l-1.933-6.679.515-.003 4.338 7.177c1.37-.352 2.399-.531 3.426-.881l-3.153-9.416c-3.222-9.407-5.529-19.102-6.887-28.952-.276-2.318.008-4.669.83-6.854a14.59 14.59 0 0 1 3.889-5.704 4.79 4.79 0 0 1 1.592-1.143c.603-.268 1.255-.408 1.915-.413s1.314.127 1.921.387a4.8 4.8 0 0 1 1.607 1.121 14.07 14.07 0 0 1 5.202 8.03c.707 3.084 1.759 6.337 2.295 9.593.449 3.066.642 6.164.578 9.262-.147 3.605-.981 7.214-1.128 10.818a44.96 44.96 0 0 0 .765 11.663c1.715-.183 3.606.319 3.589-2.083l-.416-10.808.335-1.203.344-.003 2.149 13.37c2.513-.189 4.933-1.034 7.019-2.45-.254-5.414-1.213-10.772-2.854-15.938a48.06 48.06 0 0 1 4.905 14.723c4.621-1.747 5.3-2.781 4.756-7.067l-.707-3.084-.536-3.085a13.58 13.58 0 0 1 2.432 4.273l1.403 4.624c2.567-1.047 4.965-1.75 7.531-2.797l-6.077-10.597a59.7 59.7 0 0 1 6.576 8.192 4.12 4.12 0 0 0 1.867 1.855c.808.397 1.725.518 2.609.345 2.059-.014 4.12.315 6.352.472s1.89.33 3.092.494l-2.084-3.761c1.896 1.36 2.766 3.07 4.654 3.229l-.556-6.174a7.73 7.73 0 0 0-2.096-5.477l-6.051-6.651-.867-1.366.511-.519 8.807 8.177 1.662-7.904a2.75 2.75 0 0 0-.708-3.256l-7.078-6.301c-1.036-.946-2.196-1.746-3.448-2.379 4.641 1.17 8.264 4.063 12.231 7.124l1.163-5.67c.188-.776.1-1.593-.249-2.311a3.44 3.44 0 0 0-1.665-1.623l-6.206-4.247-.003-.343 7.572 3.209c-1.053-3.425-2.443-5.99-5.879-6.653s-6.87-.983-10.476-1.302-8.753-.283-13.047-.941a19.22 19.22 0 0 1-7.397-2.695 4.28 4.28 0 0 1-1.517-1.388c-.386-.579-.626-1.242-.698-1.934s.025-1.391.283-2.037.669-1.22 1.198-1.671c1.371-1.597 3.056-2.894 4.951-3.809a27.28 27.28 0 0 1 19.717-2.364c3.266.836 6.534 2.015 9.801 3.022s2.062.501 3.266.836c.209-.575.298-1.186.261-1.797a4.46 4.46 0 0 0-.476-1.752 4.45 4.45 0 0 0-1.136-1.417 4.46 4.46 0 0 0-1.606-.848c-1.143-.598-2.357-1.051-3.612-1.348-1.891-.502-3.952-.831-5.843-1.333a16.46 16.46 0 0 1 5.834.132 58.3 58.3 0 0 1 5.842 1.161l.82-5.668-7.051-2.354-.004-.515c2.405.327 4.639.827 7.387 1.151l-.026-3.775c-2.408-.841-4.815-1.511-7.221-2.181l-.003-.344c2.402-.016 4.634.141 7.379.122-.533-2.742-2.597-3.414-4.658-3.743a43.98 43.98 0 0 0-6.695-.47 99 99 0 0 0-29.129 6.031 80.63 80.63 0 0 1-12.677 3.175 19.56 19.56 0 0 1-7.038-.467c-3.265-.665-3.968-3.234-1.582-5.652a11.96 11.96 0 0 1 2.901-2.25c5.946-3.2 12.358-5.444 19.002-6.649 6.516-1.522 13.201-2.202 19.891-2.022l1.372-.01c1.204-.036 2.408.013 3.604.147l1.545-.01c1.193.191 2.397.298 3.605.319a21.63 21.63 0 0 0 9.952-.068l-.363-2.914-7.213-.981a7.39 7.39 0 0 0 1.196-.694l5.148-.035c.161-1.546-.189-2.573-1.222-3.081.815-.54 1.56-1.179 2.218-1.902l2.111 7.707c.708 3.256.027 4.118-3.231 4.312a62.08 62.08 0 0 1-8.067-.289c-3.816-.459-7.658-.662-11.501-.608l-.514.003c-7.951.028-15.857 1.179-23.485 3.419-3.938 1.228-7.704 2.626-11.468 4.196s-4.277 1.916-4.773 4.665c2.437 1.241 5.233 1.587 7.9.976a98.95 98.95 0 0 0 13.53-3.695 90.77 90.77 0 0 1 27.76-5.507 32.31 32.31 0 0 1 7.038.296c4.807.482 7.23 3.554 6.921 8.533l-.807 7.555.048 7.035.897 5.828c-.87.013-1.737-.097-2.576-.326l-11.349-3.527a29.85 29.85 0 0 0-17.329.118 15.27 15.27 0 0 0-7.35 4.339c-2.216 2.074-2.028 4.475.725 5.658a33.14 33.14 0 0 0 7.39 1.666c6.01.645 12.018.948 18.199 1.592 2.196.214 4.343.778 6.36 1.673 3.96 2.033 5.189 6.142 5.045 10.09-.235 4.574-.893 9.117-1.968 13.569-2.122 7.316-2.364 15.048-.705 22.483l.348.855c.011 1.545-.673 1.892-2.05 1.215a31.31 31.31 0 0 0-5.338-2.709c-8.082-2.519-15.447-.582-22.279 4.097a35 35 0 0 1-18.315 6.645c-3.087.192-3.949-.317-4.312-3.231s-.922-9.432.077-14.071c1.502-7.47 1.096-15.199-1.182-22.47l-1.753-5.48c-.418-.966-.942-1.883-1.563-2.734-3.806-4.607-6.029-3.563-8.745.917a17.33 17.33 0 0 0-1.801 12.71c1.801 8.985 4.154 17.851 7.043 26.548a68.96 68.96 0 0 0 3.831 8.211 9.11 9.11 0 0 1-2.908 1.392c-7.794 1.226-15.736 1.164-23.509-.184-4.982-.824-7.064-4.242-8.295-8.695-2.281-7.363-2.161-15.085-2.214-22.806.093-3.006.712-5.972 1.829-8.764 2.346-6.602 3.856-13.472 4.494-20.449a42.97 42.97 0 0 0-.217-6.691c-.361-2.743-2.427-3.759-4.65-2.542a8.75 8.75 0 0 0-3.048 2.392c-.825 1.015-1.411 2.202-1.716 3.474a28.65 28.65 0 0 0-.769 13.218l1.953 9.767c.487 4.778.113 9.604-1.104 14.249a41.01 41.01 0 0 0 .111 16.472c.432 1.783 1.201 3.467 2.264 4.961 1.734 2.562 1.228 3.938-2.032 3.96a20.6 20.6 0 0 1-6.526-.813c-3.608-.662-7.046-1.669-10.655-2.502s-10.142-2.677-15.129-4.188c-2.723-.994-4.952-3.01-6.215-5.62-2.51-4.648-3.951-9.796-4.22-15.071-2.527 6.88-1.623 13.738.312 20.76-3.171.493-6.416-.026-9.276-1.482-7.228-3.211-14.286-6.595-21.345-10.151-3.238-1.349-6.398-2.874-9.469-4.569a14.73 14.73 0 0 1-2.757-1.697c-3.799-3.577-4.153-5.119-1.266-9.6a241.19 241.19 0 0 1 14.103-20.515 151.64 151.64 0 0 0 12.397-19.13 78.63 78.63 0 0 0 5.58-12.221l.661-3.779c.657-4.294-2.44-5.475-5.523-4.596a17.02 17.02 0 0 0-5.305 2.095 63.85 63.85 0 0 0-20.796 20.388c-3.225 5.17-3.87 11.18-4.345 17.189-.326 2.331-.482 4.684-.467 7.038l.397 7.891c.358 2.228-.324 2.919-2.217 2.074-1.724-.877-3.296-2.025-4.656-3.401a238.61 238.61 0 0 1-17.975-19.268c-3.576-4.296-6.185-9.311-7.65-14.705a12.87 12.87 0 0 1 .458-8.411 38.61 38.61 0 0 1 10.364-15.17 17.16 17.16 0 0 1 7.696-3.827l11.308-2.478c3.769-.884 6.839-3.65 9.737-6.415a4.12 4.12 0 0 0 1.356-2.583 3.43 3.43 0 0 0-1.046-2.395c-.384-.235-.819-.372-1.268-.399s-.898.057-1.307.245a27.21 27.21 0 0 0-3.586 2.598 24.19 24.19 0 0 1-13.525 4.552 14.93 14.93 0 0 0-6.68 1.762c-5.129 2.78-9.568 6.07-11.933 11.577-.918 2.376-2.304 4.545-4.075 6.376-1.834-6.481-2.057-13.313-.649-19.9a38.95 38.95 0 0 1 7.946-17.556c-3.956-1.346-7.91-2.52-11.696-4.039a64.88 64.88 0 0 1-21.195-13.24c-2.417-2.215-5.344-3.739-7.759-5.61a34.67 34.67 0 0 1-8.643-9.379c-1.562-2.564-4.482-3.059-7.063-4.071s-2.743.362-3.942.713l-10.952 4.364-5.472 2.783a8.24 8.24 0 0 0 5.677 2.192c4.776-.045 9.433 1.492 13.243 4.372 5.345 3.91 10.523 8.336 15.698 12.42 9.317 7.486 18.805 14.972 29.989 19.529.229-.001.401.169.518.512-.161 1.545-1.362 1.553-2.566 1.218s-6.187-1.502-9.111-2.512c-7.913-3.035-15.995-5.554-23.232-9.967-2.173-1.299-4.149-2.903-5.866-4.764-6.393-6.478-12.615-13.128-20.371-18.223-3.619-2.378-7.404-3.725-11.852-1.807s-8.898 3.663-13.347 5.409a24.35 24.35 0 0 0-3.079 1.394l.009 1.373c-.908-.166-1.84-.16-2.745.018l-.521-.854c-.453-1.212-1.145-2.319-2.036-3.257a9.62 9.62 0 0 0-3.149-2.199 34.13 34.13 0 0 0-6.028-3.391 15.97 15.97 0 0 0-6.706-2.014 21.27 21.27 0 0 0-2.75-.667l-.009-1.373a61.91 61.91 0 0 1 9.794 1.993c.888.433 1.869.641 2.857.604a6 6 0 0 0 2.804-.814l3.077-1.737c4.968-3.853 9.589-8.133 13.812-12.791 2.216-2.246 4.257-4.833 6.301-7.078l1.194-1.037c3.235-3.797 6.641-7.595 9.703-11.563s4.413-7.065 6.791-10.684c2.36-2.299 4.008-5.229 4.747-8.44l-.518-.511c-3.076 1.908-6.152 3.645-9.743 5.556a28.11 28.11 0 0 1 3.444 1.865c.595.358 1.121.819 1.554 1.362l-7.219-1.839c.666-2.921 2.02-5.676 1.656-8.762-3.772.369-7.376.221-10.975.932-7.37 1.251-14.736 3.017-22.104 4.611-3.426.881-6.68 1.761-9.933 2.813-5.695 2.105-11.051 5.032-15.899 8.687a15.96 15.96 0 0 0-6.136 6.047c3.098 1.352 6.366 2.531 9.634 3.71l-.043-6.349a1.89 1.89 0 0 0 .857-.177c.553 5.658 1.791 11.141 6.113 15.916l1.575-20.773.686-.005.011 1.545-.253 13.385.539 3.6 2.564-1.561a5.16 5.16 0 0 0 1.872-1.899 5.15 5.15 0 0 0 .671-2.58 90.21 90.21 0 0 1 .45-9.612l.312-4.635c1.235 4.968.068 10.123 1.646 15.089 1.368-.696 2.392-1.561 3.59-2.084.856-.276 1.593-.837 2.087-1.589s.717-1.651.63-2.547l.78-11.502.323-2.919c.445 2.489.635 5.018.566 7.546l.57 8.061 5.984-3.129.31-4.979.479-5.15c.163-1.374-.362-2.915.996-4.983l.04 5.833c.012 1.716.538 3.429.378 5.146s1.391 2.736.544 4.286c3.784 1.347 7.397 2.867 10.838 4.216-4.637-.655-9.104-1.483-13.743-2.309a4.29 4.29 0 0 0-2.057.185c-1.368.696-2.564 1.562-4.272 2.603 1.72.675 2.752 1.011 3.785 1.519l5.165 2.539a9.79 9.79 0 0 1-2.231.015c-3.266-.836-6.532-1.672-9.968-2.335l-5.466 3.64c7.396 2.696 13.935 5.397 19.457 9.992l-5.677-2.192c-4.474-1.857-8.948-3.714-13.42-5.228-1.12-.337-2.316-.329-3.431.023-1.512 1.1-2.938 2.315-4.265 3.632 6.523 2.407 12.759 5.53 18.594 9.312-.773.143-1.568.129-2.336-.043a5.83 5.83 0 0 1-2.132-.957l-11.359-5.07c-1.407-.434-2.843-.768-4.297-1.001a12.82 12.82 0 0 1-.146 3.776 3.09 3.09 0 0 0 .281 2.303c.389.702 1.036 1.225 1.804 1.458 1.514 1.097 2.955 2.291 4.314 3.574l.002.343c-2.237-1.014-4.303-2.03-6.368-2.874l-2.721 3.622-.532-2.57c1.868-2.93 1.842-6.704-.072-10.638-1.365 1.21-2.557 2.42-3.923 3.458s-.344-.169-.689-.338l-.001-.172 4.598-5.179c-1.216-2.222-2.264-4.96-5.364-6.655l-5.278 6.041-.346-.341 4.073-6.719-1.036-1.023c-3.447-2.207-4.989-1.854-7.368 1.594l-1.698 2.586-.345-.341 2.533-6.023-3.77.712a8.75 8.75 0 0 0-4.602 4.664c-2.21 4.538-3.849 9.333-4.88 14.275l-.494 3.092c-.515.003-1.202-.164-1.717-.16a18.71 18.71 0 0 0-1.931-6.508c-2.615-5.438-7.001-9.825-12.439-12.441a8.75 8.75 0 0 0-5.328-1.337l.347.512-1.884.528c-.692-.853-1.377-.677-3.088.021a10.99 10.99 0 0 0-4.611 3.291c-1.171-.172-2.367.015-3.428.538l-1.026.522c-2.4.359-4.298-1.172-6.696-.641l3.64 5.466-.843 2.236-4.507-6.833c-3.828-5.565-6.282-11.958-7.161-18.655-.726-5.829-2.138-11.653-3.036-17.653l-5.928-39.254a251.01 251.01 0 0 0-7.092-33.755 4.63 4.63 0 0 1-.027-3.946zm155.216 141.541l12.759 9.008-.509.861-5.346-3.91c-3.792-2.549-3.792-2.549-5.852-2.706l1.553 1.362c3.628 3.579 7.256 7.158 10.713 10.909 2.996 3.232 6.562 5.883 10.52 7.822l10.842 4.731a64.25 64.25 0 0 0 11.521 3.697l-.003-.514c-7.065-4.414-14.301-8.655-20.517-14.447-3.281-3.066-7.072-5.443-10.522-8.165s-5.174-3.911-7.931-5.609-4.311-3.059-7.228-3.039zM298.87 489.969l.517.34 3.553-7.574 5.752-12.051c2.369-4.992 4.91-9.813 4.871-15.476a13.05 13.05 0 0 0-1.058-4.282c-1.219-2.566-3.449-2.551-4.633.031a18.55 18.55 0 0 0-2.182 7.222 89.17 89.17 0 0 1-3.654 17.87l-3.166 13.92zm-.326-99.005l3.791 2.376c-.697-1.539-1.563-2.734-3.791-2.376zm26.387-81.684c-4.459.373-8.234.399-12.006.768-.392.148-.747.38-1.041.678s-.52.656-.664 1.049c-1.419 5.032-3.647 9.799-6.596 14.115-4.413 7.237-4.703 14.96-3.619 23.018a4.28 4.28 0 0 0 .64 2.32 4.29 4.29 0 0 0 1.788 1.61 14.07 14.07 0 0 0 3.91-5.518l5.043-15.477c2.69-8.083 6.07-15.827 12.545-22.563zm-12.191-1.119c3.259-.193 6.519-.215 10.294-.241a24.19 24.19 0 0 0-8.937-2.17c-1.2.18-1.71.87-1.357 2.411zm-26.97-29.845l16.313 1.777c-4.624 1.232-9.267-.281-13.893.78 19.092 6.735 38.823 6.429 58.539 4.065-2.063-.672-4.296-1-6.359-1.501-5.669-.991-11.508-1.809-17.007-2.973-8.763-1.829-17.355-3.658-26.277-3.598a32.11 32.11 0 0 0-11.316 1.45zm44.666-68.424l16.613-4.573.004.686-15.58 5.082c6.357 1.158 52.771-11.682 58.576-16.011l-10.794 2.475c-3.426.881-9.421 2.466-14.047 3.355l-28.278 5.167c-2.518.544-4.795 1.883-6.494 3.819zm26.98-19.4a14.78 14.78 0 0 1-1.708 1.212l-15.923 5.256-6.503 2.446c13.553-.263 46.949-9.755 53.606-14.948l-29.472 6.034zm-24.491 6.858l24.319-6.857a1.2 1.2 0 0 0-.497-.2c-.178-.029-.361-.016-.534.035-5.825 1.241-11.651 2.481-17.474 4.065-2.215.304-4.264 1.346-5.814 2.957zm1.8-12.882l.347.513 19.499-9.055.347.512-15.9 8.516c5.307-.912 10.444-2.625 15.237-5.079 10.089-5.216 19.481-11.8 29.049-17.871 2.164-1.525 4.217-3.201 6.144-5.017l-.348-.684-4.273 2.431-29.074 14.267c-4.104 2.087-8.555 3.661-12.658 5.92-2.893 1.688-5.688 3.54-8.37 5.547zm14.11-19.485l.347.512 17.617-8.355.349.856-7.695 3.998-7.522 4.169c19.164-8.023 37.117-17.581 52.465-31.584l-.348-.684c-3.419 1.911-6.838 3.821-10.429 5.561-7.353 3.825-14.876 7.823-22.402 11.305-5.712 2.746-11.199 5.939-16.408 9.549-2.05 1.386-3.925 3.115-5.974 4.673zm10.873-16.031c-3.406 3.798-8.546 4.862-12.466 8.835 14.04-4.556 49.21-30.704 55.137-42.412-.344.002-.858.005-1.029.178-7.162 6.569-15.711 11.088-23.738 16.633l-23.229 15.944c-2.41 1.608-4.493 3.66-6.136 6.047 4.11-1.229 7.524-3.826 11.461-5.225zm8.78-21.165a71.31 71.31 0 0 1-7.344 5.197l-7.172 5.025c17.278-7.667 30.749-20.284 42.317-35.119l-2.05 1.386-15.878 11.776-18.103 12.648c-1.99 1.852-3.813 3.874-5.45 6.043 4.791-1.92 8.888-5.036 13.68-6.956zm-7.267-34.269l.861.509.502-1.891c2.539-5.165 5.251-10.159 7.617-15.495 5.068-11.702 9.278-23.571 10.735-36.45.325-2.748.133-5.663.285-8.581l-.858.006c-5.707 18.742-12.961 37.151-18.668 55.893a18.33 18.33 0 0 0 2.208-3.275l4.413-7.237c-.063.654-.233 1.292-.502 1.891l-5.749 12.565-.844 2.065zm-.275-40.665c3.851-14.096 8.905-27.858 10.866-42.456-4.882 13.932-9.249 27.86-10.866 42.456zm-8.127-9.211l.686-.005L351.9 9.33c-1.638 11.508-.188 22.994.919 34.312zm-2.422 47.89L349.288 79.7a41.67 41.67 0 0 1 .14-4.634l.001.172.908 7.372 1.077 7.028c2.498-11.17 1.222-22.315-1.598-33.277-4.933-19.013-8.599-28.254-12.223-31.318l11.419 64.612c.346.512.692.853 1.385 1.878zm-12.515 1.629l-2.446-6.504-6.3-18.146-.022-3.26-2.43-4.102c-2.12-3.472-4.494-6.783-7.102-9.904.716 4.456 16.059 40.387 18.828 43.8l-.528-1.884zm2.056-.529a87.87 87.87 0 0 0-10.824-27.381 7.04 7.04 0 0 0 .362 2.743l4.887 12.321 4.891 12.665c.17-.173.513-.175.684-.348zm20.926 24.225l-.844 2.064c5.464-3.983 9.206-8.813 14.504-11.938l-11.758 12.091c9.06-5.037 34.785-32.494 39.16-45.221l-2.046 1.901-9.721 8.817a154.06 154.06 0 0 0-29.295 32.286zm-.748-9.09a32.49 32.49 0 0 0 4.943-4.838l9.356-12.074 2.214-2.417c.173.17.346.341.517.34l-10.706 15.344c11.949-9.175 23.452-33.618 25.265-44.612l-31.589 48.259zm-11.005 21.867c1.873-2.072 3.918-4.145 5.619-6.387s3.397-5.171 5.095-7.756l2.546-4.136c-9.582 4.012-13.663 9.53-13.26 18.279zm-14.231-23.755l-4.682-7.175-6.767-11.108a8.62 8.62 0 0 1 1.381 1.192l6.758 9.735 2.423 3.072c-1.6-8.225-22.061-39.659-27.922-43.738l1.567 3.421 7.127 13.507 5.383 9.401c.693 1.025 1.726 1.533 2.418 2.386s-.158 2.06.363 2.914 2.778 4.786 4.337 7.006l6.929 9.734a.88.88 0 0 1 .301-.255c.119-.06.25-.092.384-.093zm1.168 20.583l-11.459-19.827.513-.347 10.058 15.718c-2.116-8.393-22.915-39.31-29.984-44.238 3.304 6.498 6.265 12.998 10.083 19.321s8.846 14.011 13.525 20.842a39.82 39.82 0 0 0 7.264 8.531zm-30.692-22.099c3.481 7.355 6.447 14.541 10.439 21.206s6.596 11.281 11.259 15.71c.768.617 1.574 1.185 2.414 1.7l-9.722-16.75c4.145 4.09 6.414 9.737 10.907 14.34-.911-7.887-17.89-31.967-25.297-36.206zm17.201 57.023c-4.185-9.924-15.247-21.861-20.242-24.572 2.102 6.334 15.611 24.775 20.26 27.146l-12.125-16.734c.342-.174.514-.175.684-.348l5.71 6.996 5.713 7.512zm3.641 5.466l-1.208-1.021-.512.518 1.209 1.021.511-.518zm-7.849 6.574l-3.123-5.127c-1.739-3.42-5.019-6.315-5.733-10.428-.005-.686-.696-1.368-1.214-1.879l-11.595-14.507-2.592-2.728-.341.345.696 1.368 7.624 10.931.866 1.195 6.584 9.393 5.031 8.202a32.47 32.47 0 0 0 3.285 3.581l.512-.346zm-13.186 3.864a24.53 24.53 0 0 0 6.919 8.189c-2.96-6.329-7.117-12.134-9.736-18.809l8.843 13.668c-6.624-15.399-23.769-38.619-31.692-43.027l1.389 2.393c3.465 4.953 6.929 9.734 10.053 14.861l14.224 22.725zm6.132 18.661c-2.273-6.161-6.085-11.626-9.383-17.267-4.163-7.186-8.795-14.091-13.867-20.668-3.376-4.576-7.136-8.856-11.24-12.793l-2.068-1.359.008 1.201 10.227 15.202c3.292 4.783 6.242 9.567 9.192 14.523l7.639 13.161a22.32 22.32 0 0 0 5.88 6.824l-7.12-12.65c4.489 4.088 6.416 9.909 10.732 13.826zm3.641 5.638l4.255-5.176a42.92 42.92 0 0 0-4.329-5.805c-1.855-1.677-3.877-3.158-6.036-4.42l3.827 7.695 2.283 7.706zm-9.391 57.546c-3.601.368-7.372.908-10.445 3.331 7.552.292 15.094-.96 22.642-1.182l.006.858-20.576 2.198.003.343c.711.324 1.463.55 2.235.671 5.345.737 10.756.874 16.132.406 12.621-1.447 25.152-3.594 37.535-6.431 2.398-.531 4.625-1.061 7.539-1.596-.689-.338-.862-.509-1.033-.507l-20.247.137a320.51 320.51 0 0 0-33.791 1.772zm14.682-11.081c-6.57.549-13.062 1.801-19.365 3.735 7.378-.05 14.572-1.986 21.951-1.865l-20.906 4.088c.86.338 1.033.508 1.376.506 5.661-.21 11.495-.25 17.154-.803s10.799-1.617 16.111-2.682l19.877-4.081c1.37-.353 2.911-.878 4.451-1.403l-14.921.959-25.728 1.546zm13.836-9.187a58.14 58.14 0 0 1-7.54 1.423c-2.401.188-4.802.376-7.373.737a19.91 19.91 0 0 0-7.025 1.591c1.53.649 3.156 1.044 4.813 1.169 7.009.266 14.026-.242 20.923-1.514 7.2-1.079 14.569-2.501 21.767-3.751 2.399-.531 4.796-1.234 7.195-1.765l-.004-.514-17.841.635c-8.922.06-17.85-.737-26.592.695-3.085.535-6.339 1.415-9.423 2.123l.004.514 21.096-1.343zm-34.531-6.116l5.595-9.99a1.37 1.37 0 0 0 .095-.71c-.031-.241-.127-.469-.276-.661-.844-1.196-1.831-2.284-2.938-3.241a71.54 71.54 0 0 0-5.862-4.078 14.27 14.27 0 0 1 1.054 3.596c.361 2.743 1.066 5.484.396 7.891s.032 4.632 1.936 7.193zm32.399-4.68c2.576.326 5.143-.721 7.551.12-5.651 1.754-11.66 1.28-17.307 3.549 19.044-.472 38.261-.602 56.227-8.102-15.61.621-31.225.555-46.471 4.433zm.502-1.891l1.542-.354-.002-.343-1.713.527.173.17zm-8.594-2.173c8.075 1.49 42.349-4.919 51.914-11.504-3.773.369-7.03.734-10.115 1.269-6.171.9-12.512 2.144-18.685 2.701-6.245.755-12.429 1.943-18.508 3.557-.713.216-1.402.509-2.053.872l.003.514 20.742-3.057.005.686c-7.368 1.594-15.256 2.334-23.303 4.962zm-20.703 8.72l.347.684c2.573-.189 5.144-.55 7.716-.91a8.58 8.58 0 0 0 2.227-.53 51.65 51.65 0 0 1 15.067-4.907c.343-.002.513-.175.855-.348a111.91 111.91 0 0 1-11.336-1.64 16.47 16.47 0 0 0-5.831.383c-4.456.888-6.664 4.163-9.045 7.268zm-4.312-28.626a20.44 20.44 0 0 0 2.259 4.274c1.045 2.224 2.603 4.272 2.961 6.5.124.985.45 1.934.958 2.787a7.21 7.21 0 0 0 1.993 2.17l2.707-5.681c-1.297-2.082-3.002-3.88-5.012-5.286-2.068-1.358-3.968-3.233-5.866-4.764zm-16.639-24.597l2.948 4.613 9.001 11.607 1.902 2.047 1.555 1.705.341-.345-8.668-13.154c.17-.173.341-.346.512-.347l12.296 16.733c-2.09-4.619-4.521-8.892-6.954-13.337A222.03 222.03 0 0 0 279 165.284c-2.932-4.057-6.489-7.624-10.539-10.567l-.682.519 7.297 13.335c2.256 3.759 4.682 7.346 7.109 10.933zm9.424 23.444l.341-.345-1.739-3.42c-.001-.172.171-.173.341-.346l9.183 13.151.511-.519-.698-1.711a170.35 170.35 0 0 0-16.641-24.939c-5.118-7.094-11.294-13.361-18.314-18.58a7.04 7.04 0 0 0-1.896-1.188l-.34.345 29.252 37.552zm2.214 22.807a7.56 7.56 0 0 0-1.221-2.909l-8.161-14.187 1.725 1.361c2.081 3.246 3.991 6.494 6.242 9.567l3.636 4.78a9.44 9.44 0 0 0-.385-6.175c-1.305-4.594-3.491-8.892-6.434-12.654-2.942-3.583-5.882-6.995-8.653-10.751a128.33 128.33 0 0 0-18.147-19.267l-3.277-2.552-.51.69c11.442 17.425 22.544 35.195 35.185 52.097zm-12.768-10.381c-1.392-2.736-3.295-5.125-4.685-7.69s-3.806-4.607-5.368-7.17c-3.986-5.807-8.484-11.268-12.811-16.729-1.558-2.049-3.287-3.925-5.015-5.8l-.511.518 1.734 2.734 3.813 5.636c3.821 6.838 7.472 13.848 11.464 20.513s4.351 9.065 7.636 12.818c1.768 2.105 3.389 4.33 4.85 6.659l-8.193-18.991a1.38 1.38 0 0 1 .684-.348l9.049 18.642c.63 1.177 1.326 2.318 2.082 3.418-.321-5.066-1.95-9.962-4.729-14.21zm7.472 13.848c.88 3.255 1.245 6.512 1.953 9.768.096.769.364 1.506.784 2.157a5.16 5.16 0 0 0 1.644 1.601l5.095-7.756-2.79-6.673c-2.574.018-3.959-1.861-5.174-3.911l-3.468-5.296a15.11 15.11 0 0 0-2.079-2.903l4.035 13.013zm-.689 25.057c3.317-.036 6.566-.946 9.42-2.637a15.95 15.95 0 0 1 5.304-2.267c4.969-1.063 9.94-1.783 15.083-2.504 1.37-.353 2.913-.535 4.798-.891-3.606-.49-6.697-.812-9.616-1.136s-5.153-.651-7.726-.634c-3.275.196-6.537.561-9.773 1.096a6 6 0 0 0-2.907 1.564l-4.583 7.409zm-7.315 9.316c4.973-.377 9.434-.579 13.365-2.836a21.61 21.61 0 0 1 9.589-2.982 39.87 39.87 0 0 0 4.798-.891l-.001-.171c-4.291-.143-8.755-.627-13.045-.598-2.522-.215-5.061-.083-7.547.394-3.77.712-4.948 4.152-7.159 7.084zm-7.713-24.143c-1.926-5.649-3.679-11.128-5.775-16.605-1.861-5.831-4.557-11.361-8.004-16.418-1.061-1.749-2.473-3.259-4.148-4.433.047 1.191.347 2.359.881 3.426 1.048 2.738 2.44 5.645 3.318 8.557 1.928 5.992 3.513 11.987 5.954 17.805l6.632 16.427c.171-.001.343-.002.342-.174l-6.125-17.632c.133-.001.264-.033.383-.093a.85.85 0 0 0 .301-.255c1.849 5.802 4.243 11.416 7.149 16.768.218-2.494-.092-5.006-.908-7.373zm-8.849 36.266l-2.307-11.31c-.231-.875-.646-1.691-1.218-2.393a20.94 20.94 0 0 1-6.412-9.395l-1.747-4.621c-.109.862-.045 1.737.189 2.573 1.814 6.573 3.121 13.276 3.91 20.049.373 4.288 1.089 8.744 1.809 13.715 2.568-.875 3.24-2.939 4.606-3.977a3.95 3.95 0 0 0 1.17-4.641zm-14.367-43.83c1.758 6.165 3.514 12.159 5.615 18.322a16.98 16.98 0 0 0 4.861 8.375l-6.315-20.376.686-.005c1.925 5.478 2.993 11.133 6.115 16.088a1.37 1.37 0 0 0 .684-.348l-5.437-17.294c-1.4-4.108-3.485-7.869-4.542-11.98-2.235-7.466-5.457-14.6-9.581-21.212l-3.987-5.979-.684.348c1.395 3.251 2.962 6.672 4.187 10.095 3.227 7.832 6.031 15.833 8.398 23.966zm4.526 34.974a52.56 52.56 0 0 0-1.25-7.199c-1.239-5.654-2.82-11.134-4.403-16.786a114.16 114.16 0 0 0-4.548-12.838c-2.444-6.161-5.4-11.975-8.186-17.962a39.98 39.98 0 0 0-7.625-11.101l1.574 4.45 3.869 13.873c2.108 7.192 4.217 14.556 5.981 21.751a75.69 75.69 0 0 0 4.905 14.895l1.569 3.593c1.882 4.425 4.458 8.52 7.632 12.131-2.967-7.358-6.276-14.542-7.187-22.429a111.91 111.91 0 0 0 6.813 17.799l.856-.177zm-98.765 61.068a44.3 44.3 0 0 1-2.655 13.401c-1.687 4.302-.117 8.066.086 12.697l8.21-3.83-5.322-25.702-.319 3.434zm-6.465 8.28l1.746 4.449-.036-5.319a1.03 1.03 0 0 1 .685-.176l.698 1.711.515-.004.808-7.383-.517-.34c-1.021 1.208-1.87 2.586-2.892 3.623-.527.38-.912.924-1.094 1.547s-.152 1.288.087 1.892zm-8.426 22.706c3.424-1.224 6.845-2.791 10.439-4.188-.558-6.345-.428-12.524-4.584-18.158a166.63 166.63 0 0 1-31.703 31.444c1.21 1.364 2.068 1.359 3.265.664 7.005-4.337 14.882-6.792 22.583-9.762zm36.729 1.296a79.3 79.3 0 0 1 18.568 5.365 41.58 41.58 0 0 0 4.13 1.688 63.81 63.81 0 0 0-14.681-14.142c-.965-.672-2.08-1.097-3.248-1.239a7.2 7.2 0 0 0-3.449.426c-3.081 1.222-5.988 2.615-9.068 4.008l.006.858c2.409 1.013 4.995 2.712 7.742 3.036zm55.071 23.993c-.422-.187-.826-.415-1.205-.678-7.579-2.501-14.898-5.727-21.858-9.633-5.51-2.879-11.189-5.415-16.868-7.779a101.83 101.83 0 0 0-10.316-3.018c-.511-.083-1.033-.08-1.544.01 5.687 3.565 11.371 6.787 17.226 9.836l15.326 8.132c.516.168.863.681 1.381 1.192a7.19 7.19 0 0 1-2.063-.501l-25.997-12.865-6.369-3.045c6.747 8.19 27.272 23.838 44.28 26.811l8.007-8.462zm7.869-3.656l-.692-.853a172.97 172.97 0 0 0-26.364-16.295 36.89 36.89 0 0 0-16.505-4.864l3.96 2.032 4.303 2.03 3.961 2.032c1.601.599 3.024 1.593 4.137 2.889-5.331-1.851-9.642-4.911-14.97-6.247a31.06 31.06 0 0 0 8.121 8.353 91.13 91.13 0 0 0 21.523 11.008c4.128 1.344 8.083 2.69 12.526-.085zm13.509-6.784c-1.359-.008-2.704-.291-3.952-.831-6.534-2.015-13.069-4.201-19.433-6.389a28.13 28.13 0 0 1-10.511-6.621l-5.7-5.452a101.4 101.4 0 0 0-17.76-12.749l-12.301 7.805c4.29 3.964 9.701 6.505 15.492 7.273a32.26 32.26 0 0 1 7.909 2.349 123.23 123.23 0 0 1 25.66 13.725c3.275 2.209 7.062 4.07 9.314 7.144l11.848 1.293a18.71 18.71 0 0 0 8.06-.741c-1.913-3.762-3.992-6.665-8.626-6.806zm18.354-.982l-4.476-2.2-10.326-4.392-14.459-6.765-14.287-6.767c-4.82-2.198-8.434-3.718-12.563-5.406-1.586-.414-3.192-.747-4.811-.997.349.855.694 1.196 1.21 1.364 3.443 1.693 7.058 3.384 10.502 5.249s2.752.839 2.593 2.727l-9.814-4.909c-3.271-1.522-2.069-1.531-3.435-.492 2.591 2.557 5.012 5.286 7.601 7.499 2.692 2.442 5.708 4.5 8.964 6.116 10.494 4.047 20.988 8.095 32.492 9.218 3.586.601 7.254.518 10.809-.245zm-1.864 3.445l8.95 4.057 1.036 1.023 12.743 6.606 3.616 1.863a31.4 31.4 0 0 0-6.208-4.42c-3.617-2.034-7.403-3.725-11.018-5.416s-6.718-3.901-9.119-3.713zm.914-16.994c-4.463-.313-8.585-.8-12.878-1.286-10.133-1.475-19.929-3.64-28.886-8.727-3.489-2.099-7.113-3.966-10.848-5.589-4.129-1.688-8.427-2.86-12.726-4.203a7.02 7.02 0 0 0-3.387.093 7.03 7.03 0 0 0-2.95 1.665c2.584 1.527 4.997 3.055 7.914 3.035 6.348-.043 12.197 2.149 18.05 4.854l11.707 5.755 29.95 13.868c2.238 1.014 4.646 1.856 7.57 2.866l-3.516-12.331zm-48.282-35.021c-.687-.167-1.37.353-2.054.701l-14.853 11.082a26.93 26.93 0 0 0 10.988.955c2.867-.278 5.76-.124 8.582.457 1.753.488 3.531.877 5.328 1.165 3.781 1.004 7.562 1.836 11.345 3.012l24.764 8.24c.499.16 1.025.215 1.546.161-.618-2.078-1.091-4.196-1.416-6.339-.086-1.066-.552-2.064-1.313-2.815a4.46 4.46 0 0 0-2.833-1.275 41.7 41.7 0 0 1-13.073-4.888c-3.62-2.378-7.41-4.583-11.199-6.616-4.619-3.179-10.248-4.546-15.812-3.84zm12.688-1.458c3.6-.539 6.847-2.449 10.099-3.672l-.005-.686c-3.438-1.007-7.217-1.496-10.657-2.845a4.12 4.12 0 0 0-5.14 1.236l-4.092 3.802-1.191 1.553c3.949.316 7.558 1.15 10.986.612zm3.928 22.623c-1.164.019-2.323-.147-3.435-.492-3.093-.665-6.016-1.503-9.11-2.34a12.52 12.52 0 0 0-6.698-.813c13.277 9.519 37.177 16.736 50.207 15.104-.536-3.085-.536-3.085-2.946-4.27a25.1 25.1 0 0 0-3.787-1.69c-3.955-1.346-7.908-2.178-11.866-3.867a136.52 136.52 0 0 0-27.507-7.878l-4.293-.486c6.536 2.358 13.237 3.685 19.435 6.732zm28.195-17.35c-1.53-.358-3.079-.634-4.639-.826-3.001-.594-5.827-1.866-8.261-3.719-4.313-3.403-10.316-3.019-14.923.787 2.578.669 5.155 1.166 7.734 1.835 5.844 1.505 5.844 1.505 7.227 3.04-4.811-.997-9.284-2.683-14.948-2.988 8.108 6.466 16.376 11.043 25.99 11.836l1.82-9.965zm7.822-10.52c-7.048-1.839-13.91-1.621-20.6-1.405 2.926 1.353 6.354.815 9.113 2.856l-15.454-1.612-.336 1.032c.772.205 1.521.487 2.236.843 2.412 1.356 5.841.99 7.235 4.069a1.2 1.2 0 0 0 .451.386c.181.089.381.131.582.122 2.063.672 4.126 1.173 6.188 1.674 1.337.254 2.657.589 3.954 1.003l6.631-8.968zM259.01 304.75c4.634 2.321 9.769 3.464 14.95 3.331 7.725.462 15.269-.447 22.444-5.128a63.09 63.09 0 0 0-7.044-1.325c-5.666-.477-11.158-.611-16.653-1.26-4.693-.465-9.431.094-13.888 1.638 5.497.821 10.816.785 15.803 2.467-5.2-.42-10.43-.327-15.612.277zm-15.789-.408a207.85 207.85 0 0 0-9.036 8.641c4.643 1.513 8.773 3.2 13.398 2.14 2.403-.649 4.884-.954 7.372-.908a77.76 77.76 0 0 1 20.942 1.059c.686-.004 1.545.161 2.057-.185 2.143-1.352 3.997-3.114 5.456-5.185-3.775.026-7.036-.124-10.296-.102-5.834.04-11.33-.781-16.156-4.009-3.545-2.172-7.773-2.939-11.855-2.15a4.81 4.81 0 0 0-1.882.699zm-18.002-73.833l4.983 26.391 1.069 5.827a93 93 0 0 0 5.644 22.611 3.07 3.07 0 0 0 .866 1.195c.087-.099.21-.162.342-.173l-4.602-20.732c2.449 6.847 3.869 13.873 6.661 20.718.329-.998.496-2.042.494-3.092-.368-3.601-.392-7.204-1.103-10.803-3.898-18.162-7.797-36.496-13.751-54.301a36.55 36.55 0 0 0-5.565-10.944l.707 3.084 4.255 20.219zm6.348 75.971c3.588-2.255 6.664-4.163 9.567-6.242a2.75 2.75 0 0 0 .845-1.893c-.534-2.742-.893-5.142-2.967-7.358a16.99 16.99 0 0 1-3.64-5.467c-1.394-3.079-2.446-6.332-3.667-9.412l-.138 30.372zm-21.534-88.738l.882 3.598 4.051 15.415 5.133 23.302a174.85 174.85 0 0 1 3.903 18.848c.367 3.601 1.077 7.028 1.788 10.627a1.03 1.03 0 0 0 .27-.391 1.02 1.02 0 0 0 .067-.47c-.541-3.943-1.083-7.885-1.281-11.831l-.044-6.52.704 2.569 1.979 13.543 1.593 7.196c4.345-17.189-7.648-65.153-19.045-75.886zm19.633 86.692l-1.399-3.766-2.789-6.501-1.048-2.739-.858.006-.192 22.308a37.36 37.36 0 0 1 4.264-3.804c2.394-1.217 2.551-3.277 2.022-5.504zm-24.879-75.846l3.579 21.768 3.23 20.912c1.788 10.626 3.747 21.251 8.277 31.345l-4.648-27.595.686-.005c1.77 8.053 2.857 16.454 5.141 24.331.488-3.95.805-7.727.95-11.674a58 58 0 0 0-.052-7.721c-.721-5.143-1.615-10.457-2.851-15.596-2.817-10.619-5.635-21.239-9.479-31.508a90.84 90.84 0 0 0-5.569-11.631c-.019 2.477.227 4.949.736 7.374zm1.426 58.674l.849-1.379-.001-.171c.417 2.726.665 5.475.742 8.231a29.83 29.83 0 0 0 1.957 10.282c.603-12.358 1.378-24.546-1.105-36.541l-6.725-30.154c1.47 14.403 3.454 28.632 4.066 43.041l.349.856.507-1.205.515-.003-.305 5.664-.53-2.227-.343.003.024 3.603zm4.88 36.515c2.391-1.732 4.438-3.461 6.659-4.849s4.603-4.493 3.548-8.26l-1.045-2.224-1.389-2.393-5.605-16.949-1.045-2.224-.286 8.41-.77 13.046c-.16 1.717-.663 3.436-.651 5.152l.584 10.291zm-4.106-23.651l-.344.002.025 3.603.343-.002-.024-3.603zm-11.261 34.909a72.76 72.76 0 0 1-7.008 3.994l-24.8 11.836c-4.791 2.091-9.234 4.695-14.373 6.102-3.631 1.143-7.177 2.543-10.61 4.19l-18.476 8.19c-.667.467-1.295.988-1.877 1.557 2.081 3.246 2.081 3.246 5.506 2.193 6.334-2.101 12.491-5.06 18.824-7.505s14.545-5.933 21.729-9.241c10.095-4.358 20.19-8.545 29.067-15.297a60.77 60.77 0 0 1 7.005-4.509 134.98 134.98 0 0 0 20.491-14.724l16.032-14.35 6.477-6.393-.691-.681c-5.119 4.153-10.413 7.963-15.531 12.288-6.003 5.594-12.453 10.688-19.287 15.23-4.1 2.602-8.375 4.861-12.478 7.12zm-27.718 11.684c2.394-1.218 2.394-1.218 2.032-3.961l-1.947-8.737-2.651 13.916 2.566-1.218zm19.565-24.842l-2.157-14.399c-.341.346-.512.347-.511.519l.01 1.544c-.107 5.137-1.179 10.208-3.159 14.95l-4.402 8.78a10.14 10.14 0 0 0-1.092 4.449 10.12 10.12 0 0 0 .981 4.475l10.949-4.879c.276-.204.508-.462.683-.758a2.59 2.59 0 0 0 .335-.964c-.37-3.944 1.146-8.073-1.282-11.831l-.355-1.886zm-13.39-.767a170.85 170.85 0 0 0-2.071 23.522l2.905-1.736-.834-21.786zm16.521 7.095l.565 7.375 4.271-2.775c.948-.354 1.741-1.033 2.238-1.915s.664-1.913.474-2.908l-.39-7.032c.192-3.292-.738-6.552-2.637-9.248-.831-1.295-1.53-2.67-2.087-4.104l-.332 1.546c-.646 6.01.426 12.352-2.107 18.375l.005.686zm5.88-18.571c.275-10.126-.48-20.245.31-30.202l1.374 25.557.515-.003c1.005-3.635 1.499-7.392 1.469-11.163l-.983-18.525c-.381-5.489-.762-11.149-1.656-16.462l-3.927-22.452-1.399-3.937.834 21.787.133 19.731.521 26.25c.365 3.258.559 6.517 2.809 9.419zm-16.316-52.911c.132-.012.255-.074.342-.174l-.527-1.884.185 2.058zm7.06 54.346l1.265 9.429.514-.004-.972-16.98.686-.005 1.456 12.345c2.494-11.857-3.579-72.559-7.748-80.08l-.32 3.433c.235 9.436-.903 18.71.019 28.141l2.213 22.807 2.887 20.914zm-11.117 5.394c-.157 2.232.031 4.633.046 6.864l.344-.003.998-4.639.067 9.952a29.01 29.01 0 0 0 4.719-12.73l.302-6.008a144.67 144.67 0 0 0-.829-21.1c-.899-5.999-1.454-12.001-2.009-18.003l-2.549-21.603a8.53 8.53 0 0 0-.53-2.227c-.488 2.891-.641 5.828-.455 8.754.228 8.406.8 16.81.685 25.219.252 11.838-.354 23.682-.789 35.524zm-6.606 12.743c.046 0 .089-.019.121-.051s.05-.076.05-.122l-.178-26.252.686-.005.833 21.615c3.311-17.868 1.504-56.635-2.504-65.702l-.498 2.406c-.767 5.576-1.188 11.195-1.259 16.824-.624 9.152-.39 18.342.7 27.45l1.118 13.033.931 10.804zm.549 4.972l.352 1.371.343-.003-.009-1.372-.686.004zm-11.507-26.862c1.717.16 2.918.152 4.12.316.08 3.535-.914 7.012-2.849 9.971a12.18 12.18 0 0 0-1.679 5.502c-.124 7.036 1.809 13.715 3.57 20.395l.262-12.013.627-8.755.597 12.179.411 9.949c5.254-9.644 2.574-50.636-4.053-66.377-1.821 9.792-1.07 19.396-1.006 28.833zm-8.22 2.458l-.474 6.009 7.857-5.372-.005-.687-7.378.05zm-4.128-1.516l6.516-.559c1.33-6.358-1.378-26.244-3.979-30.173a227.03 227.03 0 0 0-2.537 30.732zm-104.14 27.644l-20.092-2.438 3.304 6.498.69.51a72.28 72.28 0 0 0 8.584.629c1.201-.009 2.221-1.388 3.418-2.083a51.14 51.14 0 0 0 4.097-3.116zM21.28 242.527a15.09 15.09 0 0 0-1.521 3.442l-2.693 7.74-8.586-.972 1.074 6.513 5.921 38.225 2.511 16.112 3.201 16.623c.354 1.542.875 2.568 2.764 2.727a199.84 199.84 0 0 0 24.887 1.032l.856-.349-.531-2.398c-.708-3.256-.708-3.256-4.142-3.576l-12.706-1.286c-1.374-.163-2.749-.497-4.295-.829 6.517-.559 13.047.941 19.904-.135l-2.104-6.678c-6.703-1.67-13.405-3.169-19.936-4.669l-.004-.515c6.182.644 12.201 2.663 18.717 2.104l-.353-1.542-.699-1.883c-2.091-4.79-2.092-4.79-7.587-5.439s-8.416-1.144-12.538-1.803c5.486-.723 10.988.955 16.988.057l-2.44-5.646c-5.323-.479-10.64-.271-15.627-1.782 4.628-.718 9.446 1.309 14.234-1.126-.87-1.71-1.909-3.247-2.607-4.958s-2.248-2.559-4.138-2.889-5.84-.819-8.76-1.314a7.69 7.69 0 0 1-1.891-.502c4.113-.714 8.071.975 12.354-.083l-2.445-6.333c.344.17.86.338 1.034.68l3.475 6.325c3.391-6.029 5.58-12.221 9.319-17.565l.006.858-7.258 17.723a3.1 3.1 0 0 0-.41 1.168 3.09 3.09 0 0 0 .082 1.236 45.3 45.3 0 0 0 3.473 6.154l8.492-12.927-.335 1.204-7.109 14.461 2.434 4.788 11.721-17.581a12.35 12.35 0 0 1-2.03 4.303c-2.372 4.478-5.088 8.786-7.289 13.262s-.984 6.699 1.956 10.111a88.95 88.95 0 0 1 7.806-12.922 4.81 4.81 0 0 1-.671 2.235l-5.748 12.736a4.12 4.12 0 0 0-.498 2.406l2.103 6.506 7.641-11.891 2.553-3.106.343-.002-1.526 2.755-7.627 13.951c-.359.747-.473 1.588-.327 2.404l1.568 3.421 4.589-6.551 7.983-12.065a6.17 6.17 0 0 1 1.708-1.213c-2.716 4.308-5.434 8.444-7.977 12.923l-5.594 10.162c1.894 1.016 3.615 1.691 5.336 2.537l2.203-4.133 2.035-3.617 2.38-3.276.517.34c-1.688 4.129-4.752 7.753-5.578 12.392l4.662 4.258 4.92-8.27a2.23 2.23 0 0 1-.159 1.889l-2.698 7.053c-1.014 2.238.026 3.775 1.581 5.481l4.045-10.838c.609-2.154 2.005-4.001 3.912-5.174.604-.577 1.069-1.285 1.359-2.068a14.07 14.07 0 0 0 .14-4.634 95.75 95.75 0 0 0-4.789-23.133c-2.504-6.949-5.651-13.649-9.401-20.012-4.513-7.691-8.856-15.555-14.566-22.551-3.115-3.926-6.231-8.023-10.538-10.567s-11.367-6.272-17.052-9.494zm-14.122-7.626c1.732 2.39 2.094 5.133 4.166 7.007l2.385-2.59c.172-.001.173.17.345.341l-1.353 2.926c-.246.665-.241 1.397.014 2.059l3.133 6.499 2.372-4.477 2.029-4.475c-4.659-3.915-10.344-7.137-13.09-7.29zm-2.571.36c1.58 5.309 2.133 10.968 4.057 16.274 2.058-.185 3.949.317 5.659-.553-.541-3.943-3.979-4.778-7.081-6.816 1.198-.523 1.882-.87 2.909-1.221l-4.858-7.86c-.343.003-.514.175-.685.176zM402 338.444l1.039 1.365-5.477 2.097-1.712.526c-1.002.393-1.973.859-2.908 1.392-.513.175-1.2.18-1.885.356l-.003-.515 8.379-4.174 2.567-1.047zm10.986 26.007l1.709-1.041.867 1.367-1.537 1.04-1.039-1.366zm-4.881 39.327a14.25 14.25 0 0 1 2.222-1.216c1.542-.354 3.084-.707 4.455-.888l-6.677 2.104zm7.429 7.5a51.94 51.94 0 0 1 10.29-.756l-.851 1.035c-3.089-.151-6.35-.128-9.439-.279zm13.558.423l1.364-1.382a29.05 29.05 0 0 0 3.945-.198l-1.024.865-1.024.864c-.686.005-1.373-.162-2.06-.157l-1.201.008zm-16.106-47.25l1.709-1.041.867 1.367-1.537 1.04-1.039-1.366zm-5.284 5.184l-.002-.344c.515-.003.856-.177 1.2-.179s-.513.346-.856.349l.001.171-.343.003zm14.027 18.951l2.219-1.731 3.26-.022-2.218 1.903a2.57 2.57 0 0 0-1.202-.164l-2.059.014zm-14.407.955c4.266-1.422 8.705-2.261 13.196-2.491l-1.535 1.383c-1.03.007-2.058.186-3.088.193s-5.83.554-8.573.915z" fill-opacity=".2"/><path d="M118.581 370.904a15.03 15.03 0 0 1 1.877-1.557l18.477-8.19c3.432-1.647 6.978-3.047 10.61-4.19 5.138-1.407 9.582-4.011 14.372-6.103 8.382-3.831 16.591-7.833 24.801-11.835a72.88 72.88 0 0 0 7.008-3.994c4.103-2.259 8.377-4.518 12.478-7.12 6.833-4.543 13.283-9.636 19.286-15.23 5.119-4.325 10.412-8.136 15.532-12.288l.691.681-6.477 6.393-16.033 14.35a134.98 134.98 0 0 1-20.491 14.724c-2.435 1.341-4.776 2.847-7.005 4.509-8.877 6.752-18.972 10.938-29.066 15.296-7.185 3.309-14.37 6.446-21.73 9.242s-12.489 5.403-18.824 7.505c-3.425 1.053-3.425 1.053-5.506-2.193zm260.161 4.417c-2.906 1.564-5.986 2.958-8.891 4.693-1.88.94-3.706 1.984-5.47 3.126a36.01 36.01 0 0 1-11.467 4.367l-10.11 1.956c-.685.177-1.373.01-2.573.189a6.86 6.86 0 0 1 2.356-1.904c.917-.452 1.924-.693 2.946-.705 7.094-.711 13.968-2.86 20.205-6.314 4.103-2.259 8.379-4.175 12.656-6.092l.348.684zm-30.303-40.633l-12.616 12.097c-.397.332-.865.57-1.368.696a22.48 22.48 0 0 0-10.238 8.477c-1.546-.333-1.724-1.19-.702-2.398a23.51 23.51 0 0 1 8.019-6.746c5.147-2.694 9.865-6.138 14.001-10.218a27.88 27.88 0 0 1 2.904-1.908zm17.142 73.668c6.697.813 10.442-3.674 15.231-5.937s7.521-4.341 12.15-4.887c-1.363.593-2.678 1.29-3.932 2.086-4.274 2.431-8.373 5.204-12.646 7.636-1.875 1.169-3.885 2.104-5.987 2.785a3.77 3.77 0 0 1-2.735.095c-.892-.311-1.634-.946-2.081-1.778zm-87.957 60.823l2.205-3.79 11.861-22.215c.508-1.033.496-2.749 2.904-1.907-4.622 9.895-10.313 19.254-16.97 27.912zm122.122-57.966c-7.349 4.339-15.219 7.653-21.528 13.53-.682.691-1.364 1.382-2.571.532a6.01 6.01 0 0 1 1.205-2.25 6 6 0 0 1 2.03-1.547c5.128-2.952 10.6-5.734 15.901-8.344a36.28 36.28 0 0 1 4.963-1.921zm-129.379-.154c-.056 1.465-.452 2.898-1.159 4.183a9.44 9.44 0 0 1-2.909 3.223c-3.756 2.77-7.858 5.2-11.615 7.8a13.72 13.72 0 0 1-3.935 1.742l1.876-1.728 6.489-4.677c3.816-2.314 7.076-5.442 9.547-9.159a18.88 18.88 0 0 0 1.706-1.384zm70.095-37.881a94.23 94.23 0 0 0 22.565-12.678l.518.511-6.999 5.366c-2.331 1.874-4.85 3.502-7.517 4.856-2.566 1.218-5.301 2.781-8.567 1.945zm-89.633 15.878c-.341.345-.682.691-1.025.693-5.32-.135-9.591 2.639-13.692 5.241l-5.808 3.814-.52-.683 2.559-2.248c3.417-2.254 6.662-4.506 10.079-6.589a14.42 14.42 0 0 1 5.482-1.409 8.91 8.91 0 0 1 2.919.323l.006.858zm103.7 110.317l-.404-8.92c-.031-4.633-.405-9.263.936-13.905.504-1.548.664-3.265 2.887-4.481l.015 2.231c-2.869 7.226-2.817 14.775-2.595 22.324l.019 2.745-.858.006zm-61.743-21.031l1.796-13.396c.148-2.199.477-4.383.986-6.527.605-1.724 1.461-3.349 2.541-4.822.509-.861 1.194-1.038 2.23-.187-4.936 6.039-4.198 13.584-6.039 20.46a18.74 18.74 0 0 1-1.687 4.302l.173.17zM277.651 346.32c-4.659-3.915-1.339-20.41 4.465-24.91-1.52 3.613-3.896 7.576-4.725 11.871s.229 8.407.26 13.039zm35.767 138.06l2.174-8.423a97.09 97.09 0 0 1 3.364-9.975 16.33 16.33 0 0 1 2.374-4.134c.294-.21.632-.352.988-.414a2.4 2.4 0 0 1 1.069.057c-5.445 6.729-6.072 15.484-9.969 22.889zm10.778-156.906c-4.765 5.866-5.743 13.423-8.269 20.475a2.23 2.23 0 0 1-1.047-2.567c1.269-6.758 4.511-12.989 9.316-17.908zm-31 8.617c-1.72-.674-1.213-1.879-.876-2.739l3.038-7.399a45.82 45.82 0 0 1 8.67-12.07l-4.243 6.892c-1.523 2.374-2.882 4.848-4.068 7.406-1.013 2.409-1.681 5.159-2.521 7.91zm95.513 142.975c.561.147 1.069.449 1.467.871a3.09 3.09 0 0 1 .78 1.516c1.751 5.136 2.487 12.509 1.316 16.979a62.27 62.27 0 0 0-3.563-19.366zm13.684-31.837c-.694-1.197.16-1.717 1.017-1.895s4.452-1.402 6.679-1.932c1.98-.363 3.988-.549 6.002-.556l-13.698 4.383zm-162.108-44.203c4.944-4.667 10.933-7.109 14.034-5.414-2.436.632-4.837 1.393-7.192 2.279-2.396.874-4.619 2.09-6.842 3.135zm89.516 68.202l-1.108 13.735-.687.005-.404-9.092.319-3.434c.167-.687.851-1.035 1.191-1.552l.689.338zm72.347-34.808c-3.818 2.175-8.11 3.382-12.502 3.517 3.933-2.086 8.394-2.116 12.502-3.517zm-37.045 53.444l-1.269-10.115a2.06 2.06 0 0 1 .011-.817c.058-.269.17-.524.329-.749s.36-.416.593-.562a2.07 2.07 0 0 1 .766-.286l.084 12.354-.514.175z" fill-opacity=".2"/><path d="M292.613 478.172a4.29 4.29 0 0 1 .045 2.528c-.239.828-.722 1.564-1.387 2.114l1.515-4.472-.173-.17zm91.091-104.943a17.31 17.31 0 0 1-2.566 1.218l-.003-.515 2.567-1.047.002.344zm-149.269 27.435l-3.066 3.452c1.356-2.583 1.356-2.583 3.238-3.282l-.172-.17zm68.002-93.634l1.53-2.069.861.509a10.97 10.97 0 0 0-2.219 1.731l-.172-.171zm87.431 64.269c-.857.178-1.713.527-2.57.704l-.002-.343a16.77 16.77 0 0 1 2.74-.876l-.168.515zm-105.546-53.337l1.191-1.552.345.341-1.19 1.552-.346-.341zm64.116 16.726l1.362-1.725.345.341-1.707 1.384zm10.481-23.408l-2.221 1.388-.005-.686a14.18 14.18 0 0 1 2.569-.704l-.343.002zM29.256 280.223l-1.041-1.709-12.708-1.458-.003-.515 3.089-.021 9.433-.579c.515-.003 1.024-.865 1.364-1.382l4.903-10.843a8.24 8.24 0 0 1 2.212-2.76l-7.248 19.267zm2.574-25.413l-6.26 13.083c-4.628.718-9.097-.453-13.737-1.451l12.526-.085 6.612-11.885.86.338zm-11.129 3.508l4.736-10.156.343-.003c.002.344.176.686.006.858l-3.697 11.522-.511.518-4.815-1.512a15.43 15.43 0 0 1-4.814-1.34l8.752.113zm-3.636-4.609l1.566 3.25-.684.347a3.42 3.42 0 0 1-.968-1.669 3.43 3.43 0 0 1 .086-1.928zm42.768 56.85l1.862-3.788.69.51-2.207 3.447-.344-.169zm-12.364-26.685l.5-2.234.689.339-1.36 1.896.172-.001zm19.246 29.383l.327-2.404.686-.005-1.014 2.238.001.171zm68.212 13.438l1.473-10.477.515-.003.379 5.316.016 2.402c-.002.582.207 1.145.589 1.585a2.4 2.4 0 0 0 1.486.804c2.406.498 4.644 1.513 6.879 2.184l.006.858-11.343-2.669zm9.853-14.651l.744 8.402 6.886 3.386c-2.69.308-5.407-.277-7.733-1.664a2.58 2.58 0 0 1-1.273-1.279 2.57 2.57 0 0 1-.12-1.8c.449-2.323.72-4.677.81-7.041l.686-.004zm-12.674 28.913l-4.472-1.686a5.51 5.51 0 0 1 2.429.33c.775.292 1.473.756 2.043 1.356zm-24.579 19.211c1.371-.18 2.235.672 2.589 2.214a15.61 15.61 0 0 0-2.758-1.869l.169-.345zm106.878 22.099c1.204.335 2.408.842 3.44 1.178-.625.168-1.286.145-1.899-.065a3.26 3.26 0 0 1-1.541-1.113zm.793-111.024l-.352-1.37.353 1.542-.001-.172zm13.277 85.534a25.08 25.08 0 0 1 3.269 1.179c-.618.137-1.263.081-1.848-.161a3.09 3.09 0 0 1-1.422-1.19l.001.172z" fill-opacity=".2"/><path d="M228.474 356.605l-3.096-1.009c1.366-1.038 2.231-.015 3.097 1.181l-.001-.172zm15.689-115.758l.881 3.426-.343.003-.882-3.598.344.169zm-19.534 29.303l-.886-4.112.686-.005.028 4.118.172-.001zm-36.219 23.409l.378 5.146c-.527-.742-.841-1.613-.908-2.52a4.99 4.99 0 0 1 .53-2.626zm44.726-34.105l.357 2.056-.529-2.055.172-.001zm51.132-50.965c-1.039-1.366-2.419-2.386-2.774-4.271l.684-.348 2.09 4.619zM162.694 322.218l-.025-3.775.686-.005-.489 3.778-.172.002zM348.358 69.067l-.024-3.432.515-.004.538 3.428-1.029.007zm1.07 5.999l-.883-3.769.686-.005c.537 1.301.724 2.719.543 4.115l-.346-.341zM177.599 318.685c-.301-3.137.087-6.302 1.138-9.273a1.36 1.36 0 0 1 .23.579 1.37 1.37 0 0 1-.05.62l-1.145 8.245-.173-.171zM362.953 146.7c.72-.341 1.406-.748 2.051-1.215l.003.514c-.644.468-1.331.875-2.051 1.215l-.003-.514zm5.362-69.874l.84-2.58a.85.85 0 0 1 .384.088.86.86 0 0 1 .305.251l-1.529 2.241zM172.717 383.407l-1.725-1.361.34-.346 1.725 1.361-.34.346zm80.682-147.083l-1.061-4.626 1.06 4.455.001.171zm74.386 12.881c-.686.176-1.544.182-2.229.358l-.002-.343a8.72 8.72 0 0 0 2.228-.358l.003.343zm46.17-124.887l-2.564 1.561-.002-.343 2.392-1.56.174.342zm-29.156 103.494l-3.258.365-.003-.514 3.428-.538-.167.687zm-57.885-34.098l1.903 2.218-.513.347-1.902-2.218.512-.347zm-21.911 33.094l-.704-2.569.703 2.398.001.171z" fill-opacity=".2"/></svg>