<svg width="143" height="60" viewBox="0 0 143 60" fill="none" xmlns="http://www.w3.org/2000/svg">
<g clip-path="url(#clip0_51_104)">
<path d="M51.3587 36.9265C51.3576 37.1558 51.3122 37.3826 51.2251 37.5947C51.2909 37.3767 51.3356 37.153 51.3587 36.9265Z" fill="white"/>
<path d="M51.0467 38.4409C51.0913 38.3073 51.0913 38.1736 51.1358 38.04C51.1386 38.0057 51.1546 37.9738 51.1803 37.9509L50.9131 38.7973L51.0467 38.4409Z" fill="white"/>
<path d="M51.4923 35.9021C51.4961 36.0079 51.481 36.1134 51.4478 36.2139C51.4843 36.1142 51.4995 36.008 51.4923 35.9021Z" fill="white"/>
<path d="M34.9664 14.5211V0.133545H32.3384V16.9264H39.3317V14.5211H34.9664Z" fill="#010100"/>
<path d="M50.0668 8.55226L48.8196 0.846243L48.7305 0.133545H44.8552L43.5189 8.55226L42.1826 16.9264H44.588L45.0779 13.8975H48.2851L48.4187 14.5656L48.7305 16.9264H51.4031L50.0668 8.55226ZM45.3897 11.6258L45.8352 8.55226L46.6815 3.11795L47.0824 5.74602L47.4833 8.55226L47.9287 11.6258H45.3897Z" fill="#010100"/>
<path d="M31.4478 48.5524V50.4678H51.5903V48.5524H31.4478Z" fill="#010100"/>
<path d="M38.04 58.0846V60H44.9175V58.0846H38.04Z" fill="#010100"/>
<path d="M34.7437 53.3185V55.2339H48.2537V53.3185H34.7437Z" fill="#010100"/>
<path d="M70.9576 20.5344V20.7126H70.7794V20.8462H70.6012V21.0244H70.423V21.2026H70.2894V21.3807H70.1558V21.5589H70.0221V21.7371H69.8885V21.9153H69.7549V22.0934H69.6213L68.1959 30.4231L66.815 39.599L64.0979 21.1135L64.0088 20.5344H56.7927V20.7126H56.6146V20.8462H56.4364V21.0244H56.2582V21.2026H56.0801V21.3807H55.8573V21.5589H55.7237V21.7371H55.501V21.9153H55.2783V22.0934H55.1001L60.7571 58.7081H70.3785V58.5745H70.5121V58.3963H70.6903V58.2182H70.8685V58.04H71.0021V57.8618H71.1357V57.6836H71.2694V57.5055H71.403V57.3273H71.5366V57.1937H71.6703L77.2382 21.1135L77.3273 20.5344H70.9576ZM71.2248 55.8574H63.6079L58.3072 21.5144H63.207L67.6613 51.8484L72.1157 21.5144H76.5255L71.2248 55.8574Z" fill="#010100"/>
<path d="M115.056 24.0979C113.631 21.7371 111.047 20.5344 107.439 20.5344H97.9067V20.7126H97.7285V20.8908H97.5949V21.0244H97.4167V21.2026H97.2385V21.3807H97.0603V21.5589H96.8822V21.7371H96.704V21.9153H96.5258V22.0934H96.3477V58.7081H105.88C108.82 58.7081 111.092 57.9064 112.606 56.3028H112.651L112.784 56.1692H112.829L112.962 56.0355H113.007L113.141 55.9019H113.185L113.319 55.7683H113.363L113.497 55.6346L113.675 55.4565H113.72L113.853 55.3228L113.987 55.1892C115.635 53.5411 116.481 51.1358 116.481 47.9732V30.0222C116.481 27.5723 115.991 25.6124 115.056 24.0979ZM115.501 47.5277C115.501 53.0511 112.873 55.8574 107.617 55.8574H99.243V21.5144H107.617C112.873 21.5144 115.501 24.3206 115.501 29.844V47.5277Z" fill="#010100"/>
<path d="M107.528 25.8796H104.098V51.4921H107.528C109.622 51.4921 110.646 50.2449 110.646 47.7505V29.5767C110.646 27.0823 109.622 25.8796 107.528 25.8796ZM107.751 49.4877C107.747 49.8162 107.717 50.1439 107.662 50.4676H105.078V28.775H105.791C106.771 28.775 107.751 28.9531 107.751 31.3139V49.4877Z" fill="#010100"/>
<path d="M129.131 45.3897H135.145L132.16 25.2561L129.131 45.3897ZM131.091 39.2427L131.848 44.4098H130.289L131.091 39.2427Z" fill="#010100"/>
<path d="M142.673 57.1937H142.851L137.105 21.1135L136.971 20.5344H127.528V20.7126H127.394V20.8908H127.261V21.0244H126.993V21.2026H126.86V21.3807H126.726V21.5589H126.548V21.7371H126.37V21.9153H126.236V22.0934H126.102L120.223 58.7081H126.993V58.5745H127.171V58.3963H127.35V58.2182H127.483V58.04H127.617V57.8618H127.751V57.6836H127.884V57.5055H128.018V57.3273H128.151V57.1937H128.33L129.042 52.383H133.007L133.185 53.6747L133.942 58.7081H141.203V58.5745H141.381V58.3963H141.604V58.2182H141.826V58.04H142.049V57.8618H142.272V57.6836H142.45V57.5055H142.628V57.3273H142.806L142.673 57.1937ZM136.748 55.8574L135.813 49.4877H128.552L127.572 55.8574H123.163L128.686 21.5144H136.169L141.693 55.8574H136.748Z" fill="#010100"/>
<path d="M17.1047 20.5344V20.7126H16.9265V20.8462H16.7929V21.0244H16.6592V21.2026H16.5256V21.3807H16.392V21.5589H16.0802V21.7371H15.9465V21.9153H15.7684V22.0934H15.5902L14.6993 28.1068L13.4076 36.5255L10.9131 21.1135L10.8241 20.5344H1.55902V20.7126H1.38085V20.8462H1.20267V21.0244H1.06904V21.2026H0.890869V21.3807H0.712694V21.5589H0.53452V21.7371H0.356345V21.9153H0.178174V22.0934H0V58.7081H6.50334V58.5745H6.68151V58.3963H6.85969V58.2182H6.99332V58.04H7.17149V57.8618H7.34967V57.6836H7.52784V57.5055H7.70601V57.3273H7.88419V57.1491H8.06236V52.7839L9.04231 58.7081H15.6793V58.5745H15.8575V58.3963H16.0356V58.2182H16.1693V58.04H16.3029V57.8618H16.4365V57.6836H16.5702V57.5055H16.7038V57.3273H16.8374V57.1491H17.0156L17.6837 52.7393V58.7081H24.5434V58.5745H24.7216V58.3963H24.8998V58.2182H25.0779V58.04H25.2561V57.8618H25.4343V57.6836H25.6125V57.5055H25.7461V57.3273H25.9243V57.1491H26.1024V20.5344H17.1047ZM25.3452 55.8574H20.8018V31.0912H20.1782L16.392 55.9019H11.7595L7.70601 31.403L7.08241 31.4921V55.9019H2.89532V21.5144H9.97773L14.2984 48.0177L18.3073 21.5144H25.3452V55.8574Z" fill="#010100"/>
<path d="M83.4296 20.5344V20.7126H83.2515V20.8908H83.0733V21.0244H82.8951V21.2026H82.7615V21.3807H82.5833V21.5589H82.4051V21.7371H82.227V21.9153H82.0488V22.0934H81.8706V58.7081H89.0421V58.5745H89.2203V58.3963H89.3984V58.2182H89.5766V58.04H89.7548V57.8618H89.933V57.6836H90.1111V57.5055H90.2893V57.3273H90.4229V57.1937H90.6011V20.5344H83.4296ZM84.7659 31.1803V28.775H89.6212V31.1803H84.7659ZM89.6212 33.1402V35.5456H84.7659V33.1402H89.6212ZM84.7659 37.4609H89.6212V39.8663H84.7659V37.4609ZM89.6212 41.8262V44.2315H84.7659V41.8262H89.6212ZM89.6212 46.1469V48.5522H84.7659V46.1469H89.6212ZM84.7659 50.4676H89.6212V55.8574H84.7659V50.4676ZM89.6212 26.8596H84.7659V21.5144H89.6212V26.8596Z" fill="#010100"/>
<path d="M106.37 20.5344C105.395 18.8658 104.11 17.3992 102.584 16.2137C97.0157 11.9376 91.1359 15.1447 88.7751 16.7928H88.7306C89.9723 15.3395 91.4978 14.1552 93.2135 13.3127C94.9293 12.4701 96.7991 11.987 98.7083 11.893C106.013 11.5367 110.646 14.8774 110.69 14.922H110.869C110.913 14.8774 110.958 14.7883 110.913 14.7438C110.218 13.3843 109.282 12.1619 108.152 11.1358C106.414 9.48766 103.296 7.5723 98.6192 7.52775H98.5301C93.6304 7.52775 90.8687 10.5122 89.3097 13.2739C89.7996 10.1558 89.3987 6.05782 85.4789 3.02887C78.352 -2.44998 71.4477 1.15805 71.3587 1.20259C71.2696 1.24713 71.2696 1.29167 71.2696 1.38076L71.4477 1.46985C71.4923 1.46985 77.1938 1.64802 82.7618 6.45871C84.223 7.7225 85.4111 9.27098 86.2535 11.0095C87.096 12.748 87.5751 14.6401 87.6616 16.5701C86.8598 13.8975 84.1872 7.48321 77.0157 7.48321C68.0179 7.48321 64.7217 14.5656 64.6771 14.6102C64.6326 14.6547 64.6771 14.7438 64.7217 14.7883H64.8999C64.9444 14.7438 69.5769 11.403 76.9266 11.8039C80.6533 12.0225 84.143 13.7033 86.637 16.481H86.548C84.4099 14.9665 80.2228 12.6502 76.3921 14.4765C72.5613 16.3028 70.9578 17.7727 70.9132 17.8173C70.8913 17.8418 70.8792 17.8735 70.8792 17.9064C70.8792 17.9392 70.8913 17.971 70.9132 17.9955C70.9132 18.04 70.9578 18.0845 71.0468 18.0845C71.0914 18.0845 74.254 17.4164 78.3965 16.8819C80.2485 16.6918 82.1158 16.7068 83.9644 16.9264H83.9199C83.4824 17.0433 83.0742 17.2503 82.7214 17.5341C82.3685 17.8179 82.0789 18.1723 81.8709 18.5745C80.4901 21.069 80.2673 22.1825 80.2673 22.2271C80.2673 22.2716 80.2673 22.3607 80.3564 22.4053H80.401L80.5346 22.3162C81.2977 21.4617 82.1161 20.6582 82.9845 19.9108L83.1627 19.7772C83.2847 19.6287 83.4364 19.5073 83.6081 19.4208C84.93 18.8387 86.3015 18.3765 87.7061 18.04C88.7194 18.6136 89.6742 19.285 90.5569 20.0445C91.8735 21.173 93.1229 22.3777 94.2985 23.6525H94.4767C94.5658 23.6525 94.6103 23.5634 94.5658 23.5188C94.5212 23.4743 94.2985 22.1825 92.7395 19.3763C92.1868 18.4686 91.382 17.7412 90.4232 17.2828C93.8056 16.9309 97.2022 17.7998 100 19.7327L101.025 20.4899L106.37 20.5344Z" fill="#010100"/>
<path d="M42.539 25.4788C40.4455 25.4788 39.3765 26.726 39.3765 29.2204V34.8774C39.3765 37.3273 40.4455 38.6191 42.539 38.6191C44.6326 38.6191 45.7016 37.3273 45.7016 34.8329V29.2204C45.7016 26.726 44.6326 25.4788 42.539 25.4788ZM42.8063 36.5701C42.8269 36.9141 42.7969 37.2593 42.7172 37.5946H41.6036L41.3364 37.4609H41.2027C41.2027 37.4491 41.1981 37.4378 41.1897 37.4294C41.1813 37.4211 41.17 37.4164 41.1582 37.4164H41.0691L40.9355 37.3273L40.8464 37.2382C40.7164 37.0604 40.6115 36.8655 40.5346 36.6592C40.49 36.5701 40.49 36.4364 40.4455 36.3028C40.39 35.9491 40.3602 35.5918 40.3564 35.2338V29.3986C40.3601 29.0553 40.3899 28.7128 40.4455 28.3741H40.8019C42.2718 28.3741 42.8063 29.0868 42.8063 30.9576V36.5701Z" fill="#010100"/>
<path d="M42.2716 45.746C44.0824 45.6064 45.8003 44.8881 47.1714 43.697C47.316 43.5748 47.4501 43.4407 47.5723 43.2961H47.6168V43.207H47.7504V43.0289H47.9286L48.0177 42.9398H48.0622L48.1959 42.8061H48.2404L48.374 42.6725H48.4631L48.5522 42.5834H48.6413L48.7304 42.4943H48.8195L48.9086 42.4053L49.4431 41.8262L49.5767 41.6035C49.7396 41.4325 49.8749 41.2371 49.9776 41.0244H50.0221C50.1112 40.8017 50.2449 40.6235 50.3339 40.4008L50.5121 40.089L50.7794 39.3763C50.7955 39.3582 50.8078 39.3371 50.8154 39.3141C50.8231 39.2911 50.826 39.2668 50.8239 39.2427L51.0912 38.3964C51.1277 38.2967 51.1429 38.1905 51.1357 38.0845C51.2228 37.8725 51.2682 37.6456 51.2694 37.4164C51.3208 37.1821 51.3506 36.9435 51.3584 36.7037C51.3917 36.6032 51.4068 36.4977 51.403 36.3919C51.4386 36.1561 51.4535 35.9176 51.4475 35.6792V29.7549C51.5026 28.0248 51.1677 26.3046 50.4676 24.7215C50.3309 24.4248 50.1669 24.1415 49.9776 23.8752C48.5077 21.4253 45.8351 20.1335 42.2716 20.1335C39.4208 20.1335 37.06 21.0244 35.501 22.6725H35.4564L35.3228 22.8062H35.2783L35.1446 22.9398H35.1001C35.0407 23.0289 34.9962 23.0734 34.9665 23.0734L34.7883 23.2516L34.6547 23.3852H34.6101L34.4765 23.5188L34.2538 23.7416L34.1201 23.8752C32.4275 25.5233 31.5366 28.0623 31.5366 31.1358V36.0355C31.5366 42.1825 34.8774 45.7015 40.7126 45.7015H40.8017C41.2887 45.7683 41.7814 45.7832 42.2716 45.746ZM40.7126 42.8507L40.3562 42.7616H40.0444L39.7772 42.6725C39.3199 42.5435 38.8731 42.3797 38.4409 42.1825L38.1291 42.0044L37.8618 41.8707C37.8618 41.8589 37.8571 41.8476 37.8487 41.8392C37.8404 41.8309 37.8291 41.8262 37.8172 41.8262L37.55 41.648H37.4609L37.2827 41.5144L37.0155 41.2917C35.6792 40.1335 34.8774 38.3964 34.6101 36.1692C34.5656 35.6792 34.521 35.1447 34.521 34.5656V29.6658C34.521 24.187 37.3718 21.2026 42.5388 21.2026C45.3451 21.2026 47.4386 22.0935 48.8195 23.7416C50.2003 25.3897 50.5567 27.1714 50.5567 29.6658V34.5656C50.5739 35.1017 50.5441 35.6383 50.4676 36.1692C50.2449 38.3964 49.3985 40.1335 48.0622 41.2917L47.795 41.5144L47.5277 41.6926L47.2605 41.8707H47.2159L47.0377 41.9598H46.9487L46.815 42.0489L46.6368 42.138L46.325 42.2716H46.236L45.3005 42.5834L45.0333 42.6725H40.7126V42.8507Z" fill="#010100"/>
</g>
<defs>
<clipPath id="clip0_51_104">
<rect width="142.851" height="60" fill="white"/>
</clipPath>
</defs>
</svg>
