<svg xmlns="http://www.w3.org/2000/svg" width="256" height="276" fill="none" xmlns:v="https://vecta.io/nano"><style><![CDATA[.B{fill-opacity:.2}]]></style><g fill="#c89a60" class="B"><path d="M126.863 240.076c.5 1.25 0 1.75-1 2.25l-9.751 5.75c-3.926 2.38-8.021 4.469-12.252 6.25-.5.25-.75 1.25-2 .75 1.441-1.086 2.944-2.087 4.5-3 5.001-2.75 10.002-5.75 14.752-9 1.343-.685 2.601-1.524 3.751-2.5.75-.5.75-.75.25-1.25-1.383-1.096-2.894-2.019-4.501-2.75-.5.25 0 .5 0 1s-1.25 2-2.5 1.25a17.02 17.02 0 0 0-5.001-1.75c1.238.731 2.27 1.763 3.001 3 .5 1 .25 1.75-1 1.75a4.5 4.5 0 0 1-3.001-.75l-5.751-3.75h-.75l3.251 3.25a4.5 4.5 0 0 1 1.25 1.75c.5.5 1 1 .5 1.75s-1.5.5-2.25 0l-3.251-2.5-9.501-8.5-.5-.75c-.25-.25-1-.75-.75-1.499s1 0 1.5 0 .75.249 1-.25-2.751-2.5-4.001-4-.75-1 .501-1.25.75-.75.25-1.25a12.51 12.51 0 0 1-3.251-3c-1-1-2-.25-3-.5a12.02 12.02 0 0 1-5.001-1.75l-3.251-1.75a88.69 88.69 0 0 0 5.001 9.75c-1.25 0-1.5-.75-2.25-1.25l-4.251-4.5c-.5-.5-1-1.25-.25-2s.25-.5 0-1a22 22 0 0 0-3-3.75l-8.001-4.5h-1.001a26.19 26.19 0 0 0 2 2.75 13.49 13.49 0 0 1 2.251 3c.5.75 1.5.5 2 1a112 112 0 0 1 11.752 12.5l1 1.999c-.5.5-1-.25-1.501 0 3.751 5.75 9.002 10 13.502 14.75a47.27 47.27 0 0 1-4.751-7.5h.501l4.751 5 2.751 3c.501.5 1.001 1 0 1.75l-.501.5c.5.5.75 1.25-.25 1.5s-1.751 0-2.251-.75a3 3 0 0 0-1.25-1.25l-8.501-9.5a18.75 18.75 0 0 0 3.751 6 35.78 35.78 0 0 1 3.5 5 13.76 13.76 0 0 0 5.251 4.75c.75.5 1.251 1 .75 2s-1.5 1-2.5.75a7.76 7.76 0 0 1-3.751-2.5c-2.75-3.75-5.751-7.25-8.751-10.75l-14.252-18.749-2.5-2.75c-3-3.5-6.001-7-8.751-10.75-2.056-2.768-4.598-5.139-7.501-7a5.75 5.75 0 0 1-1.751-2.5 139.42 139.42 0 0 0-9.751-11.499c-2.912-3.412-6.089-6.588-9.502-9.5a34.25 34.25 0 0 1-4.75-5.5c-3.001-4-6.001-8.25-9.251-12.25-1.812-2.259-3.403-4.686-4.751-7.249a120.69 120.69 0 0 0-8.501-11.25l-3.501-4.75c-.75-1.25-.25-2.25 1.25-2.5s2-1.25 3.251-1.5.5-.5.5-.5 1.251-.75 1.751.25-.5.75-1.001 1-1.5 1.25-.25 2.25a25 25 0 0 1 3.5 3.75 2.25 2.25 0 0 1 .5 2.25c0 1 .75 1.5 1.25 2.25l1.501 3.25c.5.25.75.75 1.25.75a3.5 3.5 0 0 1 3.251 2.25c1.856 3.072 3.946 5.997 6.251 8.749a94.57 94.57 0 0 0 7.501 10 100.73 100.73 0 0 1 6.501 8c1.25 1.5 2.751 2.75 4.001 4l1 .75c-1 1.75.5 2 1.25 2.75a105.75 105.75 0 0 0 8.502 9.999 28.24 28.24 0 0 0-.75-4.499c-.474-2.143-.809-4.314-1.001-6.5 0-1.75 0-4.25-2.5-5.25a4.25 4.25 0 0 1-.75-2.5c-.854-4.93-2.368-9.723-4.501-14.25-.25-.75 0-1.75-1.001-2.5s.251 2.75.501 3.75a10.26 10.26 0 0 1-.25 3c-.25.75-.5 1-1.25 1s-.75-.5-.75-1a33.49 33.49 0 0 0-.25-5c.5 0 .25.75 1 .75a6.75 6.75 0 0 0 0-2.25c.5-4.75-1.5-8.749-3.251-12.749a33.3 33.3 0 0 1-1.25-4.75l-6.251-19.5c-2.25-6.499-2.25-5.999-3-8.999l-3.251-12.75c-1-4.25-2.25-6.75-3.251-10.25l-3.5-13.25-4.501-13.75c-1.75-5-3-10.5-5.001-15.499-.645-2.866-1.833-5.581-3.5-8 0-.25-.25-.5 0-.75l1-.5c.75.5 1 0 1.25-.75a2.25 2.25 0 0 1 1.5-1.5c1.5-.5 2.25-2 3.251-2.75s6.001-5 9.001-7.5l5.251-4a7.25 7.25 0 0 0 3.5-3.75c1.5-3 6.501-5.75 9.752-4.75s8.501-.5 12.252-3l7.251-5.25c1.996-1.34 4.258-2.234 6.631-2.622s4.801-.261 7.121.373l2.5.5c1.25 0 2.501.5 3.501-.75a5.5 5.5 0 0 1 2.75-1.25c1-.5 2.251-.75 2.751-1.75a10 10 0 0 1 7.251-3 24.25 24.25 0 0 1 11.251 1.75 17.51 17.51 0 0 0 9.502.75c3.968-1.133 8.205-.868 12.002.75a78.23 78.23 0 0 0 12.752 4.75h4.5c4.571.53 9.088 1.45 13.502 2.75 4.642 1.608 8.899 4.162 12.502 7.5l4.501 3.5a13.5 13.5 0 0 0 5.75 2.5 28.76 28.76 0 0 1 15.253 6.5c3.015 3.053 6.577 5.512 10.501 7.25a21.5 21.5 0 0 1 10.752 10.75 25.25 25.25 0 0 0 11.251 11c6.501 3.75 12.252 8.25 14.752 15.75a19 19 0 0 1 1.501 9 13.25 13.25 0 0 0 1.25 4.5c.364 3.407 1.567 6.671 3.5 9.5a31 31 0 0 0 4.751 5.25c1.068 1.221 1.864 2.655 2.338 4.206s.615 3.184.412 4.794c-.234 1.85-.567 3.686-1 5.5-.471 2.647-.805 5.317-.999 7.999-.251 1.75.999 3 1.999 4.25 1.494 1.903 2.522 4.129 3.001 6.5.375 2.92-.149 5.885-1.5 8.5l-4.001 8.25a3.5 3.5 0 0 0-.235 2.489c.231.83.759 1.546 1.485 2.01a11.75 11.75 0 0 1 2.751 6.25c.45 1.847.481 3.77.091 5.63a12.75 12.75 0 0 1-2.341 5.12c-1.85 2.833-2.889 6.118-3.001 9.5 0 .5 0 1.25.5 1.5s1.751 4.25 2.501 6.25-.25 5.999-.751 8.749l-.499 1c-2.738 2.085-4.891 4.84-6.251 8-.25.75-.001 1.75.5 1.75a1.51 1.51 0 0 1 .793.843c.07.186.102.384.094.583a1.5 1.5 0 0 1-.137.574 52.7 52.7 0 0 0-.501 6.25c-.035 2.56-.747 5.065-2.065 7.261a14.49 14.49 0 0 1-5.436 5.238 13.52 13.52 0 0 0-3 2.25 1.5 1.5 0 0 1-1.75.25c-1.25-.5-1.501.25-1.501 1a24.5 24.5 0 0 1-5.5 14.25c-.501.5-.751 1-1.251 1.25a13.5 13.5 0 0 0-5.751 5.5c-1.424 2.008-2.364 4.318-2.75 6.75-.247 1.033-.765 1.982-1.5 2.75a24.97 24.97 0 0 0-4 4.749c-.44.589-1.005 1.073-1.653 1.419a5 5 0 0 1-2.098.581c-1 0-1.5.75-2.251 1a2.75 2.75 0 0 1-3.75 0 41.55 41.55 0 0 0-8.751-4.5l-8.501-4.249a69.28 69.28 0 0 0-13.752-6.5c-6.251-2.5-12.252-6-18.253-9s-8.501-3.5-12.502-5.75l-5.751-3c-1-.5-1.75-.75-1.5 1s0 1-.75 1.25-.75-.5-1-1-2.001-2.25-3.501-2.75zM32.349 75.831a45.02 45.02 0 0 0-1.25-4.75c-1.5-1-1.5-3.25-2-4.75-.763-2.526-1.265-5.122-1.5-7.75-.25-3.5-1.25-6.75-1.5-10.25s.25-1.5-.5-1.5a2.5 2.5 0 0 0-1.75 1.75c0 .5.5 1 .25 1.5s1.251 1.25-.25 1.25-.25.5 0 .5 1 1.25 1 1.75 1 8 1.75 12 1.001 5.25 1.751 8a8 8 0 0 1 .25 4.25c-1-4.25-2.25-8.25-3.5-13-.25 1-.25 1.5-.5 2.25-.5-3.25-1.251-6.25-1.751-9.25a.75.75 0 0 0-.75-.75c-.5 0-.501.5-.501 1a12.5 12.5 0 0 0 .501 3 84.49 84.49 0 0 1 2.75 14.25c.34 3.289.925 6.548 1.75 9.75a32.48 32.48 0 0 1 2 8.5c-.215 2.242.219 4.498 1.25 6.5.5 2.5 1.25 5 1.75 7.75s-1.75 3.5-.25 5.25 0 .5-.25.5-.25-.25-.5-.5a20.92 20.92 0 0 1-1.25-4.25c0-.75-.25-1.25-1.25-2a22 22 0 0 0 1.5 7 8.25 8.25 0 0 1 0 2.5c-.5 1-.751 1-.501 1.75 1.75 4.749 3.25 9.749 5.001 14.499a1.5 1.5 0 0 0 1.25 1.25c.75.25 2 0 2 1.25s.75 1.75.5 2.5a32 32 0 0 0 1.751 8.5c.5 2.25 1.5 4.25 2 6.25a30.53 30.53 0 0 0 1.751 4.25c.75-3.25-1.5-5.5-1.5-8.25 1.25 3 2.25 6.25 3.75 9.499a2.75 2.75 0 0 1 .25-1.999 52.98 52.98 0 0 0 3 13.249 8 8 0 0 0-.25-3.5c-.75-3.25-1.25-6.75-2-10.249.5.25 1 .5.75-.25s-.25-1.25-.25-1.75-.5-1.25.5-.25.25 0 .25-.25.25-1-.25-1.5 0-1 0-1.5c-.154-3.196-.572-6.373-1.25-9.5-.25-1 .25-2.25-1.001-3s-.25 1-.25 1.5c.171 3.029.589 6.039 1.25 9-.75-.5-.25-1.5-1.001-2-.01 2.354.241 4.701.75 7 .25 1 1 1.75.5 2.75s-.75-.25-.75.25-.75-3.5-1.5-5.25-.5-3-1-4.5c-.552-2.2-1.22-4.37-2-6.5a3.25 3.25 0 0 1 1.25 1.5 1.75 1.75 0 0 0 1.5 1.5c-.25-1.75.5-3.5-1.75-4.25s-.5-.25-.25-.5h.75c.25 0 0-.25 0-.5s.001-1.75-.75-2.25-.75.5-1-.25c-.479-1.378-.813-2.803-1-4.25 1.75.75.25 2.75 1.5 3.75s1.751-3.75 1.501-6l.75 6.5c1-1.25 1.75-1 2.25.5.27-1.065.437-2.153.5-3.25.25-.25.25-1 .75-.75s1.001-1 1.001-1.25a67.73 67.73 0 0 1-1.501-9.5c-1-5.749-1.75-11.749-2.5-17.499a41.21 41.21 0 0 0-1-7.75 123.47 123.47 0 0 1-2.5-13.25c0-.5-.25-1 .5-1.25s1.5 3.75 1.25 6 0 1.5.75 1.5.5-.75.5-1.25-.75-5.5-.75-8.25-.25-2.5.75-3.5c-.298 3.429.305 6.876 1.75 10a21.48 21.48 0 0 0 0-8 27.26 27.26 0 0 1-.75-6.5 39.49 39.49 0 0 0-1.25-9.5c-.799-2.335-1.221-4.782-1.25-7.25-.098-1.221-.438-2.411-1-3.5 0 1.5-.5 2.75.25 4.25s.25.5 0 .5-.5 1.5-.5 2.25c-.25 4.75-.25 9.25-.25 13.75s.5 3.5-1.501 4.5-1.25.5-1.25-.25a34.23 34.23 0 0 1-.5-4.75 49.99 49.99 0 0 0-.5-8.75 28.75 28.75 0 0 0-.75-6.5 3.5 3.5 0 0 0-.75-2.25c-.5-.5-1.25 0-1.501.5a.25.25 0 0 1-.25-.25c-1.25-1.25-1.25 0-1.5.75a7 7 0 0 0-.25 2.25 72.99 72.99 0 0 0 2.5 10 4.75 4.75 0 0 1 .25 2c-2-4.25-2.5-9-4-13.25a27.74 27.74 0 0 0 1 9c.602 1.768.857 3.635.75 5.5-1-1-.5-2.75-1.25-4s0 1.75.25 2.5a8.75 8.75 0 0 0 1.25 5 131.74 131.74 0 0 0 2.5 13c.75 4.5 2 9 2.5 13.75-.25-.25-.75-.75-.75 0s.25 1.25.25 2c-1.75-5.75-3.25-11.5-4.75-17.249 0-.75-.25-1.75.75-2.25a.5.5 0 1 0 0-1c-1-.25-.5-1-.75-1.5s.75.25.75-.5-.75-2.5-1-3.75zm-.5-25.999c.25.5.25.75.5 1s.5.75 1 .75a.75.75 0 0 0 0-1 8.5 8.5 0 0 0-1-3c-.5 1 .25 1.75-.5 2.5a8.24 8.24 0 0 0-1-3.25 6.75 6.75 0 0 0 .5 3.25c.25.75.5.25.5-.25zm65.26-34.999a5.25 5.25 0 0 0 .75-3.75c-.489 1.19-.743 2.463-.75 3.75a28.75 28.75 0 0 0-1.751 9 89.71 89.71 0 0 0 2-8.75l-.25-.25zM24.599 95.33a4.25 4.25 0 0 0-.75-3.75c.25 1.25 0 2.75 1 3.75s-.5.5-.5.75.75 4.25 1.25 6.5 0 .75.75.75a28.49 28.49 0 0 0-1.75-8zm22.753 22.25c-.137.602-.141 1.228-.012 1.832a4.24 4.24 0 0 0 .762 1.667c.209-1.271.035-2.577-.5-3.749.75-.25.5-.75.5-1.25s-.5-5.25-1-8 0-3.5-1.25-5.25v4.5c.5 3.25 1 6.5 1.25 9.75l.25.5zM102.36 6.333c-.751.25-1.5-.25-2.251-.75a15.75 15.75 0 0 0-9.001-1c-.5 0-1 0-1 .5s.5.5.75.75a1.5 1.5 0 0 1 1 2.25c-1.063 3.145-1.653 6.431-1.75 9.75-.75 5.5-.25 10.75-1.25 16.25 0 .25-.251.75.25.75a3.25 3.25 0 0 0 .75-1.25c.25-3.75 1-7.5 1.5-11.25 1.157-5.091 1.827-10.281 2-15.5 0-.75 0-1.5 1-1.25s1.25.5 1.25 1.5a76.75 76.75 0 0 1-1.75 10.5 5 5 0 0 0 0 2.75 72.99 72.99 0 0 0 2.25-12.5c0-1 .5-1.5 1.25-1.25s3.5 0 5.001-.25 1.75 2.5 3.5 2.25.5-.25.5-.75-.25-.25-.5-.25a6 6 0 0 1-3.5-1.25zm110.766 156.745l12.002-3c5.75-1.5 11.501-2.999 17.002-4.999a3.26 3.26 0 0 0 2-2c-2.95 1.372-6.057 2.379-9.251 3-7.251 1.749-14.502 3.749-22.003 5.249l-20.003 3.75-7.251 1.25c-.5.25-1 .25-1 .75-.033.133-.012.273.058.39a.51.51 0 0 0 .317.235c.132.033.273.012.39-.058s.202-.184.235-.317h3c3.001-.25 5.751-1 8.751-1.5l8.252-1.25c2.421-.8 4.951-1.222 7.501-1.25l-1.75.75-13.252 2.5c-5.105.511-10.089 1.862-14.752 4h2.25l15.252-2.75c5.751-1 11.502-2.5 17.253-3.25 0 .5-.25.5-.5.75h-3.001l-19.753 4-11.252 2a40.73 40.73 0 0 1-7.75.75l-5.251.5c-3.66.159-7.28.832-10.752 2-.25.25-.75.5-.75-.25a39.8 39.8 0 0 1 5-1.75l4.501-.75h4.251a13.25 13.25 0 0 0 4.5-.25l3.001-1.25a4 4 0 0 0 2.5-1c-5.871-.132-11.739.371-17.502 1.5 2-1 4.25-1 5.751-2s-1.251-2.75-3.251-2l-6.751 1.75c-1.5.25-2.75 1.5-4.501 1 6.001-3 12.502-4 18.753-6.25-1.25.75-3 .75-4 1.75h.75l6.501-1.5 15.502-4 16.252-3.499c10.252-1.75 20.003-4.5 30.255-5.75 3-.25 6.001-1 8.751-1.5s.5-.5.75-1c.181-1.636.603-3.237 1.25-4.75.751-1.25.25-2.25.25-3.5s-.5-.75-1.25-.5c-5.251 2-10.752 3.25-16.252 5l-21.503 5.75a56.42 56.42 0 0 1-8.751 2.25l-8.252 1c-.5 0-1 .25-1.25-.5s7.001-2.25 10.501-4.25c-.75-.5-1.75.25-2.5-.25l8.751-2c5.251-1 10.252-3 15.503-4.5l13.752-4.5 7.501-2.25c.5 0 1.5 0 1-.75s0-2.5-1.75-2.25-4.501 1.5-6.751 2.25a9.76 9.76 0 0 1-4.501 1c3.501-1.5 7.251-2.5 10.751-3.75s1.001-.25 1.001-.75a3.5 3.5 0 0 0-.5-2.75c-.5-.75-1.25.25-2 .25h-.251c-8.501 3.75-17.252 6.5-26.003 9.5-1.217.395-2.476.646-3.751.75.25-.5.5-.5 1-.5 9.752-3.25 19.253-6.5 28.754-10.5 2.251-.75 2.25-1 1.75-3.5-3.25 1.75-6.75 3-10.251 4.5l-10.001 4.25-10.252 3.5c-1.25.5-2.25 1.5-3.75 1l1-.5 12.252-4.5 17.752-7.5c1.471-.443 2.776-1.313 3.751-2.5l-27.754 10.75c-9.502 3.5-19.003 7-28.754 10h1.25a46.79 46.79 0 0 0 8.501-2 5.25 5.25 0 0 1-2.501 1.5l-6.5 1.25c-3.251.75-6.752.5-9.752 2.75l2-.5c.75-.25 1.5-.75 1.751 0s-.751 1-1.251 1.25h-.749a30.25 30.25 0 0 0-8.752 3.25c-2.447 1.322-5.051 2.33-7.751 3-3.601.947-7.115 2.201-10.501 3.75-2.751 1.499-5.752 1.749-8.502 2.999l-3.25 1.25-10.001 4c-.25.25-.751.75-1.001.25s.5-.5.75-.75c4.501-2 8.751-4.25 13.002-6.5l14.252-5.749 14.502-5.75a.5.5 0 0 0 .354-.147c.094-.093.146-.221.146-.353 0-1 .751-1 1.501-1.25 2.245-.614 4.423-1.451 6.501-2.5 1.36-.649 2.784-1.152 4.25-1.5a22 22 0 0 0 5.751-1.75l1.5-.5c1.479.031 2.941-.313 4.251-1 4.25-1.5 8.251-4 12.752-4.75h1.5c2.816-1.617 5.74-3.037 8.752-4.25l5.25-3c-6.751 2.25-13.252 5-20.003 7.5 1.25-1.75 3.501-2 5.001-3.25s1.25-1.25 2.25 0 .5-.25.75-.5l.75-1c4.933-2.365 10.031-4.37 15.253-6 5-1.75 10.251-2.999 15.252-5.249s1.25-2 1-3-1.25-.25-2 0l-20.503 7.249h-1.501c-1.301.098-2.573.437-3.75 1-.5 0 .25 1.25-1 1-1.468.015-2.885.546-4.001 1.5l-9.251 5c-4.251 2.5-9.002 4.5-13.252 7a29.77 29.77 0 0 1-8.001 2.5c-.5 0-.75.25-.75-.25a.49.49 0 0 1-.059-.436c.024-.073.064-.139.118-.193a.5.5 0 0 1 .191-.121c.75-.25 1-1 1.75-1.5a143.45 143.45 0 0 0 13.252-8c4.251-2.75 8.751-5 13.252-7.5 1.2-.439 2.243-1.221 3-2.249-.5-.25-1.25 0-1.75-.5 4.001-1 6.001-4.75 9.501-6.5h-.25l-16.752 6.75c0-.25-.25-.25-.25-.5 12.252-5.5 24.754-10.75 36.505-17.25-.25-1-1-1-2.25-.75s-1.75 1.75-3.001 2a38.01 38.01 0 0 0-7.001 2.25c-4.75 1.75-9.001 4.75-14.252 5.5l7.752-4.25 14.752-6.5 1.75-1c1.25-1 .25-2 0-2.75s-1.25 0-1.5 0l-12.752 6.25-15.253 6.75c-.344.285-.766.462-1.211.506s-.895-.045-1.289-.256c1.5-.25 2.001-1 3.001-1.5 6.501-3 13.002-5.75 19.253-9l7.001-4 1.5-1c.75-1-.25-2-.25-3h-1.001l-6.251 3c-.75.5-.75.75-.499 1.5s-.251 1-.751 1a12 12 0 0 0-7.001 2c-3.75 2.25-7.001 5.5-11.001 7.25a14.76 14.76 0 0 0-3.5 1.5 107.33 107.33 0 0 0-11.252 7.25c-.5.25-1.501.25-1.501 1.25s-2.25 2-4 1.5l-11.752 6.999-8.751 5 1-1c2.001-1.25 3.75-2.75 5.751-3.75s2.25-2.25 4-3c.809-.18 1.574-.52 2.251-.999l6.751-4.25c5.251-3 10.751-5.5 14.752-10.25l1.25-.5a14.54 14.54 0 0 0 4.251-1.5l3-1.5h-2l-7.251 3.5c-.5.5-1.5.5-1.5 1.5s-2.501 1.25-4.001 1.75-3.75 1.25-4.75 3.25-2.501.75-3.751 1.25l-15.252 8.499c-.751.5-1.501.75-1.501 1.25s-1.5 1.25-2.5 1.75h-.25l.5-.75-5.251 3c-4.001 2-7.751 4.5-11.752 6.75l-1 1c-.5.25.501.5 0 .75h.25a51.22 51.22 0 0 1 5.501-2.25c1.93-.704 3.951-1.125 6.001-1.25a4.74 4.74 0 0 1-1.561 1.252c-.604.302-1.265.472-1.939.498a6.01 6.01 0 0 0-2.251.75l-10.251 4a36.48 36.48 0 0 0-7.501 4.25c-2.25 1.5-3.751 4-6.251 5l-2.5 1.5c-.067.132-.183.233-.324.28a.56.56 0 0 1-.427-.03c-.132-.067-.233-.183-.28-.324a.56.56 0 0 1 .03-.426c-.133-.033-.246-.118-.317-.235s-.091-.258-.058-.39.118-.247.235-.317.258-.091.39-.058c2.26-1.271 4.431-2.69 6.501-4.25 2.014-1.189 3.936-2.526 5.751-4l6.251-4.5 18.253-10.75 5-2.75 9.752-5.499c2.75-1.75 5.751-3 8.501-4.5l13.752-7.75 16.752-8.5c2.001-1 4.251-1.25 5.501-3.25l-15.252 7c.5-1.25 1.751-1 2.501-2-3.501 1.25-6.001 3-9.002 4.25s-3.501 2-5.251 2.75l-18.252 9.75-12.002 6.749-7.251 4.25c-.25.25-1 .25-.25.75s.25 1.5-.5 1.75l-4.001 2.25c-5.751 2-10.501 6-16.252 8-1.889.842-3.655 1.936-5.251 3.25a57.7 57.7 0 0 0-6.001 5 147.92 147.92 0 0 1-13.002 8.75c-1.5 1-3.25 3.499-5.751 1.25l-3.75 1.75-3.251 2.499c-3.25 2-6.501 4-9.501 6.25l-8.251 5.75c-1.425.964-2.69 2.145-3.751 3.5 3.751-2 7.251-4.25 10.751-6.5l13.752-8.75c2.364-1.545 4.991-2.646 7.751-3.249 0 .75-1.25.75-.75 1.249a.57.57 0 0 1-.25 1l-7.501 4.25c-.5.25-.75.75-1.001.5s-1.499 0-2.25.25a.5.5 0 0 0-.5.5c-.016.066-.019.134-.009.201a.53.53 0 0 0 .067.189.52.52 0 0 0 .135.149.51.51 0 0 0 .182.086c.066.017.134.02.201.01a.51.51 0 0 0 .189-.068.52.52 0 0 0 .149-.135.49.49 0 0 0 .086-.182c.25-.25.251-.5.751-.25l-.5.5-6.251 4-2.751 2.25a60.07 60.07 0 0 0-7.251 4.75c-.25 0-.501.5-.501.5s0 1-.25 1.25c-.862.595-1.784 1.097-2.751 1.5-2.25.25-3.5 2.5-5.501 3.25a4 4 0 0 0-2.25 2.25 5 5 0 0 1-1.318 1.738 5.01 5.01 0 0 1-1.933 1.012c-.24.103-.442.28-.576.504a1.25 1.25 0 0 0-.174.746c.578-.048 1.116-.316 1.501-.75 2.75-1.25 4.25-4.5 7.751-4s.25-.25.5-.5c2.094-1.187 4.1-2.524 6.001-4a171.02 171.02 0 0 1 18.003-11.75l6-3.25c-19.002 11.75-26.003 16.5-27.504 19 3.3-2.423 6.722-4.676 10.252-6.75l11.252-6.5c.75-.25 1-.5 1.5.25-.75-.25-1.25.25-2 .75l-4.501 2.75-4.751 2.5c-.5.5-.25 1.25-1.001 1.5s-4.25 3.5-6.751 4.75-1.5.5-1.75 1.5 1.25.25 1.75-.5c.267-.252.581-.449.924-.577a2.76 2.76 0 0 1 1.076-.173c2.5.25 4.5-1.5 6.5-2.5s.751-.5.25-.75h-.5l3.501-1.75c.144.128.234.307.25.5a14.26 14.26 0 0 0-3.251 2.5c8.002-1.75 15.502-4.75 23.504-7a.5.5 0 0 1-.147.354c-.094.093-.221.146-.353.146l-13.502 4.5a79.99 79.99 0 0 0-13.002 4.5c-4.484 2.178-8.481 5.239-11.752 9a250.32 250.32 0 0 1 31.005-5c-.207.26-.475.465-.78.596a2 2 0 0 1-.97.154l-20.003 3.25c-1 .25-1.751 1.25-3.001 1a2.49 2.49 0 0 0-1.186-.025 2.5 2.5 0 0 0-1.064.525 8.74 8.74 0 0 1-3.251 1.249c-1.356.323-2.632.918-3.751 1.75a3.75 3.75 0 0 0 2.751.5c1.5-.75 1.75.5 2.25 1.25s-1 .25-1.25 1.25a26.27 26.27 0 0 0 6.251.25c.25 0 .75 0 .25-.25s0-.5.5-.75h2.5l6.251 1a21.28 21.28 0 0 1 5.751.75c2.51 1.151 5.239 1.747 8.001 1.75l25.753 2.75 12.252 1.25c2.034.088 4.049.424 6.001 1-.25.5-.5.5-1 .25l-14.752-1.25-26.754-2.75h-1c-1.001.75-1.75.25-2.75 0l-1.251-.5-7.001-.5a25.32 25.32 0 0 0-6.251-.5c-1.75.25-3.5-.75-5.501.25s-2.501 0-3.501 0h-9.001a71.51 71.51 0 0 0 19.002 4h-.5c-.5 0-1.251-.25-1.501.25s.75.75 1.25 1h.25l15.753 4 16.252 3.5 24.753 6.75c5.501 1.75 11.002 3.75 16.253 6a148.48 148.48 0 0 1 16.752 8.249c-1.5-.25-.75.5-.25 1h-.5c-1.591-1.757-3.688-2.979-6.001-3.5-2.25-.5-3.5-3.249-6.251-2.25v-.499c-.25-.75-1.25-1-2-1.5s-3.251-.75-5.001-1.75a13.98 13.98 0 0 0-4.5-1.75c-1.092.065-2.167-.294-3.001-1l-.75-.5a25.3 25.3 0 0 1-7.001-2.25l-17.253-4.75c-.5-.25-.999-.5-.999.5s-1.001 1.25-1.251.5-1.75-1.25-2.75-1.5l-5.751-1.25c-3.25-.5-6.751-.75-10.001-1.5s-5.751-.5-8.502-.75-2.25-.25-2-2l-.75-.5c-2-1.5-4.501-.75-6.501-2s-.5 0-.5.25c-.304.176-.649.268-1.001.268s-.696-.092-1-.268a51.28 51.28 0 0 0-10.752-2.25l-3.751-.5a56.02 56.02 0 0 0 7.251 3l24.003 8 11.002 3.5 13.002 4c.25 0 1 .25 1-.25s1.25-1.25 2.25-.75l5.751 2c.5.25.75.25.75 1a29.95 29.95 0 0 0-6.751-2 3 3 0 0 0 1.75 1.25c2.15.438 4.246 1.108 6.251 2l15.002 4.999h2.001c.5.75 1.5 1.25 1.5 2.25s.5 1 1.25 1a1 1 0 0 1 1 1c.25.75.5.5 1 .5h4.251c2.645.401 5.242 1.071 7.751 2 1.25.5 2.501 1.25 4.001.5l.5.5 11.251 4.25 7.002 2.75a58.24 58.24 0 0 0 11.751 3.5l2.751.5c.25 0 .749 0 .749-.5s-.249-.5-.5-.75l-2.75-1.25a110.32 110.32 0 0 1-17.752-5h1.75c-.75-.25-1.501-.75-2.001-.5-.603.137-1.228.141-1.832.012a4.26 4.26 0 0 1-1.668-.762c-3.011-1.145-6.103-2.064-9.251-2.75l-5.501-1.75c-.5-.25-1-.25-1-.75.296-.461.735-.812 1.25-1h1c1 0 1.75.5 2.75.25s-1-.25-.75-1.25 5.751 2 8.502 3.25 5.75 1.25 8.501 2 12.502 2.25 18.253 4.75a13.25 13.25 0 0 0 4.5 1.25c.5 0 1 0 1.25-.75s-.5-.75-1-.75l-10.501-2.75c-.501-.25-1.001-.25-.751-.75s.501-.5.751-.25l9.501 1.75 2.25.5c1.5.5 1.501-.25 1.751-1.25s-.25-1.25-1.25-1.5h-2.751l-6.751-1.75c.372-.321.823-.537 1.307-.625a2.75 2.75 0 0 1 1.443.125l7.501 1.5c.297.039.598-.012.865-.146s.489-.344.636-.604c.084-.143.132-.306.137-.472a.99.99 0 0 0-.105-.481 1 1 0 0 0-.322-.373c-.136-.095-.295-.155-.46-.174l-1-.5c-5.001-1.75-10.752-1.75-16.003-3.25-1.25-.25-2.75 0-4-1 1.239.208 2.495.291 3.75.25 0-.75-.5-.75-1-1-4.751-1-9.002-2.749-13.752-3.499-1.524-.121-2.989-.638-4.251-1.5.294.078.6.097.901.054s.59-.147.849-.304l-6.5-1.5c-.25-.25-.5 0-.5.5a34.55 34.55 0 0 1-6.752-2 64.7 64.7 0 0 0-13.752-3.25h-.999c-1.593-.916-3.417-1.35-5.251-1.25h-.75c-1.398-1.206-3.009-2.139-4.751-2.75l-9.751-3.75a1.25 1.25 0 0 1-.547-.198 1.24 1.24 0 0 1-.397-.424c-.097-.17-.153-.361-.163-.557s.026-.392.106-.571a16.76 16.76 0 0 0 5.751 2.5c2.117 1.347 4.51 2.201 7.001 2.5 1.5 0 2.751 1.25 4.501 1.5s1 .75 1.75.5.75 0 1 .25 3.751 2.25 6.251 1.5c.265 0 .52.105.707.293s.293.442.293.707h.25c.25-.5.751-.25 1.001 0a3.25 3.25 0 0 1 3 .25l2.5 1.25c.75.5 2 1 2.25.5s1.751 0 2.501 0c2.599 1.125 5.491 1.388 8.251.75-.5-1-2.25-1-2-2.75a216.76 216.76 0 0 0 22.253 3c-5.25-1.5-10.501-2-15.502-4.5h1.25c1.885.616 3.805 1.117 5.751 1.5l14.002 2.5c3.133.645 6.308 1.063 9.501 1.25 3.893.581 7.818.915 11.752 1 .25 0 .75.25.75.5 0 .098-.019.196-.057.287s-.093.173-.162.243-.153.125-.244.163a.76.76 0 0 1-.287.057h-2l-14.252-1.75.5.5c4.5.75 8.751 2.25 13.001 3.25 1.03.328 2.145.252 3.12-.212a4.25 4.25 0 0 0 2.131-2.288c1.251-2 1.251-2.5-1.25-2.75l-17.753-2c-8.251-1-16.502-1.75-24.753-3.25-1-.25-2 0-2.5-1l17.252 2.25 12.252 1.25 9.251 1 7.752.5c.5 0 .5-.25.5-.75s.25-3-3.001-3.25h-.5c-7.266.166-14.534-.168-21.753-1-9.502-1-18.753-2-28.004-3.5-.5-.25-1.25 0-1.25-1s1-.5 1.5-.5h1a34.29 34.29 0 0 0 8.501 1.75l13.752 1.75 13.252 1 14.252.5h2.5a.75.75 0 0 0 .751-.75c0-.5-.501-.25-.751-.25l-19.752-1.75c-9.002-.75-17.753-1.5-26.754-2.75l-7.251-1.25c-.751-.25-1-.5-1-1.25s.499-.5 1-.5h4c1-.25 2.251-.5 3.001.25a3.25 3.25 0 0 0 2 .75l16.752 1.25 9.752.5h9.751c.5 0 1 0 1-.5-7.001-1.75-14.251-2-21.503-3.25a27.02 27.02 0 0 0-9.001-.75h-3.251c-2.638-.498-5.316-.749-8.001-.75l-10.501-.75c-.75 0-1.75.25-2.5-.5h1.75a65.43 65.43 0 0 0 7.001.25c2.75-.25 5.501.75 8.251.75 3.758-.083 7.516.084 11.252.5l10.501 1 10.502 1.25 12.001 1.75a4.5 4.5 0 0 0 1.901.285c.646-.043 1.276-.225 1.846-.533a4.49 4.49 0 0 0 1.455-1.255c.389-.518.662-1.114.799-1.747.5-1.5.75-1.5-1-1.5l-14.502-1.25-7.251-.5a19.25 19.25 0 0 1-6.501-.75l-2.25-.5h-13.502c-3.001 0-6.251.5-8.752-1.25a15.01 15.01 0 0 0-5.75-1.5l-1.25-.5-.501-.5c0-.5.5-.5.75-.5l1.751.5c4.75.25 9.501 2 14.252-.25h1.25a9.5 9.5 0 0 0 4.5-.25c-2-1-4.25 0-5.5-1.75 2.424-1.119 5.084-1.634 7.751-1.5-.75-.25-.25-1.5-1.25-1.75l-6.251-.999c-.5-.25-1.25.25-1.5-.5s.5-1 .75-1.75h-1c-.75 0-1.751.25-1.751-1s1.25-1 2.001-1.25 1.5.25 2-.25-1.5-.25-2.25-.5-1.251.25-1.751-.5-2-1.25-3.25-1.25-.75.25-1-.25a24.94 24.94 0 0 1 4-.5c3.491-.333 7-.417 10.502-.25 6.251 0 12.502-1 19.003-1.25 4.598-.094 9.188-.428 13.752-1l5.001-.75c.5 0 1-.25 1-.75h-1.751a93.61 93.61 0 0 0-14.502 0c-7.501.25-14.752 1-22.253 1.75l-15.252 1.5c-2.217.451-4.523.096-6.501-1h-.5c-.501 0-1.251 0-1.251-1s.75-.75 1.251-.75h1a51.34 51.34 0 0 0 6.001-1.25h-1.25c.5-.75 1.25-.5 2-.5l9.751-.75a20.02 20.02 0 0 0 5.251-1.25l-10.501.5 5.75-.75 22.503-2.75c7.585-.932 15.102-2.352 22.504-4.25 1.667-.5 2.417-1.5 2.25-3-.25-.5-.25-.75-.75-.75s-.75 0-1 .5-1 1.25-2 1.5c-3.099 1.014-6.277 1.766-9.502 2.25-5.251 1-10.751 1.75-16.002 3-2.722.498-5.484.749-8.251.75h-7.252a9.25 9.25 0 0 1-4.5.25c4.876-.274 9.642-1.551 14.002-3.75-2.5-.25-4.751 1-7.251.75a2.5 2.5 0 0 1 1.75-.5c2.167-.23 4.28-.821 6.251-1.75 1.581.3 3.21.214 4.751-.25 6.501-1 12.752-2.75 19.003-4.25l8.251-2.25c.5-.25 1.25-.25 1-1s-.75-.5-1.25-.25h-.5a142.21 142.21 0 0 1-14.752 4l-8.502 2.25c-2.768.163-5.482.841-8.001 2h-1c-6.251 1.25-12.752 2.5-19.003 3.25a16.24 16.24 0 0 1-6 .5 12.51 12.51 0 0 1 3-.5c9.251-1.5 18.503-3 27.504-5a229.24 229.24 0 0 0 25.754-6.75c2.25-.75 2.5-1.25 2-3.75-6.001 1.25-11.752 3-17.753 4.5l-7.501 2c-1.314.662-2.819.839-4.25.5l5.25-1.5c7.751-1.75 15.503-4.25 23.254-6.25l1.25-.499c-.25-1.75 1-2.75 1.5-4-1.324.149-2.602.575-3.75 1.25h1c.25 0 .75-.25 1 .25s-.5.75-.75 1l-12.002 3.999-18.753 4.75-3.25-1zm-66.26 70.748c-1 .5-1.75-.25-2.5-.5l-5.001-2.499c-.25.749.5.749.25 1.249-.984-.189-1.87-.72-2.5-1.499-.94-1.055-2.151-1.833-3.501-2.25l-1.5-.75c-2.822-1.767-5.844-3.193-9.001-4.25-4.334-1.643-8.881-2.654-13.502-3-.5 0-1.5-.25-1.25-1s-.501-1-1.001-1.25l-14.252-4.5h-1c-1.25 1.25-2.751.75-4.251 1.25a54.01 54.01 0 0 0 18.753 10.75c-.48-.583-.822-1.267-1-2-.25-.5-.5-.75-.25-1h1c3.251 1.75 7.001 2 10.502 3.5a4.76 4.76 0 0 0 2 .75c2.218.489 4.279 1.52 6.001 3 .25 0 .75.25.5.75h-1a51.46 51.46 0 0 0-6.501-3c-2.751-.75-5.251-2-8.001-2.5a15.26 15.26 0 0 0 4.5 2.25c2.824 1.529 5.748 2.866 8.752 3.999.199 0 .39.079.53.22a.75.75 0 0 1 .22.53c-.25.75-.75.5-1.25.5h-2.251c1.732 1.582 3.666 2.927 5.751 4l10.001 4.75 8.752 4.5c4.482 2.34 9.169 4.265 14.002 5.75.321.097.619.258.877.472a2.5 2.5 0 0 1 .623.778c1.75 2.25 4.501 2.5 7.001 3.75s-3.501-1.5-4.501-3 4.001 2.5 6.752 2.5a7.5 7.5 0 0 0-2.501-1.75l-8.751-4.25c-1.334-.601-2.592-1.356-3.75-2.25-2.251-1.25-4.751-2-7.002-3-5.487-3.18-11.165-6.019-17.002-8.5a1 1 0 0 1-1-1c.25-.5.75-.5 1.25-.5h1c2.25.75 4.501 2.25 6.751 3 3.287 1.04 6.404 2.556 9.251 4.5l8.502 4a27.28 27.28 0 0 0 6.251 2.5c.5.25.75.5.75 1s-4.251-2.25-6.752-2.75.501.75 1.001 1 3 2.25 5.001 2.5 2 1.5 3.25 2l6.501 2.75 16.502 7.5 14.503 5.999c.5.25 1.75 0 1.499 1-.268.323-.62.563-1.018.696s-.824.151-1.232.054l-2-.5c-.75 0-1.5-.5-2.5-.25s3.5 3 6 1h.501c2.75.25 4-1.75 5.5-3.749s.251-1-.499-1.25l-13.752-4.75-8.752-3.25c-3.183-.99-6.278-2.244-9.252-3.75-4.027-1.493-7.952-3.247-11.751-5.25.75.5 1.25-.25 2.251.25l10.001 4 15.002 6 9.001 3 8.001 3c.5.25.751.5 1.001 0l-.5-.75-9.752-4.25a51.6 51.6 0 0 1-6.501-3h.5c2.251 1.25 4.751 1.75 7.001 2.75s5.501 3.5 9.001 3.75.501.75.751 0 0-.5-.5-.75h-.5l-9.002-3.75-7.501-3a14.51 14.51 0 0 1-5.251-2.5 12 12 0 0 1 6.001 1.5l9.502 3.75c2.25 1.25 4.75 1.75 7 3.25s1 .5 1.251-.25.5-1 .75-1.75.25-1.25-.75-1.75c-1.148-.348-2.241-.853-3.25-1.5-.501-.25-1.251-.5-1.751 0-.294.078-.6.097-.901.054a2.26 2.26 0 0 1-.849-.304c-5.001-2-10.002-3.75-14.752-6s-2.751-.25-3.251-2-.5-.25-.75-.25a6.26 6.26 0 0 1-4.251-1 25.26 25.26 0 0 0-3.75-1.75c-1.75-.25-3.001-1.25-5.001-1.75s1.751.75 2.751.5-1.25-2.25-3.251-1.75-1.25.5-1-.25-.25-1-.75-1l-9.001-4.5c-1.31-.687-2.772-1.031-4.251-1 1.5.5 2.25 2.25 4 2.75l-7.501-3a70.27 70.27 0 0 0-8.751-4.25l-2.75-.499c-.75-.25 0 1.249-.75.499l-3.251-1.499a13 13 0 0 0-6.751-2.5l4.501 2.5a81.01 81.01 0 0 1 9.251 3.999zm4.001-187.994c1.5-.5 1.75-2 2.5-3.25a92.46 92.46 0 0 0 7.751-13.75c-1.932 2.491-3.608 5.171-5.001 8l-5.25 9h-.501c-.25-.75.251-1 .501-1.5l3.25-6.25c1.953-3.921 4.21-7.682 6.751-11.25.751-.75 1.25-1.75 2-2s1.751-1.5 2.251-2.5-.75-1.5-1.501-2.25-1 .5-1.25.75a57.99 57.99 0 0 0-7.75 11.5c-1.501 3.25-3.501 6.25-5.001 9.5s-.25-1.25 0-1.75l1.75-3.5c3-6 5.501-12.25 10.501-17 .25-.25.751-.75.251-1a21.01 21.01 0 0 0-6.002-3.5c-.75-.5-1.25 0-1.75.75s-3.75 6.75-5.751 9.75-5.75 9.25-8.501 13.75c-.129.385-.36.727-.668.991a2.25 2.25 0 0 1-1.082.509l2.75-4c4.001-7.25 7.752-14.75 11.502-21.999.5-.5.5-1-.25-1.25l-6.501-1.75c-.5 0-1-.25-1.25.25s-2.251 2.5-1 4.5a1.5 1.5 0 0 1-.25 1 32.49 32.49 0 0 0-3.501 6.5 345.93 345.93 0 0 0-16.752 34.999 91.37 91.37 0 0 0-3.501 8.75c-.25.75-1 1.5-.75 2.25s-1.25 5.75-2.25 8.5l-9.001 18.999c-.751 1-1.001 2.5-2.251 3.5.016-.538.19-1.06.5-1.5 1.251-1.75.75-3.75 1-5.75l.751-2.5c-2.251 4.5-4.251 9-7.002 13.5-.095-.291-.122-.601-.078-.904a2.01 2.01 0 0 1 .329-.846c.5-1.25 1.25-2.75 1.75-4.25.856-3.403 1.942-6.744 3.25-10 1.001-2.25 1.751-5 5.001-5.5s.5-.75.75-1l7.251-17.999c4.001-10.25 8.751-20 13.002-30.249 2.5-5.75 5.001-11.75 8.001-17.499a28.27 28.27 0 0 0 2.751-5.5c-1.251.25-2.251-.25-3.001 1.25-2.75 6.5-6.501 12.75-9.001 19.749-1 3-2.751 6-4.001 9.25s-4.5 11-7.001 16.5a3.5 3.5 0 0 1-1.5 2c.25-1.25 1-2 .75-3l-.5.75c-1.75 3.25-3.5 6.25-5 9.5-.296.461-.736.813-1.251 1h-.75c-.25-.25-.5-.5-.25-1s3.25-7.75 4.501-11.75 3.75-8.75 5-13.25c-3 5-5 10.25-7.501 15.5l.75-2.5 4.751-11 10.752-26.249a27.28 27.28 0 0 0 2.5-6.25c0-.25 0-.75-.25-.75s-1 0-1 .5-2.25 5.25-3.5 7.75-2.001 6.5-3.501 9.5a52.92 52.92 0 0 0-2.75 5.25c-1.001 2.25-1.501 4.5-2.501 6.75a99.56 99.56 0 0 0-4.251 9 13.99 13.99 0 0 1-2.75 5c-.096-.25-.123-.52-.079-.784s.157-.511.329-.716l5.751-13.5c3-7 5.751-14.5 8.501-21.749.75-2.5 1.75-5 2.75-7.5s.001-1.25-.5-1.5-1.25-.25-1.75.5a10.82 10.82 0 0 0-1 1.75c-1.381 4.554-3.137 8.986-5.251 13.25a31.8 31.8 0 0 0-1.5 4.5c-1.5 3.75-2.751 7.25-4.501 11a15.75 15.75 0 0 1-3 5.75l1.5-4 5.501-14.75 6.001-18.249c.25-.25.5-.75 0-1a1 1 0 0 0-.67-.1c-.228.046-.434.169-.581.35-.688.801-1.199 1.738-1.499 2.75a270.66 270.66 0 0 1-9.502 27.499c-1.25 3-2.5 6.25-3.5 9.5s-.251 1.25-1.001 1.5c3.751-13 9.002-25.249 12.002-38.499-6.001 14.5-10.751 29.499-16.752 43.749a14.5 14.5 0 0 1 1.75-5.25c1-3.75 2.25-7.25 3.5-11s3.001-8.75 4.251-13.25a105.08 105.08 0 0 1 4.251-12.5 7.25 7.25 0 0 0 1-4c0-.5 0-1.25.5-1.25s1.5-.5 2.25.25.25.75.5.5.5-.5.5-.75-.25-.5-.75-.5l-3.25-.5a3 3 0 0 0-1.539.639c-.443.354-.776.826-.961 1.361-.973 2.17-1.727 4.431-2.251 6.75-1.25 4.25-3 8.5-4 12.75s-3.251 11-4.751 16.499-3 8.75-4.001 13.25-.75 1.25-.75 2.25-2.501 6-3.251 9v-.5l7.501-26.999c1.25-4.25 2.25-8.75 3.75-13s3.751-13.25 5.751-19.749c0-.5.5-1.25-.25-1.25s-1.75-.5-2.25 0 0 .75.25 1v.75c-1.001 1.5-.5 3.5-1 5l-7.001 25.499c-1.251 4-2.251 8.25-3.251 12.5l-2.5 10.25c-.303 1.285-.722 2.54-1.25 3.75a9 9 0 0 1 .25-5.75c1.5-4.75 2.5-9.5 3.751-14.25 0-.5.5-1.25.25-2a5.5 5.5 0 0 0-1.25 2.75 126.25 126.25 0 0 1-5.501 17.25c0 .25-.25.75-.75.5s-1 .75-1.5 1.5a23.51 23.51 0 0 1 1.25-7.5 2 2 0 0 0-.25-2 3 3 0 0 1 .25-2.75c1.5-.25 1.25-1.25 1.25-2s1-2 0-3 0-.5 0-.75a3 3 0 0 0 .5-2 57.24 57.24 0 0 1 1.75-9c.75-3.5 1-7 2-10.5a3.75 3.75 0 0 0 .25-1.75h-.75c-2.75 11-4 21.999-7.251 32.999 1-11 2.5-21.749 3.5-32.749v.5c-.75 5-2.25 10-3 15s-2 6.5-1.75 10a8.25 8.25 0 0 1-1.001 3.25c0 .25-.25.75-.75.5s-.25-.5-.25-.75a9.74 9.74 0 0 0 .5-3.75 137.96 137.96 0 0 0 1.501-20.249 78.98 78.98 0 0 1 1.5-20.249c0-.25.25-.5-.25-1a5 5 0 0 0-1.5 3 118.97 118.97 0 0 0-2.751 16c-.75 4.75-1 9.5-1.75 14.25s-.25 9.5-2 14 .25 3.75-.5 5.75v.5a1.75 1.75 0 0 1-.25 2.25c-.75 1.5-.251 3-.501 4.25s0-1 .75-1.5a9.75 9.75 0 0 1-2.25 6c-1 0-.5-.75-.5-1.25 0-4.25 1-8.25 1.25-12.5s1.25-12 1.75-18 1.5-12.75 2-19.249a7.25 7.25 0 0 0-.25-3.25l-3.5 26.249-2.751 26.749a24 24 0 0 1 0-6l1.5-17.25a77.69 77.69 0 0 1 1-8 12 12 0 0 1 0-3c.25-.25.25-.5-.25-.75h-.5a2.5 2.5 0 0 0 1 3.5c-.75.25-1.501-.25-1.751 1-.75 6-1 12-1.75 18l-1.75 13.25a18.99 18.99 0 0 0-.75 5.25 99.23 99.23 0 0 1-.75 19.249c0 .5 0 1-.75 1s-.501-.75-.501-1-.25-5.5-.5-8 .25-2.75-.25-4.25-1.001 3 .25 4.25a1 1 0 0 0-.5 1c0 2.25-.25 4.25-.25 6.25s.25 1-.5 1-.5-.5-.5-1a14.25 14.25 0 0 0 .25-3.25 92.24 92.24 0 0 1 0-11.75c.75-5.5.75-11 1.5-16.25a52 52 0 0 0 .75-5.75c.25-1 .5-2-.25-2.75a14.24 14.24 0 0 0 .75-6.5c-.497 2.131-.748 4.312-.75 6.5a7.5 7.5 0 0 0-.5 3.25c-.5 3-.75 6.25-1 9.25a96.98 96.98 0 0 1 1-17c.5-3.25 1-6.25 1.25-9.5s.25-1.5-.75-1.5-.75.75-1 1.5.75 1 1 1.75-1.5.75-1.5 1.75l-.75 10.5a28.79 28.79 0 0 1-.75 6.5 140.26 140.26 0 0 1 0-14.5c-1 5-.75 10-2 15.25-.057-1.505.027-3.011.25-4.5.25-2.5.25-5.25.5-7.75l.75-7.5c.25-2.5 0-.75-.5-.75s-.5.25-.5.75v3.5c-.25.75 0 1.5-.75 2-.5-1.25 0-2.75-.25-4.25s.5-1.25-.5-1.25a3.25 3.25 0 0 0-2.751 2.75c0 4-.25 8-.5 11.75s-.25 13.75-.25 20.499c0 1.25-.5 2.5 0 3.5-.5 0-.501-.5-.501-1 .042-1.587-.042-3.176-.25-4.75-.25-1.5.5-3 0-4.5s.25-6.5.5-9.75a1 1 0 0 0-.5-1.25 32.27 32.27 0 0 1-.25 7 3.25 3.25 0 0 1-.25-1.5c0-.5-.001-1-.501-1s-.5.5-.5 1l-.75 11.75c-1.25-.75-.75-1.75-.5-2.75.25-5 .5-10.25.5-15.5a26.75 26.75 0 0 0 0-7.75c-.5 2.5-.75 5.25-1.25 7.75-.414 1.802-.582 3.652-.5 5.5.182 1.145.12 2.316-.182 3.436a8.25 8.25 0 0 1-1.568 3.063c-.5.25-.75.5-1.25.25s-1.25-1-1-2a6 6 0 0 0 0-3c-.25-3-.25-6.25-.25-9.25s-.5-9-.5-13.25c0-.5.5-1.5-.75-1.25s-1.501.25-1.501 1.5a56.51 56.51 0 0 1 .25 6.5 60.24 60.24 0 0 1-.25 9.5l-.75-16.499c-2.75 1.5-4.001 3-3.501 5.5s.25 8.25 1.001 12.25 0 9.5 1 14a52.73 52.73 0 0 1 .5 6.25c.25 5.75.75 11.25 1.5 17s-1 9.75 1 14.5c-1.25 1 0 1.75 0 2.5.208 1.909.292 3.829.25 5.749-.25.5 0 1.25 0 2s.25 1.5.5 2-.25 1-1 1-.25 2.5.5 3.5.75 2.5.5 3.75-1 5.5.75 8 .5.5.25.5-.5.75-.5 1v3.5a40.5 40.5 0 0 0 .5 7.75 2.25 2.25 0 0 0 .25-1.25 20.25 20.25 0 0 1 0-5.5 25.74 25.74 0 0 0 .75-9.75 7.25 7.25 0 0 0-.25-3.25c-1-3-.25-6.25-1-9.25s0-.5.5-.5.25.25.5.5a6.98 6.98 0 0 1 .25 2.25 28.25 28.25 0 0 0 .75 6.25 4.5 4.5 0 0 0 .25-2.5c0-1.75.25-3.5.25-5.25s0-1 .75-1 .75.5.75 1-.5 7.75-.5 11.75-.75 3 .25 4.75a3.25 3.25 0 0 1 1-2.25 3.5 3.5 0 0 0 1.5-3.75 16.25 16.25 0 0 1 0-3.5 11.25 11.25 0 0 0 0-5c-.5-2 .75-3.5.75-5.25.25 6.75-.25 13.5-.25 20.5-1-.25-.5-1-1-1a56.23 56.23 0 0 0-1.5 9c-.581 4.394-.915 8.817-1 13.249-.409 3.066-.577 6.158-.501 9.25 0 1-1 .75-1 1.5s-.5-.75-.5-1.25a3.25 3.25 0 0 1-.25-1.5c-.25-3-.25-3.5-.75-4.25a53.99 53.99 0 0 0 3.001 17.75c2-4 1.75-8.5 4.251-12.25a111.98 111.98 0 0 0-2.751 12.5c-.25.5-.5 1 .25 1.25s.5-.75.75-1a40.73 40.73 0 0 0 2.75-10.5c.25-1.25 1.25-2.75.5-3.75s-.25-2.25-.5-3.5.75-4 .75-6.25 0-.75-.5-1-.5.25-.75.75 0 .5-.5.5a23.99 23.99 0 0 1 .75-8.499c.5-1.25-.5-2.75 1-3.75s.25-1.75.25-2.5 1-3.5 0-5v-.5c1.25-.75 1-1.75.75-2.75a21.5 21.5 0 0 1 0-4c0-2.75.501-5.25.501-8s-.501-2.5.25-3.25a3.25 3.25 0 0 0 1.25-3c0-.5.501-.5 1.001-.5s.5.5.25 1-.5 7.5-1 11a16.49 16.49 0 0 0-.25 3.5 62.75 62.75 0 0 1-1 6.75c-.25 2.5-.75 5-1 7.5-.509 2.298-.76 4.646-.75 6.999 1-.75.75-1.749 1-2.499a21.49 21.49 0 0 1 1.25-5.75 21 21 0 0 0 2-6.75 9.75 9.75 0 0 1 1.5-5.25c1.25-1.5.75-3.75 2.751-5.25s1.25-2.75 1.5-4 .5-1 1-.75.75.25.5.75c-.161 1.515-.675 2.97-1.5 4.25a17.25 17.25 0 0 0-2.751 7c1.25-1 1.5-2.75 3.5-3a25.25 25.25 0 0 0-2.5 6c-1 3-2 6.25-2.75 9.5a135.2 135.2 0 0 1-3 13.749c-.75 2.25-.5 4.5-1.25 6.75-.812 2.881-1.48 5.802-2 8.75 0 .25-.25.75.25 1s.5-.5.75-.75a1.26 1.26 0 0 0 .368-.441 1.25 1.25 0 0 0 .132-.559c2.171-4.302 4.092-8.726 5.751-13.25 2-5.75 3.751-11.499 5.251-17.499s3.25-10.25 4.75-15.5a125.2 125.2 0 0 0 3.501-13c1.25-4.249 2.25-8.499 3.5-12.749a8.5 8.5 0 0 0 .25-2.5c.5-1.75 1.25-3.25 1.75-5a21.74 21.74 0 0 1 1.25-5.5c.5-1 1.5-.75 2.25-.75s.25 1 .25 1.5c-2.5 7.25-4.751 14.75-6.751 22.25-.5 2.249-1.75 4.249-.75 6.499s-.5.75-.75 1-3.501 6.75-2.751 8a2.5 2.5 0 0 1-.5 2.75c-.763 1.196-1.432 2.45-2 3.75a74.78 74.78 0 0 1-2.25 8c-2 5.5-2.75 11.249-5.501 16.499-.279.456-.45.969-.5 1.5-.25 1.25.5 0 .75.25l-8.251 21.25a39.97 39.97 0 0 0 5.25-8 59.89 59.89 0 0 0 3-5.5c.75-.75 1.75-.75 2-1.75l3.751-6.25c.75 1 .5 1.75-.25 2.25l-1.751 2.25c-.901 1.967-1.902 3.886-3 5.75a12.99 12.99 0 0 0-2.5 4.5h.5c1.25-.5 1.251-1.75 1.751-2.75l3.5-4.75c4.251-6 8.501-12 12.252-18.499.5-.75 1.501-1.5.5-2.75a1.5 1.5 0 0 1 .25-1 12.25 12.25 0 0 0 2.5-3.75c.5-1 1.75-1.75 1.75-3.25a20.26 20.26 0 0 1-5.25 6c-.25-.25.25-1-.25-1h-.25c-.5 1.75-2.001 3-2.251 5s.5-1.5 1.5-1.75-.5 1.75-2.251 2.5-.25.25-.25.5a93.01 93.01 0 0 1-5.251 9.749c-.25.5-.25 1.25-1.25 1l.75-1.25c1.75-3.75 3.75-7.25 5.501-10.999a159.86 159.86 0 0 0 6.501-15c1-3.25 3-6 4-9.5s.5-1 1.001-.75.5.75.5 1.25a26.98 26.98 0 0 1-2 4.75c-1.153 1.941-1.996 4.05-2.5 6.25.5 0 .75-.5 1.001-.25s-1.501 3.5-1.751 5.25a87.71 87.71 0 0 0 8.251-13 2.25 2.25 0 0 1-.25 1.25c-.5.75-1.501 1.75.25 2.5s0 .5 0 .75a9.01 9.01 0 0 0-1 2.25 99.78 99.78 0 0 1-7.501 13.25c-1.895 2.655-3.647 5.409-5.251 8.249-3 4.25-6.001 8.5-8.751 13s-2 2.25-2.25 3.75a2.5 2.5 0 0 0 1-1.25c.75-1.25 2.501-1.25 3.501-1.75l4.5-3.5a33.71 33.71 0 0 0 5.001-6.75c.011-.135-.005-.272-.048-.4s-.112-.248-.202-.35c-1.029.758-1.812 1.801-2.251 3l-1 1.5c-.25.25-.75.5-1 0-.053-.047-.096-.104-.125-.169a.5.5 0 0 1 0-.412c.029-.064.072-.122.125-.169 1.25-1.75 2.25-3.75 3.751-5.5a87.26 87.26 0 0 0 8.001-14.249 14.23 14.23 0 0 1 3.751-4c.25 0 .5-.5 1-.25a1 1 0 0 1 0 1.25l-1.75 2.75a36.25 36.25 0 0 0-5.001 8.499c4.001-3.749 6.751-8.499 10.502-11.999l-2.751 4c2.251.25 2.999-1.5 4.501-3.25s-1.751 1.5-1.25 2.75l3.5-3.75c-.436.927-1.028 1.772-1.75 2.5l-.75 1.25c.75 1.25-.25 1.5-1.25 2h-.5c0 .265-.106.519-.293.707a1 1 0 0 1-.708.293c-.75-.25.501-1-.5-1.25a8.5 8.5 0 0 1-2.5 4 26.5 26.5 0 0 1-4.251 4.999 10.78 10.78 0 0 0-2.5 2.25 8.74 8.74 0 0 1-2.751 3.25 3.76 3.76 0 0 0-1.385 1.244 3.75 3.75 0 0 0-.616 1.756c13.252-9.5 23.504-21.749 34.256-33.249-5.501 7-12.003 13.5-18.003 20.25l1.25-.5c2.5-2.5 5.751-4 8.251-6.25s3.501-2.5 5.001-4l10.501-11.75 4.501-4.75c3.75-5.25 8.501-9.499 12.752-14.499s5.501-4 8.001-6.25c.205-.172.452-.285.716-.329a1.5 1.5 0 0 1 .785.079c-3.251 4.25-7.752 7-11.252 10.75l-10.752 10.999c-3.5 3.75-7.001 7.5-10.501 11.75l8.001-5.75c.75-.75 2-1 2.75-2s1.75-3 3.75-3.25 2.001-1 3.251-1.5l-2.25 1.75-8.001 6.25a14.51 14.51 0 0 0-3.251 3.5c-.5.25-.5.75-1.25.5s-1.5 1.5-2 1.75a18.96 18.96 0 0 0-3.501 2.75l-7.001 6.25-3.501 3.5a23.29 23.29 0 0 0 5.001-2.5l7.501-5.25c2.251-1.25 3.751-3.75 6.501-4s.251-.5.251-.5-.751-.25-.251-.5l2.751-2-.5 1.25c4.25-2 7.501-5 11.501-7.25l8.501-5c.5 0 .751-.25 1.001.25l-.5.75c-1.5-.25-2.001 1-3.001 1.5s-.75 1.5-1.75 1.25-1.5.75-2 1.25-1.5 1.25-2.751 1.5a9.25 9.25 0 0 0-5 3.25c-2.313 1.89-4.734 3.643-7.252 5.25l-7.75 5.25c-.067 0-.131.026-.177.073a.25.25 0 0 0-.074.177c0 .066.027.13.074.177a.25.25 0 0 0 .177.073c.75 0 1.25-.75 2-.5l-7.501 4.75a6.25 6.25 0 0 0 3-.5l6.251-4.25 14.502-9.75 12.002-7.5a94.87 94.87 0 0 0 8.501-5c3.19-2.156 6.533-4.078 10.002-5.75a18 18 0 0 0 3.75-2.749c-1.477.37-3.023.37-4.501 0-.25 0-.499-.25-.999 0l-15.003 9.249c-.5.25-1 1-2.25.75l4.25-2.5 7.752-5c2.307-1.522 4.731-2.86 7.25-3.999 3.932-1.74 7.698-3.832 11.252-6.25a78.01 78.01 0 0 0 8.751-5l5.251-3.25c1.912-.85 3.751-1.853 5.501-3a91.1 91.1 0 0 0 11.752-7c5.25-3.25 10.251-6.25 15.252-9.75l6.751-4.25c1.75-1 1.25-1.5 1-2.5l-.5-1.25a11.5 11.5 0 0 0-4.751-7 88.6 88.6 0 0 1-8.251-4.75c-.5-.5-.5-.75-.25-1s-.75-1.75-1.5-2.25a2.25 2.25 0 0 0-2.751.251c-5 4.5-9.751 9-15.002 13.25L180.621 89.83l-3.5 2.25a40.89 40.89 0 0 1-4.251 2.75c11.751-10 24.254-19 35.505-29.499l-11.502 7.75a65.57 65.57 0 0 0-8.501 6l-14.502 12.5-8.751 7.25c5.751-5.75 12.252-11 18.753-16.749a49 49 0 0 0-17.003 13v.5l7.001-7.25c-1-1-1.5.25-2.25.5a2 2 0 0 1 .5-2.5c1-.75 2.5-1 2.5-2.5 4.751-4 8.502-9 13.002-13s4.501-5 6.751-7.25l4.251-5.25c3-3.5 6.501-6.75 9.501-10.5s1.25-1 .25-1.75-1 .25-1.5.75l-8.001 9.25-9.752 10.75a67.85 67.85 0 0 1-6.001 6 1.76 1.76 0 0 1 .184-.846 1.75 1.75 0 0 1 .567-.654c3.25-2.75 5.751-6.25 8.751-9.25a163.56 163.56 0 0 0 13.252-16.25c.75-1 .75-1.75-.25-2.5l-4.501-3h-1c-.25.25-.25.5 0 1s0 1.25-.5 2l-5.001 6.25a191.97 191.97 0 0 1-15.002 16.999c5.001-6.25 10.751-12 14.752-19.499l-2.25 2.5a122.27 122.27 0 0 0-11.252 11.5c-2.5 3-5.501 5.5-8.001 8.5a79.83 79.83 0 0 0-6.251 6.75c-.389.957-1.095 1.752-2 2.25a47.54 47.54 0 0 0-5.251 4.75l-1.75 1.25c-6.001 5.5-10.502 12.75-16.503 18.249a62.41 62.41 0 0 0-5.751 7.75 1.5 1.5 0 0 0-.545.79c-.091.316-.075.654.045.96l6.751-7c-1.25 1.5-1.75 3.25-3.5 4.25s-.75 1-.5 1.5.25 1.5-.25 2-4.251 3.25-5.501 5.5-3.751 3.249-5.251 4.999c-.439.852-1.033 1.615-1.75 2.25-1.446 1.232-2.709 2.663-3.751 4.25-1.75 2.25-1.5 2.5-3.25 3.5s-.25.25-.5.5-4.001 4-5.751 6.5c1.886-2.96 4.064-5.724 6.501-8.25a127.35 127.35 0 0 0 11.502-14.499c.25-.75.75-2 2-1.5s2-.5.75-1.75 0-.75.25-1.25 2.75-3.75 4-5.5l5.751-7.75c-5.5 4.75-9.251 10.75-14.001 16.25l.749-1.5c1.501-2.5 3.251-4.75 5.001-7.25a64.91 64.91 0 0 1 6.251-8.25c.75-.5 2.001-1.75 2.251-1.5s1.25 0 1.75-.5a13.76 13.76 0 0 0 3-3.5c4.422-5.538 9.182-10.798 14.252-15.75 4.001-4.25 8.501-7.75 12.002-12.25s6.001-7.75 9.251-11.25 8.001-10.25 12.502-15c.25-.25.75-.5.25-1s-1 0-1.25.25l-3.251 4.5-4.75 5.75-3 3c-1.194 1.773-2.533 3.446-4.001 5a90.5 90.5 0 0 0-9.002 10.5l-2.25 2.75c-.25.25-.5.5-.75.25s-.25-.5 0-.75c4.001-5.25 8.002-10.25 12.252-15.25s5.501-6.25 8.001-9.75a29 29 0 0 1 5.751-6.5c.5-.25 1.25-.75.75-1.25s-2.25-3.5-4.251-4.5a66.09 66.09 0 0 1-7.251-3.75c-.5-.25-.75-.25-1.25.25a26.97 26.97 0 0 1-4.5 6l-5.001 5.5c-3.751 5.25-7.251 10.5-10.752 16a13.99 13.99 0 0 1-5.001 4.25l9.252-13.75c2.5-3.75 5.251-7.5 7.751-11.5l4.25-6.75c1.501-2.25.501-.75 0-1s-.999-.5-1.499.25l-.751 1.25-3.75 6c-4.501 7-9.502 13.75-14.002 20.749-1.501 2-3.251 4-4.751 6.25s-.25.25-.5.25 4.251-7.25 6.751-10.75 3.5-5.75 5.501-8.5 6.001-9.25 8.751-14 1.75-2.25-1-3.75-2-.75-2.751 1l-.999 1.5a143.79 143.79 0 0 1-8.002 13.25l-11.752 19.749a74.97 74.97 0 0 0-5.5 9.75c-1.501 3-4.001 5.75-4.501 9.25s-1.75 2.75-2.75 4.25-2.001 1.25-2.251 2.5a2.75 2.75 0 0 1-2.75 1.75c-.5-.25-.5-.5-.25-1l3-6.5a23 23 0 0 0 2.251-5.75c-.727.817-1.318 1.746-1.751 2.75h-.75c-.25 0-.25-.25-.25-.5s2-4.75 3-4.5 1.751-.5 2.001-1.25 1.5-1.75 1-2.25.25-2 .25-2.75c.229-.792.565-1.549 1-2.25 1.25-3.5 2.25-7.25 3.751-10.75s1.5-3.25 3.75-3.5c-4.251 4.5-4.751 10.75-7.501 16 1.25-.75 1.501-2.25 2.251-3.5s5.5-10.5 8.751-15.5c-.5-.25 0-.75-.5-1.5zm51.757 143.247c.5.5 1 .25 1.5.25h1.751a93.87 93.87 0 0 0 14.502.25h10.751c3.597-.001 7.19-.252 10.752-.75.5 0 1.25-.25 1.25.5s-.5.75-1 .75h-3.501c-5.25.5-10.501.25-15.752.25-1.962.494-3.977.746-6.001.75h-10.251c-.719-.132-1.458-.087-2.155.131a4.49 4.49 0 0 0-1.846 1.119l8.501 1a99.61 99.61 0 0 0 17.253 0c3.902-.5 7.851-.5 11.752 0 1.247.287 2.552.2 3.75-.25a1.75 1.75 0 0 1 1.5-.25c.25.25.501.5.251.75-.168.24-.393.435-.655.566s-.553.194-.846.183h-.75c-.199 0-.389.08-.53.22a.75.75 0 0 0-.22.53c0 .75.25.75 1 1l3.751-.5c.75 0 .75-.25.5-.75a32.25 32.25 0 0 0-2-6.499 1.74 1.74 0 0 0-.655-.567c-.262-.131-.553-.194-.846-.183a121.62 121.62 0 0 1-16.502.75h-16.002c-2.087-.037-4.174.047-6.251.25a2.75 2.75 0 0 0-1.576-.203c-.534.089-1.029.333-1.425.703zM69.105 11.083c0-1 0-1.5-1-1.75s-3.251 0-3.251 2c-.561 1.967-.979 3.972-1.25 6l-1 23.249c-.25 3-.5 3 2.75 1.75s.75-.75.75-1.25a27 27 0 0 1 0-4.5c.25-5.75.25-11.5.75-17s.25-5 .25-7.25.25-2 2-1.25zm133.519 174.996l5.501.5a205.93 205.93 0 0 0 21.503-.25 87.75 87.75 0 0 0 14.002-.75c1.75-.25 1.25-1.25 1.25-2.25s-.749-.5-1.5-.5l-5.251.5h-6l-5.251.75-14.752.75a39.47 39.47 0 0 0-9.502 1.25zm-1.25-128.247l4.251-3 4.001-3.75c.75-.75.249-1.5-.251-2s-.75 0-1.25.5l-8.751 9c-4.001 4.25-8.001 8.25-11.752 12.5s-5.501 6.75-8.751 10c1.965-.807 3.75-1.996 5.25-3.5 5.956-5.288 11.553-10.967 16.753-17l3.001-3c-1.001-.5-1.251.75-2.501.25zm-186.527 10.5c2.75 9 5.751 17.749 8.001 26.749a29.5 29.5 0 0 0 .501-6.5c-1.25-4.25-2.001-8.5-3.251-12.75s-.75-5.25-1.75-7.75a27 27 0 0 1-1.751-7.75l-.75-3.75c-.25-.5-.25-.75-.75-.75a1 1 0 0 0-.25.75 29.49 29.49 0 0 0 .5 6.5 39.25 39.25 0 0 1 1.001 5.75h-.25c-.5.25-.25-.75-1.25-.5zm30.755-23.499l2.5-2a1 1 0 0 0 .75-1.5c-.25-.75.5-1.75-1-2.75s1.5-1.5.75-2.75h-.25c0-4.25-.751-8.5-1.001-12.75v-2.5c0-.25 0-.75-.5-.75s-1.5-1-2.25-.5a2 2 0 0 0-.501 2.25v1c.25 2.75 1.001 5.25 1.001 8s-.25 8.25 0 12.5a3.25 3.25 0 0 0 .5 1.75zm169.525 15.25l1.5-1.25c.5-.5.5-.75.25-1.25s-2.5-3.5-3.75-5.25-.5-.75-1.25-.25a3.75 3.75 0 0 0-1.501 1.25c-4.25 4.5-9.001 8.75-13.502 13.25-2.266 1.892-4.358 3.984-6.25 6.25a214.96 214.96 0 0 0 19.003-14.75 7.26 7.26 0 0 1-4.001 1.75 18.25 18.25 0 0 1 6.251-3.75c1.5-.75 2.5 0 2.75 1.5s.25 1.5.5 2.5zM179.622 165.58c15.002-2.5 29.504-6.75 44.006-10.499-4.25.5-8.251 1.5-12.502 2.249l-13.252 2.5-14.252 3a7.25 7.25 0 0 0-4 2.75zM29.349 37.832a20.73 20.73 0 0 0 .75-5.5 20.25 20.25 0 0 1 .25-4 1.25 1.25 0 0 1 .5-1c.5 0 .5.5.5.75h.75c.75-.25 1.75-.25 2-1.5s.751-.75 1.001-.5 1.5-.5 1.5-1.5.251-.75.501-1.25-.25-.75.25-.5.5.25.75.5.25 1 0 1.5a4.25 4.25 0 0 0 .5 3 26.97 26.97 0 0 1 .75-4.75c.25-.25 0-1.5 1-.75s.501-.5.501-1 .25-.5-.25-.75a9.75 9.75 0 0 0-9.002 3 15.5 15.5 0 0 1-3.5 4.5 7.5 7.5 0 0 0-.25 4h.501c1.25-.25 1 .25.75 1a6.25 6.25 0 0 0 .25 4.75zM216.626 95.58h.25l1.501-.5 12.251-5.75c.75-.25 1.5-.75 2.25.5h1.001l2.25-1c3.25-.75 2.5-1.25 1.75-3.75s-.249-2.25-.749-2.5-1.251 1-2.001 1.25l-18.503 11.75zM55.103 15.332h-.5l-4.501 3.25c-1 .5-1.251 1-1.001 1.75a42.74 42.74 0 0 1 .75 7.75c-.291 2.749-.206 5.524.25 8.25 0 .5 0 1 .75 1s1.25-.25 1-1v-1.75c-.5-4.75-.75-9.5-1.25-14.25s0-1.25.75-1.25 1.25 0 1.25 1a1.25 1.25 0 0 0 .25 1.25c.25-2.5 1.751-4 2.251-6zm-30.255 30c.75-.5.75-1 .5-1.25s-1.25-7-2-10.5 0-1.75-1.25-1a.53.53 0 1 1-.75-.75c.25-.75 0-1-.75-1s-.75.5-.5 1-.25 2.75 1.5 3.5.25.75.25 1a41.21 41.21 0 0 0 1 8c.25.5-.25 1.5.501 1.5l1.5-.5zm194.029 168.496h1.75c4.751 0 9.251 1 14.002 1h4.5c.465 0 .91-.184 1.238-.513a1.75 1.75 0 0 0 .513-1.237c0-1.25-1.001-.5-1.751-.5h-7.75a69.76 69.76 0 0 0-12.502 1.25zM14.097 65.081a8 8 0 0 1-.75-2.25c0-3-1.25-5.75-1.5-8.75a44.29 44.29 0 0 0-2-7.75 9.25 9.25 0 0 0-1.25-2.75c-.5-.75-1-.75-1.75-.5s-.25.75 0 1c2 5.75 4 11.5 5.501 17.25l.75 2c.25.5 0 1.25 1 1.75zm64.51 127.747a14.51 14.51 0 0 0 8.502-3.5c-1-.75-2 .75-3.251 0a8.24 8.24 0 0 1 3.751-1.25c2.75 0 4.001-1.75 5.751-3.25a29.73 29.73 0 0 0-8.002 2.5c-2.627 1.315-4.932 3.193-6.751 5.5zM68.105 37.082a209.21 209.21 0 0 0 1.25-24.999 1.5 1.5 0 0 0-.5 1.25l-.75 13.75a41.21 41.21 0 0 0-1 8 1.75 1.75 0 0 0 1 2zm-49.757-4.5c-2 2-4.251 3.25-6.001 5s-2.25 1-.5 2.5 1.25.75 1.75.5.5-1 .5-1.5 1.001-2.75 3.001-2.5 1.25.5 2 1c.124-1.702-.132-3.41-.75-5zm54.507-22.499c-1.75 0-1.75 0-1.75 1.75a66.73 66.73 0 0 1-1 15.75 3.75 3.75 0 0 0 .25 1.75 122.79 122.79 0 0 0 2.5-19.249zm15.503-5c-2.5 0-3.751 1.5-5.501 2.25s-.25.75 0 1c.451.85.707 1.789.75 2.75-.5 1.25.5 1.25 1.25 1.25s.5-.5.5-1a9.25 9.25 0 0 1 3.001-6.25zM5.096 144.079c.75 1 1.5.75 2.5.25s-.25-1.25-.5-1.75a36.76 36.76 0 0 1-2.5-3.25c0-.25-2.5-.75-2.5-.25s0 1 .25 1.5l2.751 3.5zm242.035 31.749c-4.712.676-9.385 1.593-14.002 2.75a30.37 30.37 0 0 0 4.75 0 20.25 20.25 0 0 1 5.501-.25c2.751 0 2.751.25 3.751-2.5zm1 20.749l-11.001.75c1.857.654 3.789 1.074 5.75 1.25h3.501c1.75 0 2.25-.5 1.75-2zm-4.001-83.497c4.751-1 5.501-2.25 3.501-6.25.25 1-.25 1.5-1.001 1.5-.349.019-.689.119-.993.292s-.564.415-.759.707-.317.623-.36.971a2.24 2.24 0 0 0 .113 1.03c0 .5-.501 1.25-.501 1.75zM80.356 18.332l-2.25 16.25c0 .25 0 .75.5.75s.5-.5.5-1c.75-4.75 1.251-9.25 1.751-14 0-.75.25-1.25-.501-2zm10.502 148.996c1.71-.519 3.258-1.465 4.5-2.75a81.83 81.83 0 0 1 9.002-6.25 3.74 3.74 0 0 0 1.588-1.304c.398-.574.627-1.248.662-1.945l-15.752 12.249zM53.603 57.831c.25-4 .751-7.5 1.001-11.25a5.02 5.02 0 0 0-.25-1.75 1 1 0 0 0-1-.75c-.5.25-.25.75-.25 1v10a16.26 16.26 0 0 0 .5 2.75zm48.006 109.997c-1.556.571-2.995 1.418-4.25 2.5l-14.752 9.75c-.5.5-1.25 1-1.25 2 6.501-5 13.251-9.25 20.252-14.25zm-52.257-18.499a49.74 49.74 0 0 0-1.5-13.5c-.132 4.548.373 9.092 1.5 13.5zM107.86 7.083c-1 .5-1 1-1.25 1.25-1.013 2.843-1.766 5.771-2.25 8.75-.25.25-.5.75 0 1s1-.25 1.25-.75 1.5-6.5 2.25-10.25zM15.347 153.829c1 1.5 1.751 3.25 2.751 4.499l3.5 4.5a45.84 45.84 0 0 1 3.251 4h.5c-3.109-4.501-6.448-8.84-10.001-12.999zm217.782 49.248l6 .5 6.251.5c.5 0 1.001 0 1.001-.75h-.75a58.11 58.11 0 0 0-9.252-.25c-1-.25-2-.75-3.25 0zM60.353 29.832c.794-4.623.963-9.332.501-14-1.5 4.75.5 9.5-.501 14zm-9.751 149.746c-.5.25-.5.75-.5 1.25h.25c.272.043.551.02.814-.065a1.74 1.74 0 0 0 .695-.427 1.75 1.75 0 0 0 .491-1.508v-1.25a31.74 31.74 0 0 1-.75-7c0-.25 0-.75-.5-.75s-.5.5-.5.75v.75a16.5 16.5 0 0 1 .75 6c.25 1 .25 2-.75 2.25zM42.101 28.832l-.501 1c0 2.5 0 5.25.25 7.75s-.5 1.5 0 2.25.25.5.75.5.5-.25.5-.75-.25-6.75-1-10.75zm32.254-12c-.5 3.25-1.25 6.5-1.75 9.75s-.5 1.25.5 1.25.5-.5.5-1 .751-4.75 1.001-7.25a9.25 9.25 0 0 0-.25-2.75zm-1.5 202.495a44.05 44.05 0 0 0 7.251 9.25 62.01 62.01 0 0 0-7.251-9.25zm145.522 11.25c3 1.999 9.751 3.499 11.251 2.749-3.689-1.151-7.447-2.069-11.251-2.749zM51.852 38.082a1.75 1.75 0 0 0-1.501.25 3 3 0 0 0-.25 3.25c.5.5 1.25.25 1.75 0a8.25 8.25 0 0 0 0-3.5zm190.028 84.247l-4.251.75c-1.75.25-1.75.25-1.5 2.25a25.23 25.23 0 0 0 5.751-3zM72.855 34.832c.25-1.75.251-3.5.501-5a.75.75 0 0 0-.75-.75c-.5 0-.5.25-.5.75s-.251 2-.501 3.25.25 1.5 1.25 1.75zm6.751-21.999a15.02 15.02 0 0 0 .5-3c.25-.25.25-1-.25-1s-1.75.25-2 1.25-.5 1.5.75 1.5.501.75 1.001 1.25zm131.518 147.996l-12.001 2.25a67.51 67.51 0 0 0 12.001-2.25zm-14.502 108.497c-3-1.999-6.751-2.249-9.751-3.999a33.5 33.5 0 0 0 9.751 3.999zM61.354 171.328h.5l1.501-9h-.25a38.25 38.25 0 0 0-1.75 9zM53.603 31.332a9.25 9.25 0 0 0-.5 5.75c.25.25.5.5.75.25s.25-.25.25-.5a41.03 41.03 0 0 0-.5-5.5zm14.502 164.495c3.501-.25 4.751-3.749 7.501-4.749a34.28 34.28 0 0 0-7.501 4.749zM25.348 30.832c.171 3.029.589 6.039 1.25 9a28 28 0 0 0-1.25-9zm180.527 196.245c3.028.846 6.123 1.432 9.251 1.75-3.004-.944-6.109-1.531-9.251-1.75zM102.11 28.332h.5c.25-1.5.75-3 1-4.5s.25-2.75.25-4.25a49.21 49.21 0 0 0-1.75 8.75zM75.856 194.577a7.98 7.98 0 0 0 3.774-.273 8.01 8.01 0 0 0 3.226-1.976l-7.001 2.249zm162.273-41.498c-2.795.181-5.521.948-8.001 2.25 2.735-.484 5.415-1.238 8.001-2.25zM14.847 54.081a38.74 38.74 0 0 0-1.75-7.75c.75 2.5.25 5.25 1.75 7.75zm28.004-4c.25 2.25.251 4.25.501 6.5a8.25 8.25 0 0 0-.501-6.5zm175.025 163.246c-2.12-.55-4.321-.719-6.5-.5a11.5 11.5 0 0 0 6.5.5zM69.855 190.078a22.78 22.78 0 0 0 5.251-4.5 14.99 14.99 0 0 0-5.251 4.5zm2.5-153.246c-.5-.25-1-.75-1.25-.25s-1 1.5 0 2.5.751.5 1.001.25a3 3 0 0 0 .25-2.5zm-37.755 7.5a3 3 0 0 0 0 3.75.5.5 0 0 0 .5.5c.25 0 .25-.5.25-.75l-.75-3.5zm33.005 174.495a16.25 16.25 0 0 0-4.501-5.25 29.53 29.53 0 0 0 4.501 5.25zM57.353 15.332c.5-.5 0-2.5 1.75-1.25v-.5a1.75 1.75 0 0 0 .25-1.5c-2.5 2-2.5 2-2 3.25zm-15.002 30.25a5.5 5.5 0 0 0 .75-3.25c0-.25.25-.75-.5-.75a.75.75 0 0 0-.75.75 8 8 0 0 0 .5 3.25zM27.849 99.33c.75-1.75-.5-3-.25-4.5s-.25-.75-.5-.5-.5.25-.25.5.75 3 1 4.5zm86.763-21.499a9 9 0 0 0-1.501 6 1.75 1.75 0 0 0 .75-2c-.75-1.5.251-2.25.751-3.25v-.75zM32.349 40.332c-.75 3.25-.5 4.75.5 5.25s-.25-3.25-.5-5.25zm86.763 191.494v-.5c-1.626-1.23-3.505-2.084-5.501-2.499l5.501 2.999zm-42.256-20.749a9.5 9.5 0 0 0 3.751 2.25c-.75-2-2.25-2-3.751-2.25zm18.502-55.248a29.78 29.78 0 0 1-3.751 4.499c1.5-.25 1.501-2 3.001-1.5s.75-1.749.75-2.999zm-4-11a6.25 6.25 0 0 0 1.873-1.946 6.24 6.24 0 0 0 .877-2.554l-2.75 4.5zM67.105 38.832c-.25.75-.251 1.5-.501 2s.25.75.75 1h.5c0-1.25.501-2.25-.75-3zM241.13 222.827a9.75 9.75 0 0 0 .75-3.5c0-.25 0-.5-.25-.5l-.5.5a5.5 5.5 0 0 0 0 3.5zM93.359 34.082a8.24 8.24 0 0 0 1-3.25l-.5-.5h-.25c.25 1.5-.75 2.5-.25 3.75zM83.107 186.328h.25a19.52 19.52 0 0 0 3.75-2.5h-.25l-3.751 2.5zM246.63 105.83c-.107-.354-.3-.676-.562-.938a2.24 2.24 0 0 0-.937-.562c.5 1.25-.501 1.75-1.251 2.75s1.75-1.5 2.75-1.25zm-134.019 54.748c1.333-.322 2.546-1.015 3.501-2-.699.039-1.379.239-1.987.587a4.51 4.51 0 0 0-1.514 1.413zm84.513-120.996c-1.501.75-2.251 1.25-1.501 2.5a7.26 7.26 0 0 0 1.501-2.5zm-175.276 13.5a3.5 3.5 0 0 0-.5 2.75c1.5-.75.5-2 .5-2.75zm32.505 84.498c-.5.75-.5 1.25-.25 1.5s-.75 1.5.25 1.5.25-1.25.5-1.75a4.24 4.24 0 0 0-.5-1.25zM34.6 36.582a4.25 4.25 0 0 0-.501-3.5c.25 1.25-.5 2.25.501 3.5zm34.505 1.25h.25a6.5 6.5 0 0 0 0-3.75c0 1.25-.25 2.5-.25 3.75zM49.352 161.328c.331-1.267.152-2.613-.5-3.749.25 1.249.25 2.499.5 3.749zM40.35 28.582a2.25 2.25 0 0 0 .251 3.25 13.25 13.25 0 0 1-.25-3.25zM6.596 133.579c2.627-4.442 5.551-8.701 8.751-12.75 2-2.25 3.501-5.25 5.501-7.499l1-1c.5-.5 1.25-1.25 2-.25s0 1.25-.5 1.999-4.751 4.75-6.751 7.75l-5.75 7-4.251 4.75zm26.755 11.25c-1.614-5.519-3.535-10.944-5.751-16.25-1.25-2.75-2-5.75-3.251-8.499a3.5 3.5 0 0 1 0-2.25c0-.75.5-.5.75-.25a2 2 0 0 1 1 1.75 42.5 42.5 0 0 0 2.5 7.999c.25.75.25 1.25 1.001 1.5l.5.5c-.75 2.75 1.25 5 1.75 7.5s1 3.5 1.25 5.25 1 1.5.25 2.75zm-2.252 2l-3.5-9.25-4.501-11.75c-.25-.75-1-2 0-2.25s1.5 1 1.75 1.75c1.5 5.75 3.5 11.5 5.501 17.25a10.75 10.75 0 0 1 .75 4.25zm4.251 27.999a5.75 5.75 0 0 1-2.25-2.75 14 14 0 0 0-3.5-5c-.5-.25-1.5-.5-.75-1.25s1 0 1.5.25a5.75 5.75 0 0 1 3.001 3l.5.75a15.75 15.75 0 0 1 6.751 7.75c.25.75.75 1.25 0 2.25-1.646-3.206-3.752-6.153-6.251-8.75.25 1.25.75 2.5 1 3.75zm57.009 59.999c.708.206 1.326.646 1.75 1.25a52.51 52.51 0 0 0 9.252 8.999h.249c.5.75 1.501 1.75.751 2.5s-1.5-.25-2.251-1-4.501-4.5-6.501-6.999a17.27 17.27 0 0 1-3.251-4.75zM30.85 152.329c-1.4-2.85-2.652-5.771-3.751-8.75-2-4.25-4.251-8.5-6.001-13l-.5-1c0-.5.25-.75.75-1s.5.25.75.75l4.5 11c1.5 3 2.001 6.5 3.501 9.25s0 2 .75 2.75zm-15.503-17.25a199.96 199.96 0 0 0 9.002 19.749c-3.25-2.75-10.002-17.749-9.001-19.749zm-.749 6.5a105.69 105.69 0 0 0 6.251 14.499l2.5 4.5c.25.25 1 .5.25 1s-.75-.5-1-.75l-2.751-4.75-3.751-8.249a17.75 17.75 0 0 1-1.5-6.25zm26.253 32.249c2.5 4.25 6.001 7.75 7.251 12.75-2.25-1.5-2.751-4-4.001-6.25a52.55 52.55 0 0 1-3.25-6.5zm-14.002-23.249l-4.25-8a20.26 20.26 0 0 1-1.75-5.5c0-.25-.5-.5 0-.75s.75.25.75.75l.75 2c.5 3 2.5 5.25 3.251 8.25s1.25 1.75 1.25 3.25zm-17.753-10.25c0-1-2.25-1.5-1-2.75s1.5-.25 2 .5.75 1.75 0 2.5-.75.25-1-.25zm.501-5c-.25-.5-.75-1.25-.25-1.75s1-.5 1.25 0 .75 1.5 0 2.25-.75 0-1-.5z"/><path d="M29.85 100.08a7.75 7.75 0 0 0 .534-3.151c-.043-1.076-.31-2.131-.783-3.099a15.5 15.5 0 0 1 0-6.75l1.5 8.75a2.5 2.5 0 0 0 1-2.5l-1.25-8.75a4.5 4.5 0 0 1 1 2.25c.75 4.25 1.75 8.5 2.25 13a43.99 43.99 0 0 1 .75 8.25c0 1.5 1 2.5 1.25 4a110.49 110.49 0 0 1 2.5 12.499 60.76 60.76 0 0 0-3.251-9.5c.5 5 2.001 9.75 3.001 14.75-1-.25-.751-1.25-1.001-1.75s-2.251-7.75-3.251-11.75a42.22 42.22 0 0 0-2.5-8.499c-.5-2.75-1.25-5.25-1.75-7.75zm2.25-22.499a42.23 42.23 0 0 1-1.25-6v-.5a44.99 44.99 0 0 1 1.25 4.75 4.25 4.25 0 0 0 0 1.75zm46.257-5c1 1 0 2 .25 3.25s-.75-2.25-.25-3.25zm90.263 148.246h.25v.25-.25h-.25zM158.118 63.581c.036-.345.143-.679.316-.98a2.5 2.5 0 0 1 .684-.77c.5-.75.5-.75.5-2a1.25 1.25 0 0 1 .132-.559c.087-.174.213-.325.368-.441l9.502-12.75c1.75-2.25 3.25-4.75 5.001-7.25s3-3.75 4.5-5.75 1.75-1.25 2.5-2 1.501.25 1.501 1a7.01 7.01 0 0 1-.451 2.834 7 7 0 0 1-1.55 2.416 36.22 36.22 0 0 0-4.25 4.75 8.5 8.5 0 0 1-2.25 2c-1.001.25-1.001 1.5-1.751 2.25-3.195 3.416-6.199 7.005-9.001 10.75a46.52 46.52 0 0 1-5.751 6.5zm-72.761 70.248c0-.25.5-.5.75-.75s.75 0 1.001.25 0 .5-.25.75a43.74 43.74 0 0 0-5.001 11c-1.75 5.249-3.751 10.249-5.501 15.249a10.5 10.5 0 0 0-1.001 2.5c0 .25-.25.75-.75.5s-.5-.5-.25-1 .75-1-.5-1-.25-.75 0-1l3-8.75c1-3.5 2.75-7.249 3.5-10.999a15 15 0 0 1 2.251-5.5c.25-.5.75-1.25 1.75-.5s.25 0 .5-.25l.5-.5zm80.513-70.998l5.25-6.5 9.752-12.75 6-7.25c1.751-2.5 1.001-.75 1.501-.25s0 .75 0 1.25.75 0 .75-.25 1-.5 1.25-.25-.25.75-.5 1.25-2.25 3.5-3.501 5l-11.751 13.5c-1.25 1.75-2.751 3.25-4.001 4.75h-.25l4.501-6 9.751-12.75c.25-.25.75-.25.25-.75s-.75 0-1 .25l-11.502 14.25-6.251 7-.249-.5zm-54.259 45.999c.752-3.066 1.931-6.011 3.501-8.75 1.75-3.75 2.75-7.75 4.75-11.749s.501-1.25 1.501-.75 1.25-1 1.25-1.75c.327-1.278.924-2.471 1.75-3.5.75-.5.75-1.5 1-2.25a20.77 20.77 0 0 1 2-5.5c1.785-3.829 3.875-7.507 6.251-11 .25-.5.5-1 1.251-.75s-2.251 3.5-3.251 5.5-3.75 9-6.001 13.5-5.25 10-7.501 15l-3.75 7.5-2.751 4.5zm16.503-50.999c.5-1.5 1.25-2.75 1.75-4 2.751-7 6.251-13.75 9.251-20.499a151.86 151.86 0 0 1 8.252-16.999c.25 0 .25-.25.25-.5s.5-1.5 1.25-1c.204.056.393.153.556.287a1.5 1.5 0 0 1 .392.489c.094.189.147.395.156.606a1.48 1.48 0 0 1-.104.617c-.503 1.382-1.267 2.655-2.25 3.75a22.01 22.01 0 0 0-4.001 7c-3 6-6.25 11.5-9.001 17.249l-5.501 12c-.25.25-.25.75-1 1z"/><path d="M88.108 86.33c.75-.5.75-1.75 2-2a54.4 54.4 0 0 0-1.75 6c-.369 1.223-.621 2.479-.75 3.75 0 .75-.25 1-.75 1s-.5-.5-.5-1c.369-1.223.621-2.479.75-3.75-1 1.5-.751 3.25-2.251 5 .25-3.75 1.501-6.75 1.501-10.25-2 4.5-2 9.5-3.251 14.25 0-1.25.25-2.5.25-3.5a65.73 65.73 0 0 1 1.75-12.25c.25-2 1.75-2.75 3.251-3.75s.75.25.5.75a44.23 44.23 0 0 1-1 5 1 1 0 0 0 .25.75zm35.255 45.999c1.128-2.129 2.468-4.14 4-6 4.287-4.764 8.295-9.772 12.002-14.999a15.49 15.49 0 0 1 2.751-4.25c.5-.5 1-1.25 1.75-1s.5 1.25.25 2-1.75 3-3.001 4.25l-6.75 7.25-6.751 7.749-3.501 4.75-.75.25zm56.008-38.999c-8.573 6.318-16.377 13.618-23.253 21.75 1.5-.25 1.75-1.75 3.25-1.5s-.25 2.25-2 1.5l-.5.5c-.592.922-1.47 1.625-2.501 2-.5.25-1.25.5-1.25 1.5s-.25 1-1.25.75-1.75.75-2.5 1.25c6.251-8.25 23.753-24.75 30.004-27.75zm-16.002-32.499c2.5-3.5 5-7 7.75-10.25s4.751-6.25 7.501-9.5l5.751-6.75c.25-.25.751-.75 1.251-.25a.76.76 0 0 1 .308.216.75.75 0 0 1-.058 1.033 18.24 18.24 0 0 1-3.501 4 91.97 91.97 0 0 0-8.251 8.75c-3.251 3.75-6.251 8-9.501 12s-.75.5-1.25.75zm7.001 17.75a10 10 0 0 1 4.001-4.5c3.25-3 6.001-6.25 9.001-9.5l6.251-7.25c3.001-3.667 5.751-7.416 8.251-11.25.5-.5.75-1.25 1.5-.75s0 1-.5 1.5a253.1 253.1 0 0 1-16.752 20 36.25 36.25 0 0 1-4.251 4.5c-.75.5-.5 1.25-1 2-.982 1.197-2.167 2.212-3.5 3l-3.001 2.25zm-39.006 29.749c-.25-1-.5-1-1.25-.25s-1.751 3-3.501 3.75c4.751-8 12.002-14 15.252-22.749a10 10 0 0 1-.541 4.777 9.99 9.99 0 0 1-2.709 3.972c-2.75 3.25-4.751 7-7.251 10.5zm-14.502 2c3.001-5 5.501-9.75 8.501-14.25a7.51 7.51 0 0 1 1.792-2.611c.776-.733 1.7-1.292 2.709-1.639l1.001-1.25c-1.001 3.25-3.501 5.25-5.001 8l-3.001 5.25a8.25 8.25 0 0 0-1.5 2.5l-.5.5c-2 .25-2.25 2.5-4.001 3.5zm23.503-67.498l8.252-13.75a82.58 82.58 0 0 0 5.751-10.25c.25-1 1-1 1.75-.75s.25 1 0 1.5l-14.002 21.749c-.25.5-.251 1.75-1.751 1.5zm-7.5 50.748c0 .5-.25.75-.25 1s1.25-.5 1.5.5-.25 1-.75 1.25a55.74 55.74 0 0 0-9.252 12.5 45.07 45.07 0 0 1-4.75 5c4.5-6.75 8.251-13.75 13.502-20.25zm-79.762-2.25c-.25 2.75.75 5.25.25 8s-.501-.25-.501-.5c0-4.5-1.5-8.75-1.5-13.5 0-1 .5-1.75.5-2.5s1.5.25 1.75-.75 0 .75 0 1 .75 7 1 10.25 0 2.5.25 3.75a.5.5 0 0 1 0 .75h-.5c-.5-.25-.25-.5-.25-1a23.25 23.25 0 0 0-1-5.5zm82.512 38.499c3-5.25 17.502-19.499 20.753-19.999l-20.753 19.999zm24.004-111.497c-.25 2.75-11.002 21.499-14.003 23.999 2.251-3.5 3.751-6.5 5.751-9.75a102.15 102.15 0 0 0 5.751-11.75c.213-.572.546-1.091.978-1.522s.951-.765 1.523-.978zm-30.255 41.499c.074.253.09.519.046.778a1.77 1.77 0 0 1-.296.721 55.91 55.91 0 0 0-3.25 6.75c-1.501 4-4.001 7.75-5.502 11.75l-1.5 2.25a.5.5 0 0 1-.12.191.51.51 0 0 1-.419.139c-.076-.01-.147-.038-.211-.08a1.01 1.01 0 0 1-.202-.349.99.99 0 0 1-.048-.401c1.25-1.75 1.751-4 3.001-5.75a46.68 46.68 0 0 0 3.75-8 26.27 26.27 0 0 1 3.751-7.5c.5-.75.75-.75 1-.5zM102.11 91.33c1.5-1.25 1.5-3.5 3.5-4.75-.75 2.5-2 4.5-2.751 6.5a23.77 23.77 0 0 0-2.25 5.25c0 .5 0 1-.75.75s-.5-.5-.5-1a9.01 9.01 0 0 0 1-2.25c.25-.75 1.251-1.5-.25-2v-.5c1.001-2.5 1.001-5.5 2.501-8s.75-1.25 1.25-1 .25 1 0 1.5l-1.75 4.5c0 .25-.25.5 0 1zm-27.254 49.499c.25.25 0 .5-.25.75-2.5 6.75-4.251 13.5-6.501 20.25 0 .5-.25 1.249-.75.999s-.25-.749-.25-.999 1.75-6.25 2.5-9.25 1.5-5.75 2.5-8.5a16.51 16.51 0 0 1 2-3.25h.75zm40.256-33.749c1-3.25 3.5-5.75 4.75-8.75.863-1.354 1.379-2.899 1.5-4.5a6.01 6.01 0 0 1 1.251-2.5c.5-.75 1.25-.25 1.75 0s.75.75.25 1a22.76 22.76 0 0 0-3.251 6.5l-4.751 7.25c-.25.75-1.499 0-1.499 1zm16.252-31.749c-.5.25-.75 1.25-1.5.75s0-1 .25-1.5c3-5 5.501-10.25 8.751-15 .75-1 1.25-2.25 2.75-2.75s-1 1.5-1.25 2.25l-4.251 6.25c-.25.5-.999 1.25.251 1.75s-1 2.5-1.25 2.5-2.001 2-2.501 3.5-.25.75-.5 1l-.75 1.25zm90.513 10c.751-1.75 2.251-1.75 3.001-2.75s-5.001 1.75-7.251 2.5a161.26 161.26 0 0 0-14.502 7.75c-.179.215-.414.375-.679.464s-.55.101-.822.036c3.251-1.5 5.501-3.75 8.752-5s4.501-2.75 6.751-3.75a69.55 69.55 0 0 1 10.001-4h1.251l.749.5c0 .5-.25.75-.5.75s-4.5 1.75-6.751 3.5zm-137.02 58.498a3 3 0 0 1-.5 3 144.81 144.81 0 0 1-7.251 17c-.25.5-.75.5-1.25.25s-.25-.75 0-.75a15.74 15.74 0 0 1 3-5.75 7.01 7.01 0 0 0 1.25-2.25c.75-4.25 3.25-7.5 4.75-11.5zm103.015-80.748c.5-1.25 1.751-2 2.501-3s2.751-3.25 4.251-5 1.5-2.75 2.5-4l5.251-5.75c.5-.25 1-1 1.5-.5s-.25 1-.5 1.5-3.251 3.25-4.501 5l-8.251 9.25-2.25 2.75-.501-.25zM66.355 83.83a3.75 3.75 0 0 0 .5-2.25 4.25 4.25 0 0 1 2-3.25c-1.75 6.25-1 12.5-1.5 18.499-.591-4.31-.925-8.651-1-13zm73.26-1.249a32.51 32.51 0 0 1 3.25-7.5l4.501-6.75c.25-.25.5-1 1.001-.5s.25.75 0 1.25a118.01 118.01 0 0 0-8.252 13.25c0 .25-.5.25-.5.25zm-56.008-1a6.25 6.25 0 0 1 .25 4.25l-1.75 7c0 .5 0 1-.501.75s-.5-.75-.5-1c.714-2.091 1.053-4.291 1.001-6.5a21.49 21.49 0 0 0 .25-4c0-.5.25-.75.5-.75s.5 0 .75.25zM97.11 95.58a38.99 38.99 0 0 1 2.5-9.25 18.51 18.51 0 0 0 1-3.5c0-.5.25-.75.75-.5s.5.25.5.75c-1.75 4.25-2.75 8.5-4.75 12.5zm42.005-5.25c0-.75.501-1 .501-1.25a25.26 25.26 0 0 0 3-5.75 18.5 18.5 0 0 1 3.5-5.5c.25-.5.75-.5 1.251-.25s.25.75 0 1.25a32.5 32.5 0 0 0-7.002 10.25l-1.25 1.25z"/><path d="M66.355 83.83c-.695 2.009-1.034 4.124-1 6.25l-.25 6.75c0 2.25-1.001-.75-1.001-1.25s0-6.75.75-10 .25-1 .25-1.5a.75.75 0 0 1 .75-.75c.25 0 .25.5.5.5zm114.016-12.249a105.56 105.56 0 0 1-14.501 13.5l14.501-13.5zm-82.762 12.25l.75-2c.25-.25.5-.5.75-.25v.5a49.22 49.22 0 0 0-2.5 8c0 .5-.5.25-.75.25a.52.52 0 0 1-.391-.058.51.51 0 0 1-.234-.317c-.033-.133-.012-.273.058-.39s.184-.202.317-.235c.25-1.5.75-2.75 1-4.25s.25-1 1-1.25zM59.103 95.08a2.25 2.25 0 0 1-.75-1.75 83.73 83.73 0 0 0-1.751-11 4 4 0 0 1 .25-3.75c.25 1.25.25 2.25.75 2.75-.75.75-.25 1.5-.25 2a63.19 63.19 0 0 1 1.5 11.5l.25.25zm-2.75 2.75c.25-4-1.75-7.75-.75-12 .994 3.919 1.249 7.988.75 12zm43.257 16.5c-.75-.25-.5-.75-.25-1.25s1-4 2.751-5.75 1.249-2.5 1.999-3.75l.751-1c-.893 2.742-2.155 5.349-3.751 7.75a26.06 26.06 0 0 0-1.5 4zm119.017-40.749c1.75-.5 2.25-2.25 3.25-3.5.267-.252.581-.448.925-.577a2.75 2.75 0 0 1 1.076-.173c.5-.25.75-.25 1 .25a1.5 1.5 0 0 1-.25 1 27.01 27.01 0 0 1-6.001 3zM60.854 91.33c.5 0 .5.5.5 1s0 6.75-.25 10.25a56.48 56.48 0 0 1-.25-11.25zm33.254-4.249h-.5l-.5-.5a33.25 33.25 0 0 0 1.25-4.75c0-.25 0-.75.5-.5s.75.25.5.75-.75 3.25-1 4.75l-.25.25zm45.508-4.5c-1.522 3.467-3.452 6.741-5.751 9.75 2-3.25 3.5-6.75 5.751-9.75zM114.362 92.83c0-2 1.25-3.25 1.75-5l1.5-4c.25-.25 0-.75.5-.5s.251.5.251.75-1.251 2.75-1.751 4-1.5 3-2.25 4.75zm-63.759-5.499l.25 8a12.5 12.5 0 0 1-.25-8zm112.516 15.999c2.25-1.5 4-3.5 6.251-5a11.75 11.75 0 0 1-6.251 5zM64.605 58.331c1 0 1.25.75 1 1.5s-.25 4.75-.75 7l-.5.5.5-5.75a7 7 0 0 0-.25-3.25z"/><path d="M60.855 91.331c.5-2.5 0-5 .25-7.5a2.75 2.75 0 0 1 .5-1.5c-.25 2.5.25 5 0 7.5s0 1.25-.75 1.5zm5-42c.47 2.835.299 5.739-.501 8.5l-.75.5a38.49 38.49 0 0 0 1-7.5 3.25 3.25 0 0 1 .25-1.5zm56.008 71.748c2-2.5 3.75-5.249 5.751-7.999-1.501 3-3.751 5.499-5.252 8.249l-.499-.25zm-14.252-57.498c.528-1.21.947-2.465 1.25-3.75.365-1.242 1.055-2.365 2-3.25l-3 7.25a.25.25 0 0 0-.25-.25zm80.012 37.999a34.52 34.52 0 0 1 6.75-3.5l-5.751 3.75c-.5 0-.749.25-.999-.25zm-5.751-28.249a21.5 21.5 0 0 1-4.751 4.75c1.257-1.879 2.871-3.493 4.751-4.75zm-50.758 29.999c1.004-2.299 2.262-4.479 3.75-6.5l1.25-1.5a44.2 44.2 0 0 1-5.25 8h.25zm-31.504 11a66.01 66.01 0 0 0-3.751 7.25c-.25-.25-.25-.5 0-1a53.56 53.56 0 0 1 2.5-5.5 1.25 1.25 0 0 1 .504-.576c.224-.135.485-.196.746-.174zm-4.501-43.999a13.5 13.5 0 0 1-1.25 5.5 10 10 0 0 1 1.25-5.5z"/><path d="M187.622 101.58c-.5 2-2.5 2.25-3.75 3.25l-1.501.5c1.501-1.75 3.751-2.25 5.251-3.75zM74.106 112.33a21.5 21.5 0 0 1 1.25-5.75l-.75 5.75h-.501zm56.758-9a55.04 55.04 0 0 1-4.251 6.25c1.75-2 2.25-4.75 4.501-6.25h-.25zm24.504 19.999l-5.251 3.75a13.51 13.51 0 0 1 5.251-3.75zm-16.503-45.248l3.5-5.25a24.48 24.48 0 0 1-3.25 5.5l-.25-.25zm73.261-.75l4.5-2.75h.251l-4.501 3-.25-.25zm-24.754-13l-2.75 3.25c-.25.25-.5.5-.75.25s-.25-.5 0-.5 2.001-2.5 3.251-3.5l.249.5zm-39.755 57.748a10.76 10.76 0 0 1-4.251 3.25 27.32 27.32 0 0 1 4.251-3.25zm57.758-37.998a1.49 1.49 0 0 1 .037-.821 1.5 1.5 0 0 1 .464-.679l1.499-.5c.25 0 .251.25.251.5s-.751.5-1.001.75l-1.25.75zm-74.011-8.75l.751-1.25c.5.5.25.75 0 1a23.75 23.75 0 0 1-2.501 4.25c.25-1.5 1.5-2.5 1.75-4zM76.356 96.33l-.75 4.5a5.25 5.25 0 0 1-.139-2.336c.13-.779.434-1.519.889-2.164zm67.51 34.499l4.001-3c-.75 1.75-2.5 2-4.001 3zm-48.007-9.25c-.766 1.905-1.686 3.745-2.751 5.5h-.25l2.251-4.75c0-.5.5-.5.75-.75zm-3.75-39.748a8.25 8.25 0 0 1 1-3.75 7 7 0 0 1-1 3.75zM76.856 86.33c0-1-.5-1.5-.25-2.5s0-.5.5-.5a.5.5 0 0 1 .5.5c0 1 .25 1.75-.75 2.5zm-19.003 64.499c1 1.75 0 3.25 0 4.749s.25-2.999 0-4.749zm1.251-55.749c-.75 1.5 0 3-.25 4.5v.5a6.75 6.75 0 0 1 .5-5h-.25zm118.517 5c-.5 1.5-1.75 1.75-3 2l3-2zm-67.01.75a10.99 10.99 0 0 1 1.501-4 11 11 0 0 1-1.501 4zm20.754 7.5c-1.251 1-1.751 2.749-3.001 3.999.562-1.611 1.611-3.009 3.001-3.999zm-72.761 56.998c.052.61.222 1.204.5 1.75 0 .25.25.5-.25.75s-.5-.25-.75-.5a2 2 0 0 1 .5-2zm50.757-23.249c-.75 1-1.251 2.25-2.751 2.5l2.751-2.5zM57.604 81.331c.75-.75 0-2.25 1-3v4c-1 0-.25-1-1-1z"/><path d="M76.856 86.33c.75 1-.25 2.25 0 3.5a5.5 5.5 0 0 1 0-3.5zm82.512 20.5a10.51 10.51 0 0 1 3.251-2.75c-1.5.25-1.25 2.25-3.251 2.75zm-44.756 30.999l2.25-3.25c-.446 1.265-1.223 2.387-2.25 3.25zm-12.752-19.75a5.28 5.28 0 0 1-.49 2.055c-.301.645-.73 1.221-1.26 1.695l1.75-3.75zm9.251-8.499a10.01 10.01 0 0 1-2.25 3.75c.541-1.364 1.301-2.631 2.25-3.75zm48.757 10.749c-.964.843-2.063 1.519-3.25 2 .885-.945 2.008-1.635 3.25-2zm-15.252 45.749a1.01 1.01 0 0 1 .25-.75c3.251-1 5.501-3.25 8.751-4.5s11.752-4.5 18.003-6l3.25-.5c1.001 0 1.751 1 2.751 1h3c3.251-1 6.251-2 9.502-.75h1c.25.25.5.5.25.75h-.5c-6.251-1.25-11.252 1.5-16.753 3.5-4.086 1.453-8.092 3.122-12.001 5a20.3 20.3 0 0 0-5.251 2.5c-.392.18-.819.273-1.25.273s-.858-.093-1.25-.273c7.501-3 14.252-6.75 21.253-9.75a169.88 169.88 0 0 0-31.005 9.5zm-3.75 34.749c-.75.25-1.251 1-2.001-.25s-1.25-.75-1.75-.75l-10.252-1.25-1.75.5a108.8 108.8 0 0 0-12.752-.5c-.75 0-1.25 0-1.75-.75-.87-.617-1.941-.885-3-.75H94.359c-.25.25-.75 0-.75-.5s.25-.5.75-.5a75.6 75.6 0 0 1 15.002-.75c3.835.17 7.678.087 11.502-.25 5.006-.208 10.021-.041 15.002.5h3.75c.25 0 .75 0 .75.5s-.5.5-1 .25c-3.374-.669-6.828-.837-10.252-.5a45.4 45.4 0 0 1-8.25.25h-3.751c-.5 0-1 0-1 .5s.5.25 1 .25c7.281-.123 14.558.379 21.753 1.5a3.26 3.26 0 0 1 2.001.75c.5.75.5 1.25 0 1.75zm-5.001 11.75c-1 0-2.001.5-3.001 0s-.5-.5 0-.5.75-.25.75-.75h-.75a89.56 89.56 0 0 0-13.502-3.5l-12.501-1.75c-.367.015-.733-.044-1.077-.173s-.657-.325-.924-.577c-.5-.5-.75-.75-.5-1.5a.75.75 0 0 1 .216-.308c.098-.083.215-.14.34-.165a.75.75 0 0 1 .376.022.76.76 0 0 1 .319.201 90.24 90.24 0 0 0 14.251 3c4.842.984 9.606 2.321 14.252 4l1.501.75c.5 0 .75.5.25 1.25zm-37.005-18l7.501-.75a51.22 51.22 0 0 0 8.501-1.749c1-.25 1.75.499 2.75.249l9.502-.75c4.571-.415 9.162-.582 13.752-.499l2 .75-3.25.499a115.43 115.43 0 0 0-13.003.5l-19.752 1.75a28.44 28.44 0 0 1-8.001 0zm112.765-43.248c-1.061.923-2.361 1.53-3.75 1.75-2.5.5-4.751 1.5-7.251 2.25-4.229.934-8.403 2.102-12.502 3.5l-10.501 3.25a3.24 3.24 0 0 1 2.5-1.5c3.751-1 7.251-2.5 11.002-3.75 1.959-.249 3.839-.932 5.5-2a25.5 25.5 0 0 1 7.501-2c.5-.25 1.251-.25 1.751-.75a14.49 14.49 0 0 1 5.75-.75zM103.36 186.078a4.24 4.24 0 0 1 1.492-.973c.56-.216 1.159-.31 1.758-.277l9.752-1.25 11.752-1.75h1.5c.5-.25 1-.5 1.25.25a1.25 1.25 0 0 1-.274.806c-.182.228-.44.385-.726.444l-4.751.5-8.001 1.25c-4.561.591-9.152.925-13.752 1zm40.755-33.749c3.332-2.822 7.143-5.024 11.252-6.5 3.76-1.263 7.604-2.266 11.502-3h1c.5 0 1-.25 1.25.25s-.5.75-1 .75l-8.251 2.25c-4.776 1.529-9.383 3.539-13.752 6a2.5 2.5 0 0 1-.974.335 2.51 2.51 0 0 1-1.027-.085zm26.755-5.25l-3.751 1a101.39 101.39 0 0 0-12.252 4.249l-2.75 2c-.75.25-1.25.75-2 .75s-1-.25-1.25-.75a.75.75 0 0 1 .75-.75 107.7 107.7 0 0 1 12.251-5.499l8.252-2c.033-.133.118-.247.235-.317a.51.51 0 0 1 .39-.058c.133.033.246.117.317.234a.52.52 0 0 1 .058.391c.011.135-.005.271-.048.4s-.112.248-.202.35zm15.003 32.749c-1.393.371-2.859.371-4.251 0a13.73 13.73 0 0 0-4.501-.25c-.485.075-.981.046-1.455-.083a3.49 3.49 0 0 1-1.295-.667h-.251c-.75 1.25-2 .25-3 .75-1.198.45-2.503.537-3.75.25a40.65 40.65 0 0 0-7.751.25c-.5 0-1 .75-1.25 0s.5-.75 1.25-1l11.251-1 6.501-.5c0 .5-.75 1-.5 1.25.188.2.436.334.708.379s.55 0 .793-.129c2.5-.5 4.75.75 7.25.75h.251zm-54.508 0l-7.502.75c-5.25 1.5-10.751 1-16.002 2.75l-9.501 2.5h-1.001c-.5.25-.75 0-.75-.25l.501-.5 7-2c5.001-1.25 9.752-2.25 14.753-3l12.002-1h.5v.75zm14.001-35.749a40.53 40.53 0 0 1 10.252-5.5 84.48 84.48 0 0 1 14.002-5c.25 0 1-.5 1.25.25s-.75.75-1.25 1l-10.502 3.5a88.59 88.59 0 0 0-13.251 5.75h-.501zm72.761 6l12.752-3.5c5.501-1.25 11.001-3 16.752-4.75.5 0 1-.5 1.25.25s-.25 1-1 1.25l-8.001 1.75-20.253 5c-.243.129-.522.174-.793.129a1.25 1.25 0 0 1-.707-.379v.25zm-75.511-1.75a57.26 57.26 0 0 1 22.253-8.25c0 1-.5 1.25-1.25 1.25a91.36 91.36 0 0 0-11.002 3.25c-2.04.64-4.043 1.391-6.001 2.25-.654.033-1.275.299-1.75.75-.246.348-.597.609-1.002.744a2 2 0 0 1-1.248.006zm33.755 67.248c-.5.5-1.001.25-1.501.25a108.59 108.59 0 0 0-15.002-3.5h-2.25c-.578-.047-1.116-.316-1.5-.75v-.75c.5-.5 1-.25 1.5-.25l16.752 4 2.001 1zm4.501-33.499h-1.251c-6.192.117-12.372.618-18.503 1.5-.25 0-.75.25-.75-.25s.251-.5.501-.5a79.63 79.63 0 0 1 10.751-1.5c2.5.25 5.001-.5 7.501-.25h1.5c.25.25.501.5.251 1zm-16.753 50.748c-3.001-1.749-6.501-2.499-9.752-3.999a14.49 14.49 0 0 0-4.75-1c-.5 0-1 0-.75-.75s.5-1 1-.75l7.251 2.5 7.001 2.749c1.047.399 2.053.901 3.001 1.5l.5.5c-.251.5-.501.25-1.001.25l-2.5-1zm14.002-32.999h-7.501a20.52 20.52 0 0 0-6.751.25c-.75 0-1.251 0-1.501-.75s.75-.75 1.251-.75h8.501c1.676.055 3.347.222 5.001.5.25.25.75.25 1 .75zm4.001-6.999a14.27 14.27 0 0 1-4.501.25H167.62c-.5.25-.75-.25-1.251-.5s0-.5 0-.75.751-.25 1.251-.25h11.251c1.184.086 2.315.521 3.251 1.25zm-2.751 18.999c-1.658.25-3.343.25-5.001 0l-8.751-1-3.5-.75c-.5 0-1.001-.5-.751-.75s.5-.25 1 0l6.002.75c3.73.074 7.432.663 11.001 1.75zm1-23.749c-5.751-.5-11.501-.25-17.002-1 5.657-.5 11.346-.5 17.002 0v1zm-11.752 42.749l-8.251-3.25a11.99 11.99 0 0 0-5.001-1.75c-.5 0-.75-.5-1-.75-.053-.047-.096-.105-.125-.169a.5.5 0 0 1-.044-.206c0-.071.015-.141.044-.206s.072-.122.125-.169a1 1 0 0 1 1.251.25c2.853.907 5.616 2.078 8.251 3.5.75.5 1.5.25 2.25.5s2.5.5 2.5 2.25zm8.751-33.5c-.193.196-.429.343-.69.429a1.75 1.75 0 0 1-.809.071 73.94 73.94 0 0 0-10.502-.25c-.501 0-1 0-1-.5 0-.098.019-.196.057-.287s.093-.173.162-.243.153-.125.244-.163a.76.76 0 0 1 .287-.057h1.25l9.251.75 1.75.25zm-17.751 9.5c6.251.5 12.251 1.5 18.502 2.25v.5l-8.251-1-8.251-1c-.75-.25-1.5 0-2-1v.25zm-48.758-36.249c-.25-.75.25-1.25 1-1.5a90.56 90.56 0 0 1 10.752-6c1.197-.446 2.478-.617 3.75-.5-4.345 1.302-8.474 3.24-12.252 5.75-1 .75-2.5 1-3.25 2.25zm90.513-25.749l5.251-.75c-1.054.647-2.264.993-3.501 1l-3.75 1c-.228.221-.52.365-.835.41s-.635-.011-.915-.16c-.501 0-.501-.25-.751-.5s.25-.5.5-.5l3.501-1.5c.25 0 .75-.25 1 0s-.75.25-.5 1zm-1-4a16.25 16.25 0 0 1 5.501-2 32.25 32.25 0 0 1 6.501-2c-.114.254-.287.477-.504.651a1.75 1.75 0 0 1-.747.349c-3.5 1-7.001 2.25-10.751 3zm-77.511 29.249c3.25-1 6.001-3.5 9.501-4-2.982 1.735-6.176 3.08-9.501 4zm73.261-25.749l12.001-4c-1.001.724-2.094 1.313-3.25 1.75l-7.751 2.5c-.5.25-.75.25-1-.25zm-68.01 42.499l-7.251 1h-3.001c.5-1 1.25-.75 1.751-.75l8.25-.75.251.5zm97.514-48.499c0 .5-.5.75-1 1l-5.251 1.75c-.75.25-1.001 0-1.501-.5 2.123-.434 4.212-1.019 6.251-1.75l1.501-.5z"/><path d="M196.123 144.329c-1 1.5-2.75 1.5-4 2s-.5 0-.75-.25l.5-.5a11.99 11.99 0 0 1 4.25-1.25zm6.502 88.747c-2.735-.483-5.415-1.237-8.001-2.25l8.25 2-.249.25zm15.251-92.497c-.5 1.25-1.999 1.5-3.25 1.75l-3.25.5c2.204-.638 4.373-1.389 6.5-2.25zm.251 9.25c-1.932 1.229-4.227 1.759-6.502 1.5 2.109-.679 4.292-1.099 6.502-1.25v-.25zm17.753-15c-1.565 1.33-3.471 2.196-5.502 2.5v-.5l5.502-2zm-132.019 43.999c.25-1.75 1.749-1.75 2.75-2.25s1.25-1.5 1.75-.25-1 .5-1.5.75-2 .75-3 1.75zm87.761 38.749c-1 .75-2.249 0-3.25-.25-.366.015-.732-.044-1.076-.173s-.657-.325-.924-.577l5.25 1zm-72.259-60.248l5.5-2.75v.5c-1.75.5-3.5 1.75-5.5 2.25zm23.003 9.499l-4.501 1.75a6.24 6.24 0 0 1 4.501-2v.25zm58.258-19.999c-1 .5-1 1.5-2.25 1.5s-.5 0-.75-.5c0-.133.053-.26.146-.354s.221-.146.354-.146a3.75 3.75 0 0 1 2.5-.5zm-10.251 32.749c-1.477.33-2.997.415-4.5.25a4.75 4.75 0 0 1 2.218-.693c.785-.043 1.569.109 2.282.443zm6.001 58.498c1.502.034 2.969.465 4.25 1.25a20.92 20.92 0 0 1-4.25-1.25zm-5.751-59.998a7.51 7.51 0 0 1-4.251.5 13.02 13.02 0 0 1 4.251-.5zm14.502-43.499c.765-.354 1.446-.865 2-1.5 0-.25.25-.5.75 0v.5c-.78.63-1.747.982-2.75 1zm20.503 3.75c1.216-.45 2.472-.784 3.75-1-.519.421-1.122.728-1.768.901a4.75 4.75 0 0 1-1.982.099zm-97.514 48.499c1.5-1.25 3-.25 4.251-.5l-4.251.5zm63.509-9l3.25-.5c-.985.595-2.101.939-3.25 1v-.5zm10.502-5.5c.936-.447 2.003-.536 3-.25-.443.28-.948.45-1.47.493a3.26 3.26 0 0 1-1.53-.243zm-27.505 32.999c-1-.25-2.25.25-3.25-.25.526-.205 1.091-.289 1.654-.246a3.75 3.75 0 0 1 1.596.496zm13.503-28.999c1.152-.255 2.322-.422 3.5-.5-1 .75-1.25.75-3.5.5zm-31.255 61.749c2.501-.5 4.001 1.75 6.001 2.5s3.501 1.75 5.501 2.25 2.75.5 3.5 1.75 2.001.249 2.751.749 3.25 2.25 5.001 3 2.25 0 3.25.75c.845.461 1.54 1.155 2 2-1.167.057-2.317-.297-3.25-1l-7.751-4-7.752-3.249c-3.211-1.418-6.305-3.09-9.251-5v.25zm-29.754-10.751l-16.252-4.499a101.15 101.15 0 0 1-11.252-4l-1.25-.5c-.25-.5-1-.5-.75-1s1-.25 1.25 0c5.751 4 12.752 4.75 19.252 6.5 3.133.794 6.156 1.969 9.002 3.499zm75.261 38c-7.05-2.077-13.91-4.753-20.503-8a85.29 85.29 0 0 1 20.503 8zm-31.755-12.5a46.28 46.28 0 0 1 8.251 3 25.26 25.26 0 0 1-8.251-3zm-25.254-17.5c.25-.5.5-.5 1-.25a15.5 15.5 0 0 1 4.751 2.75c-2.25-.5-3.751-2-5.751-2.5zm1.5-1.5a22.02 22.02 0 0 1 5.251 3c-1.75-1-4.001-1.25-5.251-3zm8.251 10c.836-.09 1.68.023 2.464.327a5.26 5.26 0 0 1 2.037 1.423l-4.501-1.75zm34.005 9c-1.25 0-2.25-1-3.75-1.5.342-.163.715-.253 1.094-.266a2.74 2.74 0 0 1 1.11.196 2.75 2.75 0 0 1 .937.623c.266.27.474.593.609.947z"/><path d="M170.62 252.826l-3.5-1.75h.249c1.25.25 2.751.25 3.251 2v-.25zm-25.254-17.499c-1.25-1.25-3-1.25-4.251-2.5 2.501.25 4.001 1.25 4.251 2.5zm41.506 18.249a5 5 0 0 1-3.25-1c1 .25 2.5-.25 3.25 1zm-30.004-15.749c-.604-.029-1.193-.202-1.716-.507s-.963-.731-1.285-1.243c1.001.5 2.251.75 3.001 2v-.25zM43.601 113.83l-1.75-8.75c.011-.329-.051-.656-.181-.958a2.26 2.26 0 0 0-.569-.792c-1.25-1-.75-2.5-1.25-3.75s-.25-1-.5-1.5c.124 1.414.124 2.836 0 4.25a62.98 62.98 0 0 1-2.25-16.749c.5.25.5 1 1.25 1.25s-.251-3-.501-4.5 0-1.25.501-1.25.499.5.75 1-.25.75.501.5.75.75.75 1.25.75 7.25 1.5 10.75a27.25 27.25 0 0 0 1 6.25c.25.5.75 1.25-.25 2s-.25 1.75 0 2.5l1.5 7.75c.25.5 0 .5-.5.75z"/><path d="M37.85 100.08a19.24 19.24 0 0 1 1.751 6.5l1.5 8.5c0 .5 0 1-.75 1 .5-1 0-2-.25-3s-1.501-8-2.251-11.75a1 1 0 0 1 0-1.25zm-5-26.749c.5-.75 0-1.25 0-1.75s-.75-1.25-.25-1.75 1 4 1.75 6.25-.75-2.25-1.5-2.75z"/><path d="M40.351 116.08c.75.25 1.001.5 1.001 1.25l.75 4.749c-1-1.5-.75-2.999-1.25-4.499a1.75 1.75 0 0 0-.5-1.5zm3.251-2.251c1.5 1.25 1.25 3 1.25 5l-1.25-5zm-1.501 9.251c.509 1.184.764 2.461.75 3.749a5.25 5.25 0 0 1-.75-3.749zm-3 2.5l1.25 3.499c0 .25 0 .5-.25.5s-.25 0-.5-.25l-.75-3.749h.25zm41.506 35.748a20.99 20.99 0 0 1-3.751 6.5l3.751-6.5z"/></g></svg>