<svg xmlns="http://www.w3.org/2000/svg" width="114" height="115" fill="#c89a60" xmlns:v="https://vecta.io/nano"><path d="M35.513 81.291a8.84 8.84 0 0 1-2.371 1.509c.243-.425.586-.784.999-1.047a3.02 3.02 0 0 1 1.372-.462z" fill-opacity=".2"/><path d="M86.388 112.112l-3.449.646a55.37 55.37 0 0 1-9.916 1.509h-4.527c-2.093.065-4.187-.08-6.251-.431l-8.623-1.078c-5.332-1.008-10.59-2.376-15.737-4.095-3.234-1.293-6.252-3.017-9.27-4.526s-8.838-6.25-12.287-10.346l-1.509-2.155c-.52-.891-.953-1.829-1.294-2.802a31.46 31.46 0 0 1-1.509-4.095 1.94 1.94 0 0 1 0-1.509c.134-.939.061-1.895-.216-2.802-.213-.629-.213-1.311 0-1.94.216-.862 0-1.724.216-2.586s-.862-3.233-2.156-4.311a12.5 12.5 0 0 1-3.018-2.802 18.75 18.75 0 0 1-3.018-5.819 52.58 52.58 0 0 0-1.294-5.604c-.431-1.724-1.293-3.449-1.724-5.173a9.48 9.48 0 0 1-.432-6.466c.424-1.324.642-2.705.647-4.095a32.54 32.54 0 0 1 1.294-7.759c.431-1.509 1.078-3.018 1.509-4.526a21.55 21.55 0 0 1 4.096-6.681 39.66 39.66 0 0 1 3.665-4.742l2.802-3.664c.589-.667 1.328-1.184 2.156-1.509a5.82 5.82 0 0 0 1.725-1.509l1.078-1.078h.216c.862-1.293 2.371-1.293 3.233-1.94l3.665-2.155a26.94 26.94 0 0 0 2.587-1.724l3.018-1.509 1.293-.862c.431-.647.647.647 1.294.431l.647-.431c.216-.647.647-.647 1.078-.216h.646L42.411.681h1.725c2.802 0 5.389-.862 8.192-.647h4.311a61.88 61.88 0 0 1 8.839 1.078 75.02 75.02 0 0 1 8.838 2.155c3.665.862 6.683 3.017 10.347 4.095 1.546.734 2.936 1.759 4.096 3.018a16.39 16.39 0 0 0 3.449 2.371c1.383.885 2.682 1.895 3.88 3.018.619.69 1.347 1.272 2.156 1.724 1.63 1.16 3.021 2.623 4.096 4.311.665 1.325 1.242 2.693 1.724 4.095 1.294 2.586 1.078 5.388 1.725 8.19s.647 1.293 0 2.155h.215c.563.519 1.069 1.098 1.51 1.724.646 1.078 1.724.862 2.586 1.293a4.74 4.74 0 0 1 1.505 1.258c.408.52.703 1.119.866 1.759.493 1.239.784 2.549.863 3.88-.003 2.569-.672 5.094-1.941 7.328a40.72 40.72 0 0 1-2.37 5.388c-1.618 3.224-3.057 6.533-4.312 9.914a76.65 76.65 0 0 0-3.233 12.07c-.249 1.134-.394 2.288-.431 3.449-.216 2.371-.647 4.957-.647 7.544s.215 1.078 0 1.509c0 .057.011.113.032.165a.44.44 0 0 0 .094.14c.04.04.088.072.14.093a.43.43 0 0 0 .165.033c1.509.862 1.509 2.155.431 3.449-.795 1.049-1.178 2.352-1.078 3.664-.216.431-.216.647 0 .862.08.521.023 1.053-.166 1.545s-.503.925-.912 1.257c-.431.647-1.293.862-1.078 1.509h-.215c-1.294 0-1.725 1.293-2.587 1.724l-.646.431c-2.371.647-4.527 2.155-6.899 2.802s-.646 1.293-1.293 1.078zm-.431-27.373c.216-.862 1.078-.862 1.509-1.509a2.37 2.37 0 0 0-1.725.647c-.215 0-.647.216-.431.647s.431.216.862.216l1.509-1.078.863-.862c-.955.513-1.827 1.167-2.587 1.94zm2.587 5.173c.216-.431.216-.647 0-.862a.66.66 0 0 0-.863 0l-1.078.862c-.216.215-.647.215-.431.647s.431.431.863.216l1.724-1.078c-.216.647-.862.862-1.078 1.078s-.647.216-.431.647h.647l1.078-.862c.215 0 .647 0 .431-.431s-.431-.431-.862-.215zm-3.88-8.837c.085-.25.226-.478.413-.664s.415-.328.665-.413c.216-.215.431-.215.216-.431s-.216-.431-.432-.216a7.76 7.76 0 0 0-3.234 1.724c-.431.215-.215.431-.215.647h.647l1.293-.431-1.078.647c0 .216-.216.216 0 .647h.647l2.803-1.509c0-.216.646-.216.215-.647s-.431-.431-.862-.215c-.255.398-.634.701-1.078.862zm-.862-9.052l2.371-.862c.216 0 .647 0 .431-.431s-.215-.431-.646-.431l-3.665.862c-.216 0-.647.216-.431.431s.216.647.647.431h1.294c-.431.216-1.078 0-1.294.431s.431.431.862.431a6.9 6.9 0 0 1 3.018-.647c.216-.216.647 0 .647-.431s-.431-.431-.647-.216l-2.587.431zm-58.204-2.155l-.863 1.078c-.431.647-1.078 1.078-1.293 1.724s.215.647.431.862.431 0 .862-.216c.888-.954 1.616-2.046 2.156-3.233.215-.431-.215-.862-.862-.862s.431-.431.215-.862a5.17 5.17 0 0 0-1.293 1.724l.647-.216zm53.03 23.062c.431.647 1.293.431 1.725 1.293.125-.111.202-.265.216-.431l1.509-1.94c.057 0 .112-.023.152-.063s.063-.095.063-.152-.023-.112-.063-.152-.095-.063-.152-.063c-1.509-1.293-1.94-1.293-3.665 0l-.647.431c-.647.431-.216.862.215 1.078h.647zm6.036-39.011c-.431.431-.862.431-1.294.647h4.743c.216 0 .431-.215.215-.215s0-.647 0-.862 0-.862-.647-.862l-3.018.862c.216-.647 1.078-.431 1.294-.862h-1.294l3.234-.431c.216 0 .431-.216.431-.647s0-.431-.431-.647h-4.311c-.647.216-.647.431-.647 1.078s.431.431.863.862-.647 0-.647.431.431.431.647.431l.862.215zm9.485-8.837h1.51c.215.215.431 0 .431-.431s.215-.431-.216-.647a28.68 28.68 0 0 0-6.036-.647c-.431-.215-.431 0-.431.431s-.215 1.078.216 1.293h3.449a1.51 1.51 0 0 0 1.94.215l-.863-.215zm-39.234 54.53c-.057 0-.112.023-.152.063s-.063.095-.063.152l-1.725 3.449c-.216.215-.431.431-.216.646s1.725.647 1.94.216l.646-.647c0-.215.216-.862.647-.646s-.215.646-.215.862a8.84 8.84 0 0 0 1.509-2.371c.215-.431 0-1.509-.431-1.509s-.862.216-1.078.647 0 .215-.216.431a2.37 2.37 0 0 1-.668.977c-.302.263-.665.446-1.057.532a9.48 9.48 0 0 1 1.725-2.371c0-.216.216-.647 0-.862s-.431 0-.862.216.431-.431 0-.647h-.647c-1.361 1.109-2.342 2.616-2.803 4.31v.431h.862c0-.215.216-.431.431-.646.551-1.234 1.359-2.337 2.371-3.233zm17.892-8.621a4.31 4.31 0 0 0-1.94-1.94h-.432a4.31 4.31 0 0 1-1.94 1.94.43.43 0 0 0-.146.323.43.43 0 0 0 .146.323l1.294.862c.431.216.647.216.862-.215a3.88 3.88 0 0 1 1.509-1.078c0 .431 0 .862-.431 1.078s-.863.862-.216 1.293l.647.647c.431.431.862.862 1.509.216l1.94-1.724a.43.43 0 0 0 .146-.323.43.43 0 0 0-.146-.323l-1.94-1.293-.862.216zM24.95 76.118c-.431-.216-.431 0-.647.216a10.13 10.13 0 0 1-1.078 2.155v.431c1.078.215.215.431 0 .647-.624.828-1.2 1.692-1.725 2.586-.216.216-.431.431-.215.647s.646 0 .862-.216a7.76 7.76 0 0 1 1.94-1.724c-.125.111-.202.265-.215.431l-1.725 1.724a.43.43 0 0 0-.146.323c0 .061.013.122.038.177s.062.105.108.146c.216.216.215-.216.431-.216l.863-1.078 3.018-4.095c.216 0 .431-.216.216-.431a2.59 2.59 0 0 0-.592-.917c-.26-.26-.573-.462-.917-.592l-.215-.216zm45.701.647a1.08 1.08 0 0 0-1.509-.216l-1.94 1.293c-.431.431-.431.431-.215.647l1.725 1.509c.216.216.431.431.646.216l1.725-1.078c.647-.431.862-.862.216-1.293l-.863-1.078c.647 0 .647.431.863.862s1.078.647 1.94.216l2.371-1.509c1.725-.862 1.724-.862.862-2.371s-.647-.647-1.078-.431l-4.311 1.94c-.431.216-.862.647-.431 1.293zM23.872 89.481c0 .215-.216.215-.216.431a10.99 10.99 0 0 0-2.587 4.311c0 .216-.216.647 0 .647s.431-.216.431-.431.431-1.078.647-1.509a7.33 7.33 0 0 0 2.156-3.448c.216 0 .431-.216 0-.431a5.82 5.82 0 0 0 1.509-1.724c1.078-1.293 1.509-2.802 2.372-3.88 1.17-1.882 2.466-3.682 3.88-5.388a1.94 1.94 0 0 0 .646-1.293l-3.234 3.233a27.16 27.16 0 0 0-4.742 5.173l-2.156 3.664c-.185.154-.324.357-.4.585s-.087.474-.031.708c.862-.647 1.293-1.724 2.156-2.155-.911 1.062-1.706 2.218-2.372 3.448.862-.647 1.294-1.509 1.941-1.94zm51.521-17.674h.216c.216.647.646.647 1.293.431.975-.616 2.084-.986 3.234-1.078.862-.216.863-.431.432-1.293l-.647-1.293c-.216-.431-.431-.647-.863-.431l-3.018 1.509c-1.293.647-1.294.647-.647 1.94h-.431c-.216-1.078-.862-.862-1.725-.431a67.47 67.47 0 0 1-7.76 4.095.43.43 0 0 1 .431-.431l1.509-.862c.647-.216.862-.431.216-1.078s1.078.431 1.509.216a45.05 45.05 0 0 1 6.251-3.449l2.587-1.509c1.293-.647 1.294-.431.863-1.94-.093-.355-.165-.715-.216-1.078.431.215.863.431.863 1.078s.431 1.293 1.509.647c1.054-.652 2.226-1.092 3.449-1.293.647 0 .863-.647.432-.862s-.216-.647-.216-1.078-.215-.862-.862-.647h.646c-.216-.431-.431-.431-.646-.215l-4.096.862c-1.294.431-1.294.431-1.078 1.724s-.215-.216-.215-.431-.431-.647-1.078-.431l-4.096 1.509c-.647.215-.647.431-.431 1.078.453.56.75 1.229.862 1.94a20.05 20.05 0 0 1-1.078-2.155c-.216-.216-.215-.431-.646-.431l-2.803 1.509c.862 0 1.725-.862 2.803-.431s-.216.647-.647.862l-3.88 1.94c-.647.216-1.294.216-.647 1.293s-.646-.862-1.293-.647l-2.803 1.509c-.431.431-.647.647-.431 1.293s-.862-.647-1.294-.216l-2.156 1.509c-.215.216-.431.431 0 .647.553.682 1.058 1.402 1.509 2.155a1.08 1.08 0 0 0 1.078 0l2.156-1.293c.647-.431.431-.862 0-1.293-.594-.432-1.045-1.033-1.293-1.724.431 0 .431.431.431.647s1.509 1.509 2.803 1.293.215.431.215.862 1.078 1.509 1.725 1.078l1.509-1.078 1.509-.862a13.8 13.8 0 0 1 4.096-1.724c1.078-.862 1.078-.862.862-1.94zm-12.072-6.251h.431c2.156-1.078 4.096-2.586 6.251-3.449s.216-.431.216-.647-.216-.431-.647-.215-.647.431-1.078.215l1.078-.647c.216 0 .431-.215.216-.647h-.647l-2.587 1.293c-2.156 1.293-3.881 2.802-5.821 4.095s-.647.647-1.078.647a23.5 23.5 0 0 1 3.665-2.802l5.389-3.664c.862-.575.862-1.221 0-1.94.647-.862 1.94-.862 2.802-1.293l-1.724.862c-.647.431-.431 1.078-.216 1.509s.647 0 .862 0 3.45-1.724 5.174-2.155.646-.431.215-.862.647.647 1.078.431c-.113.085-.208.191-.28.313s-.119.257-.139.397-.012.283.023.42a1.08 1.08 0 0 0 .182.379c.216.431.647 0 1.078 0 .981-.318 1.992-.535 3.018-.647h1.941c.431-.215.647-.431.431-.647s.216-1.078-.431-1.078-1.294 0-1.725.647-.431.431-.647.215-.216-.431-.647-.431l-2.371.647 3.449-.862h1.725c.212-.237.329-.544.329-.862s-.117-.625-.329-.862h.216c.215-.862-.216-1.293-1.078-1.293l-3.665.431c-2.156.431-2.371.647-2.156 2.155v-.647c0-.862-.431-.862-1.293-.647l-4.958 1.509c-.862.431-.862.647-.647 1.509v.431c-.146-.264-.22-.561-.215-.862 0-.431-.216-.431-.647-.431l-1.294.647-4.311 2.371c0-.431.431-.647.647-.862 1.32-.802 2.687-1.522 4.096-2.155.862-.431 1.078-.862.863-1.724a5.17 5.17 0 0 1-.647-1.94c.47.631.767 1.374.862 2.155 0 .862.431.647 1.078.431l4.743-1.509c.431 0 1.078.215 1.293-.647s.215.215.431.215h.431c1.765-.772 3.679-1.14 5.605-1.078.647 0 1.078-.215.647-.862v-.647c0-.431-.216-.431-.431-.431l-5.605.647c-.647 0-1.293-.216-1.078 1.078s-.215-1.078-.862-1.078 1.078-.216 1.725-.216l4.958-.647c1.293-.215 1.294-.215 1.294-1.724.216.431-.216 1.293.862 1.293h4.958l.431-.431c0-.647.216-1.293.216-1.94 0-.172-.068-.336-.19-.457s-.286-.189-.457-.189H68.926l-4.742.431 2.371-.431 10.778-.862a97.26 97.26 0 0 1 11.21 0c.647 0 .431-.862.647-1.293s0-.647-.647-.647h-3.449l3.665-.431c.216 0 .431 0 .647-.431s-.431-.431-.647-.431h-2.802c1.293.431 2.802 0 4.311.431-.171 0-.336.068-.457.189s-.189.286-.189.457c0 .431.215.431.431.431 1.808.109 3.607.325 5.389.647h.647c.431-.144.647-.359.647-.647 0-.431-.431-.431-.647-.431h.431c.647 0 .431-.431.647-.647s-.215-.431-.431-.647h-13.15c3.801-.287 7.616-.359 11.425-.215-.216-.431-.647-.215-.863-.431h2.156c.862.216 1.293.216 1.725-.647s.216 1.078.863 1.293c1.629.228 3.223.663 4.742 1.293a9.49 9.49 0 0 1 4.743 2.155 1.51 1.51 0 0 1 .561.434c.15.188.253.408.301.643.015.398.167.779.431 1.078a18.68 18.68 0 0 0 1.509 2.155c.216.431.216 1.078.862 1.293s.432-1.724-.215-2.802-.432-1.509-1.509-1.509h-.216a1.5 1.5 0 0 0-.252-.766c-.152-.228-.363-.41-.61-.527a21.56 21.56 0 0 0-5.174-3.017 18.76 18.76 0 0 0-5.605-1.724l-4.311-.862a28.68 28.68 0 0 1 9.701 1.724l-3.665-1.509a1.51 1.51 0 0 1-1.293-.431c4.894 1.033 9.43 3.337 13.149 6.682.017-.702-.212-1.388-.647-1.94-.431-.647-1.508-1.078-2.37-1.724s-1.725-.862-2.587-1.509l-2.156-1.724h-.647c-.431 1.078-.862.215-1.293 0a14.88 14.88 0 0 0-3.234-1.509l-2.371-.431-8.839-1.509a14.01 14.01 0 0 1-4.096-.862l12.718 1.293v-.431h-1.078l-2.803-.431c-3.545-.762-7.153-1.195-10.778-1.293a53.25 53.25 0 0 0-10.132.431c-2.694.294-5.361.799-7.976 1.509l-5.82 2.371c-3.234 1.509-6.899 2.371-10.132 3.664l-5.605 2.371a32.99 32.99 0 0 0-6.467 4.095l-4.311 3.664c-.407.543-.768 1.12-1.078 1.724l1.94-1.078c.216-.215.431-.215.431 0 .057 0 .112.023.153.063s.063.095.063.152-.023.112-.063.152-.096.063-.153.063l-1.293 1.078c-.431.431 0 .647.215 1.078s.432-.215.432-.431c1.687-1.902 3.487-3.701 5.389-5.388a11.64 11.64 0 0 1 6.251-3.664h.647c1.23-1.06 2.61-1.932 4.096-2.586a49.15 49.15 0 0 1 9.485-3.233c.904-.291 1.864-.365 2.802-.216-4.916.97-9.645 2.716-14.012 5.173-1.115.548-2.077 1.362-2.802 2.371-.328.467-.775.839-1.294 1.078-1.083.519-2.096 1.17-3.018 1.94 0 .215-.216.431 0 .647h.431l2.802-1.078a12.94 12.94 0 0 1-2.371 1.293c-.216.216-.647.216-.647.647s.215.647.431.862l.647-.431a45.7 45.7 0 0 1 7.976-5.173c1.012-.686 2.234-.991 3.449-.862.647 0 1.294.216 1.725-.215l5.82-1.509c.216 0 .431-.215.431.216l-1.078.431-3.449 1.293a31.26 31.26 0 0 0-6.252 2.371c-2.371 1.509-4.527 3.233-6.898 4.526l-1.078.862c-.216.216-.431.431-.216.647s.216 0 .431 0l2.587-.647-2.372 1.293c-.431 0-.646.216-.215.647s0 .431-.216.431-.216 0-.216-.215-.431-.431-.862-.216c-1.324.431-2.564 1.087-3.665 1.94-.662.633-1.48 1.08-2.371 1.293-.647 0-.431.431-.215.862l1.293 1.94c.431.647.647.646 1.078.215a54.97 54.97 0 0 1 9.27-6.466c2.93-1.491 6.048-2.578 9.27-3.233h.647l-.432.431a4.74 4.74 0 0 0-2.371 1.078 6.47 6.47 0 0 1-2.371 1.293c-1.771.67-3.386 1.697-4.742 3.018 0 .215-.431.862-.862.431s-.431-.216-.863 0l-6.682 4.742c-.216.431-.216.431 0 .862a2.37 2.37 0 0 1 .862 1.078l-.647-.431c-.862-.862-.862-.862-1.725 0l-2.371 2.155c-1.548 1.476-2.989 3.061-4.311 4.742-.216.431-.431.647-.216.862l1.294 2.371c.216.431.431.431.862.431v.862c-.431-.647-.862 0-1.293.216s.431-.862.215-1.293l-.862-.862c-.216-.431-.431-1.078-.863-.862s-.431.862-.431 1.509-.215.431-.215.862-.431.647-1.078.431-.431-.216-.647.216-.216.647.215.862l.432.862c.216.431.431.647 1.078.431s.862-.216 1.509-.216.215 0 .215.216 0 1.078-.431 1.293a.43.43 0 0 0-.146.323.43.43 0 0 0 .146.323c-.216.216-.647 0-.647.431l-2.156 3.017h.216a11.21 11.21 0 0 0 2.156-2.371c.647-.431.647-.647.431-1.293s.431.647.863.215l5.82-5.388 2.587-2.586 3.665-4.095c.694-1.015 1.572-1.892 2.587-2.586l2.803-2.371c.431-.216.216-.647 0-1.078s-.431-.215-.862 0l-1.725 1.078-4.742 3.664c-.647.647-1.94.647-2.587 1.509-.586.771-1.235 1.492-1.94 2.155v-.431l4.311-4.526a14.66 14.66 0 0 1 4.958-3.88c1.509-.647 1.509-1.078 1.294-1.94s.431.647.646.431 2.156-1.078 2.587-2.155l1.293-.862 1.078-.431c.431-.216.647-.431.431-1.078s-.647-.431-1.078-.216h-.215a28.46 28.46 0 0 1 8.407-2.155c-.862 0-1.078.647-1.725 1.078l-3.665 2.155a1.08 1.08 0 0 0-.427.291c-.117.131-.2.287-.242.457s-.043.347-.002.517a1.08 1.08 0 0 0 .24.458c.216.216.216.431.216.862a1.08 1.08 0 0 0-.432-.862c-.216-.647-.431-.647-.862-.216s-3.018 1.94-4.527 3.233-.431.647-.215 1.078.646.215.862 0c.444-.161.823-.464 1.078-.862 1.236-.995 2.618-1.795 4.096-2.371.215-.431.647-.215.862-.431l-.431.647a.86.86 0 0 0 .215.647v.647c-.862-1.293-.862-1.293-1.94-.431l-2.371 1.724c-1.294.862-1.293.862-.431 2.371s.431.216.431.647v.431c-.216.647.216 1.078.863.862l1.94-.862a3.88 3.88 0 0 0-1.293 1.94.43.43 0 0 0-.146.323.43.43 0 0 0 .146.323c.459.243.835.618 1.078 1.078 0 .431.215.215.431 0s2.371-1.94 3.665-2.586.216-.215.216-.431l-1.294-1.94c-.216-.647-.431-.431-.862-.216l-1.94 1.509.431-.647 3.018-2.155c1.062-.911 2.218-1.706 3.449-2.371.431-.216.863-.431.432-1.078s.862.647.862 1.293-.862-.215-1.294.215l-3.449 2.155c-.431.431-.647.647-.216 1.293.412.421.709.94.863 1.509.216.862.647.647 1.078.216.444-.162.823-.464 1.078-.862.216 0 .431-.216.646 0s0 .431 0 .647l-.862.862c-.215.431-1.078.431-.647 1.078s.647-.431 1.078-.431-.431.431-.647.647.216 1.293.431 1.724.646 0 .862-.216l2.803-2.155c.216-2.155.647-2.155.647-2.586zM30.339 89.265c-.264-.103-.555-.117-.827-.039s-.512.243-.682.47l-1.725 2.155c-.431.647-1.078 1.078-1.078 1.94l1.94-1.94c-1.129 1.423-2.138 2.937-3.018 4.526.679-.46 1.264-1.045 1.725-1.724l3.234-3.88c.431-.647.647-.862.431-1.509s.431.431.862 0l1.509-1.724c1.964-2.405 4.051-4.707 6.252-6.897h.647c-1.078 1.293-2.371 2.371-3.233 3.664s-.647.647 0 .862 1.509 1.509 2.371.215-.862 1.078-.431 1.724-.431-.647-.862-.215-1.078.862-1.294 1.509c-.523 1.07-1.256 2.023-2.156 2.802-.216.216-.431.216-.216.647s.647.216 1.078 0a2.8 2.8 0 0 1 1.294-1.509c0 .862-.647 1.293-.862 1.94s-.431.431 0 .647.431.647.862.216 2.802-2.586 4.311-3.88.431-.431 0-.647l-2.156-1.509h.862a49.8 49.8 0 0 1 4.096 3.017c.431.431.862.431 1.293-.215a5.82 5.82 0 0 1 1.725-1.509 7.76 7.76 0 0 1-1.509 2.155c-.216.216-.431.431 0 .431l1.725 1.509c.431.216.647.216 1.078-.215.896-1.11 1.907-2.122 3.018-3.018.431-.431.431-.647 0-1.078s-2.802-2.155-4.311-3.449a32.34 32.34 0 0 0-2.803-2.371c-.87-.549-1.607-1.285-2.156-2.155-.647-.431-1.078-.647-1.509 0 .647-.862-.431-1.078-.647-1.293s-.647-.216-1.078 0l-6.251 5.819c-1.046.999-1.92 2.165-2.587 3.449.862-.647 1.293-1.509 2.371-1.94l-1.078 1.509c-.647.216-1.078.862-.215 1.509zm16.599-5.604c-.216-.431.215-.647.431-.862l1.078-1.078a46.78 46.78 0 0 1 7.761-6.897c.431-.431.431-.647 0-1.078s-.862-1.078-1.725-.216l-.862.647-2.802 2.155 2.587-2.371c1.725-1.509 1.725-1.509.216-3.233a.43.43 0 0 0-.432-.431.43.43 0 0 0-.431.431l-4.527 3.448-6.252 4.957c-.862.647-.862.647 0 1.293a23.07 23.07 0 0 0 3.449 3.017 1.51 1.51 0 0 0 1.725.431c-.431.431-.647.647 0 .862l3.665 3.233a.86.86 0 0 0 .754.445c.154 0 .306-.041.438-.119a.86.86 0 0 0 .316-.325l3.234-2.587a32.99 32.99 0 0 1 3.449-2.371l1.509-.862-4.958 3.88-3.234 2.371s-.431.431-.216.647.431.431.863.215.216-.215.647 0-.216.647 0 1.078l3.449 2.371c.647.431 1.294.647 1.725-.216h.216c-.862.862-.863.862.215 1.509l.431.431c.431.216.431.216.863 0 .992-1.492 2.231-2.804 3.665-3.88.431-.216.431-.431.216-.647l-.432-.647c.647.431 1.294.862 1.941 0s-.647.647-.216 1.078c.112.2.262.375.443.515s.387.244.608.304.451.076.678.046.445-.104.643-.219c.77-.508 1.491-1.085 2.156-1.724.216-.215.215-.431-.216-.647l-4.096-3.88c-.647-.647-1.078-.647-1.509-.216h-.647c0-.215 0-.215.215-.431s.647-.647.216-1.293c-.534-.315-.979-.76-1.294-1.293a.86.86 0 0 0-.292-.216c-.111-.05-.232-.076-.355-.076a.86.86 0 0 0-.355.076c-.111.05-.211.124-.292.216l-.863.431.863-.647c.431-.215.646-.431.215-.862s-.431-.862-1.078-.215c-1.457.956-2.827 2.038-4.096 3.233-1.509 1.078-3.018 1.94-4.527 3.233l-.862.431h-.431c-.216-.215 0-.215.215-.431a8.19 8.19 0 0 1 2.156-2.586 75.43 75.43 0 0 1 6.467-5.173c.431-.216.216-.647 0-.862s-1.078-1.078-1.293-1.724-.431-.431-.863-.216c-1.098.862-2.25 1.654-3.449 2.371-1.411.581-2.72 1.381-3.88 2.371l-3.233 2.802zM29.262 20.079l1.293-.646h.863a.43.43 0 0 1-.431.431c-1.543.674-2.775 1.906-3.449 3.448-.216.216-.431.647-.862.862-1.038.742-1.98 1.611-2.803 2.586 1.078-.216 1.078 0 .647.647s0 .216 0 .431h.431a25.43 25.43 0 0 1 2.803-3.88c1.293-1.293 2.371-2.802 3.665-3.88.882-.719 1.819-1.367 2.803-1.94 1.878-1.491 3.899-2.791 6.035-3.88a9.27 9.27 0 0 1 5.174-1.293 13.15 13.15 0 0 0 4.096-.216c.862-.215 1.724-.647 2.587-.215s1.509-.216 2.371-.216h-.431c-.216 0-.431.216-.647-.216h3.018c0-.431-.647-.647-.431-.862s.647-.216 1.078-.216l3.018.431c.862 0 1.293.647 1.94.647h3.88a1.94 1.94 0 0 0 1.509-.647c-.216-.216-.647 0-.647-.431s.431-.216.647-.431h2.371c.338-.155.706-.235 1.078-.235s.74.08 1.078.235l4.527.862c.216 0 .647 0 .647.431s-.431.216-.647.216h-1.293c.431.216.862.216.862.647s-.647 0-1.078.216h-.216c.237.212.544.329.863.329s.625-.117.862-.329a1.08 1.08 0 0 1 1.294-.216c.127.156.303.262.5.302s.401.009.578-.086c0-.431-.647-.647-.431-.862s.647 0 1.078 0a12.71 12.71 0 0 0 3.018 1.293 3.88 3.88 0 0 1 2.156 2.371c-.216.216-.647-.431-.862.216s2.156 1.293 3.665 1.293l-1.509-1.293c-.216-.216-.431-.431-.216-.647a.4.4 0 0 1 .647 0l1.725 1.078c-.216-.647-.216-.862.862-1.078l-1.294-.431c-1.113-.338-2.195-.77-3.234-1.293-.431 0-1.077-.431-.646-.862s.647 0 .862.216a5.39 5.39 0 0 0 3.018.862 9.7 9.7 0 0 0-4.958-2.802c-.431-.216-.647-.216-.647-.647s.431-.431.862-.431c.55.082 1.07.305 1.509.647a7.76 7.76 0 0 1 3.88 3.017 11.21 11.21 0 0 0 3.449 3.018l1.078.862c2.156 1.724 3.88 4.095 6.036 6.035a16.38 16.38 0 0 1 1.724 2.371c.085.25.227.477.414.664s.414.328.664.413c-.341-.973-.774-1.911-1.293-2.802-.53-.816-1.185-1.543-1.941-2.155-.216-.431-.431-.862-.215-1.078s.647 0 1.078.216l1.94 1.94-1.94-2.802-1.078-.862a14.01 14.01 0 0 1-3.449-2.802 10.56 10.56 0 0 0-3.018-2.371c-.216-.216-.431-.431-.647-.216s-.862.216-1.078-.216a17.89 17.89 0 0 0-3.88-2.802l-3.665-1.724c-.647-.216-.647-.647-.216-.862s.216-.431 0-.647l-6.682-2.586-5.389-1.724c.431.862 1.078.862 1.725 1.078a22.85 22.85 0 0 0 4.527 2.371c.216 0 .647 0 .431.431s-.431 0-.646 0-1.078-.431-1.725-.647a25.87 25.87 0 0 0-13.15-3.88c-.86-.246-1.78-.169-2.587.216-.215.216-.431.647-.647 0s-.216-.647.431-.862h.863a73.09 73.09 0 0 0-9.701-.431l-3.665.431c-2.978.293-5.932.797-8.839 1.509-.215 0-.647 0-.431.431s.215 1.724.431 2.371.647 1.509.431 2.371-.215-.216-.215-.431c-.596-1.255-1.1-2.552-1.509-3.88-.216-.647-.431-.647-.862-.431s-.431.431-.216.647l.647 1.724c0 .216.215.431 0 .647s-.431-.216-.647-.431l-.646-1.293c-.647-1.078-1.078-1.078-2.156-.431s-4.527 3.017-6.899 4.095-.431.431-.215.862c.453.895.814 1.834 1.078 2.802.114.029.213.101.273.203s.079.222.05.336-.101.213-.203.273-.222.079-.336.05a20.04 20.04 0 0 0-1.078-2.155c-.862-1.724-.862-1.724-2.371-.647s-.431.216-.216.431a4.31 4.31 0 0 1 1.078 1.94c.215.216.431.647.216.647s-.431-.216-.647-.216l-1.294-1.724c-.431-.647-.862-.431-1.293 0l-1.509 1.724A14.44 14.44 0 0 1 15.25 16.2c1.275.919 2.25 2.193 2.803 3.664a27.39 27.39 0 0 0-2.802-2.371c-.647-.431-1.078-.215-1.294.431s-.215.431.216.431c.659.305 1.247.746 1.725 1.293a3.88 3.88 0 0 1 .862 1.94l-.862-.431c-.55-.812-1.29-1.478-2.156-1.94-.431-.215-.647-.215-1.078.216s-2.802 3.664-4.311 5.604a6.25 6.25 0 0 1 3.88 2.586H11.8l-3.88-1.94h-.215l-.647.862c0 .431.431.431.647.647 1.305.536 2.481 1.344 3.449 2.371h-.646c-1.138-.685-2.374-1.194-3.665-1.509H5.98c-.344.518-.565 1.108-.647 1.724-.216.431-.216 1.078-.647 1.509-.849 1.371-1.365 2.921-1.509 4.526 0 1.293-.215 1.293 1.294 1.509 1.289.09 2.507.623 3.449 1.509-.251.082-.518.105-.779.068s-.511-.134-.729-.283a10.78 10.78 0 0 0-3.665-.431c-.647 0-.431.647-.431 1.078s-.216.862.215.862c1.484-.046 2.959.249 4.311.862.431 0 .647 0 .863-.431l2.802-3.88c.647-.862 1.725-1.724 1.078-3.017v-.431c1.078-1.509 1.94-3.018 3.018-4.311s.431-.431.647-.215a.43.43 0 0 1 .146.323.43.43 0 0 1-.146.323 6.25 6.25 0 0 0-1.294 2.371l1.078-1.078c.431-.216.647-.431 1.078 0s0 .647-.431.862-4.096 3.017-4.527 5.819-.431.647-.862.431-.647.431-.862.647c-1.355 1.707-2.313 3.695-2.803 5.819-.214-.629-.214-1.311 0-1.94a.43.43 0 0 0 .146-.323.43.43 0 0 0-.038-.177c-.025-.056-.062-.105-.108-.146-.216-.215-.431.216-.431.216s-1.293.647-2.156.647-.862 0-.647-.647.431-.216.862-.216h.431l-2.156-.431-.431.431c-.431 1.94-.647 4.095-1.078 6.035s0 .647.647.431a14.23 14.23 0 0 1 3.018.216c.216 0 .432 0 .432.215s-.216.431-.432.431h-1.94c-1.94.215-1.94.431-1.509 2.155s.216.862.647.862H4.04c.862.216 1.724 0 2.587.647s-.862 0-.431.647 0 .431-.432.431a6.9 6.9 0 0 0-3.018.647c-.647.215-.647.431-.431.647.582 1.068.948 2.239 1.078 3.449.216.431.431.647 1.078.431a11.86 11.86 0 0 1 3.88-.431c.216 0 .646 0 .646.431s-.215.215-.431.215c-1.272.159-2.509.523-3.665 1.078-.862.215-1.078.431-.862 1.509s.215.647.646.431a5.39 5.39 0 0 1 2.371-.862c.489-.181 1.012-.255 1.532-.218s1.027.185 1.486.434l-1.293.431a6.68 6.68 0 0 0-3.665 1.509 1.08 1.08 0 0 0-.327.61c-.039.234 0 .474.112.683l1.725 3.233c1.267 2.128 3.045 3.906 5.173 5.173 0 0 .431.215.431 0l.647-2.371c0-.431-.431-.431-.431-.647-.435-.524-.798-1.104-1.078-1.724 0-.431-.431-1.078 0-1.509a3.88 3.88 0 0 1 1.078 1.509l.647.431c.431 0 .215-.431.431-.647s0-.431-.216-.431c-.509-.669-.942-1.391-1.293-2.155-.216-.216-.216-.431 0-.431s.431 0 .647.215 0 .647.431.647 0-.647-.216-1.078 0-.647.216-.647.431.215.647.431.215 1.078.646.862-.215-.862-.215-1.293v-.431c-.794-1.339-1.376-2.793-1.725-4.311a6.25 6.25 0 0 1-.216-2.802c.431-.862 0-1.293-.431-1.94s-1.94-2.371-1.509-3.88-.216-.862.431-.862a1.08 1.08 0 0 1 .431.862c-.022.583.051 1.165.216 1.724a4.74 4.74 0 0 0 .216-1.724 23.71 23.71 0 0 1-.432-3.88.43.43 0 0 0-.431-.431c-.431 0-.431.215-.431.431-.178.704-.251 1.43-.216 2.155 0 .431-.215.647-.431.647a.86.86 0 0 1-.215-.647c.216-.215 0-.431 0-.647a12.93 12.93 0 0 1 1.724-6.25c.431-.647 1.294-1.078 1.725-1.94.656-1.536 1.608-2.927 2.803-4.095.647-.647.862-1.724 1.509-2.586s-.646 0-.862.216-1.725 2.371-2.802 3.449a12.07 12.07 0 0 0-3.234 5.819c0 .431-.431.862-.647.647s-.431 0-.647.216c-.822 1.669-1.122 3.546-.862 5.388 0 .216 0 .431-.216.431s-.431 0-.646-.215v-.647a8.19 8.19 0 0 1 .646-3.88c1.009-2.736 2.466-5.286 4.311-7.544a8.19 8.19 0 0 0 2.372-3.017 2.37 2.37 0 0 1 1.509-1.293c.647-.431 1.078-.647.863-1.724l.646.862c.431 0 .647.647 1.294.216s.215-.862 0-1.293-1.725-1.94-2.587-3.233-.216-.647.431-.862-1.293-1.293-1.509-2.155-.216-.215 0-.431h.431c.216.216.216.216.216.431l3.018 3.017c.215.216.431.431.647 0a.43.43 0 0 0 .146-.323.43.43 0 0 0-.146-.323l-.863-1.078a16.6 16.6 0 0 0-4.096-3.664c-.216-.216-.862-.647-.431-.862s.431.216.862.216c0-.216-.216-.216-.431-.431s-.431-.431-.216-.647.431 0 .647.216l4.096 3.233c.431.431.431 1.509 1.078 1.293s1.077-.647 1.724-1.078.216-.431.432-.215 0 .431-.216.431l-1.725 1.94c.431.215.647-.431.863 0s-.216.431-.432.647c-.431.216-.216.431 0 .647s.647.431.863 0l.647-.647c.431-.647 1.293-.216 1.724-.862s2.371-1.724 2.803-3.017 1.725-1.724 2.371-2.586v-.862zm32.982 12.285c-.647 0-1.294.431-1.94.216l-.431-.431.431-.431h.431c2.782-.43 5.593-.646 8.407-.647a2.37 2.37 0 0 0 1.94-.647 35.36 35.36 0 0 0-8.192-.431 15.95 15.95 0 0 0-4.527.215c-.216 0-.431 0-.431-.431h.431l2.587-.431a67.7 67.7 0 0 1 11.425.647l-1.725-.647c-2.764-.573-5.599-.718-8.407-.431l-7.33.431h-.647c-.216-.431.216-.431.647-.431h10.132c2.173-.02 4.341.197 6.467.647.862.215 1.724.215 2.156.862s.431.647.863.431a68.99 68.99 0 0 1 9.485.216 73.33 73.33 0 0 1 9.916 1.293h1.509c.216 0 .431 0 .431-.431s0-1.078-.862-1.078-.647-.431-.863-.647a3.88 3.88 0 0 0-.862-2.155l-2.802-3.017c-.388-.607-.902-1.121-1.509-1.509l-.647-.431c-1.181-1.437-2.65-2.612-4.311-3.448-2.293-1.562-4.668-3.001-7.114-4.311a13.15 13.15 0 0 0-5.173-1.509l-5.389-.431H60.95a42.45 42.45 0 0 1-5.173.647l-4.311.862a25.88 25.88 0 0 1-6.899 1.293c-.924.09-1.82.365-2.635.81a6.9 6.9 0 0 0-2.108 1.777l-.647.647a17.67 17.67 0 0 0-4.311 2.586l-1.509 1.293c-1.996 1.597-3.74 3.487-5.173 5.604a14.01 14.01 0 0 1-6.467 5.388l-.647.431c-1.078.431-1.078 1.509-1.725 2.155-.982 1.051-1.523 2.441-1.509 3.88v.647a25.86 25.86 0 0 1-2.372 4.957c-.431.647-1.078 1.293-.862 2.155.111 1.309.327 2.606.647 3.88.259 1.319.619 2.616 1.078 3.88l1.293 3.017c.216.431.216.431.647.216a21.56 21.56 0 0 0 3.234-3.018c.216-.215.431-.647-.215-.862s-.647-.431-.863-.647-.215-.862.216-.647.646-.215.862-.431c.458-.779.611-1.701.431-2.586a18.54 18.54 0 0 1-.215-3.449c-.358-1.845-.502-3.726-.431-5.604 0-.647 0-1.293.431-1.509a5.82 5.82 0 0 1 2.371-2.155c1.142-.599 2.166-1.403 3.018-2.371l1.94-3.017c1.247-1.747 2.616-3.404 4.096-4.957a9.05 9.05 0 0 1 3.449-2.371c1.552-.531 3.136-.963 4.743-1.293a23.5 23.5 0 0 0 6.899-2.155 6.47 6.47 0 0 1 3.449-1.078l5.389-.862c1.764-.557 3.565-.989 5.389-1.293l5.82-.431c1.784-.138 3.554.4 4.958 1.509.431.647.431 1.078-.215 1.293a29.54 29.54 0 0 1-9.485 2.586l4.527-1.293 4.311-2.155c-1.509-1.078-9.27-1.078-11.425 0h.647c.216.216.431.216.431.647h-.647c-.932-.243-1.919-.167-2.803.216a39.24 39.24 0 0 0-6.467 2.371c-.431.216-.431 0-.431-.431a1.08 1.08 0 0 1 .114-.482c.075-.15.184-.28.317-.38l1.078-.431c-1.513-.082-3.015.294-4.311 1.078a22.85 22.85 0 0 1-5.389 1.94c-2.058.298-4.08.804-6.036 1.509a16.17 16.17 0 0 0-5.605 4.526 32.12 32.12 0 0 0-3.234 4.311c-1.078 1.293-1.94 2.802-3.449 3.449l-1.724 1.078a3.45 3.45 0 0 0-1.294 3.449c.216 2.155.646 4.526.862 6.897.213 1.469-.011 2.969-.646 4.311-.216 0-.216.215 0 .215.098-.219.247-.412.434-.562a1.51 1.51 0 0 1 .644-.301 6.25 6.25 0 0 0 2.371-2.371c1.617-2.622 3.743-4.894 6.252-6.681l2.156-1.509h.646l-.431.431-.647.431c-1.966 1.394-3.649 3.149-4.958 5.173-.431.431-.647.862-1.078 1.078.255.033.515-.011.745-.126s.421-.297.548-.521a14.44 14.44 0 0 1 3.018-3.233c1.583-1.122 3.03-2.424 4.311-3.88l1.078-1.078a18.97 18.97 0 0 1 4.096-2.586h-.431c-.431.215-.647.215-.647-.215s.215-.431.431-.431l1.294-.647 5.389-2.802c.431 0 .646-.431 1.293 0a34.28 34.28 0 0 0-4.742 2.802c3.112-.923 6.28-1.643 9.485-2.155-.216.431-.862.431-1.078.862a52.82 52.82 0 0 0 9.701-4.311zM29.693 55.211c0 .057-.023.112-.063.152s-.095.063-.153.063c-1.127 1.052-2.354 1.99-3.665 2.802l-3.88 3.233c-.281.155-.523.372-.709.633s-.312.56-.368.876c1.293-.647 1.94-1.724 3.233-1.94s1.509-1.293 2.372-1.94l1.509-1.078c.216.215.216.215 0 .215l-3.449 3.233c-.431.431-.647.647-.216 1.078l.647.862c0 1.293.862 2.155 1.293 3.233s.431.431.647 0a12.93 12.93 0 0 1 1.725-1.724c.431-.431.647-.862 1.294-.862l-.647.647-2.156 2.371c-.116.131-.198.288-.24.458a1.08 1.08 0 0 0 .244.974c.117.13.263.231.427.291.431.431.646-.215.862-.647a71.35 71.35 0 0 1 5.821-5.604c1.078-1.078 1.078-1.078.215-2.371l-.862-1.078c-.215-.431-.431-1.078-1.078-1.293s-.431-.216-.431-.647-.216-.647-.432-.647-.431.216-.646.431c-.11.191-.267.35-.455.463s-.403.176-.623.184c.431-1.509 1.293-2.802.215-4.095a6.68 6.68 0 0 1-1.94 1.509c-.647.431-.863.431-1.294-.431l-2.156 1.509a3.02 3.02 0 0 0-1.725 1.509 6.25 6.25 0 0 1-2.371 2.371c-.404.341-.703.789-.863 1.293a4.74 4.74 0 0 1-1.724 2.802c-1.281 1.284-2.113 2.947-2.371 4.742h.216c1.317-1.889 2.757-3.689 4.311-5.388 0-.215.431-.647.215-.647s-.216-.647 0-.862a77.37 77.37 0 0 1 7.114-5.388c.636-.556 1.366-.993 2.156-1.293zm13.15 13.148c-.647-.647-.647-.216-1.078.216a49.37 49.37 0 0 0-4.958 4.526l-6.036 7.113-1.94 3.017h.431c2.156-2.371 4.096-4.526 6.251-6.466s1.724-1.293 3.665-.862l-.646.647c-.216.216-.647.431-.216.862l1.725 1.509c.431.215.646.215.862-.216l1.078-1.293 6.036-4.742 3.665-3.233c.216-.216.647-.216.431-.647s-.646-1.293-1.293-1.509h-.216c-.607.387-1.121.902-1.509 1.509l-3.234 2.371c-.431.431-.647 0-1.078-.216s.215-.647.431-.647l.863-.862a13.58 13.58 0 0 1 2.371-2.586c.431-.431 1.509-.647 1.294-1.509s-.647-1.078-1.078-1.724h-.216c-.216-.215-.216-.431-.647 0-1.483 1.409-3.068 2.705-4.742 3.88-.431 0-.431.431-.215.862zM57.07 98.533c-.431.862 0 1.078.647 1.293s.646-.431.862-.647.431-.647.647-.431 0 .431-.215.647-.431 1.078.646 1.294l1.294.431c.431.215.647.215.862-.216l1.941-2.155c1.078-1.509 1.294-1.078-.431-1.94-.647-.647-.862-.215-1.294 0a22.64 22.64 0 0 0-1.509 2.371c0 .216-.216.647-.647.431s0-.647 0-.862l1.509-1.94c.647-.647.431-.862-.215-1.293-1.537-.684-2.985-1.552-4.311-2.586-.647-.431-1.293-1.078-2.156-.862h-.216c.216-.862-.862-1.078-1.294-1.509s-.647-.216-1.078 0c-1.047.975-1.986 2.058-2.802 3.233-.216.216-.647.647 0 .862s.862 1.293 1.724.431c.882-.719 1.819-1.367 2.803-1.94.216-.216.431-.216.431 0s.431.216.216.431-.216.647-.647.862a5.82 5.82 0 0 1-1.725 1.509c0 .216-.431.431 0 .862.647.487 1.378.852 2.156 1.078.431.215.862-.431 1.294-.647h.216c.215.647-1.294.647-.647 1.293s1.078.647 1.94 0zm25.222-40.736l-5.82.647a24.58 24.58 0 0 0-5.605 1.94c-.431.216-.647.431-.432.647s.431.431.863.431c1.445-.629 2.967-1.063 4.527-1.293l4.958-.862a5.39 5.39 0 0 1-2.371.862c-.647.215-1.294.215-.863 1.293s-.646-1.078-1.293-.862l-4.311 1.078c-1.078.431-1.078.431-.647 1.509l.647 1.724a1.08 1.08 0 0 0 1.078.647l4.096-1.724c.647-.215.862-.431.647-.862s0-.862.431-.862v.431c.216.647.431.862 1.294.646l4.527-1.293c.216 0 .216 0 .216-.216s0-.431-.216-.431h-.647c.647 0 .647-.431.647-.862-.248-.841-.393-1.71-.431-2.586-.215-.431-.431-.647-.862-.431l-4.958.647c-.215 0-.431 0-.431.431 1.637-.323 3.293-.538 4.958-.647zM65.046 68.359c.215.431.431.647.863.431l5.605-2.802c.216-.216.647-.216.431-.647-.45-.821-.812-1.688-1.078-2.586l-.432-.431c-.891.52-1.829.953-2.802 1.293l-5.605 3.664-2.156 1.724c-.216.216-.431.647 0 .862l1.078.862h.647l2.803-1.509c.431 0 .862-.215.646-.862zm.863 15.087l.647.647c.08.428.287.822.595 1.129s.701.515 1.129.595l.432.431a3.88 3.88 0 0 0 2.156 1.94c.216.215.216 0 .431-.216l2.371-1.724c.431-.431.647-.647 0-1.078l-4.096-3.664c-.216-.431-.647-.216-.862 0l-1.725.862c-.431.215-.647.647-1.078 1.078zM38.1 94.007c-.431.431-.431.647 0 1.078l.647.431c.216.431.431.216.863 0s2.155-2.802 3.449-3.88.431-.647-.215-1.078l-1.294-1.078c-.431-.431-.862-.216-1.078.215l-3.449 3.449c-.216.216-.646.431-.215.862s.862.647 1.293 0zm5.174 2.586c.431.215.647 0 .647-.216a5.82 5.82 0 0 0 1.509-1.724c1.293-1.293 1.293-1.293-.216-2.371l-.862-.647h-.647c-.998 1.096-1.934 2.247-2.803 3.448-1.078 1.078-1.078 1.293.216 2.371a1.08 1.08 0 0 0 .976.239 1.08 1.08 0 0 0 .749-.67l.431-.431zM24.088 67.065l-1.509 1.724c-.647.647-1.294 1.293-.647 2.371s.431.862 1.078.216l1.94-1.94c.214-.129.397-.302.537-.508s.234-.44.275-.686.028-.498-.037-.738-.183-.464-.343-.654a6.68 6.68 0 0 1-1.078-2.155c-.215-.431-.431-.216-.647 0l-2.156 2.371-1.078 1.078c-.431.431-.216.647 0 .862s.647 0 .863-.216l1.078-1.293c.216.431-.216.647 0 .647s.646-1.078 1.724-1.078zm85.367-11.423c.431-.647.862-1.078.215-1.94-1.648-2.551-3.861-4.69-6.467-6.25a8.41 8.41 0 0 1-3.018-1.724c-.946-.56-1.96-.994-3.018-1.293-.431-.216-.431.216-.647.431s0 .647.431.647c1.799.617 3.533 1.411 5.174 2.371a18.75 18.75 0 0 1 4.527 3.664c1.357 1.022 2.342 2.46 2.803 4.095zm-22.204 3.88h.863c.216 0 .646.215.646-.216s-.215-.431-.646-.431h-.216c.431 0 .862 0 .647-.647s-.431-.647-.863-.647h-1.078c.216-.215.432 0 .432-.431h-2.803c-.431 0-.431.216-.431.647a10.77 10.77 0 0 1 .431 2.586c.216.647.431.647 1.078.647h3.018c.215 0 .647.216.431-.431s0-.431-.431-.647l-1.078-.431zM65.046 97.024c.431-.216 1.078-.216 1.294-.647.768-.764 1.638-1.417 2.587-1.94 1.078-1.078 1.078-.862-.215-1.724s-.862-.862-1.294-.647a33.19 33.19 0 0 0-4.096 3.664c-.215.216-.215.216 0 .431l1.724.862zm17.461-28.666l2.371-.431c.431 0 .862 0 .646-.647s0-.862-.862-.862l-3.449 1.078c-1.293.431-1.293.647-.646 1.94s.647 1.293 2.156.862l2.371-.647a1.08 1.08 0 0 0 .863-.431h-1.078c0-.057.023-.112.063-.152s.095-.063.152-.063c.431 0 .862-.216.647-.647s-.431-.216-.862-.216l-2.371.216zM74.1 98.318l-.431.647c-.647.431.216.647.216 1.078-.014.057-.017.115-.008.173a.44.44 0 0 0 .058.163.45.45 0 0 0 .116.129c.047.034.1.06.157.074a.44.44 0 0 0 .173.008c.058-.008.114-.028.164-.058s.094-.07.129-.117a.44.44 0 0 0 .074-.157 6.89 6.89 0 0 0 2.156-2.155c.216-.215.647-.215.432-.647s-.647-.431-1.078 0-.431.431-.862.431-.431.431-.647.215.216-.431.216-.647.862-.431.216-.862-1.293-1.078-1.725-.647a11.64 11.64 0 0 0-3.234 3.233c1.94.647 1.94.647 3.234-.647s.216-.431.647-.216zm21.988-49.573c.216.431.647.431 1.078.431 2.583.534 5.014 1.638 7.114 3.233l2.371 1.94.431.431c-.647 0-.431.431-.862.647-.114 0-.224-.045-.305-.126a.43.43 0 0 1-.126-.305c-.185-.364-.46-.675-.8-.901s-.733-.361-1.14-.392c-.216 0-.647-.431-.647 0s0 .647.431.862 2.371 1.078 3.018 2.155h.431a1.72 1.72 0 0 0 .647-1.724c-.519-1.083-1.17-2.096-1.94-3.017l-2.587-1.724a59.48 59.48 0 0 0-5.821-1.724l-1.293.215zm-1.94-.862h.647c.431.216.647 0 .863-.431s-.431-.647-.647-.862l-4.742-1.078c-.647 0-1.078.216-1.078.647s-.431.862.431 1.078h-.216c-.216.215-.431.431-.215.647s.215.431.431.431h4.311c.431 0 1.078.431 1.293 0s-.862 0-1.078-.431zM66.986 91.421h-.431l-1.078-.647H64.4c-1.258 1.115-2.413 2.341-3.449 3.664-.216.216-.431.216-.216.431s1.725 1.078 1.94.647l3.88-3.233c.216-.431.431-.431.431-.862zm1.509-10.777l-1.94-1.94h-.432c-1.078.216-1.724 1.078-2.587 1.509s-.431.647 0 .862a7.54 7.54 0 0 1 1.078 1.724c.216.431.431.647.863.215a12.93 12.93 0 0 0 2.802-1.94l.216-.431zm-11.209 23.277c.215.432 0 .647 0 .863s-.216.646.215.646.862.647 1.078.216l2.371-3.233c.215-.431 0-.647-.431-.647l-1.94-.862c-.431-.216-.647 0-.862.431a20.46 20.46 0 0 1-2.156 3.664c1.078.216 1.078.216 1.725-1.078zm19.832-20.475h.647l1.509-1.078c.647-.647 1.724-.647 1.509-1.509s-.862-1.078-1.293-1.509-.431-.431-.647-.216l-3.234 2.155c-.092.081-.165.18-.216.292a.86.86 0 0 0 0 .709c.05.112.124.211.216.292.431.216 1.078.431 1.293 1.078l.216-.216zM109.454 50.9c.072-.566-.063-1.14-.379-1.615a2.37 2.37 0 0 0-1.346-.971l-3.665-2.371c1.811.764 3.544 1.703 5.174 2.802a1.72 1.72 0 0 1 .514.672c.113.263.159.551.133.836-.432 1.078.431 1.724.862 3.017s.862-1.509 0-1.94a1.72 1.72 0 0 1-.431-1.078c.012-.316-.038-.631-.149-.927a2.36 2.36 0 0 0-.498-.797 13.58 13.58 0 0 0-4.958-2.586l-3.449-.862c-.674-.344-1.404-.563-2.156-.647 3.736 1.659 7.219 3.836 10.348 6.466zm-62.516 49.573l2.371-2.802c.431-.431 1.293-.647 1.078-1.293s-.863-.862-1.294-1.293-.862-.215-1.294.216a21.34 21.34 0 0 0-2.371 3.664 1.94 1.94 0 0 0-.647 1.078c.25-.085.478-.227.665-.413s.328-.414.413-.664c.647-.431 1.509.431 1.078 1.509zm27.808-19.398l3.449-2.155c.216-.216.862-.431.647-.862s-.647-.216-1.078-.216c.216-.216.647-.216.431-.862s-.647-.431-1.078-.216l-3.88 2.155c-.431.431-.431.647.216.862s.431 0 .862-.216c.795-.685 1.766-1.133 2.802-1.293l-1.94 1.078c-.647.431-1.509.647-.432 1.509v.216zm-17.03-13.579c.216-.431 0-.647-.216-.862a.43.43 0 0 0-.431.431l-2.802 2.155c-.431.144-.431.359 0 .647.431.431.863.862.863 1.293s.431.647.862.431l2.587-2.155c.215-.216.431-.431 0-.862s-.215-.862-.862-1.078zm11.425 35.779h.647l1.509-2.155c.431-.432.215-.647-.216-.863a4.52 4.52 0 0 1-2.371-.862h-.647c-.431 0-.647.215-.431.431s.216.862 0 1.294a9.23 9.23 0 0 0-.863 1.508c0 .216-.216.431.431.647h1.94zm38.156-56.685v-.431c-1.407-1.148-3.015-2.025-4.743-2.586a22.2 22.2 0 0 0-5.174-1.078h-.431c-.216.431 0 .647.431.647l1.94.647c2.724.736 5.39 1.672 7.976 2.802zM53.621 98.533l-2.156-1.509c-.431-.216-.647.216-.863.431s0 .431.216.647c.089.059.162.139.212.233s.077.199.077.306-.026.212-.077.306-.123.174-.212.233c-.862.862-1.078 2.155-1.725 3.017s0 .647.431.862.431.216.647-.215c.694-1.448 1.73-2.705 3.018-3.664l.432-.647zm22.85-6.682h.431c.647-.216.862-.862 1.078-1.078s1.509-.431 1.294-1.293-.863-.647-1.294-1.078h-.215c-.431-.431-.647-.431-1.078 0l-2.371 1.724c-.216 0-.216.431 0 .431l2.156 1.293zm9.485-42.891h-2.802c-.431 0-.647.215-.647.862s.215 1.078.862.862h4.311c.431 0 .647-.216.647-.431s0-1.724-1.078-1.724l-1.293.431zm-53.03 7.328l.647-.647 3.018-2.371 2.372-1.293c.647-.431.216-.862 0-1.293s-.431-.216-.863 0c-1.817.783-3.383 2.05-4.527 3.664-.431.431-.862.647-1.078 1.078s0 .647.431.862zm47.21 16.596c.216-.431.647-.215 1.078-.431s.432 0 .432-.431-.431-.431-.863-.431l-3.018 1.078c-1.509.431-1.509.431-.647 1.94h.216c0 .431.215.431.646.216l3.665-1.724c.216 0 .431 0 .215-.431s0-.431-.431-.431l-1.294.647zm1.94 5.388l1.94-.647c.216-.216.647-.216.431-.647s-.431-.647-.862-.431c-1.287.515-2.515 1.166-3.665 1.94-.216.215-.216.431 0 .431s.431.215.647.647l.862.647c.216.431.647.215.862 0s1.509-1.078 2.156-1.509.647-.215.432-.647-.431-.431-.647-.216l-2.156.431zm3.018 7.544h-.431c.216-.862-.647-.862-.862-1.293s-.431-.647-.863-.215l-2.371 1.509c-.647.431-.216.862 0 .862l1.293.862c.215.216.431.216.863 0l2.371-1.724zm-11.425 4.095h.431l1.724-1.509c.862-.647.863-.647-.215-1.509s-.647-.862-1.294-.216l-1.94 1.293c-.431.216-.647.431-.647.862l1.94 1.078zM24.303 75.256c0-.216 0-.431-.216-.431s-.646 0-.646.216l-2.803 3.233c-.647.647-1.294 1.293-.647 2.586s0 .431.431.431.215-.215.431-.431 2.156-3.664 3.449-5.388v-.216zm42.252 30.174a4.09 4.09 0 0 1-.216 1.724c0 .432.216.432.431.432h.431c.647-1.078 1.078-2.156 1.725-3.018s.216-.431-.215-.647-2.372-.431-3.018 1.078c-.375.652-.526 1.409-.431 2.155 0 .216 0 .432.216.432s.215-.432.431-.432.216-1.293.647-1.724zm6.682 1.078c-.216-.216.216-.431.216-.647s.431-.646.431-.862h-1.078c-.114 0-.224.046-.305.126s-.126.191-.126.305c-.216.862-.647 1.509-.431 2.371s.215.862.646.647h.863c.216 0 .431 0 .647-.431l.646-.863h.216c.216.216 0 .432.216.647s.216-1.724 1.078-2.371-1.94 1.078-3.018 1.078zM57.501 73.747h.216l2.587-1.724c.216-.215.216-.431 0-.862s-1.078-1.509-2.371-.431l-.863.647c-1.078 1.078-1.078 1.078-.215 2.155l.646.216zm12.288 7.113c.862.647 1.509.862 1.94 1.94s.431.647.862.215l1.509-1.078c.216-.216.431-.431 0-.862s-1.078-.647-1.294-1.293-.431-.431-.647-.431a8.84 8.84 0 0 0-2.371 1.509zm22.85-31.252h2.156a21.78 21.78 0 0 0-5.389-.862c-.216 0-.215.216-.215.431v1.078c-.216.431 0 .647.431.647h5.389c0-.431-.215-.431-.431-.431l-1.94-.862zM72.807 95.516c-.647-.647-1.293-1.078-2.156-.215l-2.156 2.155c-.216.431-.647.862-.216 1.078s1.294.862 1.725.216l2.803-3.233zm6.683-10.13l.646-.431 2.371-1.724c.057 0 .112-.023.153-.063s.063-.095.063-.152l-1.078-1.293c-.216-.215-.647 0-.863.216l-2.371 1.724-.432.431c.647.216.863 1.078 1.509 1.293zm14.227-31.683c0-.431.431-.215.431-.431l-3.88-.431c-.431.215-1.078 0-1.078.431s-.431.862.431 1.078c-.647.215-.216.431 0 .431h2.156c-.431-.328-.97-.482-1.509-.431h3.88c.216 0 .432 0 .432-.431s0-.431-.432-.431l-.431.215zM66.771 98.533c0-.216-1.078-.647-1.293-.431a9.48 9.48 0 0 0-2.803 3.018c-.216.215-.431.431 0 .646a2.8 2.8 0 0 0 1.558-.132 2.81 2.81 0 0 0 1.245-.945l.646-.863.647-1.293zm9.27-2.371h.647l1.293-1.293c.431-.431.216-.647 0-.862s-1.509-.862-2.587.215c-.383.173-.689.479-.862.862-.216 0-.431.216 0 .431l1.509.647zm-61.869-20.26h.431c.707-1.481 1.499-2.921 2.371-4.311.77-.893 1.49-1.828 2.156-2.802 0-.215.216-.431 0-.647s-.432 0-.432.216c-1.132 1.112-2.143 2.34-3.018 3.664-.784 1.166-1.299 2.491-1.509 3.88zm60.36 9.052c.862 0 1.94-.862 1.94-1.293-.46-.679-1.046-1.264-1.725-1.724a4.74 4.74 0 0 0-1.94 1.509 2.8 2.8 0 0 0 .701.939c.297.26.646.454 1.024.57zm-42.252-1.293c.613-.378 1.19-.811 1.725-1.293l4.096-3.88c.216-.216.431-.431 0-.862s-.431-.431-.862 0c-1.466 1.351-2.769 2.871-3.88 4.526l-1.078 1.509zm50.228-9.268h-.647c-1.126.299-2.212.733-3.234 1.293-.216.215-.647.215-.431.431s.215.862.862.647l3.665-1.293c.215 0 .862 0 .646-.647s-.431-.431-.862-.431zM32.064 90.343l.431-.431 3.88-3.664c.431-.431.431-.431 0-.862s-1.078-.215-1.294.216l-.862 1.078a36.85 36.85 0 0 0-2.372 3.017c-.216.216-.215.431.216.647zm69.414-29.959c-.216-1.078-.863-1.293-1.294-1.724-1.322-.749-2.796-1.191-4.311-1.293-.216-.216-.431-.216-.647.215s.216.431.647.431h.647l4.959 2.371zm-19.617 40.089c.215.647-.216.862-.431 1.293-.057 0-.112.023-.153.063s-.063.096-.063.153h.432c1.078 0 1.293-.862 1.509-1.509s.431-.647-.216-.862c-.057 0-.112-.023-.152-.063s-.063-.095-.063-.152c-.647-.216-1.078-.647-1.725.215l-1.078 1.293c0 .216-.216.431 0 .647s.431.215.647-.216a2.8 2.8 0 0 0 1.293-.862zm-21.126 6.035c.431-.144.647-.359.647-.647a16.13 16.13 0 0 1 1.509-2.586c.215-.216.431-.431.216-.647s-.863-.646-1.294-.215c-.912.935-1.643 2.031-2.156 3.233-.216.215-.216.431 0 .431s.431 0 .647-.216a3.66 3.66 0 0 1 .431-1.077c0-.216.216-.216.431-.216s.216.431 0 .431-.431.862-.431 1.509zm14.875-48.279l.647-.431c.216-.216 0-.431 0-.647h-.431l-5.174 2.155c-.216 0-.431.216-.431.647s.647.216.862 0l5.174-1.724h-.647zm26.515-33.408a13.99 13.99 0 0 1 .431 4.095 1.3 1.3 0 0 0-.068.676c.038.227.136.441.284.617.646.216.647.862.862 1.293s.216.431.647.431a14.44 14.44 0 0 0-2.156-7.113zm-.646 16.811a23.7 23.7 0 0 0 6.682 3.233c-1.509-2.155-4.311-2.586-6.682-3.233zM71.082 94.438l-.431-.431c-.216 0-.431-.216-.862 0l-3.233 2.802c-.216.216-.647.431-.216.862.081.092.181.165.292.216s.232.076.355.076a.86.86 0 0 0 .355-.076c.112-.05.211-.124.292-.216a5.39 5.39 0 0 1 3.018-2.802l.431-.431zm21.126-36.641c-.75-.344-1.551-.562-2.371-.647-.215 0-.647 0-.431.431s-.431.862.431 1.078l4.096.431c.216 0 .431.215.647-.215a.43.43 0 0 0-.432-.431 5.39 5.39 0 0 0-2.587-.216h.647v-.431zm-7.545-1.293h3.234c.216 0 .647 0 .647-.647s-.431-.215-.647-.215a16.6 16.6 0 0 1-3.234-.431h-1.294c.093.355.165.715.216 1.078.431.431.862 0 1.078.215zM62.028 79.135c.216.216.216.862 1.078.647l2.371-1.509c.216-.216.862-.216.431-.647s-.431-1.078-1.294-.647l-2.371 1.724-.216.431zM17.189 90.774a50.86 50.86 0 0 1 4.311-6.681c.216 0 .216-.216 0-.216h-.215l-.647.431c-1.293 1.724-2.371 3.448-3.449 5.173a1.94 1.94 0 0 0 0 1.293zm58.42-5.388c0 .862.647.862 1.078 1.293s1.294 0 1.725-.647-.216-.647-.432-.862l-.646-.647c-.431-.431-.647.216-1.078.216s-.647.216-.647.647zm-27.162 8.19c0-.216.216-.216.216-.431.951-1.059 1.959-2.066 3.018-3.017.216 0 .647-.216.216-.647s-.647-.216-.863 0l-3.018 3.233c-.215.215-.431.215-.216.431l.647.431zm-15.952-1.94c0-.431-.216-.431-.216-.431s-.215 0-.431.216a14.44 14.44 0 0 0-3.665 4.311c0 .216-.216.431 0 .647h.647l3.449-4.311c-.028-.014-.053-.034-.074-.058a.24.24 0 0 1-.058-.175.24.24 0 0 1 .025-.091c.014-.028.034-.054.058-.074s.052-.037.082-.047a.24.24 0 0 1 .093-.012c.032.002.063.011.091.025zm53.461-4.526c0-.215.215-.431-.216-.647s-.431 0-.647.216l-1.078.647c-.431.216-.862.431-.862.862s.647.647.862.862h.647l1.509-1.293s.431-.216 0-.216-.215-.216-.215-.431zM20.208 69.867v-.647h-.647a25.43 25.43 0 0 0-2.372 4.095c-.216.216-.431.431 0 .647l.647-.431c.65-.985 1.37-1.921 2.156-2.802 0 0 0-.647.216-.862zm55.617 31.684c-.164-.11-.351-.181-.546-.207a1.29 1.29 0 0 0-.582.054c-.187.063-.358.167-.498.306a1.29 1.29 0 0 0-.313.493l-.431.647c-.719.862-.503 1.293.647 1.293l.646-.431c.567-.594.943-1.345 1.078-2.155zm-29.533-5.604c0-.216 0-.431-.215-.431s-.647 0-.863.216l-1.94 2.586c-.216.431-.216.647.215.862s.647.431.863-.216c.371-.92.964-1.734 1.725-2.371a.86.86 0 0 0 .215-.647zm55.402-43.969a11 11 0 0 0-3.234-1.509c-.647 0-1.509.216-1.94-.647h-.647c0 .216.215.216.431.216s-.862 0-.646.647h.431l3.665.647 1.94.647zM38.962 96.162h-.431c-.431-.216-.431 0-.647.215a35.99 35.99 0 0 0-2.587 3.449c-.216.216-.431.647 0 .863s.431-.001.646-.432l2.587-3.448.431-.647zm48.072-28.666l2.371-.431c.216 0 .647 0 .647-.431s-.216-.862-.647-.647h-2.587c-.431 0-.647.215-.431.647s0 1.078.647.862zm-3.449 6.682c.647 1.078.647 1.078 1.078.862l2.587-.862c.216 0 .431-.215.431-.647s-.431-.431-.646-.216c-1.195.057-2.368.35-3.449.862zM80.136 89.05c.431-.216.862-.216 1.078-.647s-.215-.647-.431-.647l-.862-1.078c-.431-.431-.647-.216-1.078 0s-.862.647-.647.862a6.68 6.68 0 0 0 1.94 1.509zm-28.67-52.806a30.83 30.83 0 0 0-9.916 3.664l9.917-3.664zm-21.342 60.78l3.665-4.311c.216-.216 0-.431-.215-.647h-.647a16.38 16.38 0 0 0-2.802 4.957zm21.557 9.699c-.215.647.215.647.431.863h.863l.647-1.509c.215-.431.431-.647 0-.862s-1.078-.862-1.509 0c-.203.484-.347.99-.431 1.508zm34.491-42.675h2.587c.216 0 .647.216.647-.431s-.431-.647-.862-.647h-2.587c-.216 0-.647.216-.432.647s0 .431.647.431zm7.761-1.509h.647c0-.431-.216-.431-.432-.647h-3.88a.43.43 0 0 0-.432.431h4.096v.216zm1.078-40.52l2.803 3.664 1.293 1.94c0 .215.215.431.431.215s0-.215 0-.431v-.431c-.594-1.089-1.317-2.103-2.156-3.017-.647-.647-1.078-1.724-2.371-1.94zm-7.33 52.806l-2.371.862c-.216 0-.647.215-.431.647s.215.431.646.431l2.371-.647c.431-.216.647-.216.431-.647 0-.085-.017-.169-.049-.247a.65.65 0 0 0-.141-.21c-.06-.06-.131-.108-.209-.14a.65.65 0 0 0-.248-.049zm13.366-10.346a.89.89 0 0 0 .107-.322c.014-.113.006-.228-.024-.338s-.082-.213-.151-.303a.87.87 0 0 0-.916-.306.87.87 0 0 0-.526.407c-.431 0-.647.216-1.078-.215l-2.156-1.078c-.216-.215-.647-.431-.862 0s.216.431.647.647a15.53 15.53 0 0 1 4.312 1.94h.431a.87.87 0 0 0 .216-.431zm-.863 4.742c.431 0 .431-.216.431-.431 0-.085-.016-.169-.049-.247s-.08-.15-.141-.21-.131-.108-.209-.14-.162-.049-.247-.049l-3.665-1.078c-.216 0-.431-.215-.646.216 0 .171.068.336.189.457s.285.189.457.189l2.371.431 1.509.862zM33.573 99.395l.647-.647.646-1.078 1.94-2.371a.43.43 0 0 0 .146-.323.43.43 0 0 0-.146-.323c-.431-.431-.431 0-.647.216l-.431.431a10.35 10.35 0 0 0-2.156 3.664c-.215 0-.431.216 0 .431zm58.204-47.848h-1.94c-.215 0-.646 0-.646.647s.431.431.646.215h4.527c.216 0 .431 0 .431-.215h-3.018v-.647zm-6.252 51.512c.862 0 1.078-.646 1.294-1.293.046-.04.083-.09.108-.146a.43.43 0 0 0 0-.354c-.025-.056-.062-.106-.108-.146h-.647c-.431.215-.431.215-.431-.216s-.216-.216-.216 0-1.078.862-1.078 1.509.862.431 1.078.646zM17.62 85.386c.057 0 .112-.023.153-.063s.063-.095.063-.152l1.94-2.371c.216-.216.431-.647.216-.862s0-.647-.216-.647-.431.216-.646.431-1.078 1.724-1.509 2.802-.215.431-.215.647 0 .215.215.215zM57.286 52.84a18.54 18.54 0 0 0-4.958 1.293c-.647.215-.216.647-.216.862s.431.215.863 0l4.311-2.155zm-30.18 49.573c0-.862-1.078-1.078-1.078-1.94h-.216c-.216 0-.431.431-.647.216s0-.432.216-.647a.4.4 0 0 0 0-.647c-.216-.216-.863 0-1.294-.647s-.862 1.293-.215 1.724l3.233 1.94zm56.263-4.742c0-.431.431-.647 0-.862a.43.43 0 0 0-.431.431l-.431.647c-.431.215-.216.431 0 .647s1.078 0 1.294.431.431 0 .646-.216.862-.647.647-1.078-.431-.216-.647 0h-.215c-.215-1.293-.431 0-.863 0zm-27.808 10.346c.216 0 .647 0 .647-.431s.431-1.078 0-1.509-1.078-.216-1.509.431-.863 1.293.862 1.509zm45.486-58.841a35.18 35.18 0 0 0-4.097-1.94c-.431 0-.647 0-.862.431s.215.647.431.647l1.94.431a5.39 5.39 0 0 0 2.588.431zM88.974 73.747h2.156c.216 0 .647.216.647-.431s-.431-.862-.863-.647h-1.94c-.216 0-.647 0-.647.431s.216.862.647.647zm-54.539 26.08c.057 0 .112-.023.153-.063s.063-.095.063-.152c.886-1.315 1.897-2.542 3.018-3.664 0 0 .431-.216 0-.647s-.431 0-.647.215c-1.127 1.223-2.07 2.602-2.802 4.095-.216.216 0 .216.215.216zm53.246-35.563h-1.509c-.216 0-.431.215-.431.647s.216.647.647.431l2.587-.431c.431 0 .431 0 .431-.431h-1.725v-.216zm-53.892 39.874h.432c.431-.647.431-1.724 1.078-2.586l-.431-.431c-.216-.216-.431 0-.431.215-.688.685-1.076 1.616-1.078 2.586-.216 0 0 .216.431.216zm10.778-3.448h-.431c-.431.646-.647 1.508-1.725 1.077h-.215c0 .431-.216.862-.216 1.293s0 .431.216.431.647.431.862 0c.615-.869 1.121-1.81 1.509-2.801zm50.659-40.736v.431l5.389 1.724c.431.215.432-.215.432-.431l-.647-.431-5.174-1.293zm-81.917-1.94c.217 1.49.81 2.899 1.725 4.095-.216-1.509.216-3.449-1.725-4.095zm88.815 9.483h.216c.305-.459.525-.971.646-1.509.216-.647-.215-1.078-.646-1.509s-.647 0-.647.431c-.106.715-.106 1.441 0 2.155-.216.216.216.431.431.431zM99.969 52.84h-4.527a.43.43 0 0 0 .431.431l3.88.647c-.647-.431 0-.647.216-1.078zm-22.204 49.357h-.216c-.216-.215-.431-.215-.431 0a3.45 3.45 0 0 0-1.294 1.724c-.216.216-.431.432 0 .647s.647.431.863 0 .647-1.724 1.078-2.371zm14.227-38.58h-1.293c-.431-.215-.647 0-.647.431h1.94v-.431zm9.701-20.907c-1.211-.819-2.634-1.268-4.096-1.293l-.431.431c0 .431.216.431.431.431l4.096.431zm-9.269 21.338h-2.156c0 .431.431.431.646.431s2.156.216 3.234 0 .431.216.647-.216l-.647-.431-1.724.216zm-39.018 45.477c.216.862 1.078.647 1.725.647s.647-.647.647-.862-1.294-.431-1.725-.647-.431.431-.647.862zm27.593-19.829h.431l1.078.862h.431c.431-.431.647-.862.431-1.078s-.646-1.078-1.293-1.078a1.51 1.51 0 0 0-1.078 1.293zm13.365-33.623l-4.527-.647c-.215.215-.646 0-.646.431s.431.431.646.431h2.803c.647 0 1.078.215 1.725-.215zM19.992 77.842h.216l1.293-1.293 1.94-1.94c.216-.431.215-.647-.216-.862s-.431 0-.647.216l-2.587 3.88zm70.276-18.751c-.431 0-.647-.215-.647.216l.431.431 3.665.431h.647c.216-.431-.215-.431-.431-.647l-3.665-.431zM79.49 15.122l6.035 3.664c-1.647-1.74-3.731-3.006-6.035-3.664zm-38.156 91.817c-.216.431 0 .647.431.647a.43.43 0 0 0 .431-.432 6.24 6.24 0 0 1 .431-1.939c0-.431 0-.647-.431-.862s-.647.215-.647.646c-.177.631-.25 1.286-.216 1.94zM17.836 76.333c1.509-1.293 2.371-2.802 3.88-3.88s.216-.431 0-.647c-.04-.046-.091-.083-.146-.108a.43.43 0 0 0-.355 0 .43.43 0 0 0-.146.108l-3.234 4.526zm62.084 28.451c.431.215.647 0 .647-.431.223-.241.372-.54.431-.863.216-.215.431-.431.215-.646h-.862c-.216.431-.647.646-.862.862a1.73 1.73 0 0 0-.432.862c.216.431.647.216.863.216zm-9.485-.216h-.646a29.89 29.89 0 0 0-1.294 2.802c0 .216-.216.431 0 .431.041.046.09.083.146.108s.116.038.177.038.122-.013.177-.038a.43.43 0 0 0 .146-.108c.523-1.038.956-2.12 1.293-3.233zm19.401-29.097l1.941-.431c.216 0 .647.216.431-.216s-.216-.647-.647-.431h-1.94c-.216 0-.647 0-.431.431s.215.647.646.647zM85.31 96.378c0 .216 0 .431.215.431h.863a3.88 3.88 0 0 0 1.078-1.509c.216-.216.216-.216 0-.431s-2.156.862-2.156 1.509zm-48.072-10.13a26.73 26.73 0 0 0-4.527 4.095c0 .216-.216.431 0 .431s.431 0 .431-.216.647-.647 1.078-1.078l3.018-3.233zm57.126-19.829c-1.011-.461-2.137-.611-3.234-.431-.431 0-.431.215-.431.431s.216.646.647.431l3.018-.431zm-82.779-22.2a27.6 27.6 0 0 0 2.371-4.311c.216 0 0-.215 0-.215h-.431a12.07 12.07 0 0 0-1.94 4.526zm84.934 29.312h.431l2.371.431c.216 0 .431.215.647-.216s-.216-.647-.432-.647l-.862-.431c0 .862-.647.431-.862.431l-.863-.431c-.431.215-.431.431-.431.862zM84.447 93.145c-.116-.123-.26-.217-.419-.274a1.08 1.08 0 0 0-.967.121c-.14.095-.256.221-.338.369-.216.431-.216.862-.647 1.078s-.216.431 0 .647.431 0 .647-.215a12.94 12.94 0 0 0 1.724-1.724zm-64.671-26.08l3.449-3.664c.215-.215.431-.215.216-.431s-.432 0-.432.215c-1.043.899-1.983 1.911-2.802 3.017-.216.216-.647.431-.432.862zm71.354.431a16.6 16.6 0 0 0 3.234.431c.216 0 .647 0 .647-.431s-.216-.431-.647-.431l-3.234.431zm3.449 5.819h.646c.216 0 .647.216.647-.215s-.431-.647-.647-.647H93.07c-.216 0-.431 0-.431.431l.431.431c.431.216 1.078-.215 1.509 0zm-6.683-11.639l-2.156.431h3.449c-.216-.216-.216-.431-.432-.431h-.862zm.862 14.872c-1.078-.216-1.94.431-3.018.647s-.647 0-.431.431.431.647.862.431l2.587-1.509zM57.07 108.232c.216 0 1.078-1.293 1.078-1.509h-.215c-.431 0-.647-.431-1.078-.215-.22.553-.365 1.133-.431 1.724h.647zM16.327 75.256c-1.509 1.509-2.587 3.448-2.156 4.526s1.94-2.586 2.156-4.526zm73.725-5.604l-2.156.431c-.216 0-.431 0-.431.431s.431.215.647.215l2.156-.431c.216 0 .431 0 .431-.431s-.431-.216-.647-.216zm-48.503 32.976c.431-.431.647-1.077 1.294-1.293l.646-.862c.215-.431 0-.647-.431-.862s-.431 0-.431.216c-.488.879-.851 1.823-1.078 2.802zm39.234 3.233c-.216 0-.647 0-.647.431s-.647 1.078-.431 1.509a.44.44 0 0 0 .203.273c.05.03.105.05.163.059a.44.44 0 0 0 .173-.009c.057-.014.11-.039.157-.074s.086-.078.116-.128.05-.106.059-.163.006-.117-.008-.173c.431-.216.431-.647.646-1.078s0-.647-.431-.647zm8.623-28.019c0-.216-.216-.216-.431-.216l-1.94.862c-.216 0-.647 0-.432.431s.431.431.647.215l1.941-.862c.215 0 .431 0 .215-.431zm-41.174 28.235l.431-.431c.204-.546.495-1.056.862-1.509 0-.216.216-.431-.215-.647-.055-.036-.117-.06-.183-.069a.44.44 0 0 0-.194.019.42.42 0 0 0-.166.101.44.44 0 0 0-.104.165c-.156.697-.449 1.357-.863 1.94 0 .431 0 .431.431.431zm1.94-.216c-.215.862.647.216.647.431s.431.216.431 0a4.09 4.09 0 0 0 .431-1.508c.216-.216.216-.431 0-.431h-.647c-.216.646-.862.862-.862 1.508zm38.372-34.054h1.94c.171 0 .336-.068.457-.189s.189-.286.189-.457c0-.431-.431-.216-.647-.216l-2.156.431c-.216 0-.647 0-.431.431s.216 0 .647 0zm4.742-.862h1.509c.215 0 .647 0 .431-.431s-.216-.431-.431-.431h-2.156c-.216.215-.647 0-.647.431s.431.215.863.215l.431.216zm-3.234 7.975a.43.43 0 0 0-.431-.431c-.647.431-1.509.431-2.156 1.078s-.216.431 0 .431 1.293-.431 1.94-.431.647-.216.647-.647zm-43.33 28.019c.022-.17-.007-.343-.084-.497s-.198-.281-.347-.365c-.431 0-.216.431-.431.646s-.216.863-.216 1.294-.215.431.216.646c.085 0 .169-.017.247-.049a.64.64 0 0 0 .35-.35c.032-.078.049-.162.049-.247a9.3 9.3 0 0 0 .215-1.078zM16.974 84.093a12.5 12.5 0 0 0 2.371-3.233h-.431c-.896.907-1.561 2.016-1.94 3.233zm83.21-31.037a2.58 2.58 0 0 0 .849.757c.335.186.708.296 1.091.32.432 0 .647-.216.647-.431s-.216-.431-.431-.431l-2.156-.215zM95.01 80.213l2.156.647c.216 0 .647.216.647-.216s-.001-.647-.432-.862c-.816-.167-1.666-.013-2.371.431zm4.958-19.829l-4.096-1.509c-.216 0-.431-.216-.647.215l.432.431 4.311.862zM40.902 97.887c-.431.647-.647 1.509-1.078 2.155-.057 0-.112.023-.152.063s-.063.095-.063.152.023.112.063.153.095.063.152.063c.215 0 .431 0 .431-.216l.863-1.293c.431-.431.431-.862-.216-1.078zm55.617-76.299l2.587 3.448c0-1.724-1.509-2.371-2.587-3.448zm-32.551 81.471c-.78.956-1.365 2.054-1.724 3.233 0 .216 0 .431.215.431s.215 0 .431-.215.647-2.155 1.078-3.449zM32.71 95.731l2.371-2.155c.216-.216 0-.431 0-.647h-.647l-1.725 2.802zM18.483 74.178h.215a36.85 36.85 0 0 1 2.372-3.017c.215 0 .215-.216 0-.431h-.431l-2.156 3.448zm71.569-6.681l-3.018.431c-.216 0-.432 0-.432.216l.432.431 3.018-.647v-.431zm2.156 9.268c-.431-.216-.862 0-1.509.216s-.431.216-.431.647.431.216.646 0l1.509-.431c.216-.216.647 0 .431-.431s-.216-.216-.647 0zm7.114-11.208c-.962-.642-2.079-1.014-3.233-1.078h-.431c-.216.431 0 .431.215.647l3.449.431zm-2.371-14.01c1.556.461 3.14.821 4.743 1.078a12.72 12.72 0 0 0-4.743-1.078zm-37.294 56.039c0-.647-.215-.647-.431-.647s-1.078.862-1.078 1.509.431.431.647.431.431-1.078.862-1.293zm27.593-1.509c-.431 0-.862-.216-.862.431s0 .862.647.862a.85.85 0 0 0 .33-.066c.105-.043.199-.106.279-.186a.88.88 0 0 0 .187-.28c.043-.105.066-.217.066-.33 0-.431-.431-.431-.647-.431zm10.563-51.513l-1.078-.647h-.863c-.216 0-.647 0-.647.431s.216.431.647.431l1.941-.216zm-6.252 32.33l-2.156 1.078c-.216 0-.431 0-.215.431a.43.43 0 0 0 .146.108c.056.025.116.038.177.038s.122-.013.177-.038a.43.43 0 0 0 .146-.108 5.82 5.82 0 0 0 1.725-1.509zm-1.078 2.586l1.725-1.509c.216-.216-.215-.216-.431-.216l-1.509 1.078v.431l.215.216zm9.917-41.813a5.82 5.82 0 0 0-3.881-1.509l3.881 1.509zm-12.288 55.608c.431-.216 1.078.646 1.293-.216s.647-1.077-.215-1.077-.647.862-1.078 1.293zm-39.881 5.173c0 .431 0 .646.431.862s.215-.431.431-.647c0-.431.647-1.077-.216-1.077s-.431.646-.646.862zm-19.401-7.328a4.53 4.53 0 0 0 1.086-1.462c.259-.556.403-1.158.423-1.771-.672.99-1.182 2.082-1.509 3.233zm-3.018-1.94c.216-1.293 1.078-1.94 1.509-3.017-.524.296-.946.741-1.215 1.278s-.371 1.143-.294 1.739zm-7.76-71.773l1.94 2.586h.216c.216 0 .431-.216.215-.216-.678-.895-1.476-1.693-2.371-2.371zm59.713 69.402h.431l1.078-1.509c.216 0 .431-.216.216-.216h-.647l-1.294 1.509h.216v.215zm12.934-12.932a3.23 3.23 0 0 0 1.509-.647v-.431h-.647l-1.293.862c-.216 0-.216 0-.216.216h.647zM51.25 109.525c.25-.085.478-.226.665-.413s.328-.414.413-.664c0-.431-.431-.216-.647-.216s-.647.431-.647.862 0 .431.216.431zm34.06-17.027c.216-.215.431-.215.431-.647s-.215-.862-.431-.647-.863.216-.863.647.431.431.863.647zm12.503-14.656c0 .286.113.56.315.762a1.08 1.08 0 0 0 .763.316c.216.215.431-.216.215-.431s-.431-.647-.862-.862-.431 0-.431.216zm-64.671 16.38c-1.049.949-1.861 2.13-2.372 3.449.647-1.078 1.725-2.155 2.372-3.449zm61.438-5.604c.216-.216.862-.431 1.078-.862l-.432-.431c-.647.216-1.078.431-1.293 1.078l.647.216zM39.824 105.43c0-.431-.215-.215-.431-.215s-1.078 0-1.078.646a.65.65 0 0 0 .647.647c.647-.216.646-.647.862-1.078zM23.872 64.048v-.431h-.431a5.82 5.82 0 0 1-1.509 1.724c-.057 0-.112.023-.152.063s-.063.095-.063.152.023.112.063.152.095.063.152.063c.216.216.216 0 .432-.215l1.293-1.293c.431-.431 0-.216.216-.216zm68.551-3.448c-.74-.346-1.557-.494-2.371-.431-.216-.215-.431 0-.431.215a.43.43 0 0 0 .431.431l2.371-.215zm1.94-39.227c.431 0 .431-.215.431-.431s-.862-1.293-1.078-1.078-.431.215-.215.431c.162.444.464.823.862 1.078zm-.647 61.211l1.078-.431v-.431h-.431l-1.294.431c-.216 0-.431.216-.215.431s.431 0 .862 0zm-11.856-6.035l-2.371.862c-.216 0-.431.216-.216.431h.431l2.156-1.293zm21.126-42.891a7.76 7.76 0 0 0-1.508-3.664 26.33 26.33 0 0 0 1.508 3.664zm-30.61 76.083c0-.431-.216-.647-.431-.647s-.647.647-.647.862 0 .431.215.431.863-.215.863-.646zm-22.635-5.388l-.863 1.724c0 .215 0 .431.216.431h.431c.216-.647.647-1.293.216-2.155zm29.749-1.725c0-.057-.023-.112-.063-.152s-.095-.063-.153-.063h-.431l-.647 1.077c0 .216-.216.647 0 .863s.431-.432.431-.647l.647-.862.216-.216zM17.836 23.097h-.216l1.941 2.371c0-.862-.216-1.078-1.725-2.371zm39.018 86.644c0-.216.215-.647-.216-.647s-.647.647-.647.862 0 .431.216.647.431-.647.647-.862zm44.192-77.376c.108.642.108 1.298 0 1.94 0 .431.215.431.646.431s.216-.215.216-.431l-.862-1.94zM19.992 65.126h.216l1.94-2.155h-.216a3.88 3.88 0 0 0-1.94 2.155zm73.294 12.501a6.25 6.25 0 0 0-2.156.647c-.216 0-.431 0-.431.431h.647l1.94-1.078zm-25.653 32.115c-.216.431.216.431.431.431s.431-.431.647-.862l-.432-.431c-.647 0-.431.646-.646.862zm27.808-26.942h-.216c-.216-.216-1.509.215-1.509.431v.431a.43.43 0 0 0 .324.146.43.43 0 0 0 .323-.146l1.078-.862zm-7.761 22.2c.647.216.863 0 .863-.431s-.431-.431-.647-.431a.65.65 0 0 0-.647.647c0 .431.431.215.431.215zM29.693 92.714c.862-.431 1.078-1.078 1.725-1.509s.216-.215 0-.431-.215 0-.431 0a15.08 15.08 0 0 0-1.294 1.94zm-1.509 4.095h-.431a6.25 6.25 0 0 0-1.078 2.802 16.16 16.16 0 0 1 1.509-2.802zm61.222 3.88c0 .431.431.431.647.431s.216-.647.431-.863-.216-.431-.431-.431-.431.431-.647.863zm-64.671-26.08l.647-.647.431-.862h-.431l-.862 1.078c-.216 0 0 .216.215.431zm69.845 3.233h1.724c.215 0 .647.216.647-.216s-.216-.431-.647-.431l-1.724.647zm-32.12 30.39c0-.215 0-.431-.431-.431s-.215.647-.431 1.078-.216.431.215.431.431-.647.647-1.078zm16.815-8.406c-.862-.216-.862.647-1.509.863s-.215.431 0 .646h.647l.862-1.509zm23.497-42.245l2.155 1.509a5.6 5.6 0 0 0-2.155-1.509zm-24.144 52.159c0-.216.216-.647-.215-.647s-.431.647-.647.862a.43.43 0 0 0 .431.431c.431 0 .431-.215.431-.646zm-19.401.862c.216.647.647.647 1.078.647s.431-.216.431-.647 0-.431-.215-.431-.215 0-.431.215-.431.216-.863.216zm31.042-42.029c-1.026-.192-2.087-.041-3.018.431 1.017-.052 2.027-.196 3.018-.431zm-9.916 28.881h.216l1.078-1.293c0-.216.216-.431 0-.431h-.432l-.862 1.724zm11.425 0c-.431.216-.647.647-.863.862s-.431.431-.215.647.431 0 .647-.216c.24-.392.388-.835.431-1.293zm-32.982 12.932c0-.215 0-.646-.431-.646s-.431.215-.431.431.215.647.431.647.431-.216.431-.432zm7.976-1.293c0-.431-.215-.431-.431-.431s-.431.216-.431.647.215.431.431.431.216-.431.431-.647zm31.043-33.192l1.293.862h.431c.216 0 0-.216 0-.431a1.51 1.51 0 0 0-.792-.496c-.31-.078-.636-.055-.932.065zm-3.665-6.466h-2.156c-.215 0-.431 0-.215.216s0 .431.215.216c.744.045 1.487-.104 2.156-.431zm-29.317 39.443c-.216.431-.216.646.215.646s.431-.431.431-.646 0-.431-.216-.431-.431.215-.431.431zm6.467-97.637c-.995-.179-2.008-.251-3.018-.216.862.647 1.941 0 3.018.216zm7.76 98.499c0 .215 0 .431.216.431s.647-.431.647-.862 0-.431-.216-.431-.431.646-.647.862zm-38.371-4.742c-.216.647-.647 1.078-.432 1.94.222-.265.378-.58.453-.917s.068-.689-.021-1.023zm43.545-8.837a7.33 7.33 0 0 0 1.725-1.94 3.88 3.88 0 0 0-1.725 1.94zm-4.527 9.699h-.647c-.431 0-.431.431-.646.647s0 .431.215.431a.43.43 0 0 0 .305-.126c.081-.081.126-.191.126-.305.216-.431.647-.216.647-.647zm12.719-6.25c.647 0 .862-.647 1.293-.862v-.431c-.216-.216-.216 0-.431 0l-.862 1.293zm6.682-29.528c.085.25.227.477.414.664s.414.328.664.413c0 0 .215-.216 0-.216s-.431-.647-.862-.862h-.216zM22.363 94.654a2.37 2.37 0 0 0-.863 2.371c.216-.862.647-1.509.863-2.371zm37.293 14.225l.863-1.078c0-.215 0-.431-.216-.431h-.215c-.216.431-.647.862-.432 1.509zm1.725 2.371c.431 0 .431-.216.431-.647s0-.431-.431-.431-.216.431-.431.647a.43.43 0 0 0 .431.431zm18.97-1.294c.647-.215 1.078-.431 1.078-.862s-.215-.431-.431-.215-.647.431-.647 1.077zm-32.982-1.077a7.78 7.78 0 0 0 .647-1.509c0-.216 0-.431-.216-.431h-.215c0 .647-.431 1.078-.216 1.94zm51.306-38.15c-.862-.431-1.509-.215-2.156-.431h-.216c0 .216 0 .216.216.216s1.293.647 2.156.215zm1.294-13.579a3.88 3.88 0 0 0-2.156-.862h-.216l2.371.862zm-8.192 26.726c.162.173.376.288.61.327a1.08 1.08 0 0 0 .683-.111c.057 0 .112-.023.153-.063s.063-.095.063-.152-.023-.112-.063-.152-.095-.063-.153-.063c-.431-.431-.862 0-1.293.216zm-8.192 21.122c.431-.215.431-.646.862-1.078-.216-.215-.215-.215-.431 0s-.431.863-.431 1.078zM21.07 91.421c-.862.216-.862.862-1.078 1.509l1.078-1.509zm65.318-30.175h-1.725a2.37 2.37 0 0 0 1.725-.216v.216zm.431 48.926c0-.216-.216-.431-.216-.216s-.431.431-.646.647.216.431.431.216.431-.432.431-.647zm-40.743-6.466c-.431.215-.431.647-.647 1.078-.057 0-.112.022-.153.063s-.063.095-.063.152.023.112.063.153.095.063.153.063c.431 0 .215-.216.431-.431.156-.127.262-.304.302-.5s.009-.401-.086-.578zm37.94 2.371a2.37 2.37 0 0 0-.647 1.509h.216a3.02 3.02 0 0 0 .431-1.509zm-1.94 1.724c.862-.215.862-.862 1.078-1.293s0-.431-.216-.431-.215.215-.215.431a1.94 1.94 0 0 1-.647 1.293zm9.916-13.579c.862 0 .862-.431 1.078-1.078l-1.078 1.078zm10.994-39.227a1.52 1.52 0 0 0 .659.546 1.51 1.51 0 0 0 .85.1c-.431-.431-1.077-.431-1.509-.647zm-37.94 56.47a.86.86 0 0 0 .216-.646h-.431c-.431 0-.431.215-.431.431s.431 0 .646.215zm-32.551-10.13c.216-.431.647-.862.647-1.293h-.216c-.156.175-.275.38-.349.602s-.102.458-.082.691z" fill-opacity=".2"/><path d="M29.261 20.079c-1.078.215-1.724 1.078-2.587 1.509s-.431.647-.647.215 0-.431.215-.647l2.803-2.371h-.215c1.078.215 1.078.215.431 1.293zm27.378 26.726c.216 0 .431-.216.431.215l-.431.431-3.88 1.293c-2.626.966-5.042 2.43-7.114 4.311-.057 0-.112.023-.152.063s-.063.095-.063.152c-.431.216-.862.862-1.294.431s.431-.647.647-1.078a25.87 25.87 0 0 1 8.839-5.173l3.018-.647zm6.898-6.897h-.431a31.91 31.91 0 0 0-12.503 3.448l-1.725 1.078s-.431.431-.646 0a.86.86 0 0 1 .215-.647 12.29 12.29 0 0 1 4.958-2.586l6.467-1.509h3.665v.216zm.647-4.526l2.156-.431a65.32 65.32 0 0 1 11.21-.216 4.53 4.53 0 0 0 1.725 0c.431 0 .647 0 .647.431s-.431.431-.647.431c-1.213-.179-2.439-.251-3.665-.216H64.184zm7.545 7.759h-2.156l-6.467 1.293-1.94.862c-.029.114-.102.213-.203.273s-.222.079-.336.05-.213-.101-.274-.203a.44.44 0 0 1-.05-.336l.431-.431c3.312-1.493 6.937-2.158 10.563-1.94l.431.431zm4.958-6.035c-.431.647-1.294.431-1.725.215a10.57 10.57 0 0 0-5.174.216c-.862.215-1.509.647-2.371.431s-.647.216-.647-.215.431-.215.647-.215a14.87 14.87 0 0 1 6.898-.862 4.31 4.31 0 0 1 2.371.431zm-6.252 2.587a30.38 30.38 0 0 1 6.252 0 12.29 12.29 0 0 1-6.252 0zm10.994-2.156l3.234.431c1.078.215 2.156-.216 3.233.431h-3.233l-3.234-.862zm9.054 4.095l4.096.431c-1.377.291-2.81.14-4.096-.431zm-21.772 15.95a21.78 21.78 0 0 1-2.803 1.94l-.647.431a19.62 19.62 0 0 1 3.449-2.371zM30.986 74.178c.74-.772 1.532-1.492 2.371-2.155-.647.862-1.293 1.94-2.371 1.94v.215zm67.689-36.21a3.66 3.66 0 0 1-2.156-.216l-2.156-.431a25.86 25.86 0 0 1 4.311.647zM66.986 49.176c.431.431-.216 1.724 1.078 1.509a2.37 2.37 0 0 1-1.725.215c1.078-.431.431-1.078.647-1.724zm22.419-12.07a6.25 6.25 0 0 1 3.449.215l-3.449-.215zm-24.79 23.278c-.862.862-1.94 1.293-2.587 1.94a11.64 11.64 0 0 1 2.587-1.94zM46.291 29.347c-2.939.683-5.768 1.771-8.407 3.233l3.234-1.078a13.15 13.15 0 0 1 3.88-1.078c.431 0 .646-.216.646.216s-.215.215-.431.431l-3.018.862a19.4 19.4 0 0 0-9.054 5.819c-.087.169-.21.316-.36.432s-.324.197-.51.238a1.3 1.3 0 0 1-.562 0 1.29 1.29 0 0 1-.509-.239c-.431-.216-.646.215-.862.215h-.647a.86.86 0 0 1 .216-.647c2.129-1.983 4.359-3.853 6.682-5.604a24.8 24.8 0 0 1 6.683-2.371 4.53 4.53 0 0 1 3.018-.431zm37.51-8.406a20.05 20.05 0 0 0-6.683-4.095l-5.82-1.724h-.431c-.216-.216-.431-.216-.216-.431h.216c4.166.635 8.14 2.181 11.641 4.526a11.21 11.21 0 0 1 3.665 3.449c.216 0 .215.215.431.431s.216.431-.215.647-.215 0-.431-.216-1.294-.862-1.94-1.293c-1.806-.991-3.678-1.855-5.605-2.586l-1.94-.862c-.216-.216-.431-.216-.215-.431h.431l4.096 1.724 3.018.862zm-25.868 5.173H54.7c-3.993-.115-7.982.32-11.856 1.293l-5.389 2.371H36.16c-.431-.647.216-.647.647-.862a16.18 16.18 0 0 0 2.802-1.293 27.58 27.58 0 0 1 10.132-2.155c2.802 0 5.389.647 8.192.647zm22.418-3.017a18.74 18.74 0 0 0 3.665 1.509l-3.234-1.94-1.94-.862a.86.86 0 0 1-.216-.647h.431a21.56 21.56 0 0 1 7.761 4.526l.431.647c0 .431-.216.431-.647.647s-.431 0-.431-.431-.647-.862-1.078-1.293 0 .216 0 .431a.43.43 0 0 1 0 .646h-.647c-1.078-.862-2.586-1.293-3.88-2.371s-.216-.431-.216-.862zm-32.766 7.974c-1.293 1.078-2.803 1.078-4.096 1.724a18.54 18.54 0 0 0-7.76 4.957l-.431.431c.029.114.01.235-.05.336a.44.44 0 0 1-.273.202c-.114.028-.235.011-.336-.05a.45.45 0 0 1-.203-.273c-.216-.215 0-.431.216-.862 1.929-2.453 4.561-4.258 7.545-5.173a39.45 39.45 0 0 1 5.389-1.293zm-9.054 7.113h-.647a.86.86 0 0 1 .215-.647h.432a25.65 25.65 0 0 1 7.113-3.88c.431-.215.647-.431.863 0l-.431.431-6.899 4.311-.646-.216zm-10.563 1.724c-1.178 1.014-2.133 2.262-2.803 3.664-.582 1.068-.948 2.239-1.078 3.449-.216.215 0 .862-.431.862-.138.043-.287.039-.423-.013s-.25-.147-.325-.272-.105-.27-.087-.414.084-.277.187-.379c.054-1.4.457-2.764 1.172-3.969a8.41 8.41 0 0 1 2.924-2.929h.862zm.216 1.509h-.216a9.27 9.27 0 0 0-1.94 4.526c-.431.647-.647 1.293-1.294 1.078s0-.862 0-1.293a11.85 11.85 0 0 1 2.587-4.526c.216-.216.431-.431.647-.216s.216.216.216.431zm42.683-14.441c0-.431.216-.431.431-.431a9.92 9.92 0 0 1 6.036 1.293l.431.431c.216.215.431.431.215.647s-.431 0-.646-.216a7.33 7.33 0 0 0-4.096-1.509l-2.371-.216zm-12.503-3.233h-1.725c-.216 0-.431 0-.431-.431s.215-.216.431-.216l5.389-.431c.431 0 .647 0 .647.431h-.431l-3.88.647zM28.831 42.926c.647.862 0 1.509-.431 2.371l-1.293 1.509h-.647c-.215 0-.215-.216 0-.216a12.72 12.72 0 0 0 2.156-3.664h.216z" fill-opacity=".2"/><path d="M28.399 46.159a1.94 1.94 0 0 1-.862 1.293h-.431v-.431c.431-.215.646-.862 1.293-.862zM64.615 3.052c2.549.095 5.017.918 7.114 2.371l1.94.862c.431.216.431.431.431.862s-.647.216-.863.216c-1.851-.659-3.652-1.452-5.389-2.371a6.26 6.26 0 0 0-2.803-1.078 4.31 4.31 0 0 0-2.371.216c-.216 0-.647.431-.647 0s0-.647.431-.647a4.31 4.31 0 0 1 2.156-.431zM35.513 13.398l-1.509-2.371a1.51 1.51 0 0 0 .216 1.078c.216.431.215.862.431 1.078a.66.66 0 0 1 0 .862c-.216.216-.431-.216-.647-.431a27.37 27.37 0 0 1-1.294-3.88 4.09 4.09 0 0 0-.431-1.509c0-.216 0-.431.216-.431s.431 0 .431.216 1.94 2.586 2.587 4.311a1.29 1.29 0 0 1 .216.862l-.216.216zm-3.665 5.603h-.431c-.216-.216 0-.431.215-.647a9.07 9.07 0 0 1 3.018-1.94l2.156-1.078c.216 0 .431-.216.647.216s-.216.216-.432.431a17.68 17.68 0 0 0-4.311 2.586c-.216 0-.431.431-.862.431zm4.743-6.25a3.88 3.88 0 0 1-.862-1.94c-.862-1.724-1.509-3.449-2.587-5.173v-.431c.216-.216.431 0 .646.216a.43.43 0 0 1 .431.431 15.3 15.3 0 0 1 1.724 3.88l.647 1.724a1.51 1.51 0 0 1 0 1.293zM6.627 63.401h-.863a1.08 1.08 0 0 1 .114-.482 1.07 1.07 0 0 1 .317-.38 2.8 2.8 0 0 1 .858-.739 2.83 2.83 0 0 1 1.082-.339h.647c.216 0 .431-.215.647.216s-.431.215-.647.431-1.078.647-1.725 1.078l-.431.216zm22.419-44.615l-2.371 1.078c-.216-.216 0-.431 0-.647a15.31 15.31 0 0 1 3.233-1.724h.431a.86.86 0 0 1-.216.647l-1.293.647h.215zM6.627 53.271h.431c.216.216.862 0 .647.431s-.431.215-.863.215-1.077 0-1.724.431-.216.431-.432.215a.43.43 0 0 1 0-.646c.431-.647 1.078-.647 1.94-.647zm29.317-38.365c-1.294.431-1.94 1.293-3.234 1.509s-.215.216-.431-.215h.216l2.371-1.078 1.078-.216zM12.016 62.324c0 .431 0 .647-.216.647s-.431-.216-.431-.216c-.24-.529-.528-1.034-.862-1.509 0-.215-.216-.431.215-.647s.431 0 .431.215.863 1.078.863 1.509zm-2.372 1.077v.431L7.92 64.91c-.216 0-.431 0-.431-.215s0-.216.216-.431l1.725-1.078c0-.215 0 0 .215.216zm1.294-6.681a4.74 4.74 0 0 0 1.078 1.724c.215.215 0 .431 0 .862s0 .431-.216.431-.216-.215-.431-.431a3.45 3.45 0 0 1-.431-2.586zm13.581-33.623c0 .431-1.294 1.509-1.509 1.509v-.431c0-.215.863-1.293 1.294-1.293s.216 0 .216.215zM9.214 56.073l1.078 1.293c.216.216.431.431.216.647s-.647 0-.647-.215-1.078-1.078-.647-1.724zm-.648-4.526a1.94 1.94 0 0 1 .216 2.371c-.178-.777-.251-1.575-.216-2.371z" fill-opacity=".2"/><path d="M31.848 14.475h.216c.216.216.646.431.646.862h-.431c-.431 0-.431-.431-.431-.862zM8.998 35.167c.216-.216.216-.647.432-.862s.215-.431.431-.215.216.431 0 .431l-.647.862-.216-.215zm-.431 19.398h.431c0 .431-.431.431-.646.431s-.432 0-.432-.215.216-.215.647-.215zM63.968 89.05c-1.293-.862-1.94.862-3.233.862a2.8 2.8 0 0 1 1.509-1.293c.431-.216.216-.431 0-.862s1.509-.431 2.587-.216-1.725.647-.863 1.509zm-1.94-3.233a2.8 2.8 0 0 1-1.94 1.509c.647-.647 0-1.078-.216-1.724s1.293 1.078 2.156.216zm-17.245 0c-.431.862-1.293 1.293-1.94 1.94s1.293-1.293 1.94-1.94zm18.538-20.26c-.431-.216-.431-.862-.647-1.293s.647.431 1.509-.216-1.078.862-.862 1.509zM24.95 76.118c-.134.939-.505 1.829-1.078 2.586a6.68 6.68 0 0 1 1.078-2.586zm53.677 17.027c.216-.862 1.078-1.078 1.725-1.293h.216c0 .215 0 .431-.216.431a4.09 4.09 0 0 1-1.725.647v.216z" fill-opacity=".2"/></svg>