<svg xmlns="http://www.w3.org/2000/svg" width="178" height="146" fill="#c89a60" xmlns:v="https://vecta.io/nano"><path d="M19.993 122.862a4.35 4.35 0 0 1-1.538-.992c-.436-.437-.775-.961-.993-1.539a43.7 43.7 0 0 0-3.615-5.061 36.58 36.58 0 0 1-3.254-4.7c-.75-2.473-2.12-4.712-3.977-6.508a11.57 11.57 0 0 1-2.531-6.869c0-1.085-1.085-2.531 0-3.977v-.723C.108 90.324-.253 86.347.108 82.008l.723-1.808a7.23 7.23 0 0 0 .361-4.7 4.7 4.7 0 0 1-.361-2.169 23.5 23.5 0 0 1 1.446-7.231 16.63 16.63 0 0 1 3.977-5.785c1.085-.723 1.084-1.808 1.446-2.892a72.31 72.31 0 0 1 3.615-9.4 5.06 5.06 0 0 1 1.3-1.814c.563-.5 1.231-.869 1.954-1.078a17.35 17.35 0 0 1 8.315-2.531 5.06 5.06 0 0 1 3.977 1.085h1.446c.723-.361.361-.723 0-1.085s.362-.723.362-1.085c.782-1.412 1.869-2.632 3.183-3.57a10.85 10.85 0 0 1 4.41-1.853l6.507-.723h5.785a1.81 1.81 0 0 0 1.079-.252c.324-.195.579-.486.729-.833.941-1.967 2.453-3.605 4.338-4.7l2.892-1.808c1.085-1.446 2.892-1.446 4.7-1.446s1.084 0 .723-.723 1.446-2.531 2.531-3.254c.953-.615 2.023-1.029 3.142-1.215s2.264-.142 3.366.131c1.085.361 1.808-.362 2.17-1.446.402-1.568 1.218-2.999 2.363-4.144a9.04 9.04 0 0 1 4.144-2.364c2.169-.362 2.531-1.446 3.254-3.254.99-1.369 2.295-2.478 3.806-3.233s3.182-1.135 4.87-1.105h4.7a7.59 7.59 0 0 1 1.983-2.285c.808-.621 1.732-1.073 2.718-1.33l8.315-1.446C111.405.226 112.512 0 113.63 0a8.31 8.31 0 0 1 3.253.663l5.785 1.808 3.615 1.808c.723.362 1.085.362 1.808-.362a4.34 4.34 0 0 1 5.785-1.085c2.639 1.107 5.179 2.437 7.592 3.977.361.362 1.085.723 1.446 1.446s1.446 2.531 1.808 3.977.723.723 1.446.723c2.098-.386 4.266-.017 6.118 1.042a9.04 9.04 0 0 1 4.005 4.743c.08.395.252.765.504 1.079a2.52 2.52 0 0 0 .942.729c1.269.6 2.365 1.511 3.187 2.649a8.32 8.32 0 0 1 1.513 3.858c0 .723.362 1.808.362 2.892s.722.723 1.084 1.085c2.828 1.986 5.175 4.58 6.869 7.592.478 1.015.605 2.159.361 3.254a5.42 5.42 0 0 0 1.447 3.254c1.678 1.378 2.828 3.294 3.253 5.423v1.085a20.97 20.97 0 0 0 1.447 6.508c.434.997.595 2.091.468 3.171a6.14 6.14 0 0 1-1.192 2.975c-.077.068-.138.151-.18.245s-.064.195-.064.297.022.204.064.297a.72.72 0 0 0 .18.245 9.4 9.4 0 0 1 .622 3.834c-.063 1.307-.397 2.587-.983 3.758a2.55 2.55 0 0 0-.067 1.126c.063.376.209.732.428 1.043 0 .723.724 1.446.362 2.531a2.17 2.17 0 0 1-.362 1.446c-1.084.723-.722 1.446-.361 2.169v.723c.521.976.731 2.088.601 3.186a5.42 5.42 0 0 1-1.324 2.96c-.723.362-.723 1.085-.723 1.808a3.62 3.62 0 0 1-1.446 4.338c-.448.637-.7 1.391-.723 2.169a6.51 6.51 0 0 1-1.337 3.847c-.846 1.106-2.025 1.912-3.363 2.299-1.085.723-2.17 1.084-2.17 2.531a6.5 6.5 0 0 1-.676 3.277c-.507 1.014-1.271 1.879-2.215 2.507-2.629 2.911-5.829 5.249-9.401 6.869-1.883.904-3.595 2.127-5.061 3.616-.575.714-1.287 1.306-2.094 1.74s-1.693.704-2.606.79c-.192 0-.375.077-.511.212s-.212.32-.212.511a17.7 17.7 0 0 1-5.062 3.977c-.723 0-.723.723-.723 1.085a37.55 37.55 0 0 0-1.445 3.615 9.04 9.04 0 0 1-8.316 3.616c-1.084-.362-1.808-.723-2.169.361h-.361c-3.046 1.873-6.548 2.874-10.124 2.892l-2.53 1.085a10.85 10.85 0 0 1-7.593.362h-.723c-.723-1.808-1.446-.362-1.807.361-1.406 1.614-3.231 2.806-5.273 3.444s-4.222.698-6.296.171c-1.085-.361-1.808.362-2.892.362h-7.593c-2.169 0-4.338-1.446-6.869-1.446a3.98 3.98 0 0 1-2.892-.723h-2.17c-1.924.425-3.928.3-5.784-.362l-1.808-1.084c-.723-2.17-2.17-2.17-3.977-2.531a5.42 5.42 0 0 1-2.572-.325c-.819-.315-1.549-.824-2.128-1.483a14.1 14.1 0 0 0-7.954-3.977c-2.169 0-3.253-1.446-5.061-2.53-2.38-2.011-4.919-3.824-7.593-5.423a21.3 21.3 0 0 0-6.869-1.808 9.76 9.76 0 0 1-4.338-1.446zM9.869 93.216c-.131-.147-.231-.319-.293-.505s-.085-.384-.069-.58c0-.361.001-.723-.361-.723a2.17 2.17 0 0 1-1.808-.723c0-.361-.362 0-.724.362s0 .723.362.723l2.892 1.446c-.723 1.085-1.446 1.446-2.531 1.085h-.362a2.17 2.17 0 0 0 0 2.169c.362.723 1.084 0 1.446-.362s1.808-.723 1.085-2.531l.362-.362zm33.623 32.9c.413-.499.667-1.109.732-1.753s-.064-1.293-.371-1.863c-.723.362-1.446.723-1.446 1.446s.361 1.085.723 1.808h.362v1.085c.723 2.169.361 3.253-1.447 3.977s3.254.723 5.423 1.446a18.08 18.08 0 0 1-2.892-5.062c0-.361-.361-1.084-1.084-1.084zM14.931 60.678c1.446.361 3.254 1.085 4.7 0s5.061-.723 7.954-.723a1.81 1.81 0 0 1 .532.638c.126.251.191.528.191.808 0 .723-.722.361-1.084.361h-3.615l-1.447.723v.723l5.423-1.446c0 .723-.361.723-.361.723l-7.593 2.169c-1.085.361 0 1.446-.362 1.808s.723.361 1.085.361l5.423-1.446c-1.231 1.026-2.743 1.656-4.338 1.808-1.037.123-2.021.523-2.848 1.16s-1.468 1.485-1.852 2.456h1.085l6.146-1.446c1.808-.723 3.254.723 3.977 2.169a4.34 4.34 0 0 1 .723 5.062c-.361.723-1.085 1.085-1.808 0s-.362-1.808-2.17-1.446L21.8 76.224a3.98 3.98 0 0 0-2.531 1.085c.769.444 1.643.678 2.531.678a5.06 5.06 0 0 0 2.531-.678 2.53 2.53 0 0 1 2.531-.723l-3.253 1.808c2.531.723 2.169.723 4.338-.362 1.186-.361 2.234-1.072 3.008-2.04s1.238-2.147 1.33-3.383a7.23 7.23 0 0 1 1.446-2.892c.723-1.085.362-1.085-.723-1.085s-2.531-.723-2.893-2.169a6.87 6.87 0 0 1-.361-2.892c0-.723.362-1.085 1.085-.723s1.084.723 1.084 1.085c.293 1.317 1.067 2.477 2.17 3.254.361 0 1.084.723 1.446.361.261-.212.441-.509.507-.839s.015-.673-.145-.969a1.81 1.81 0 0 1-.4-1.637c.071-.285.21-.548.406-.767s.442-.387.717-.489a11.93 11.93 0 0 1 6.146-1.446c1.085 0 2.531-.361 2.892 1.446s.362.723-.361.723a9.04 9.04 0 0 0-6.87.723c-.723 0-1.446.362-1.085 1.085s.724.723 1.447.723 1.084 0 .723 1.085 0 .723.723 1.085l3.254.723c.288 0 .563.114.766.318s.318.479.318.767c.361.723-.361.723-1.084 1.085a6.51 6.51 0 0 1-3.022.149c-1.005-.188-1.952-.611-2.763-1.234-.361-.361-.723-.723-1.085-.361-.654.523-1.187 1.182-1.561 1.931s-.581 1.57-.607 2.408c0 .362 0 .723.361.362s1.446.723 2.169 1.085.723.362.361.723-.723 1.085-.361 1.085 2.892 1.808 4.338 1.446c2.698-.642 5.267-1.742 7.593-3.254.723-.723 1.084-1.085 2.169 0 .05-.588-.02-1.179-.207-1.739a4.34 4.34 0 0 0-.878-1.515c-.361-.723 0-1.085.362-1.446s.723 0 1.085 0l1.446 1.446h1.085a2.17 2.17 0 0 1 1.085-2.531l2.531-1.446c1.808-.723 3.254-2.169 5.423-1.085h.723c.362-.723 1.446-1.085 1.808-2.169s1.085-1.446 1.808-2.531 1.446-.362 1.085-1.085-1.085.361-1.808.361-2.169-.723-2.893-.361-.723 2.169-1.446 2.892h-1.447c-.131-.147-.23-.319-.292-.505s-.086-.384-.069-.58c-.094-1.578.424-3.132 1.446-4.338 0-.723.001-.723-.361-1.085a8.32 8.32 0 0 1-2.531-2.531c-.723-1.085-1.085-1.085-1.808-.362-.149.099-.271.233-.356.391s-.129.334-.129.513.044.355.129.513.207.292.356.391c.293 1.092.279 2.243-.04 3.327s-.931 2.06-1.768 2.819c-.157.324-.429.578-.764.711a1.45 1.45 0 0 1-1.044.012c-.723-.723-.362-1.446 0-2.169a6.87 6.87 0 0 0 .724-2.531c0-.723 0-1.808-1.085-1.808a9.04 9.04 0 0 1-4.338-.723h-.724c0 .361 0 .723.362.723.798.685 1.419 1.553 1.808 2.531.605 1.294.948 2.695 1.01 4.122s-.158 2.852-.648 4.194c0 .361-.001 1.085-.724.723s-1.446 0-1.446-1.085c-.251-1.573-.127-3.183.362-4.7.159-.275.242-.587.242-.904s-.083-.629-.242-.904a8.68 8.68 0 0 0-1.985-3.077c-.873-.873-1.922-1.549-3.077-1.984-4.152-.628-8.391.271-11.931 2.531a2.53 2.53 0 0 0-1.446 2.169h-.723c-.251.077-.519.085-.774.021s-.488-.195-.674-.381-.317-.419-.38-.674-.056-.523.021-.774a4.34 4.34 0 0 1 2.169-2.892c1.085-.723 1.085-1.084 0-1.446l-1.084-1.446c-.361-1.085-.362-1.808-1.447-1.808l-2.531-.723c-.361 0-1.085-.361-1.085.362s0 1.446 1.085 1.446h1.085c-.723.723-2.17 0-2.17 1.085s-.723 1.808.723 2.169c-2.346.684-4.64 1.529-6.869 2.531l6.869-.723-9.761 2.531a8.68 8.68 0 0 0-3.615 1.808c-.362 0-.723.362-.723 1.085h.362l1.084-.723c.361-1.085 1.447-1.446 2.17-1.808l.723.362zm103.761-41.215a7.59 7.59 0 0 1 1.674 4.459c.065 1.628-.395 3.233-1.312 4.579h-1.085a.72.72 0 0 1-.723-.723v-2.169c.362-2.169 1.085-3.977-.723-5.785-.178-.199-.276-.456-.276-.723s.098-.524.276-.723a5.06 5.06 0 0 0-3.254.361c-.723 1.446-.723 1.446-1.446.361s-2.17-1.808-3.977-.723h-.361c-1.446.361-1.085 1.446-1.447 2.531s1.085.723 1.808 1.085a3.98 3.98 0 0 1 1.264.956c.352.4.621.867.79 1.373a3.99 3.99 0 0 1 .191 1.572c-.042.532-.191 1.049-.438 1.522-.361.723-.722 1.085-1.445.723s-1.085-.723-.723-1.446-.001-2.531-1.447-2.892h-.723c.362 1.446-1.084 1.808-2.168 2.169s-1.447-.723-2.17-.361a6.87 6.87 0 0 1-4.7-1.085c-1.808-1.085-2.53-1.085-3.976.723l-1.808 2.169c-.522.424-.88 1.018-1.012 1.678a2.89 2.89 0 0 0 .289 1.938v1.085a2.89 2.89 0 0 0-.114 1.308c.063.439.226.857.476 1.223.723 1.085.362 2.169-.723 3.254s-.362.361-.362.723c.009.423-.131.835-.395 1.166s-.636.557-1.05.642l-1.447 1.085c1.446-.362 2.531.723 3.615.361l6.508-2.892c.104-.037.199-.096.276-.175s.136-.174.17-.279.046-.216.031-.325-.054-.214-.116-.306c-.723-.723-.724-2.169-1.447-3.254s-.723-1.085-.361-1.446h1.085c.362 0 1.084.361 1.446-.361.205-.257.317-.575.317-.904s-.111-.647-.317-.904c-.362-.362-1.084-.723-.723-1.446h1.808c.544.354.993.835 1.308 1.402a3.97 3.97 0 0 1 .499 1.852c-.362 1.085.361 1.085.723 1.085 2.12-.309 4.119-1.183 5.785-2.531.361 0 .722 0 .361-.361 0-.384.152-.751.424-1.023s.639-.424 1.023-.424l1.445-1.446 1.808-2.531c.362-.362.723-.723 1.085-.362s.361.723 0 1.446l-1.085 1.808c0 .362 0 .723.362.723l2.891.723a20.97 20.97 0 0 1 7.955 2.892c.361 0 1.084.361.723.723s-.723.723-1.085.723h-2.531a32.53 32.53 0 0 0-7.953-2.169c-.362 0-1.085-.362-.724.361a8.67 8.67 0 0 1 .724 2.892h.723c2.169-.723 3.976.362 6.146.723h2.892a4.34 4.34 0 0 1 4.7.362c.362 0 .723.723 1.084.361a1.44 1.44 0 0 0 .362-1.085c-.048-1.948-.677-3.836-1.808-5.423-.723-.362-.723-1.085-1.084-1.808s-.362-1.446.361-1.808l4.339-2.892c.443-.256.811-.625 1.065-1.07a2.9 2.9 0 0 0 .381-1.461c-.165-.928-.084-1.883.233-2.771s.859-1.677 1.574-2.291c2.129-1.409 4.724-1.928 7.231-1.446.723 0 1.447 0 1.447-1.085s-.001-1.446-1.447-1.446h-.723c-.723 0-1.084 0-1.446-.723s.723-.723 1.085-1.446c-2.307-1.301-4.727-2.39-7.231-3.254h-1.446c-.362 0-.723.361-.723 1.085s-.362 2.892-.362 4.7.362.723.724.361 2.892.723 4.338.362.723 0 1.085.362-.363 1.085-.724 1.085l-2.531.723a9.04 9.04 0 0 0-5.423 1.808c-.723.361-1.446.723-1.807.361a1.08 1.08 0 0 1-.485-.904 1.08 1.08 0 0 1 .485-.904l.722-.723c.693-1.343 1.064-2.828 1.085-4.338a2.16 2.16 0 0 0-.211-1.25c-.193-.386-.497-.706-.874-.919a22.77 22.77 0 0 0-8.314-2.892c-.723-.362-1.447-.362-1.447.361s.362.723 1.085.723l4.7 2.169c.347.15.639.405.833.729s.283.701.252 1.078a3.98 3.98 0 0 1-.5 1.851c-.315.567-.764 1.049-1.308 1.402-.361.362-.723.362-1.085-.362a1.46 1.46 0 0 1 .069-.58c.062-.186.162-.358.292-.505.362-1.085.001-1.446-.722-1.808-1.894-.994-4.008-1.491-6.146-1.446h-1.446c-.843.694-1.832 1.189-2.893 1.446-.723.723-2.53.723-2.892 2.169s-.361 1.085-.723 1.085-.723-.723-.723-1.446-.723-2.892-3.254-3.977h-1.446c-.723-.362-1.085 0-1.085.362a1.81 1.81 0 0 1-.777 1.185 1.81 1.81 0 0 1-.67.273c-.239.045-.485.041-.723-.012H94.83c.361 2.892.361 2.892 2.531 2.892s2.892 1.446 3.977 2.169.722 2.892.361 2.892-1.446 0-2.169-.723a5.06 5.06 0 0 0-1.873-.966c-.685-.187-1.402-.227-2.104-.119-.361-.361-.361 0-.723.361a7.23 7.23 0 0 1-2.064 2.583c-.878.69-1.905 1.167-2.998 1.394 1.085.361 1.808.723 2.531.362.64-.486 1.437-.719 2.238-.652s1.549.428 2.1 1.013c.737.521 1.629.776 2.531.723h2.17c.723.361 1.084 0 1.084-.723a10.49 10.49 0 0 1 1.807-4.7c1.047-1.097 2.399-1.856 3.881-2.178s3.027-.193 4.435.371h6.146a26.03 26.03 0 0 1 8.677 6.508c.723.723.362 1.808 0 2.892a.73.73 0 0 1-.245.181c-.094.042-.195.064-.298.064a.72.72 0 0 1-.542-.245l-4.338-3.977c-1.084 0-2.17-1.084-3.254-1.084zm22.054 44.469c2.892.361 3.977-1.808 4.7-3.615s1.084-1.085.723-1.808a9.4 9.4 0 0 1 .362-5.423c0-.362-.001-.723-.362-.723s-1.808-1.808-3.254-2.169h.361l3.255 1.085c1.142.367 2.368.391 3.524.07s2.193-.974 2.983-1.878c.191.048.395.018.564-.084s.291-.267.339-.458a.75.75 0 0 0-.083-.564c-.102-.169-.267-.292-.459-.34-.55-.723-.808-1.626-.722-2.531a11.2 11.2 0 0 1 0-8.315c0-.362.361-.723 1.084-.723s.361.723.361 1.085a13.76 13.76 0 0 0 .362 5.423 6.15 6.15 0 0 0 .808 2.895c.505.883 1.221 1.628 2.085 2.166.723.361.722.723.361 1.446a2.53 2.53 0 0 0 .265 1.223c.19.379.472.704.819.946 1.339 1.281 3.084 2.054 4.932 2.186s3.684-.385 5.192-1.463c0 .723.361.723.723.723.095 0 .188-.038.256-.106s.105-.16.105-.256-.038-.188-.105-.256-.161-.106-.256-.106v-1.085c-.362-.723.361-1.085 1.445-1.085s1.085.723 1.447.361-.723-1.085-1.085-1.446l-1.085-1.085-2.168-2.169c-.723-.362-.724-1.446-.362-2.169.365-.912.456-1.91.264-2.873a5.07 5.07 0 0 0-1.349-2.55c-1.808-1.446-2.892-3.254-5.061-3.977s-1.447-.723-1.447-1.808a16.99 16.99 0 0 0-1.446-6.146c-.155-.512-.434-.978-.812-1.356a3.26 3.26 0 0 0-1.357-.813c-2.531-.361-2.53-.361-2.892-2.892-.293-1.317-1.067-2.477-2.169-3.254a5.79 5.79 0 0 0-2.621-1.043 5.78 5.78 0 0 0-2.802.32l1.446.723a3.98 3.98 0 0 1 1.479.799c.43.369.776.825 1.016 1.338s.367 1.072.373 1.639a3.97 3.97 0 0 1-.337 1.647c-.362.723-.724 1.085-1.447 1.085s-.723-.361-1.084-1.085v-1.085c0-.723-.361-1.085-1.084-1.446l-4.7-1.446a6.51 6.51 0 0 0-6.87.361c-.362.361-.723.723-.361 1.085s.361.723.723.362h1.446c1.26.152 2.458.633 3.474 1.394s1.812 1.777 2.31 2.944c.724 1.446 1.446 1.085 2.531.723l3.977-.723c.362 0 .723-.362.723 0s.361 1.084-.362 1.446-2.169 2.531-4.338 2.892-1.446.723-1.808 1.808-.722.723-1.445 1.446h-.723c-.362 0-.362-.362-.362-.723v-.723c.361-.723-.001-1.446-.362-1.446s-.722.361-1.084.361-1.808 1.808-3.615 1.085-1.085-.723-.362-1.446c1.168-1.299 2.143-2.76 2.892-4.338 0-.723 0-.723-.723-1.085h-.723c-1.808-.361-2.169-.362-3.254 1.085l-1.085 1.085-3.253 2.169a.72.72 0 0 0-.181.245c-.042.093-.065.195-.065.297s.023.204.065.297a.72.72 0 0 0 .181.245c1.031 2.648 1.522 5.475 1.446 8.315 0 .361-.362.723 0 1.085 1.114 1.405 1.971 2.996 2.53 4.7 0 .362.001.723.362.723h3.254c.361 0 .723-.361.361-.723s.362-1.808-1.084-2.531 0-.723.362-.723.722-.723.722-1.446-1.445-2.531-3.253-2.531a1.45 1.45 0 0 1-1.447-1.085c0-.723.724-1.085 1.447-1.085.927-.131 1.871-.035 2.753.28a5.78 5.78 0 0 1 2.308 1.527c.362.723.361 2.169 1.446 2.169s1.446-1.085 2.169-1.446a5.79 5.79 0 0 1 2.021-1.17c.746-.249 1.534-.343 2.318-.276.723.362 1.084 0 1.084-.723s.724-3.254 2.17-3.615 1.807-1.808 1.446-3.615v-.723c0-.723 0-1.446 1.085-1.446s1.807.361 1.807 1.085v1.446c0 1.085.362 1.808 1.808 2.169.878.066 1.709.421 2.363 1.01s1.095 1.378 1.252 2.244a23.15 23.15 0 0 0 .723 2.531c0 .723 0 1.085-.362 1.085s-1.084.361-1.084-.361c-.694-.843-1.189-1.831-1.446-2.892-.362-.723-.723-1.085-1.446-1.085s-4.7-.361-5.785 2.531a1.8 1.8 0 0 1-.191.808c-.125.251-.307.469-.532.638a2.17 2.17 0 0 0-.29 1.085c0 .381.1.755.29 1.085-2.169.723-4.338-.362-6.146 1.085h4.7c.362 0 .723 0 .723.723h-2.53c-.723 0-1.447-.362-2.17.361h1.808v.723c0 .362-.001.362-.362.362a9.76 9.76 0 0 1-4.699.723c-.362 0-.724 0-.724.723s.362.362.724.362h3.253c.362 0 .723-.362.723.362s-.362.723-1.085.723h-3.976c0 .723.362.723 1.085.723h4.338l-.723.723c-1.085-.362-2.17.723-3.254.361s-2.169.723-3.254 1.808h2.531c-.362.723-.723.723-1.446 1.085h1.808c-1.085 0-.724.723-.724 1.085.168.224.387.407.638.532a1.81 1.81 0 0 0 .809.191c.361 0 .722.361.361.723a3.97 3.97 0 0 0-.361 2.892c0 .192-.077.376-.212.511s-.32.212-.511.212l-2.893.723c-.361 0-.723 0-.723.723s-.361 1.085-1.084.723-.362-.723-.723 0-.724 1.446-.362 1.808 1.085 1.808 2.169 1.085l4.339-1.808c.723 0 1.084 0 1.084.723s0 .723-.362.723l-1.807 2.892zm-73.392-7.954v1.085l4.7-1.446c0 .362-.362.723-.362 1.085 2.819-.185 5.62.579 7.954 2.169.723.723 1.085.723 1.808-.361a5.06 5.06 0 0 1 4.699-2.892c.288 0 .564-.114.767-.318s.318-.479.318-.767a2.17 2.17 0 0 0 .362-1.446c.723-2.892 1.084-4.338 4.338-3.254s3.977 1.085 5.785-.723 2.531-2.169 5.062-1.085c-.107-1.134.146-2.272.723-3.254.361-.723-.362-.723-.723-1.085s-3.616-1.808-4.701-3.615-1.084-.362-1.446 0a9.4 9.4 0 0 1-4.7 3.615l-5.423 1.446H92.3c.723 0 1.446.362 1.446 1.085s-1.084.723-1.446.362h-5.423c-1.085 0-.362 1.446-1.085 2.169-.362.723-.362 1.085-1.085 1.085a1.81 1.81 0 0 1-1.085-1.808c1.085-2.531-.723-4.338-2.531-6.146a11.93 11.93 0 0 0-5.423-1.808c.464 1.156 1.071 2.249 1.808 3.254.361.723 0 1.085 0 1.446s-1.084.361-1.446.361-3.616-4.338-3.254-5.423.362-1.446 1.447-1.446 1.445-.362 1.084-1.446a7.23 7.23 0 0 0-3.615-2.892c-3.254-1.446-5.422 1.446-8.315 1.446-.209.185-.339.444-.362.723l-1.808 2.169c0 .361-.724.723-.362 1.085h1.085c1.085 0 2.17-.362 3.254.361l1.084.723c0 .288-.114.564-.318.767s-.479.318-.766.318c-1.808 0-3.254 1.446-4.7 1.446s-1.085.361-1.085 1.085h2.169l4.338-.723c1.808-.723 4.338-1.085 5.423 1.085a6.87 6.87 0 0 0 5.061 2.531h1.447c3.254 1.446 4.338 2.892 3.976 5.785s0 1.085-.723 1.085-1.084-.362-1.446-1.085-1.446-2.892-3.615-3.254-1.808-.361-2.169 1.446c-.076.63-.317 1.229-.697 1.737s-.889.906-1.472 1.156a18.07 18.07 0 0 1-4.338 2.169zm6.87 5.785c.723.723 2.53.361 1.446 2.169h.362c0 .361.362.723 0 1.085s-.362 3.254-.724 4.7 0 1.446 1.085 1.446a16.63 16.63 0 0 1 5.062 2.531c.178.199.276.456.276.723s-.098.524-.276.723c-.362.723-.723.361-1.085 0l-2.892-1.085a7.23 7.23 0 0 0-6.146.362l-1.808 1.085c-.361.362-1.085.723-1.447.362a2.17 2.17 0 0 1-.361-1.446 2.53 2.53 0 0 0-.191-2.023c-.17-.306-.401-.573-.68-.785a2.53 2.53 0 0 0-.937-.446c-.362-.362-1.085-.362-1.085.361s.362.723-.723 1.085l-4.7.723c-.723.362-1.446.361-1.085.723 0 .384-.153.751-.424 1.023s-.639.423-1.022.423c-.723.362-.723.723-.723 1.085-.241.446-.385.938-.424 1.443s.03 1.013.2 1.49.439.913.789 1.28.773.656 1.242.848c.723.362 1.445.723 1.084 1.808s.362 1.085 1.085 1.085h3.254a2.17 2.17 0 0 0 2.531-.362h1.446c2.531-.362 5.062 0 6.87-2.169a19.16 19.16 0 0 1 5.423-3.977 2.17 2.17 0 0 1 2.892 0c1.085 1.085 2.531.723 3.615 1.085.092.061.197.101.306.116a.72.72 0 0 0 .325-.031c.105-.035.2-.093.279-.171a.72.72 0 0 0 .175-.276c-.723-.361-.723-1.446-1.446-1.808-.24-.043-.468-.134-.672-.267s-.379-.307-.514-.509a1.81 1.81 0 0 1-.261-1.393c-.361-.723-1.807-1.808-.361-2.531-.361-1.085.723-2.531-1.447-2.531h-.361c0-.723-.361-.723-.723-.362s-1.446.723-1.808 0 .723-.723 1.446-1.085c.362-.362 1.085-.362 1.085-1.085l-1.085-.723c-.723-.723-2.169-2.531-1.808-3.615s-.361-.723-.723-1.085-2.892.362-4.338 0zm83.153-8.677c-.362 1.446-.001 2.531-.362 3.977l-.723.723h-1.085c-.361-.723-.723-1.085-.723-1.808.297-1.058.418-2.157.361-3.254 0-1.085-.361-1.446-1.084-.723a9.04 9.04 0 0 1-4.339 1.446h-.361a3.61 3.61 0 0 0-.567 3.056 3.61 3.61 0 0 0 .738 1.411 3.62 3.62 0 0 0 1.275.956c.723.362 1.446 1.085.723 2.169s0 .361 0 .723 1.808 2.892 2.531 3.977.723.723 1.446.723a3.98 3.98 0 0 0 2.893-.362h1.084c.362.723 0 .723-.362 1.085a3.61 3.61 0 0 1-1.098 1.078c-.44.276-.933.455-1.448.524s-1.038.026-1.534-.126-.954-.408-1.343-.753c-1.807-1.808-3.977-3.615-3.977-6.508v-.723h-.723c-1.084 1.446-1.445 3.615-3.976 4.338s1.808.362 1.808 1.446-.362.361 0 .361.723.723.723 1.446.361 1.446 1.084 1.446h3.254a3.25 3.25 0 0 0 1.862.371c.644-.064 1.255-.32 1.753-.733h.723a7.23 7.23 0 0 0 5.785-2.531l2.169-2.892c.723-1.085 1.446-1.808.723-3.254s0-.723 0-1.085a8.68 8.68 0 0 1 1.808-3.615 17.71 17.71 0 0 1-9.038-2.892zm-8.678 31.092a9.4 9.4 0 0 0-3.615-1.446c-.723 0-1.446-1.085-1.808 0-.442.501-.698 1.14-.723 1.808.362.723 0 1.085 0 1.808.044.812-.096 1.624-.409 2.375a5.43 5.43 0 0 1-1.398 1.963l-5.061 3.254c-.723.362-1.447.723-1.808-.361s-1.085-.723-1.447 0c-.538.637-1.2 1.158-1.946 1.531s-1.559.59-2.392.639c-.361.361-.362.361-.362 1.085.402.993.48 2.088.22 3.128a5.06 5.06 0 0 1-1.666 2.657c0 .361-.361.723.362 1.084s.723.362.723 1.085c-.077.068-.139.151-.181.245s-.064.195-.064.297a.73.73 0 0 0 .064.298c.042.093.104.177.181.245.362.361.723-.362 1.085-.362a.78.78 0 0 0 .723-.723c0-.362.362-1.085 1.085-.723s.723.362.723 1.085-.363 1.446.361 2.169v-1.446c.361-.723 1.084-1.447 1.807-1.085s.724 1.085.362 1.808a6.51 6.51 0 0 0 .362 3.615c0 .723.361.362.723.362s.722-.723.361-1.085c-.216-.406-.296-.87-.231-1.324s.272-.878.593-1.207c.126-.212.207-.447.239-.691a1.8 1.8 0 0 0-.054-.73 1.82 1.82 0 0 0-.34-.649 1.81 1.81 0 0 0-.568-.46c-.208-.074-.397-.193-.552-.351s-.272-.347-.341-.557-.092-.432-.062-.651.109-.427.232-.611c.361-1.807.722-3.254-.724-4.7s-1.084-1.446-.361-1.808 1.446-1.085 2.169-.362l1.085 1.446c.508.659.868 1.42 1.055 2.231s.197 1.653.029 2.468c-.122.208-.19.443-.198.684a1.44 1.44 0 0 0 .152.695 1.43 1.43 0 0 0 .465.539c.197.138.427.224.666.251-.088-.978.035-1.965.361-2.892.362 1.808.362 3.616.724 5.423s1.446-.723 1.446-1.807v-7.231c.192 0 .375.076.511.212s.212.32.212.511v5.784c0 .362-.362 1.085.723 1.085s1.084 0 1.084-1.085c.18-1.924.18-3.86 0-5.784 0-1.446-.361-2.169-1.807-2.169s-1.446-.362-1.808-1.085 0-1.446.723-2.169 1.808 0 2.892 0 1.808 0 2.17-.723c-.048-.192-.018-.395.084-.564a.74.74 0 0 1 .458-.34c.192-.048.394-.018.564.084a.75.75 0 0 1 .34.458c1.084.723 2.892-.361 2.53-1.446s-.361-1.446.724-1.808.723-.362.723-1.085h-1.808c-.723-.362-1.446-.362-1.807-1.085s.722-1.085 1.445-1.808zm-27.476-7.592c.362.723.723.362 1.084.362s4.339.362 6.147-.723 1.446-.361 2.169 0 1.084 0 1.084.723c0 .142-.028.283-.083.415s-.134.251-.234.352a1.09 1.09 0 0 1-.353.235 1.08 1.08 0 0 1-.414.083l-2.893 1.446a2.18 2.18 0 0 0-.828.525c-.232.236-.407.522-.512.836a2.17 2.17 0 0 0 .256 1.893c.362 1.085.362 2.531.723 3.977-.143.637-.387 1.247-.723 1.808-.723.723-1.446.361-1.807-.362-.27-.816-.393-1.672-.362-2.531.052-.238.056-.484.011-.723a1.81 1.81 0 0 0-.785-1.179 1.81 1.81 0 0 0-.672-.267c-2.892-.723-5.062 1.446-7.955 1.446s-.722 0-.361.723h.723c1.085 0 1.808-.361 2.531.362s1.084-.362.723.362h-.723c-1.289-.027-2.554.353-3.615 1.084a13.38 13.38 0 0 1 3.977.362h1.085a1.46 1.46 0 0 1-.07.58 1.44 1.44 0 0 1-.292.505c-.723.362-.362.362 0 .723a11.57 11.57 0 0 0 4.7 3.615c.361.362.723.723 1.446 0a4.7 4.7 0 0 1 3.254-1.446 1.81 1.81 0 0 0 1.392-.261 1.81 1.81 0 0 0 .509-.513 1.8 1.8 0 0 0 .268-.672 9.04 9.04 0 0 0 1.807-6.146.36.36 0 0 1-.361-.362.36.36 0 0 1 .361-.362c.733-.508 1.275-1.247 1.537-2.1a3.98 3.98 0 0 0-.09-2.6 27.49 27.49 0 0 1 2.892-7.592c.361-.723-.361-1.085-.361-1.446s-.724 0-1.085 0a6.51 6.51 0 0 1-2.531 1.808c-1.084.362-2.169 1.085-3.615.362a.72.72 0 0 0-.631-.085c-.105.035-.201.093-.279.171s-.138.172-.175.276c-.361 1.085-1.446 1.085-2.531 1.446h1.085c.362 0 1.085 0 .723.723l-.723.723c-1.084 0-2.169.723-3.615.361l-1.808 1.085zM78.561 18.378c-.748.543-1.364 1.247-1.802 2.061a6.15 6.15 0 0 0-.728 2.639c-.362 1.085-.723 1.446-1.808 1.446H71.33c-.723 0-1.084.362-.723 1.085a5.42 5.42 0 0 1-.068 2.718c-.253.886-.728 1.692-1.379 2.344-.723 1.446-.723 1.446 1.085 1.808 2.165.096 4.274.716 6.146 1.808 1.446 1.085 2.531 2.169 2.17 3.977s2.892 2.892 3.615 2.169l2.892-1.085c.723-.361 1.084-.723 1.084-1.446s-.361-1.446.362-1.446 1.084-.723.723-1.446-.723-1.808-1.808-1.084h-.723c-1.141-.482-2.401-.608-3.615-.362l-3.254-.723c.362-.723 1.084-.362 1.446-.723a5.06 5.06 0 0 1 5.785-1.085c.362.361.723.723 1.446.361s0-.723 0-1.085c-.209-.897-.185-1.832.068-2.718s.727-1.692 1.378-2.344l.724-1.085c.362-.723.361-1.085-.362-1.085H85.43c-1.446-.361-1.808.361-1.808 1.446a5.06 5.06 0 0 1-4.7 4.7c-.199.178-.456.276-.723.276s-.524-.098-.723-.276a1.81 1.81 0 0 1 .252-1.078c.195-.324.486-.579.833-.729.723 0 1.084-.723 1.446-1.085s.362-1.446-.723-1.446h-1.085c0-.723-.362-1.808 0-2.531.444-.554.716-1.227.78-1.934s-.081-1.418-.418-2.043zm5.061 45.192h7.231c.362.362 1.085.362 1.085 1.085 0 .383-.153.751-.424 1.023s-.639.424-1.022.424c-1.085-.362-2.169.362-3.615.362s-.723 0-.362.361 0 .723.362.723h3.253l-2.169.723c-.723 0-1.085 0-.723.723l.723.723c1.808-.362 3.615-.362 4.7-1.808s1.085-1.085 1.808-.723c2.203.174 4.322.922 6.146 2.169.362 0 1.085.723 1.447.362s0-.723 0-1.446-.001-2.531-1.447-2.892l-.723-.723c0-.362 0-.723.362-.723s1.446-.723 1.808-1.446a3.62 3.62 0 0 1 1.807-1.446h1.085c0-.723-.723-.723-1.085-1.085l-3.977-1.808c-.723-.723-.723-1.446-.361-1.808s.723-.362 1.446-.362l1.085.723 2.53 1.446c1.085.361 1.446-.723 1.808-1.085a.73.73 0 0 0 .116-.306c.014-.109.004-.221-.031-.325a.72.72 0 0 0-.171-.279c-.077-.079-.172-.139-.276-.175-.603-.634-1.092-1.368-1.446-2.169 0-1.085-.361-1.085-1.084-.723l-2.169 1.808h-1.085v-.723c0-.362.723-.723 0-1.085s-1.085 0-1.447.361c-1.494.586-3.098.833-4.699.723a4.34 4.34 0 0 0-2.893.361h3.615c-1.085.362-2.169 1.808-3.615 1.808h-3.977c-1.085.361-1.446.361-1.808 1.446h1.085c1.085-.723 2.169-.361 3.253-.361s1.085-.362 1.085.361-.723.362-1.085.362a15.54 15.54 0 0 0-5.784 1.808c1.808.362 3.615 0 5.061 1.085s-3.254 1.446-5.423 2.531zm27.838-3.254h4.7c1.446-.361 2.17.362 2.17 1.808-.297.809-.42 1.671-.362 2.531-.723 1.446.361 2.531.723 3.615h.724c1.446-.723 2.891-1.446 3.976.362h.723c1.446.361 2.892-.362 3.977 1.085h.723c1.931-.649 3.67-1.767 5.062-3.254 0-.362.361-.362 0-.723a4.7 4.7 0 0 1-1.499-2.309c-.258-.902-.239-1.861.052-2.752.009-.423-.131-.835-.395-1.166s-.636-.557-1.05-.642c-1.447-.361-1.809-1.808-2.17-2.892s.723-1.085 0-1.085-1.084.362-1.446.723c-.077.25-.209.48-.384.675a1.8 1.8 0 0 1-.631.452 1.81 1.81 0 0 1-.763.146 1.8 1.8 0 0 1-.752-.188c-2.531-.361-2.893-.361-3.978 1.446s-1.084 1.446-2.53 1.085-.723-.723-1.085-.362-2.169.362-3.253.723-1.809-.362-2.532.723zm-4.338-16.269c-1.085 1.446-2.169 2.892-.723 4.7.054.51-.074 1.022-.362 1.446-.361.362-1.084 1.085.362.723s1.085.361 1.085.723 1.084 2.169 1.446 3.615c0 .192.076.376.211.511s.32.212.511.212.377-.076.512-.212a.72.72 0 0 0 .212-.511c.362-.723 1.085-.723 1.808-1.085l3.615.723a5.06 5.06 0 0 0 3.254.362c.723-.723 1.085-1.808 2.169-2.531s.362 0 0-.362 0-1.085 0-1.808 0-1.808-1.807-1.808-1.447 0-1.447-.723-1.085-1.446-1.808-1.808l-5.423-.723c-.723 0-1.446 0-1.807-1.085 0-.288.114-.564.317-.767s.48-.318.767-.318a13.74 13.74 0 0 1 8.677 1.085h1.446c.362-.362.362-.723 0-1.446s-1.807-1.808-1.807-2.892-1.085-1.446-2.17-1.808h-1.446c-1.084-.362-1.446 0-1.807 1.085s-1.085 2.531-2.531 2.531c-1.303.323-2.454 1.09-3.254 2.169zm-77.73 6.508a8.68 8.68 0 0 1 3.254 2.892 2.17 2.17 0 0 0 2.169.362h4.7c1.958-.291 3.959-.041 5.785.723 0-1.808-.362-3.615-.362-5.062s0-2.169-1.446-1.808l-1.447-.723c-1.085-.362-2.169-1.446-3.253-.361-.495.532-.879 1.158-1.127 1.841s-.357 1.409-.319 2.135c0 1.446-.723 1.808-1.446 1.808-.384 0-.752-.152-1.023-.424s-.423-.639-.423-1.022a6.51 6.51 0 0 1 1.117-4.605c.938-1.34 2.346-2.277 3.944-2.626.362 0 .723 0 .723-.723a6.51 6.51 0 0 1 1.447-3.254 11.21 11.21 0 0 0-4.374.256c-1.427.372-2.766 1.022-3.941 1.913-3.254 2.169-3.615 4.338-1.808 7.954s0 1.085-.723 1.085-.724-.723-1.447-.362zM26.5 86.708l-2.892 1.808-7.231 4.338v.723h.723c.667.246 1.387.308 2.087.181a3.98 3.98 0 0 0 1.89-.904c.551-.784 1.3-1.407 2.169-1.808l10.484-4.7c.723 0 1.085-.362.724-1.085a16.99 16.99 0 0 0-2.169-5.423c0-.362 0-.723-.362-.362-.499.052-.982.208-1.418.457s-.815.586-1.113.99c-.723.723 0 1.085.362 1.446l1.446 2.892v.723c-.361.362-.362.723-1.085.362l-2.53-.723c0-.362 1.084.362.723-.361-.402-.887-.886-1.734-1.446-2.531h-.723c-1.446 1.085-3.977 1.446-4.7 3.615s-1.085 1.808-1.808.361h-.723c-1.87.919-3.485 2.285-4.7 3.977 1.446 0 2.169-1.085 3.615-1.085-1.273 1.11-2.745 1.969-4.338 2.531-.362 0-.723 0-.723.362s0 1.084.723 1.446.361 0 .723-.361l3.977-2.892 7.592-3.977h.723zm35.792 24.585c-2.169-.362-3.616.723-5.062.723s-2.169 0-3.253 1.446l10.484-.723c1.085-.362 2.17-.723 2.17-1.808.292-.733.795-1.362 1.446-1.808 1.446-1.446 1.447-1.807.362-3.253-.428-.668-1.063-1.176-1.808-1.446-2.531-1.085-2.531-.362-2.531-3.254s0-.723-.723-.362-1.085-.723-.724-1.084.001-1.446-.361-2.169-2.531-2.169-3.977-3.615h-.723c.723 1.446-.723 1.085-1.085 2.169h-.723c-1.608.15-3.189.515-4.7 1.085h5.423a1.45 1.45 0 0 1 .834.14c.258.129.471.332.613.583 0 .723-.724.723-1.447 1.085h1.085c.566-.032 1.131.085 1.638.338s.94.636 1.254 1.108c.361.723-.362 1.084-.362 1.807s-.723.723 0 1.085 1.084 1.446.723 2.169.362 1.446 1.085 1.808h1.085c.362 0 1.446-.362 1.446.361s-.722.723-1.084 1.446h-.724c-1.019-.108-2.043.148-2.892.724.723.723 1.807.361 2.53 1.446zM35.177 80.201c.651.688 1.036 1.585 1.085 2.531.804 2.707 1.769 5.363 2.892 7.954a3.98 3.98 0 0 1 .952 2.291c.065.846-.142 1.69-.591 2.409-.723 1.085-.362 1.446.723 1.446.928.165 1.883.084 2.771-.233s1.678-.86 2.291-1.575c1.085-1.085 2.169-2.531 3.615-2.892s1.807-1.085 1.446-2.169l-2.169-2.531a2.53 2.53 0 0 0-2.169-.723c-.723 0-.723.723-.723 1.085l-1.085 1.085a1.81 1.81 0 0 1-1.447-.723 11.93 11.93 0 0 0-2.531-4.7c-.464-.954-1.181-1.763-2.074-2.337s-1.926-.891-2.987-.917zm17.715 31.815c.361-1.446.723-2.531 0-3.616-.154-.135-.277-.302-.361-.489a1.45 1.45 0 0 1 0-1.19 1.45 1.45 0 0 1 .361-.49c.361-.361.723-.723 0-1.084s-1.084-1.808-2.169-1.808-.362-.362-.362-.723-.723-1.085-1.446-1.446-3.615.723-5.423 0h-.362a2.16 2.16 0 0 0-.828.525 2.17 2.17 0 0 0-.604 1.812c.044.328.163.641.347.917 1.085 1.807 1.808 1.807 3.254.723s.722-.362 1.084.361-.361.723-.723.723c-.932.75-1.781 1.599-2.531 2.531-.361.361-.723.361-.362.723a6.51 6.51 0 0 1 2.17 3.254h.723l2.892-1.446c.723-1.085 1.085-1.446 2.17-1.085s-1.085.723-.362 1.085h1.085c1.085-1.446 1.084.361 1.446.723zm39.046-27.115l1.808.723c.723 0 1.446 0 1.808.723s1.084.723 1.446.361a1.81 1.81 0 0 0 1.085-1.808 4.7 4.7 0 0 1 3.254-4.7c.361-.362 1.084-.361.361-1.085-.712-1.405-1.56-2.737-2.531-3.977-.362-.723-1.084-1.446-.723-2.169s.361-.723 0-.723a3.98 3.98 0 0 0-1.432-.768c-.525-.155-1.076-.2-1.619-.132s-1.066.247-1.537.526-.878.653-1.198 1.097c-.723.482-.723.844 0 1.085 1.085.362 1.446 1.446 2.531 1.808s.723 1.085.362 1.808-.723.362-1.446.362l-2.17-.723c-1.085-.723-1.446-.362-1.808.723a4.34 4.34 0 0 0 .362 2.892l.723 1.085c1.446.362 3.254-.362 4.7.362s1.084 0 1.084.723-.722.723-1.084 1.085l-3.977.723zm14.823 15.546c.361-.362.722-.724.361-1.085s0-1.808.362-2.531a1.44 1.44 0 0 0 .292-.505 1.46 1.46 0 0 0 .069-.579 30.71 30.71 0 0 0 0-5.785c-1.808 0-2.169-1.085-1.808-2.531-.502-1.411-1.377-2.66-2.53-3.615-.362-.723-1.085-.362-1.446 0a3.62 3.62 0 0 0-1.447 1.808c-.317 1.496-.801 2.952-1.446 4.338-.413.498-.668 1.108-.733 1.752s.065 1.293.371 1.863l1.085-.723h1.085a2.53 2.53 0 0 1 1.126-.067c.376.063.732.209 1.044.429.723.362.36 1.085-.724 1.446s-1.807 1.446-1.084 2.531.723-1.085 1.446-.723.362.723.362 1.446.361 1.085.361 1.808-.001.723.722.723c.192 0 .377-.077.512-.212s.212-.32.212-.511c0-.723-.362-1.085-.362-1.446s0-1.446.723-1.446.723.723.723 1.446-.361 1.446.724 2.17zm5.423-24.946v.723h-3.254c-.724 0-1.085 0-1.085.723s.362.362.724.362h1.445c.723 0 1.446 0 1.446 1.085s.724 1.085 1.447 1.446.723-.723.723-1.085l1.084-.723c1.026-.455 1.925-1.154 2.618-2.036a6.86 6.86 0 0 0 1.359-3.025c.723-.723.723-1.808-.361-2.169s-1.085-1.085-1.447-1.446c-.258-.953-.755-1.824-1.446-2.531-.361 1.446-1.446 2.169-2.169 3.254s-1.446 1.446-2.892.723h-1.085a19.88 19.88 0 0 1-6.507.362.36.36 0 0 0-.362.361c0 .362 0 .723.362.362h8.676l-3.615.723c-.362 0-1.085 0-.723.361s.361.362.723.362l4.339 2.169zM78.199 88.878h4.338c1.085.362 2.531.723 2.892-.723h.723c.362.362.362.362 0 .723v1.085c-.361.362 0 .361.362.361s.362.362.362 0 1.084-3.615.723-4.338-.723-1.085-.723-1.808-1.808-2.892-2.892-2.169-1.808.362-2.892-.362-.723-.361-1.446 0-2.531 2.892-3.977 3.977-.361.723 0 .723a16.63 16.63 0 0 1 2.531 2.531zm11.208-67.968c-.723-.723-.362-1.085.361-1.446 1.311-1.216 2.195-2.823 2.521-4.581s.075-3.575-.713-5.18c-.361-.723-.722-.361-1.084-.361s-4.7 2.169-5.062 5.423l-1.446 1.446c-1.013.708-1.774 1.721-2.169 2.892-.362 0-.723.723 0 .723s5.062 1.446 7.593 1.085zm-63.63 101.23l-1.085-3.616c0-1.084-.722-2.53.724-3.615s.361-.723.361-.723a.72.72 0 0 0-.244-.181c-.093-.042-.195-.064-.297-.064s-.204.022-.297.064-.178.104-.245.181c-.361.723-1.085.723-1.808.723s-1.085 0-1.808-.362 0-.723.362-1.084.723-1.446 1.085-2.169c.224-.169.407-.387.532-.638a1.81 1.81 0 0 0 .191-.808h-.723c-.723.361-1.085 1.084-1.808.361s-.362-1.085 0-1.446c0-.362.362-.723 0-1.085s-.723-.723-1.085-.361l-5.061 2.169s-.723 0-.362.723a11.57 11.57 0 0 0 4.338 5.062l.723 1.084c.249 1.568 1.034 3.001 2.221 4.055s2.701 1.666 4.287 1.73zm29.646-75.561c-1.085 0-1.808-.362-1.808-1.446h-.361c-1.808 0-1.085-1.446-1.085-2.531a2.53 2.53 0 0 0-1.446-2.169c-.723-1.085-5.423-.361-6.508.362a2.53 2.53 0 0 0-1.085 2.892c.723 1.085 1.446 1.085 2.531 1.085h4.338l.724.723c0 .192-.076.376-.212.511s-.32.212-.512.212l-1.808 1.085c-.494.529-.797 1.206-.862 1.926s.111 1.442.501 2.05h1.085l4.338-2.169h.361c-.362-2.169 1.085-1.808 1.808-2.531zm90.384 27.115c-.723-.723-1.446-.362-2.169-.362s-1.808-.362-1.446-1.446-.362-1.085-.723-.723-2.169 0-2.169 1.446 0 .723-.362.723-2.892 5.423-1.446 8.677c0 .281-.066.557-.191.808a1.82 1.82 0 0 1-.532.638c-2.17 1.808-.723 4.7-2.169 6.869s1.808-1.446 2.892-1.446a2.89 2.89 0 0 0 1.592-1.065c.394-.526.598-1.17.577-1.827 0-1.808-.361-3.254 1.085-4.7a1.44 1.44 0 0 0 .292-.505 1.46 1.46 0 0 0 .07-.579c.188-1.253-.068-2.532-.724-3.615l-.723-1.808a1.09 1.09 0 0 1 .207-.402c.097-.118.218-.214.354-.282a1.09 1.09 0 0 1 .439-.114c.152-.007.305.019.447.075 1.807 1.446 3.253 0 4.699-.361zm-49.891 33.261c-.29-.271-.484-.631-.549-1.023a1.81 1.81 0 0 1 .187-1.146c.282-1.16.331-2.364.145-3.543a9.04 9.04 0 0 0-1.23-3.326c-.157-.324-.429-.578-.763-.711s-.707-.138-1.044-.012c-1.085 0-.361.723-.361 1.446s-.001 1.085-.724 1.446-.723.362-.723.723.362 3.254.362 5.062l.723.723 5.061 2.892h.724c.369-.928.612-1.9.723-2.892.071-1.936-.05-3.873-.362-5.785 0-.723 0-1.446-.723-1.446s-.723.723-.723 1.446c.1 2.075-.144 4.152-.723 6.146zm-42.3-71.584c-.362.362-1.085.723-.723 1.085-.024.095-.029.194-.014.29s.048.19.098.274.117.157.196.215.168.1.263.124.194.029.29.014.19-.048.274-.098.157-.117.215-.195.101-.168.124-.263h1.808c1.085 1.808 2.169 1.446 3.254 0s2.169-3.615 5.061-3.615.362-.362.362-.723 1.446-2.169 1.808-3.254 1.085-1.446 1.085-2.169-.362-1.446-1.085-1.085l-2.17 1.446a6.87 6.87 0 0 1-4.338 3.254l-1.085.723c-.723.723-1.445 2.169-2.892 2.169a6.51 6.51 0 0 0-2.531 1.808zm-14.1 84.599c1.446-1.084 1.807-2.892 3.253-3.976v-.723c-.258-1.061-.751-2.05-1.446-2.893-.723-.361-1.084-.361-1.446 0a48.08 48.08 0 0 0-5.062 6.869c-.723.723-1.084 2.17-2.531 2.531H31.2c-.361-.723.362-.723.362-1.084l1.808-1.447c1.085-1.446 1.446-3.253 2.892-4.338a3.25 3.25 0 0 0 .95-.933 3.26 3.26 0 0 0 .496-1.236c-1.452.626-2.795 1.48-3.977 2.531-1.253 1.734-2.709 3.312-4.338 4.699-1.085.724-.723 1.447 0 2.17.624.696 1.473 1.15 2.399 1.282a3.98 3.98 0 0 0 2.663-.559c.362-.362.723-.723.361-1.085s.361-1.084.723-1.084l1.085-.724c1.004-1.602 2.22-3.061 3.615-4.338 0-.361.361-.723.723-.361s0 .723 0 1.084c-.84 1.029-1.344 2.291-1.446 3.615zm43.746-7.23c1.085-.723 1.807-.362 2.169.361s.001 1.085-.361 1.808-1.085 1.446-.362 2.169 5.062-.361 5.785-1.807a10.11 10.11 0 0 1 2.892-3.977c.362-.723.001-1.085-.361-1.085-.714-.538-1.537-.914-2.411-1.101s-1.779-.182-2.651.016h-.361c-.362-.723-1.446-.723-1.808-1.084s-1.447 0-1.447.723l-1.084 3.977zm42.299-73.03h-.722c-1.085-1.446-1.809.362-2.532.362s.001 1.085.362 1.446c.646 1.354.775 2.897.362 4.338a1.44 1.44 0 0 0 .361 1.085c.53.737.815 1.623.815 2.531s-.285 1.793-.815 2.531c-.362.723-.723.723.362 1.085s1.807 0 2.53-1.446.723-2.531 1.808-3.254h.362c0-1.085-.723-2.531.723-3.615-.209-.185-.339-.444-.362-.723-.362-2.531-2.169-3.615-3.254-4.338zM75.307 92.131c.361.723.361 1.085 0 1.446s-.723.361-.361.723.723.362 1.085-.362 1.085-1.808 0-2.892a4.7 4.7 0 0 0-4.339-2.531l-1.446-.723c-1.446-.362-2.531 0-2.892 1.446v1.085c-.813 1.575-1.304 3.295-1.446 5.062-.362.723-.001 1.085.361 1.446s.723-.362 1.085-.362 2.892-2.169 4.7-2.892h.723c.723.723 1.085 0 1.447-.362l1.084-1.085zm97.253-38.323h-.362l-1.085 2.169-.723 1.085c0 .723-.361 1.084-1.445 1.446a1.81 1.81 0 0 0-1.929.806c-.198.318-.293.689-.272 1.063a1.81 1.81 0 0 0 .393 1.024c0 1.446 0 2.531-.723 3.254s0 1.446.361 1.808 1.085 0 1.447-.362a2.53 2.53 0 0 1 2.168-1.085l2.17 1.085a2.53 2.53 0 0 1 .723-3.254c.522-.424.88-1.018 1.012-1.678a2.89 2.89 0 0 0-.289-1.938c-1.023-1.618-1.527-3.51-1.446-5.423zm-94.722 71.945c.723-2.169-1.085-3.615-1.447-5.423s-.723-1.085-1.446-.723-.723.723-1.085 0-.723 0-1.085.361-.361.724-.723 1.085a.72.72 0 0 1-.175.276.73.73 0 0 1-.279.171.72.72 0 0 1-.326.03c-.109-.014-.214-.054-.305-.115-.723-.362-.362-.723 0-1.447a2.17 2.17 0 0 0 .362-2.169c-.361 1.085-1.446 1.808-1.808 2.531s-.723.723-1.085.362-1.084-.362-.723-1.085 0-.723-.362-.723h-.723l-1.085 2.169c-.723.362-1.085 1.085-1.808.723s-.361-1.084-.361-1.446-1.085.362-.724 1.085l1.085 1.807c.723 1.085 1.446 1.808 2.531.723h1.447a14.47 14.47 0 0 1 6.869.362c1.446.361 2.893 0 3.254 1.446zm86.768-56.038c0 .723.362 1.446 0 1.808s0 1.808 1.446 2.169a1.81 1.81 0 0 1 1.051.642c.264.33.404.743.395 1.166l1.085 3.254c.361.362.723.723 1.446.362l2.531-.723c.723-.362 1.084-.723.723-1.808s-1.447-3.254-.362-4.7.723-1.446 0-1.808a2.89 2.89 0 0 0-1.345-.763c-.51-.127-1.044-.114-1.547.04-.723 0-1.084 1.085-1.807 1.446s-1.086 1.446-2.532 1.085-.361-1.446-1.084-2.169zM11.315 54.532a2.17 2.17 0 0 1 2.531-.361 2.17 2.17 0 0 0 2.531-.361l4.338-1.446c.723 0 .361-.361.361-1.085s-.361-.723-.723-.361-2.169 0-2.531 1.085h-1.085c-.723-.361-1.446-.723-1.446-1.808s.723-1.446 1.446-1.808l5.062-1.085 5.061-.723c.361 0 .723 0 .723-.723l-.723-.723c-1.608-.645-3.378-.771-5.061-.361a15.91 15.91 0 0 0-8.677 4.7c-.723 1.808-1.085 3.254-1.808 5.062zm87.13-16.631c1.808 0 2.531 1.085 3.616 1.808l2.892 2.169c.362.362.723 0 1.084-.361a5.06 5.06 0 0 1 2.893-1.808c.291-.125.545-.324.736-.578a1.81 1.81 0 0 0 .348-.868v-2.531a1.46 1.46 0 0 0 .141-1.107c-.102-.373-.347-.69-.683-.882s-.734-.242-1.106-.141a1.46 1.46 0 0 0-.882.683c-2.243 1.541-4.874 2.418-7.593 2.531-.723 0-1.084.361-1.446 1.085zm-28.2 11.931c-2.169 2.892-5.423 2.169-8.316 3.254l6.87-.723c-.723 2.169-2.893 1.808-4.339 2.531l6.147-.723h.361c.361-1.085 1.084-1.808.723-2.892s-.361-2.169-.723-3.254-1.807-2.892-3.976-2.531h-3.615a10.48 10.48 0 0 0-3.615 1.085c1.682.179 3.379.179 5.061 0h.723c.361.723-.361.723-.361 1.084H68.8l-.724.723h-1.808s-1.084 0-1.084.723-.001.361-.724.361c-.589-.073-1.186-.014-1.749.174s-1.077.499-1.504.911c3.018.663 6.164.411 9.038-.723zM95.915 127.2c.723 1.085 1.446.723 2.531.362h4.701c0-.362-.362-.723-.362-1.085h-1.085c-1.446-.361-2.169-1.084-1.808-2.531.012-.495-.088-.987-.295-1.438a3.26 3.26 0 0 0-2.214-1.811 3.25 3.25 0 0 0-1.468-.004c-.641.314-1.203.77-1.642 1.334a4.7 4.7 0 0 0-.89 1.919c-.361 1.808-.361 2.17 1.808 2.893s.362 0 .724.361zm-22.777 3.977c-.52 1.013-1.125 1.981-1.808 2.892.937-.614 1.74-1.41 2.361-2.342s1.048-1.98 1.254-3.081c.362-.723 0-1.084-.723-1.446a14.83 14.83 0 0 0-6.87-.361 3.97 3.97 0 0 0-1.823 1.8c-.392.785-.514 1.677-.346 2.538.362.362.361.723.723.362s2.892 0 3.976-1.085l2.17-1.085c-.362 1.808-3.615 1.808-2.531 4.339l3.615-2.531zM3.362 87.07c.723-1.808 2.17-2.892 2.17-4.338l1.084-.723 7.231-3.977c.723-.362.723-.723.362-1.085s-.723-.362-.723-.362-3.977 2.531-6.146 3.254-.362.361-.362.723-.723.723-1.085 1.085c-.192 0-.375-.076-.511-.212s-.212-.32-.212-.511c0-.723.362-.723 1.085-1.085a39.04 39.04 0 0 1 6.508-3.977l.723-.723c0-.723-.723-.723-1.085-1.085h-1.446c-1.808 1.446-4.339 1.808-5.785 4.7s-1.446 2.169-1.808 3.254c-.359.795-.545 1.658-.545 2.531s.186 1.735.545 2.531zM113.63 98.639h.723c1.963-1.153 4.24-1.659 6.507-1.446h.723c.362-.723.001-.723-.361-1.085-1.122-.644-2.105-1.504-2.892-2.531h-1.085c-.645.42-1.399.644-2.17.644a3.97 3.97 0 0 1-2.168-.644c-.362-.362-1.808-.362-1.808.361-.417 1.411-.659 2.868-.723 4.338-.361.362 0 .362.361.723s.724 1.447 1.447 1.084 0-1.084 0-1.808 0-.723.723-.723l.723.723v.362zm48.084-28.2l-3.254 1.446c-.362 0-.361.361-.361.723s-.362 2.531-1.808 3.254h-.723v.723h4.338c0 .361-.361.362-.723.362s-1.446.723-1.084 1.808c.3 2.034.421 4.091.361 6.146v.723c1.446-1.085 1.808-1.085 1.446-2.169V82.37c-.361-1.085-1.446-1.808.361-2.169-.723-1.085.001-1.808.724-2.169s1.446-2.169 1.446-3.615-.723-2.892-.723-3.977zm-79.899 57.846c1.085 1.084 1.085 1.084 1.808-.723.675-1.856 1.042-3.81 1.085-5.785 0-.723.723-1.446.362-1.808s-1.808-.361-2.531 0h-1.084c-1.085.362-1.808 1.085-1.447 2.17a5.42 5.42 0 0 1 .362 3.253c-.723 1.447-.362 1.808.723 2.531l.723.362zm50.615 1.446c.064-1.47.306-2.927.723-4.339 0-1.807.362-3.615.362-5.423 0-.191-.076-.375-.212-.511s-.319-.212-.511-.212c-.723 0-.362.362-.362.723s-.361 2.17-.361 3.254c.026 1.748-.345 3.478-1.084 5.062-.362 1.807-.362 2.169-2.17 1.807s-.723-.361-.723.362v3.254c.362.723.362.723 1.085.723s5.061-3.615 5.423-7.954c-1.085 1.085-.724 2.531-2.17 3.254zM16.738 104.424h-.723c-.723.723-1.808.723-2.169 0s0-1.447.362-2.17l2.169-2.53c-.361 1.446-2.892 0-2.892 2.169h-.362c-2.531.723-2.53.723-1.446 3.254s1.446 1.084 2.531 1.084 4.338-2.892 6.508-4.338.362-.723 0-.723-.723-1.085-.723-1.808-.362-.723-.724-.361a27.52 27.52 0 0 0-3.253 3.254c-.723.362-1.446 1.085-1.085 1.446s1.085 0 1.447 0l.361.724zm11.569-6.508c.723.362 1.447 1.446 2.531.723l5.784-2.531c.723-.361.723-.723.723-1.446s-.361-1.446-.361-2.531-.362-1.085-1.085-.361c-2.666 1.475-5.206 3.168-7.593 5.061-.723.241-.723.603 0 1.085zM6.615 89.239a1.81 1.81 0 0 0 1.147.187c.392-.065.752-.258 1.023-.549l8.315-6.146c.361-.361 1.085-.361 1.085-1.085h-2.17L12.4 83.816c-2.169 1.446-4.7 2.169-6.146 4.7s-.001.361.361.723zm21.331 30.007c1.307-1.509 2.906-2.739 4.7-3.615.362-.361.723-.723.361-1.085s.724-2.169 1.447-2.892l1.084-1.084c-.361-.723-1.085-.362-1.808-.362h-1.446c-.657-.021-1.301.183-1.827.577a2.89 2.89 0 0 0-1.065 1.592h1.085l-.723 1.085c0 .361.723-.362.723.361h-1.085a3.98 3.98 0 0 0-1.843 2.413c-.271 1.017-.128 2.099.397 3.01zm131.598-8.676c-1.807-.362-1.807-.723-.723-1.808s.723-.723.723-1.085v-7.23l-1.084-.723c-.723.361-1.446.723-1.446 1.446a4.71 4.71 0 0 1 .362 2.169c-.029.337.022.676.147.989s.323.594.576.819c1.084.361 1.084 2.53.361 2.892s-1.085.723-1.446 1.446v1.446c-.085-.609-.206-1.213-.362-1.808 0-.361 0-.723-.361-.723s-.362.362-.362.723a15.56 15.56 0 0 0-.723 3.977c-.361.723.001 1.085.362.723 1.54-.792 2.895-1.901 3.976-3.253zM56.869 49.47h-.723a23.14 23.14 0 0 0-6.508 2.169c-1.085.362-1.085 1.085-.362 1.446l1.447.723c1.068.214 2.17.196 3.23-.054s2.055-.724 2.915-1.392c1.446-1.085 1.446-2.169 0-2.892zm61.461 65.438c1.084-.723 1.807-.723 1.807.723v1.808c0 .723-1.084 2.53-.361 2.892s2.169-.362 3.254-.362h.361c.361 0 .362 0 .362-.723a25.69 25.69 0 0 0-.362-5.061c-.723 0-.723.723-1.085.723-.114-.354-.305-.678-.559-.95a2.53 2.53 0 0 0-.909-.622c-.345-.138-.716-.198-1.087-.176a2.53 2.53 0 0 0-1.06.302c-.723 0-.723.723-.361 1.446zM69.884 64.655c.723.361 1.446.361 1.808 1.085l-3.254.723h1.446c.362.361 1.085 0 1.085.723l-.723 1.085c-.723 1.085-2.169.362-2.892 1.446s1.447 2.531 3.254 1.446 2.169-.362 2.169-2.531v-.723l1.085-3.977c-2.892 0-3.254 0-3.977.723zm7.954 46.999c0 .723 0 .723-.362 1.085l-1.808 2.531c0 .361-.361.723 0 1.084h.723a10.84 10.84 0 0 0 1.447-2.892l2.531-4.339c0-.361.361-.723 0-.723h-2.17c1.085 1.808-.723 1.447-1.446 1.808s-2.531 1.085-3.615 2.531.723 1.084.723 1.807 0 .724.362.724c1.113-1.295 2.321-2.503 3.615-3.616zm-58.93-47.722c-.702-.373-1.508-.505-2.292-.374s-1.503.516-2.046 1.097H12.4a2.53 2.53 0 0 0-2.892 1.085c-.723 1.085-1.446 1.446-2.169.362s-1.446-1.085-2.17.362a5.06 5.06 0 0 0-.723 2.169c4.964-1.084 9.809-2.658 14.461-4.7zM4.446 75.501c-.723-.723-.001-.723.361-1.085L7.7 72.247c.192 0 .375-.076.511-.212s.212-.32.212-.511H7.7l-2.531-1.085c-.723-.362-1.084 0-1.446.723-.059 1.815.062 3.632.361 5.423.362.723.723.723 1.085.362l4.7-2.892c.362-.362.723-.362.361-1.085s-.361-.361-.723-.361-3.253 1.085-3.976 2.892H4.446zm98.338-69.415l3.977 2.169h.723l5.784-2.892c.361-.362.723-.362.362-1.085h-.723l-9.761 1.446-.362.361zm-20.97 103.037h-.361l-3.615 6.87c-.361.723-.723 1.446 0 1.807s1.446.362 1.808-.361c1.511-2.756 2.723-5.664 3.615-8.677 0-.362.361-.723-.362-.723h-.723c-.361.361-.362.723-.362 1.084zm41.577 25.308c1.085.361 1.446-.362 2.169-.362s1.085-.361 1.085-1.084v-4.339c0-.361-.361-1.084 0-1.084s.723-.723.361-1.085l-1.446-1.446c-.723-.362-1.084-.362-1.084.361.296 1.058.418 2.157.362 3.254a33.98 33.98 0 0 1-1.447 5.785zm-9.761-20.969a4.7 4.7 0 0 0-1.085 1.808c0 1.084.723 1.807.723 2.53s.361 3.616 2.892 3.254h.362c.362.362.723.723 1.085 0 .077-.068.138-.151.18-.245s.064-.195.064-.297a.73.73 0 0 0-.064-.298c-.042-.093-.103-.177-.18-.245-1.085-.361-.724-1.446-.724-2.169v-2.53c0-.362.001-.724-.361-.724h-.723c-.361 0-.362.724-.362 1.085-.259.999-.623 1.969-1.084 2.892-.362-1.446-.362-3.253-.723-5.061zm-79.9-10.846c-1.085.723-.723 1.808-.361 2.531s.362 1.084 1.085.361a25.67 25.67 0 0 0 5.423-5.423c.361-.361.361-.723-.362-.723h-1.446l-2.532 1.446-1.808 1.808zm86.768 24.946a3.24 3.24 0 0 0 .362-1.808c0-.723.362-1.446 1.085-1.446s.723 1.085.361 1.446l-1.084 4.7c0 .723.723 1.085 0 1.808v.723h1.084l.724-.723a32.54 32.54 0 0 0 .723-8.316c0-.723-.362-1.446-1.085-1.446a3.25 3.25 0 0 0-1.638.339c-.508.253-.94.635-1.254 1.107.361 1.447.361 2.531.722 3.616zm44.469-51.338l-1.807 3.254c-.362.362 0 .723.362.723s1.084 0 1.445.723c.064 1.47.307 2.927.723 4.338 0 .723 0 2.169 1.085 2.169s.362-1.446.362-2.531a13.02 13.02 0 0 1-.723-3.615c0-2.169-1.447-3.254-1.447-5.062zm-13.376 37.238c-.362-1.446.362-2.531.362-3.615s-.001-.724-.362-.724h-.723v.724a21.34 21.34 0 0 1-.723 4.699c-.362.362-.362.724.361.724s2.892-.362 2.892-1.085a39.73 39.73 0 0 0 1.085-5.785c0-.361 0-.723-.362-.723s-.361 0-.723.362c-.022.278-.152.537-.361.723-.29 1.62-.775 3.198-1.446 4.7zm10.484-24.223v-.723a.72.72 0 0 0-.723-.723c-.361 0-.361.361-.361.723a4.7 4.7 0 0 0 .361 2.169 3.62 3.62 0 0 1 1.447 3.615c0 .362 0 1.085.723.723s1.807.723 1.445-.723a10.85 10.85 0 0 0-.722-4.7c-.362-.723-.362-1.085-1.085-1.085s-.362.723-1.085.723zM64.461 136.6a18.8 18.8 0 0 1-2.169-4.7h-2.53c-.362.362-.723-.361-1.085.362s-.001.723.361 1.084c1.049 1.262 2.015 2.59 2.892 3.977.362 0 2.169 0 2.531-.723zM25.777 74.416c.362-.723.362-.723 0-1.085s-.723-1.085-1.446-.723a25.31 25.31 0 0 0-6.87 2.169c-.723.362-.723.723-.723 1.085s.724.362 1.447.362l6.869-1.446.723-.362zm54.592 61.461a2.89 2.89 0 0 0 1.461-.381c.445-.254.814-.622 1.07-1.065.723-1.085 1.446-1.446 2.531-1.085s.362 1.085.362 1.808c.4.87 1.024 1.618 1.808 2.169h.361c.361-1.084 1.085-1.808 1.085-2.892s-1.085-.723-1.808-1.085h-.361c-.362-.361-.724-1.446-1.447-.723s-1.446-.361-1.808.362-2.892 1.084-3.253 2.892zm2.53-35.43c-1.446-1.085-1.447-1.085-2.169.723l-.723 1.446c-1.085 2.531-1.084 2.531 1.447 2.169h.361c1.446-.362 1.446-1.808 1.808-2.892s0-1.085-.723-1.446zm-20.607-5.785a20.97 20.97 0 0 1 1.808-5.061c.362-1.085-.362-1.808-1.447-1.808s-3.253 1.085-4.699 1.085 1.808.362 2.531.362 1.446-.362 1.446.362-.723 1.085-1.085 1.085h-.723c-.362 0-.723.362 0 .723s1.447 1.808 2.169 3.254zm-49.892-4.7l6.146-5.062c.723 0 .723-.723.362-1.085s-.723-.362-1.085 0l-3.254 1.808c-.835.326-1.52.95-1.921 1.751s-.489 1.724-.249 2.587zM93.022 113.1c-.362.362-1.084 1.085-.723 1.808s1.084 1.085 1.084 2.169h.724c1.085-.723 1.446-1.807 2.169-2.531s-.723-1.446-.723-2.169-1.085-1.084-1.808 0l-.723.723zm-63.631-8.676c.723-.724.362-1.808.362-2.531s-.362-.723-1.085-.362l-2.53 2.169a3.62 3.62 0 0 0-.759 1.539c-.126.566-.113 1.155.036 1.715.361.362.361.723 1.084.362l2.892-2.892zm59.292-5.785c.362-1.446.361-2.892.723-4.338s-.362-1.085-1.085-.723c-.142 0-.283.028-.415.082s-.251.134-.352.235-.18.22-.235.352-.083.273-.083.415c-.362 1.085-.361 2.169-.723 3.254s-.723 1.808 0 2.169l2.169-1.446zM23.608 70.078a23.86 23.86 0 0 0-7.231 2.169c-.361.362-1.447 0-.724.723s.362 1.446 1.447 1.085l5.423-1.808c.362 0 .723-.361.723-1.085s.362-.723.362-1.085zm96.529 34.346c-.361-1.447-.361-2.893-.722-3.977s-.001-.723-.724-.723-.361.361-.361.723c-.017.195.006.393.069.579a1.43 1.43 0 0 0 .292.505c.225 1.215.1 2.469-.361 3.616-.362 0-.724.361-.362.723h.723l1.446.723c-.111-.627.018-1.272.361-1.808 1.808-.723 1.086-2.169 1.447-3.254a3.61 3.61 0 0 0-.723-2.531c-.723 1.808 0 3.615-1.085 5.424zm27.116 6.869a36.21 36.21 0 0 1-1.447 8.676c1.808-1.084 1.808-3.253 3.254-4.338v-.723c.362-1.446 0-2.531-1.807-3.615zm-43.746 4.7c.361 1.807 1.084.723 1.807.723h1.085l-.723-1.085a5.06 5.06 0 0 0-4.338 1.085c-.362.361-.362.723-1.085 0-.142-.057-.294-.082-.447-.076a1.1 1.1 0 0 0-.439.114c-.136.068-.256.164-.353.282a1.09 1.09 0 0 0-.208.403c-.361.723.362.723.724 1.084l1.446 1.085c.361 0 .361.361.723 0-1.085-1.446 0-1.446.723-1.808s.723-1.084 1.085-1.807zm-61.461 14.461a2.89 2.89 0 0 0-.723-1.446c-.138-.923-.512-1.795-1.085-2.531-.723-1.446-1.808-1.084-2.892-.723H35.9c-.361.362 0 .362.362.723l5.784 3.977zm63.63-64.715h5.061c.105-.092.233-.152.371-.173s.278-.001.405.056.234.15.31.267a.73.73 0 0 1 .116.392c0 .139-.041.275-.116.392s-.183.21-.31.267a.72.72 0 0 1-.405.056c-.138-.021-.266-.081-.371-.173-.723.362-.361 1.085-.723 1.808a9.77 9.77 0 0 0 2.531-2.892c.723-.723.723-1.446-.361-1.808s-4.339 1.085-6.508 1.808zm39.046 35.792c1.085-.723 1.807-1.446 1.446-2.531s0-1.446 1.085-1.446.361-.361.361-.361c.158-.275.242-.587.242-.904s-.084-.629-.242-.904c-.723 1.085-2.892-.362-3.254 1.085s.362 2.892.362 4.338v.723zm-21.692 1.808a7.22 7.22 0 0 1 1.446-2.892c.371-.371.635-.837.762-1.346a2.89 2.89 0 0 0-.039-1.547c0-.723-1.085-.361-1.808-.361s-.723-.362-.723.361a15.18 15.18 0 0 0 .362 5.785zm-45.192 1.085a16.28 16.28 0 0 0 2.169-4.339c0-.361.724-1.084-.361-1.446s-.723.723-1.085 1.085l-2.531 4.338c-.131.147-.231.319-.293.505s-.085.384-.069.58h1.085l1.085-.723zm71.583-2.531h-.723a5.05 5.05 0 0 0-1.046 2.043 5.04 5.04 0 0 0-.038 2.295 1.07 1.07 0 0 0 .083.415c.054.132.134.251.234.352s.221.181.353.235a1.07 1.07 0 0 0 .829 0 1.06 1.06 0 0 0 .352-.235 1.07 1.07 0 0 0 .318-.767c.372-1.299.372-2.677 0-3.977l-.362-.361zm-11.569 18.8c.723-.362.362-.724.362-1.447.301-1.912.421-3.849.361-5.784 0-.362.362-1.085-.361-1.085s-1.085 0-1.085.723a13.75 13.75 0 0 0 .723 7.593zm-54.23-23.5c1.446 1.085 1.808 1.085 1.808-.723a6.87 6.87 0 0 0 .723-2.892c0-.362.362-.723-.361-1.085s-1.085 0-1.447.723-.361 1.446-1.084 2.169-.724 1.446.361 1.808zm6.508 32.899c-.362.362-.723.362-.362.724s1.446 1.084 1.808.361 1.085-.723 1.808-.361a1.1 1.1 0 0 0 .416-.083c.132-.055.251-.134.351-.235s.181-.22.236-.352.082-.273.082-.415c0-.723-2.531-2.169-2.892-2.169h-.361a3.25 3.25 0 0 1-.261 1.385 3.24 3.24 0 0 1-.823 1.145zM9.508 68.993a4.7 4.7 0 0 0 4.148.246 4.7 4.7 0 0 0 2.722-3.138c-2.431.587-4.751 1.563-6.87 2.892zm78.815 36.515s.362 0 0-.361a7.96 7.96 0 0 0-.362-2.893c-.362-.361-.361-1.084-.723-.723s-1.446 0-1.446.723-.362 2.531 1.446 3.254h1.085zm-53.868 1.808l3.976.723c.723 0 .723-.362 1.085-.723s-1.085-1.446-1.085-2.531h-1.085c-1.051.738-2.02 1.587-2.892 2.531zm45.915 26.392l.723-1.085c.723-.723 0-1.084-.362-1.807h-.723l-2.531 4.338a1.44 1.44 0 0 0 .069.579 1.45 1.45 0 0 0 .293.506h.723c1.085-.724 1.085-1.808 1.808-2.531zm-24.585-14.1c1.808.723 1.808 2.531 2.892 3.977s.361.723.723.361 1.084-.361.723-1.084 0-1.446-1.085-1.808-.723-.361-.723-1.085 0-1.084-.361-1.446-.724 0-1.447.362l-.723.723zm88.938 1.085c.362-2.17 1.084-4.7 1.446-6.87h-.723a2.54 2.54 0 0 0-.723 2.531c.362.723.361 1.446-.362 1.808s-1.085 1.446-1.085 2.169.362.723.723 1.085l.724-.723zM22.884 92.854c.723 0 .723 1.446 1.808 1.085s3.254-1.446 3.615-3.254.361-.361 0-.723h-.723l-4.7 2.892zm140.999 9.039c1.121-.854 2.334-1.582 3.615-2.169.362 0 .724 0 .724-.723h-3.255c-1.084-.362-1.446 0-1.084.723v2.169zm-23.138 7.592a39.77 39.77 0 0 0-1.446 11.208 28.94 28.94 0 0 0 1.446-11.208zm-32.538-46.638h5.785c.723 0 1.084 0 1.445-.723s.362-.361 0-.723h-1.445c-.362.361-.724 0-1.085 0h-5.062l.362 1.446zM87.96 124.308c-.723.361-.722 1.085-1.084 1.446-.871 1.494-1.598 3.068-2.17 4.7-.362.362-.361 1.085.362 1.085l.723-.723c-.723-1.447.362-1.808 1.085-2.531.612-.436 1.054-1.07 1.252-1.795s.138-1.496-.168-2.182zM14.57 97.193c-1.529.379-2.993.989-4.339 1.808-1.085.361-.723.723 0 1.084.723.55 1.627.809 2.532.723.361 0-.362-.723 0-1.084s.361-.723.361-1.085 1.085-.723 1.447-1.446zm137.745 2.531a1.44 1.44 0 0 1 0-1.808c0-.362.361-1.085.723-.723s1.446-.362 1.446-1.446-1.446.723-2.169 0-1.085-.362-1.085.723a1.44 1.44 0 0 1-.361 1.085c-.362 1.085.361 1.808 1.446 2.169zm15.546-3.615a13.75 13.75 0 0 0 0-5.423c-.362.723-.362 1.446-1.085 1.446s-.723.362-.723 1.085 0 2.169 1.808 2.892zm-92.192 6.146a10.11 10.11 0 0 0 1.808-3.254c.361-.362.361-1.085-.362-1.085s-1.446 0-1.808.362-.723 1.085-.361 1.808c.262.294.461.637.585 1.01a2.89 2.89 0 0 1 .138 1.159zm-22.415 33.623c1.085 1.808 2.892 1.808 4.7 1.808s.723-.362.361-.723-1.446-1.808-2.892-1.447l-2.169.362zm88.576-22.054a6.87 6.87 0 0 0 1.807-5.061c0-.362 0-.723-.723-.723s-.723 0-.723.723c-.315 1.668-.436 3.366-.361 5.061zM29.392 94.301c1.814-1.177 3.755-2.147 5.785-2.892.362-.361 1.084-.361.723-1.085s-.723 0-1.085 0-.723 0-.723.362-3.977 1.085-4.7 3.615zm101.23 31.091c.13-.146.231-.318.293-.505s.085-.383.069-.579c0-.723.723-2.169 0-2.531s-1.447.723-2.17 1.085-.723.723-.361 1.084 1.084 1.808 2.169 1.808v-.362zM12.762 58.509c-.913-.985-1.429-2.273-1.447-3.615L9.869 58.87c-.017.196.007.393.069.58s.161.358.292.505h.724l1.808-1.446zm113.883 58.207c-.361-.362-1.807 0-1.807.361-.083.861.04 1.728.361 2.531 0 .723.361 1.085 1.084.723a3.25 3.25 0 0 0 .733-1.752 3.26 3.26 0 0 0-.371-1.863zm-82.43 3.977c0-.362.722-.724.361-1.085s-.722.361-1.084.361h-1.085c-1.085-.361-1.085.362-1.447 1.085a.72.72 0 0 0-.245.542c0 .103.022.204.064.298s.103.177.18.245h1.085l2.17-1.446zm6.508 6.146c2.531.361 3.615 0 4.699-1.808.159-.296.211-.639.145-.969s-.245-.627-.506-.839c-.723-.361-1.085 0-1.808.362s1.446 0 1.446.723-.723 1.085-1.446 1.446c-.946.049-1.843.433-2.531 1.085zm49.168 7.592a1.45 1.45 0 0 0 .293-.505c.062-.187.086-.384.069-.58 0-.361-.362-1.084 0-1.446s0-1.446-.362-1.446c-.423-.009-.835.132-1.165.396a1.81 1.81 0 0 0-.643 1.05c0 1.808 0 1.808 1.808 2.531zm49.53-56.4h-3.976c-.362 0-1.085 0-.723.362s.361 1.085.723 1.085l3.976-1.085c.362.361.362 0 0-.362zM46.746 116.354a3.25 3.25 0 0 0-1.579-.151 3.26 3.26 0 0 0-1.463.614 3.25 3.25 0 0 0-1.296 2.791l4.338-3.254zM172.56 86.708l1.085-1.446c0-.362.722-1.085-.362-1.446l-1.085-1.085c-.361-.361-.361-.723-.723-.361s-.362.361-.362.723a15.2 15.2 0 0 0 1.447 3.615zm-65.438 15.908h-1.085a4.7 4.7 0 0 0-.361 2.169c0 .723 1.084 1.085 1.446 1.446h.362a6.15 6.15 0 0 0-.362-3.615zm-79.538 5.423c1.808-.362 3.616 0 5.062-1.446s-1.446.361-1.808-.362-1.085-.361-1.808 0l-1.447 1.808zm42.661-10.485c-1.085-.361-1.808.362-2.892.362s-.723 0-.361.362.361 1.808.723 2.893c.928-1.144 1.774-2.352 2.531-3.616zm-13.739 32.538a7.22 7.22 0 0 0 2.794-1.463c.812-.687 1.463-1.545 1.906-2.513v-.724h-.723a1.81 1.81 0 0 0-1.05.643c-.264.33-.405.742-.396 1.165-.14.465-.373.896-.683 1.269a3.61 3.61 0 0 1-1.124.9l-.723.723zm79.177-13.015c.296-1.058.417-2.157.361-3.254-.362-.723-.723-.361-.723-.361s-1.085.723-.723 1.446-.362 1.808.723 2.531l.362-.362zm26.753-13.015c0 1.085-1.085.362-1.085 1.085-.299 1.18-.42 2.399-.361 3.615a4.34 4.34 0 0 0 1.446-4.7zm-59.653-52.423h-.723c-.297-.159-.639-.211-.969-.145s-.627.245-.839.506l-.723.723 1.808.723h1.808c.361-1.446-.362-1.446-.362-1.808zM25.054 82.37c.361-.362 0-.723 0-1.085s-2.892 0-3.253.723-.361 1.446 0 1.085l3.253-.723zm-3.615-26.392c-.362-.723.362-2.169-.723-2.169a10.12 10.12 0 0 0-4.338 1.446c1.808.361 3.615-.362 5.061.723zm98.338 22.777c2.169 1.808 3.615 1.808 4.338-.361s-2.531.361-4.338.361zm-51.338 35.792c-.723 1.085-2.169.362-2.892.724l-2.169 2.169c1.808-.723 3.977-.723 5.061-2.893zm1.808-14.461l-1.085 1.446c0 .362-.361.723.362 1.085s.723.723 1.085 0l1.084-1.808c0-.723.001-1.085-.361-1.446s-.723.362-1.085.723zm26.03-7.231v3.254l1.085.723c.723-2.169.361-3.254-1.085-3.977zm-20.607 39.769c-1.586 1.037-2.94 2.391-3.977 3.977 1.446-.361 1.447-.361 3.977-3.977zm95.084-39.769c.362-.362-.361-2.892-1.084-2.892s-.723 0-.723.723c.25.366.413.784.475 1.223a2.9 2.9 0 0 1-.114 1.308h.723l.723-.362zm-97.976 9.4c-1.446 2.169-1.446 2.531 0 4.339a4.7 4.7 0 0 0 0-4.339zm33.623 34.346l.723-.723a17.75 17.75 0 0 0 .362-4.338h-1.085v5.061zM53.977 42.963c.683-.051 1.342-.277 1.912-.657s1.032-.901 1.342-1.512c-2.169-.723-3.253 0-3.253 2.169zm87.854 72.668c-.362 1.085-.362 1.808-.723 2.892s-.723 1.446 0 1.808 1.084-1.085 1.084-1.446.723-2.169-.361-3.254zm-36.516 19.523v-3.977l-.723-.723h-.362c0 1.808-.722 3.254 1.085 4.7zM81.815 95.747c.362-1.085 1.085-1.808 1.447-2.892a.36.36 0 0 0 .361-.361.36.36 0 0 0-.361-.362c-.361 0-.724 0-.724.362l-1.446 2.531c0 .361-.362.723 0 1.085s.723 0 .723-.361zm-62.907 2.169c-1.808-1.085-3.254-.362-4.338 1.808a22.05 22.05 0 0 0 4.338-1.808zm83.514 36.153c.723-.361.362-1.084.724-1.446s-.363-1.084-.724-1.084a.78.78 0 0 0-.723.723c-.292.555-.417 1.183-.361 1.807 0 .362-.001.723.361.723a.78.78 0 0 0 .723-.723zM27.584 95.747c1.085-.723.361-1.085 0-1.446s-1.446.362-1.808.723 0 .723 0 1.085 1.446 0 1.808-.361zm32.177-23.861c1.454.235 2.943.111 4.338-.362.362 0 0-.361 0-.723s-.361-.362-.723-.362l-3.615 1.446zm93.999 32.539h.723c.362 0 .361-.362.361-.724s-.361-1.084-.723-1.807.001-.723-.723-.723-.361.361-.361 1.084c.072.769.32 1.511.723 2.17zM26.5 100.085c-.362-.361-1.084-1.084-1.446-.361s.361 1.446.723 1.807 1.085 0 1.447-.361-.362-.723-.724-1.085zm88.938 6.508c1.085-1.085.362-2.531.723-3.616h-.723c-.41.513-.634 1.151-.634 1.808s.224 1.295.634 1.808zm-6.507-22.777c.723-.362 1.808 0 2.169-1.085s-.723-1.085-1.447-1.085.001 1.446-.722 2.169zm50.976 2.892c-1.084.362-2.169.362-1.807 1.808l1.084.723c1.085-.723.723-1.446.723-2.531zM52.531 88.878c0-.361.361-.723 0-.723-.178-.199-.276-.456-.276-.723s.098-.524.276-.723c.361 0 .361-.361 0-.723h-.724l-.723.723a5.06 5.06 0 0 1 .723 2.169h.724zm60.014 17.353c1.808-1.084 1.085-2.531 1.085-3.977a16.25 16.25 0 0 0-1.085 3.977zm-7.954-3.977h-.723c-.723.362-.361 1.446-.361 2.17 0 .095.038.187.105.255s.161.106.256.106c.362-.362.723.362.723-.361v-2.17zm3.978-2.53c-.362 1.446.361 2.53 0 3.976h1.083c-.361-1.446.001-2.53-1.083-3.976zm60.376-13.377c.361-.723-.001-3.254-.362-3.254s-.723 0-.723.362.362 1.808.362 2.531l.723.362zm-53.146 39.769c0-.362-.361-.724 0-1.447s-.362-.723-.724-1.084l-.722.723c-.362 1.085 0 1.808 1.446 1.808zM94.83 83.093l-4.7.723c1.446 0 3.254.723 4.7-.723zm20.607 46.276c0-.723.723-1.446 0-1.807s-.723 0-1.084.361c-.178.199-.277.457-.277.723s.099.525.277.723h1.084zM103.868 108.4c-1.084 1.085-.723 2.531-1.446 3.616h.362c.723-.723 1.807-1.808 1.084-3.616zm-27.477 28.923l-1.085-.723c-.723-.723-1.084 0-1.446 0s-.724.362-.362.723.723.723 1.085.723 1.085 0 1.808-.723zm60.016-90.745h-3.616c-.361 0-.362.361-.362.723h.362c1.085 0 2.531.362 3.616-.723zm-42.3 45.915c-.723 0-1.085.361-1.447 1.085s-.361.723.362 1.085 1.085 0 1.085-.723v-1.446zm27.476 14.823c0 .723-.361 1.084-.723 1.807s.001 1.085.362 1.085.723.362 1.084 0 .362-.723 0-1.085a2.16 2.16 0 0 1-.575-.818 2.17 2.17 0 0 1-.148-.989zm-15.546 14.461h2.17c.723 0 .723-.361.723-.723s-.362-.361-.723-.361l-2.17 1.084zM48.553 84.539h2.531l.723-.723c-.361-.723-.722-.362-1.084-.362l-2.17 1.085zm28.2 56.761c-1.486-.302-3.031-.045-4.338.723l4.338-.723zm-41.215-28.561a5.43 5.43 0 0 0 2.532-1.085c.361 0 .723 0 .723-.723h-1.447a2.9 2.9 0 0 0-1.808 1.808zm20.608-7.231a4.7 4.7 0 0 0 3.254-.723c.361-.362 0-.361-.362-.361h-2.531c-.361.361-.722.723-.361 1.084zm-8.315 11.931h.361l1.808-1.446c.362 0 .362-.362 0-.723h-.723l-1.446 2.169zm-27.838-13.015h.361l2.169-.724c.362-.361.723-.361.361-1.084H21.8l-1.808 1.808zm34.707-65.077h3.254a3.62 3.62 0 0 0-1.628-.387c-.565 0-1.122.133-1.627.387zm6.87 88.938c-.361.723-1.085 1.084-1.447 1.446a.72.72 0 0 0-.245.542c0 .103.021.204.064.298a.73.73 0 0 0 .181.245c.361.361.723 0 .723-.362s1.085-1.446.724-2.169zm27.838-56.4h-2.169c0 .361.362.361.362.723s1.808.361 1.808-.723zm8.677 69.777h-2.531c-.361 0-.723.361-.362.723s.362.723.724.361l2.169-1.084zm-45.553-13.377c-.723-.723-1.808-.362-2.532-.362s-.723 0-.723.723h.723l2.532-.361zm86.044-76.284c-1.446 0-2.531-.723-3.615.723l3.615-.723zm-9.761 65.438h-.723a4.7 4.7 0 0 0-.362 2.169c.362.361.723-.362 1.085-.362s.361-1.446 0-1.807zm27.115-13.015c.254-.44.388-.939.388-1.447s-.134-1.006-.388-1.446c0-.361.001-.361-.361-.361a7.96 7.96 0 0 0 .361 3.254zm-70.137 20.245a3.61 3.61 0 0 0 1.446-1.807l-.723-1.085v.723c-.362.723-.723 1.446-.723 2.169zm6.146 15.546c1.085-.361 2.531.362 3.615-.723-1.252-.159-2.521.095-3.615.723zm16.992-24.584c0-.361.361-1.085 0-1.446h-.723c0 .361-.723 1.085 0 1.446h.723zm29.645 9.038l1.085-.723c.077-.067.139-.151.181-.244a.73.73 0 0 0 .064-.298.72.72 0 0 0-.064-.297c-.042-.094-.104-.177-.181-.245h-.361c-.362 0-.362.361-.362.723s-.362.361-.362 1.084zm-32.176-43.384c0-1.085 0-1.808-1.085-2.169h-.723c0 .361.362.361.362.723s1.084.723 1.446 1.446zm49.892 3.615c-.362 0-.361-.723-.723-.723s0 1.446.723 1.446h.723c0-.723.361-1.446 0-1.808s-.362.723-.723 1.085zM8.423 64.655h1.447c0-.723-.723-1.085-.723-1.808-.234.239-.419.521-.543.832a2.53 2.53 0 0 0-.181.976zm100.507 54.591v-1.084h-1.085c-.077.068-.138.151-.18.245s-.065.195-.065.297a.73.73 0 0 0 .065.298.71.71 0 0 0 .18.244c.361.362.723 0 1.085 0zm54.592-33.622h1.445l-.722-1.808a3.96 3.96 0 0 0-.723 1.808zm-57.123 33.984c0-.362.362-.723 0-1.085l-1.808.723h1.808v.362zm27.115-70.499c-.208-.122-.442-.19-.683-.198a1.45 1.45 0 0 0-1.235.617c-.138.197-.224.426-.251.666.835-.069 1.613-.457 2.169-1.085zM20.716 105.508c.723.362.723 1.085 1.446.723.178-.199.276-.456.276-.723s-.098-.524-.276-.723l-1.446.723zm39.407 3.615a5.79 5.79 0 0 0-3.615.724l3.615-.724zm8.315 23.5l-1.446.723c-.362 0-.723.362-.362.723h.723c.362-.361 1.085-.723 1.085-1.446zm11.569-38.322c.362-.362.361-.723.723-1.446v-.723h-.723c-.362 0-.361.362-.361.723a2.17 2.17 0 0 1 .361 1.446zm-57.846 1.446c0-.723-.361-.723-.361-1.085h-1.085c-.362.362-.001.362.361.362l1.085.723zm36.154 18.799h.362c.723-.361 1.807.362 2.531-1.084l-2.892 1.084zm-4.7 15.546c1.085.724 1.447.362 1.447-1.084s-1.085.361-1.447 1.084zm36.153-8.676c0-.362.723-1.085 0-1.808h-.723c-.362 1.085.361 1.446.723 1.808zm-10.122 8.315c-.723 0-1.085-.723-1.808 0v.723c.723.362 1.446 0 1.808-.723zM35.538 89.239c-.535-.111-1.091-.068-1.603.124a2.89 2.89 0 0 0-1.289.961l2.892-1.085z" fill-opacity=".2"/><path d="M159.184 38.986c1.084-1.085 2.531-1.808 3.615-1.085s1.085 1.808 0 2.531a1.45 1.45 0 0 0-1.023.424c-.271.271-.424.639-.424 1.023 0 1.085.001 2.169 1.447 2.531h.361c.723 0 .723.723.723 1.085l-1.084.723c-1.808 0-3.254 0-3.615-2.169a5.78 5.78 0 0 1 0-5.061zM71.331 82.731l-1.447-1.808-3.253-2.531c-.723-.362-1.085-.723-1.085-1.446s1.085-.362 1.808-.362 3.977 2.892 5.785 5.061 0 1.085-.362 1.446-1.084 0-1.446-.362zm26.393-18.077l-4.7-3.615c-.362 0-.723-.362-.723-1.085l1.446-.723a11.93 11.93 0 0 1 5.423 3.977c.149.099.271.233.356.391s.13.334.13.513-.045.355-.13.513-.207.292-.356.391c-.723.362-1.084 0-1.446-.361zm13.014-14.099c.362-.723.724-.723 1.447 0s-.001 1.446-.362 2.169-.362 1.084-1.085.361-.723-1.446 0-2.531z" fill-opacity=".2"/></svg>