<svg width="105" height="105" viewBox="0 0 105 105" fill="none" xmlns="http://www.w3.org/2000/svg">
<g filter="url(#filter0_d_51_303)">
<rect x="10" y="5" width="85" height="85" fill="#6FDCA5"/>
</g>
<path d="M41.1172 78.0693L43.6814 75.7342C44.0166 75.4343 44.2008 75.1463 44.2008 74.7897C44.2008 74.3742 43.9127 74.1428 43.4925 74.1428C43.3952 74.1401 43.2985 74.1575 43.2083 74.1938C43.118 74.2302 43.0362 74.2847 42.968 74.354C42.8998 74.4234 42.8466 74.506 42.8117 74.5968C42.7768 74.6876 42.761 74.7846 42.7652 74.8818H41.1479C41.1479 73.7626 41.9318 72.7238 43.5255 72.7238C44.9941 72.7238 45.9409 73.484 45.9409 74.6976C45.9409 75.6421 45.4333 76.2111 44.7604 76.766L43.7333 77.6089H45.9952V79.0515H41.1172V78.0693Z" fill="black"/>
<path d="M46.5005 75.9773C46.5005 74.1758 47.8156 72.7332 49.806 72.7332C51.7965 72.7332 53.1116 74.1758 53.1116 75.9773C53.1116 77.7789 51.7941 79.2239 49.806 79.2239C47.818 79.2239 46.5005 77.7789 46.5005 75.9773ZM51.4588 75.9773C51.45 75.6525 51.3456 75.3375 51.1587 75.0717C50.9718 74.8058 50.7107 74.601 50.4081 74.4827C50.1054 74.3645 49.7746 74.3381 49.457 74.4069C49.1394 74.4756 48.8491 74.6364 48.6224 74.8693C48.3957 75.1021 48.2427 75.3966 48.1825 75.7159C48.1223 76.0352 48.1575 76.3652 48.2838 76.6646C48.4101 76.964 48.6219 77.2196 48.8926 77.3993C49.1634 77.579 49.4811 77.6749 49.806 77.675C50.0293 77.6826 50.2517 77.6435 50.459 77.5604C50.6663 77.4773 50.8541 77.3518 51.0102 77.1921C51.1664 77.0324 51.2876 76.8419 51.366 76.6327C51.4445 76.4236 51.4785 76.2004 51.4659 75.9773H51.4588Z" fill="black"/>
<path d="M53.6265 78.0693L56.1906 75.7342C56.5259 75.4343 56.7101 75.1463 56.7101 74.7897C56.7101 74.3742 56.422 74.1428 56.0017 74.1428C55.9049 74.1418 55.8088 74.1603 55.7192 74.1972C55.6296 74.2342 55.5484 74.2887 55.4803 74.3577C55.4122 74.4266 55.3587 74.5085 55.323 74.5986C55.2872 74.6886 55.2699 74.785 55.2722 74.8818H53.6572C53.6572 73.7626 54.441 72.7238 56.0348 72.7238C57.5034 72.7238 58.4502 73.484 58.4502 74.6976C58.4502 75.6421 57.9426 76.2111 57.2697 76.766L56.2402 77.6089H58.5045V79.0515H53.6265V78.0693Z" fill="black"/>
<path d="M59.1113 78.0693L61.6755 75.7342C62.0108 75.4343 62.1949 75.1463 62.1949 74.7897C62.1949 74.3742 61.9045 74.1428 61.4866 74.1428C61.3891 74.1407 61.2923 74.1587 61.2021 74.1958C61.1119 74.2329 61.0304 74.2882 60.9626 74.3582C60.8947 74.4282 60.8421 74.5115 60.808 74.6028C60.7738 74.6942 60.7589 74.7915 60.7641 74.8889H59.1349C59.1349 73.7697 59.9212 72.7308 61.5149 72.7308C62.9812 72.7308 63.9304 73.4911 63.9304 74.7047C63.9304 75.6492 63.4204 76.2182 62.7498 76.7731L61.7204 77.616H63.9847V79.0586H59.1113V78.0693Z" fill="black"/>
<path d="M52.5001 71.5054C53.0217 71.5054 53.4446 71.0826 53.4446 70.561C53.4446 70.0394 53.0217 69.6165 52.5001 69.6165C51.9785 69.6165 51.5557 70.0394 51.5557 70.561C51.5557 71.0826 51.9785 71.5054 52.5001 71.5054Z" fill="black"/>
<path d="M52.5 34.75C49.1377 34.75 45.851 35.747 43.0553 37.615C40.2597 39.483 38.0807 42.138 36.7941 45.2444C35.5074 48.3507 35.1707 51.7689 35.8267 55.0665C36.4826 58.3642 38.1017 61.3933 40.4792 63.7708C42.8567 66.1483 45.8858 67.7674 49.1835 68.4234C52.4811 69.0793 55.8993 68.7426 59.0056 67.456C62.112 66.1693 64.767 63.9903 66.635 61.1947C68.503 58.3991 69.5 55.1123 69.5 51.75C69.5 47.2413 67.7089 42.9173 64.5208 39.7292C61.3327 36.5411 57.0087 34.75 52.5 34.75ZM52.5 66.8611C49.5147 66.8588 46.597 65.9715 44.1157 64.3115C41.6345 62.6515 39.701 60.2932 38.5596 57.5346C37.4183 54.7761 37.1202 51.7411 37.7032 48.8132C38.2862 45.8853 39.724 43.196 41.835 41.085C43.946 38.974 46.6353 37.5362 49.5632 36.9532C52.4911 36.3702 55.5261 36.6682 58.2846 37.8096C61.0432 38.951 63.4015 40.8845 65.0615 43.3657C66.7215 45.847 67.6088 48.7646 67.6111 51.75C67.6096 53.7329 67.2175 55.696 66.4572 57.5274C65.697 59.3587 64.5835 61.0224 63.1803 62.4234C61.7771 63.8244 60.1117 64.9353 58.2792 65.6927C56.4466 66.45 54.4829 66.8391 52.5 66.8375V66.8611ZM48.7222 52.9164C48.7218 53.3277 48.5994 53.7296 48.3705 54.0714C48.1417 54.4132 47.8166 54.6794 47.4365 54.8365C47.0564 54.9936 46.6382 55.0344 46.2348 54.9539C45.8315 54.8734 45.4611 54.6751 45.1704 54.3841C44.8797 54.0931 44.6818 53.7224 44.6017 53.319C44.5217 52.9155 44.563 52.4974 44.7205 52.1175C44.878 51.7375 45.1446 51.4128 45.4867 51.1843C45.8287 50.9558 46.2308 50.8339 46.6421 50.8339C47.1899 50.8345 47.7155 51.0509 48.1048 51.4363C48.4942 51.8217 48.716 52.345 48.7222 52.8928V52.9164ZM60.4499 52.9164C60.4494 53.3277 60.327 53.7296 60.0982 54.0714C59.8693 54.4132 59.5443 54.6794 59.1641 54.8365C58.784 54.9936 58.3658 55.0344 57.9625 54.9539C57.5591 54.8734 57.1887 54.6751 56.898 54.3841C56.6073 54.0931 56.4095 53.7224 56.3294 53.319C56.2493 52.9155 56.2907 52.4974 56.4482 52.1175C56.6057 51.7375 56.8723 51.4128 57.2143 51.1843C57.5563 50.9558 57.9584 50.8339 58.3697 50.8339C58.9165 50.8357 59.4406 51.0528 59.8286 51.4381C60.2166 51.8234 60.4372 52.346 60.4428 52.8928L60.4499 52.9164ZM62.3246 48.5814L64.2442 46.4942H59.9942C57.7899 44.9928 55.1847 44.1899 52.5177 44.1899C49.8507 44.1899 47.2455 44.9928 45.0413 46.4942H40.7629L42.6825 48.5814C42.0582 49.0853 41.544 49.712 41.1715 50.4226C40.7991 51.1333 40.5765 51.9128 40.5173 52.7129C40.4582 53.513 40.5639 54.3168 40.8278 55.0744C41.0918 55.8321 41.5083 56.5276 42.0518 57.1178C42.5952 57.708 43.254 58.1804 43.9874 58.5059C44.7207 58.8313 45.513 59.0029 46.3153 59.0098C47.1176 59.0168 47.9128 58.8591 48.6517 58.5465C49.3906 58.2339 50.0575 57.773 50.6111 57.1924L52.5 59.2394L54.3889 57.1947C54.956 57.7159 55.6202 58.1204 56.3436 58.3849C57.067 58.6494 57.8355 58.7688 58.605 58.7364C59.3746 58.7039 60.1302 58.5202 60.8288 58.1958C61.5274 57.8713 62.1552 57.4124 62.6764 56.8453C63.1976 56.2782 63.602 55.6139 63.8666 54.8905C64.1311 54.1671 64.2505 53.3987 64.2181 52.6292C64.1856 51.8596 64.0019 51.104 63.6774 50.4054C63.353 49.7068 62.8941 49.079 62.327 48.5578L62.3246 48.5814ZM46.6421 56.8831C45.858 56.883 45.0915 56.6508 44.4392 56.2156C43.787 55.7804 43.2783 55.1618 42.9773 54.4378C42.6762 53.7138 42.5964 52.9168 42.7478 52.1475C42.8993 51.3782 43.2752 50.6709 43.8281 50.115C44.3811 49.5591 45.0863 49.1794 45.8548 49.0239C46.6233 48.8683 47.4207 48.9439 48.1463 49.2411C48.8719 49.5382 49.4932 50.0436 49.9319 50.6935C50.3706 51.3434 50.6069 52.1087 50.6111 52.8928C50.6111 53.4145 50.5082 53.9311 50.3083 54.4129C50.1083 54.8948 49.8153 55.3325 49.446 55.701C49.0766 56.0694 48.6382 56.3614 48.1559 56.5602C47.6735 56.759 47.1567 56.8607 46.635 56.8594L46.6421 56.8831ZM52.5 52.7771C52.5 50.1657 50.5993 47.925 48.0942 46.9664C49.4899 46.3851 50.9869 46.0858 52.4988 46.0858C54.0108 46.0858 55.5078 46.3851 56.9035 46.9664C54.3889 47.925 52.5 50.1657 52.5 52.7771ZM58.3626 56.8594C57.5775 56.8594 56.8101 56.6266 56.1573 56.1904C55.5046 55.7542 54.9959 55.1341 54.6955 54.4088C54.3952 53.6834 54.3167 52.8852 54.4701 52.1152C54.6234 51.3452 55.0016 50.638 55.557 50.0831C56.1123 49.5281 56.8197 49.1502 57.5898 48.9974C58.3598 48.8445 59.158 48.9234 59.8832 49.2242C60.6084 49.525 61.2281 50.034 61.6639 50.6871C62.0998 51.3401 62.3321 52.1077 62.3317 52.8928C62.331 53.945 61.9126 54.954 61.1683 55.6978C60.4241 56.4416 59.4149 56.8594 58.3626 56.8594Z" fill="black"/>
<path d="M43.0391 70.5374C43.0391 70.5374 40.9802 68.9507 37.2709 68.5139C35.0207 68.281 32.7578 68.8169 30.8511 70.0344C30.8511 70.0344 33.3255 71.0544 37.0939 71.4346C40.8622 71.8147 43.0391 70.5374 43.0391 70.5374Z" fill="black"/>
<path d="M37.2684 67.279C37.2684 67.279 35.4149 65.3689 31.9677 64.0538C29.7914 63.2706 27.4421 63.0983 25.1748 63.5556C25.1748 63.5556 27.2998 65.5672 30.969 66.9697C34.6381 68.3722 37.2684 67.279 37.2684 67.279Z" fill="black"/>
<path d="M31.7578 62.7551C31.7578 62.7551 30.6788 60.1178 27.8077 57.4663C25.9843 55.8408 23.741 54.7601 21.3335 54.3472C21.3335 54.3472 22.6345 57.1924 25.6921 60.0139C28.7497 62.8354 31.7578 62.7551 31.7578 62.7551Z" fill="black"/>
<path d="M30.6787 57.6953C30.6787 57.6953 30.3199 54.8619 28.2421 51.5564C26.9138 49.5183 25.036 47.8976 22.8257 46.8814C22.8257 46.8814 23.3451 49.9768 25.5575 53.4925C27.7699 57.0082 30.6787 57.6953 30.6787 57.6953Z" fill="black"/>
<path d="M30.8133 50.9165C30.8133 50.9165 30.7142 48.01 28.9717 44.4731C27.8679 42.2991 26.1698 40.4831 24.0747 39.2361C24.0747 39.2361 24.3108 42.4165 26.1667 46.1872C28.0225 49.9579 30.8133 50.9165 30.8133 50.9165Z" fill="black"/>
<path d="M39.0417 65.3547C39.0417 65.3547 38.1799 63.192 35.8542 61.0079C34.3781 59.6659 32.5544 58.7659 30.5913 58.4107C31.4765 60.1684 32.6724 61.7514 34.1212 63.0833C36.598 65.4067 39.0417 65.3547 39.0417 65.3547Z" fill="black"/>
<path d="M44.9163 68.5753C43.9229 67.7028 42.7776 67.0201 41.5376 66.5613C40.1821 66.0525 38.7185 65.9013 37.2876 66.1221C38.392 67.0328 39.6388 67.7556 40.978 68.2613C43.2919 69.1656 44.9163 68.5753 44.9163 68.5753Z" fill="black"/>
<path d="M50.6113 69.7322C49.6171 69.3816 48.564 69.2284 47.5112 69.2813C46.3561 69.3387 45.2385 69.7102 44.2788 70.3556C45.3657 70.6992 46.5046 70.8487 47.6434 70.7971C49.622 70.731 50.6113 69.7322 50.6113 69.7322Z" fill="black"/>
<path d="M36.4821 60.1272C36.4821 60.1272 36.0808 57.8251 34.2556 55.2067C33.0924 53.5955 31.497 52.3464 29.6538 51.6036C30.1596 53.5029 31.0025 55.296 32.1424 56.8972C34.0833 59.6857 36.4821 60.1272 36.4821 60.1272Z" fill="black"/>
<path d="M34.1893 53.1124C34.1893 53.1124 34.6356 50.7796 33.8848 47.6464C33.3963 45.7186 32.3723 43.9685 30.931 42.5983C30.7223 44.5748 30.8614 46.5726 31.3418 48.5011C32.1399 51.8492 34.1893 53.1124 34.1893 53.1124Z" fill="black"/>
<path d="M61.9609 70.5374C61.9609 70.5374 64.0198 68.9507 67.7291 68.5139C69.9794 68.281 72.2422 68.8169 74.149 70.0344C74.149 70.0344 71.6745 71.0544 67.9062 71.4346C64.1379 71.8147 61.9609 70.5374 61.9609 70.5374Z" fill="black"/>
<path d="M67.7314 67.279C67.7314 67.279 69.5849 65.3689 73.0321 64.0538C75.2085 63.2706 77.5577 63.0983 79.8251 63.5556C79.8251 63.5556 77.7001 65.5672 74.0309 66.9697C70.3617 68.3722 67.7314 67.279 67.7314 67.279Z" fill="black"/>
<path d="M73.2422 62.7551C73.2422 62.7551 74.3212 60.1178 77.1923 57.4663C79.0157 55.8408 81.2589 54.7601 83.6665 54.3472C83.6665 54.3472 82.3655 57.1924 79.3079 60.0139C76.2502 62.8354 73.2422 62.7551 73.2422 62.7551Z" fill="black"/>
<path d="M74.3213 57.6953C74.3213 57.6953 74.6802 54.8619 76.758 51.5564C78.0862 49.5183 79.964 47.8976 82.1743 46.8814C82.1743 46.8814 81.6549 49.9768 79.4425 53.4925C77.2302 57.0082 74.3213 57.6953 74.3213 57.6953Z" fill="black"/>
<path d="M74.187 50.9165C74.187 50.9165 74.2862 48.01 76.0287 44.4731C77.1324 42.2991 78.8305 40.4831 80.9256 39.2361C80.9256 39.2361 80.6895 42.4165 78.8337 46.1872C76.9778 49.9579 74.187 50.9165 74.187 50.9165Z" fill="black"/>
<path d="M65.9585 65.3547C65.9585 65.3547 66.8203 63.192 69.146 61.0079C70.6221 59.6659 72.4458 58.7659 74.4089 58.4107C73.5237 60.1684 72.3279 61.7514 70.8791 63.0833C68.4022 65.4067 65.9585 65.3547 65.9585 65.3547Z" fill="black"/>
<path d="M60.084 68.5753C61.0774 67.7028 62.2227 67.0201 63.4627 66.5613C64.8182 66.0525 66.2819 65.9013 67.7127 66.1221C66.6083 67.0328 65.3615 67.7556 64.0223 68.2613C61.7084 69.1656 60.084 68.5753 60.084 68.5753Z" fill="black"/>
<path d="M54.3887 69.7322C55.3829 69.3816 56.4359 69.2284 57.4888 69.2813C58.6439 69.3387 59.7615 69.7102 60.7212 70.3556C59.6343 70.6992 58.4953 70.8487 57.3566 70.7971C55.378 70.731 54.3887 69.7322 54.3887 69.7322Z" fill="black"/>
<path d="M68.5176 60.1272C68.5176 60.1272 68.919 57.8251 70.7441 55.2067C71.9073 53.5955 73.5027 52.3464 75.3459 51.6036C74.8401 53.5029 73.9972 55.296 72.8573 56.8972C70.9165 59.6857 68.5176 60.1272 68.5176 60.1272Z" fill="black"/>
<path d="M70.8103 53.1124C70.8103 53.1124 70.3641 50.7796 71.1149 47.6464C71.6033 45.7186 72.6274 43.9685 74.0687 42.5983C74.2773 44.5748 74.1383 46.5726 73.6578 48.5011C72.8598 51.8492 70.8103 53.1124 70.8103 53.1124Z" fill="black"/>
<path d="M34.9686 15.88H32.7609V22.3943H31.0515V15.88H28.8462V14.3099H34.9686V15.88Z" fill="black"/>
<path d="M37.9841 16.6899V18.2222H37.1293C36.5036 18.2222 36.2038 18.5244 36.2038 19.1478V22.3943H34.5864V16.6899H36.0881V17.75C36.1116 17.4555 36.247 17.1812 36.4667 16.9835C36.6863 16.7859 36.9733 16.6799 37.2686 16.6875L37.9841 16.6899Z" fill="black"/>
<path d="M38.1538 19.5421C38.1538 17.8681 39.3344 16.5269 40.9871 16.5269C41.7946 16.5269 42.4038 16.7819 42.7769 17.1739V16.6899H44.2785V22.3943H42.7769V21.7025C42.4085 22.1983 41.8655 22.5572 40.9399 22.5572C39.332 22.5572 38.1538 21.2161 38.1538 19.5421ZM42.7745 19.5421C42.7722 19.2456 42.6821 18.9564 42.5157 18.711C42.3493 18.4657 42.114 18.275 41.8394 18.1632C41.5648 18.0513 41.2632 18.0233 40.9727 18.0825C40.6822 18.1418 40.4157 18.2857 40.2069 18.4962C39.9981 18.7067 39.8562 18.9743 39.7992 19.2652C39.7422 19.5562 39.7726 19.8575 39.8866 20.1312C40.0006 20.405 40.1931 20.6388 40.4398 20.8033C40.6865 20.9678 40.9763 21.0555 41.2728 21.0556C41.4727 21.0615 41.6716 21.0264 41.8572 20.9523C42.0429 20.8782 42.2114 20.7667 42.3522 20.6248C42.493 20.4829 42.6031 20.3135 42.6758 20.1273C42.7484 19.941 42.782 19.7419 42.7745 19.5421Z" fill="black"/>
<path d="M44.9116 16.6899H46.6447L47.5112 19.7026C47.6151 20.0497 47.6718 20.2811 47.7308 20.5479C47.7875 20.2811 47.8465 20.0497 47.9504 19.7026L48.8169 16.6899H50.5476L48.6587 22.3943H46.81L44.9116 16.6899Z" fill="black"/>
<path d="M56.3274 19.9222H52.0774C52.0939 20.2728 52.2455 20.6033 52.5003 20.8445C52.7552 21.0858 53.0936 21.2189 53.4445 21.2161C54.1033 21.2161 54.5873 20.869 54.7266 20.3496H56.2779C56.0016 21.7474 54.9722 22.5572 53.4445 22.5572C51.6524 22.5572 50.4742 21.2397 50.4742 19.5421C50.4634 19.147 50.5325 18.7537 50.6773 18.386C50.8222 18.0182 51.0399 17.6835 51.3173 17.4019C51.5946 17.1204 51.9261 16.8977 52.2916 16.7474C52.6571 16.597 53.0493 16.522 53.4445 16.5269C55.2461 16.5269 56.3322 17.6249 56.3322 19.6696L56.3274 19.9222ZM52.1695 18.711H54.814C54.6511 18.1443 54.2024 17.7665 53.4634 17.7665C53.1754 17.766 52.8947 17.8573 52.662 18.0271C52.4293 18.1969 52.2568 18.4365 52.1695 18.711Z" fill="black"/>
<path d="M57.043 14.3099H58.658V22.3943H57.043V14.3099Z" fill="black"/>
<path d="M65.1553 19.9222H60.9053C60.9218 20.2724 61.073 20.6026 61.3274 20.8437C61.5817 21.0849 61.9195 21.2183 62.27 21.2161C62.9264 21.2161 63.4128 20.869 63.5521 20.3496H65.0987C64.8224 21.7474 63.793 22.5572 62.2653 22.5572C60.4732 22.5572 59.295 21.2397 59.295 19.5421C59.2842 19.148 59.353 18.7557 59.4971 18.3888C59.6412 18.0218 59.8578 17.6876 60.134 17.4062C60.4101 17.1248 60.7401 16.9019 61.1042 16.7508C61.4684 16.5998 61.8593 16.5236 62.2535 16.5269C64.055 16.5269 65.1412 17.6249 65.1412 19.6696L65.1553 19.9222ZM60.9998 18.711H63.6442C63.4813 18.1443 63.0303 17.7665 62.2913 17.7665C62.0037 17.7665 61.7235 17.858 61.4913 18.0278C61.2591 18.1976 61.087 18.4369 60.9998 18.711Z" fill="black"/>
<path d="M69.2639 16.6899V18.2222H68.4092C67.7859 18.2222 67.486 18.5244 67.486 19.1478V22.3943H65.8687V16.6899H67.375V17.75C67.3985 17.4555 67.534 17.1812 67.7536 16.9835C67.9732 16.7859 68.2602 16.6799 68.5556 16.6875L69.2639 16.6899Z" fill="black"/>
<path d="M69.71 20.5243H71.3509C71.3434 20.6107 71.3545 20.6977 71.3834 20.7794C71.4123 20.8612 71.4584 20.9358 71.5186 20.9982C71.5788 21.0606 71.6517 21.1094 71.7323 21.1413C71.8129 21.1732 71.8995 21.1874 71.9861 21.1831C72.3662 21.1831 72.5976 20.9965 72.5976 20.7108C72.5976 20.4251 72.3426 20.2386 71.8232 20.0757L71.0723 19.8561C70.3215 19.6365 69.802 19.1053 69.802 18.2742C69.802 17.2235 70.7465 16.5293 71.927 16.5293C73.2682 16.5293 74.0072 17.292 74.0072 18.3545H72.4819C72.4813 18.2813 72.4661 18.209 72.4371 18.1418C72.4081 18.0747 72.366 18.014 72.3132 17.9634C72.2603 17.9127 72.1979 17.8732 72.1296 17.8471C72.0612 17.821 71.9884 17.8089 71.9152 17.8114C71.5918 17.8114 71.3722 17.9979 71.3722 18.2151C71.3722 18.482 71.58 18.6095 72.0309 18.737L72.8644 18.9731C73.6247 19.1808 74.1559 19.7026 74.1559 20.5574C74.1559 21.6293 73.313 22.5667 71.9625 22.5667C70.7158 22.5572 69.71 21.7828 69.71 20.5243Z" fill="black"/>
<path d="M74.7583 16.9307H74.907C75.3013 16.9307 75.6579 16.7229 75.7287 16.135C75.6547 16.1685 75.5737 16.1838 75.4926 16.1799C75.359 16.1825 75.2262 16.1579 75.1024 16.1077C74.9785 16.0575 74.8662 15.9826 74.7721 15.8877C74.6781 15.7928 74.6043 15.6797 74.5552 15.5554C74.5062 15.4311 74.4829 15.2982 74.4867 15.1646C74.4861 15.0308 74.512 14.8982 74.5629 14.7744C74.6139 14.6507 74.6888 14.5382 74.7834 14.4436C74.878 14.349 74.9905 14.274 75.1142 14.2231C75.238 14.1722 75.3706 14.1463 75.5044 14.1469C76.2316 14.1469 76.6354 14.8175 76.6354 15.6958C76.6354 17.1125 75.9554 17.7642 74.9944 17.7642H74.7583V16.9307Z" fill="black"/>
<path d="M34.8413 28.741C34.8413 26.2571 36.6901 24.5358 38.9189 24.5358C41.0912 24.5358 42.4606 25.7376 42.7652 27.6549H41.0227C40.7677 26.7104 40.0051 26.1319 38.9189 26.1319C37.6133 26.1319 36.5578 27.1944 36.5578 28.7292C36.5578 30.2639 37.6203 31.3405 38.9189 31.3405C39.9933 31.3405 40.7677 30.7857 41.0227 29.8035H42.8006C42.4535 31.7443 40.9283 32.9343 38.9189 32.9343C36.6546 32.9461 34.8413 31.2249 34.8413 28.741Z" fill="black"/>
<path d="M43.4902 24.6987H45.1076V27.8508C45.3626 27.3786 46.0095 26.9064 46.9209 26.9064C48.0543 26.9064 48.85 27.7044 48.85 29.0078V32.7856H47.2326V29.48C47.2423 29.3345 47.222 29.1886 47.173 29.0513C47.124 28.9139 47.0473 28.7881 46.9477 28.6816C46.8481 28.5752 46.7277 28.4903 46.5939 28.4322C46.4602 28.3742 46.3159 28.3443 46.1701 28.3443C46.0243 28.3443 45.88 28.3742 45.7463 28.4322C45.6125 28.4903 45.4921 28.5752 45.3925 28.6816C45.2929 28.7881 45.2162 28.9139 45.1672 29.0513C45.1182 29.1886 45.0979 29.3345 45.1076 29.48V32.7856H43.4902V24.6987Z" fill="black"/>
<path d="M49.4731 29.931C49.4731 28.2569 50.6986 26.9158 52.5591 26.9158C54.4197 26.9158 55.6427 28.2569 55.6427 29.931C55.6427 31.605 54.4173 32.9461 52.5591 32.9461C50.7009 32.9461 49.4731 31.605 49.4731 29.931ZM54.0254 29.931C54.0166 29.6425 53.9229 29.363 53.7562 29.1274C53.5894 28.8918 53.357 28.7106 53.0878 28.6063C52.8187 28.5021 52.5248 28.4795 52.2429 28.5413C51.9609 28.6031 51.7035 28.7467 51.5027 28.954C51.3018 29.1613 51.1665 29.4231 51.1137 29.7069C51.0608 29.9906 51.0927 30.2836 51.2054 30.5494C51.3182 30.8151 51.5067 31.0417 51.7474 31.2009C51.9882 31.36 52.2705 31.4448 52.5591 31.4444C52.7571 31.4497 52.9541 31.4137 53.1375 31.3389C53.3209 31.2641 53.4868 31.152 53.6246 31.0097C53.7624 30.8674 53.8692 30.6981 53.9382 30.5124C54.0072 30.3267 54.0369 30.1287 54.0254 29.931Z" fill="black"/>
<path d="M56.0415 25.3339C56.041 25.1325 56.1003 24.9355 56.2119 24.7679C56.3234 24.6002 56.4822 24.4694 56.6681 24.392C56.854 24.3146 57.0587 24.2942 57.2562 24.3332C57.4538 24.3722 57.6353 24.4689 57.7779 24.6111C57.9204 24.7533 58.0176 24.9347 58.0571 25.1321C58.0965 25.3296 58.0765 25.5343 57.9995 25.7204C57.9226 25.9065 57.7922 26.0656 57.6248 26.1775C57.4574 26.2894 57.2605 26.3492 57.0591 26.3492C56.9255 26.3498 56.7931 26.324 56.6695 26.2732C56.5459 26.2224 56.4336 26.1477 56.339 26.0533C56.2444 25.959 56.1694 25.8468 56.1184 25.7233C56.0673 25.5999 56.0412 25.4675 56.0415 25.3339ZM56.2516 27.0788H57.8666V32.7832H56.2516V27.0788Z" fill="black"/>
<path d="M58.4995 29.931C58.487 29.5316 58.5565 29.134 58.7036 28.7626C58.8507 28.3911 59.0724 28.0537 59.3549 27.7712C59.6374 27.4887 59.9748 27.2671 60.3462 27.12C60.7176 26.9729 61.1153 26.9034 61.5146 26.9158C63.3161 26.9158 64.2866 27.8744 64.4613 29.2156H62.7731C62.6125 28.7433 62.2088 28.4175 61.5146 28.4175C61.1339 28.4476 60.7784 28.6201 60.5192 28.9006C60.26 29.1811 60.1161 29.549 60.1161 29.931C60.1161 30.3129 60.26 30.6808 60.5192 30.9613C60.7784 31.2418 61.1339 31.4143 61.5146 31.4444C62.197 31.4444 62.5889 31.1446 62.7731 30.6464H64.4613C64.1945 32.0442 63.2595 32.9461 61.5146 32.9461C61.1153 32.9586 60.7176 32.8891 60.3462 32.742C59.9748 32.5948 59.6374 32.3732 59.3549 32.0907C59.0724 31.8082 58.8507 31.4708 58.7036 31.0994C58.5565 30.7279 58.487 30.3303 58.4995 29.931Z" fill="black"/>
<path d="M70.5861 30.3111H66.3361C66.352 30.661 66.5027 30.9912 66.7567 31.2324C67.0107 31.4737 67.3482 31.6072 67.6985 31.605C68.3572 31.605 68.8436 31.2579 68.9806 30.7385H70.5295C70.2509 32.1362 69.2238 32.9461 67.6961 32.9461C65.9064 32.9461 64.7282 31.6286 64.7282 29.931C64.7171 29.537 64.7855 29.1448 64.9294 28.7778C65.0733 28.4109 65.2896 28.0767 65.5656 27.7952C65.8415 27.5138 66.1713 27.2909 66.5354 27.1398C66.8994 26.9887 67.2902 26.9125 67.6843 26.9158C69.4859 26.9158 70.572 28.0137 70.572 30.0585L70.5861 30.3111ZM66.4306 29.0999H69.075C68.9145 28.5332 68.4635 28.1554 67.7245 28.1554C67.4365 28.1553 67.156 28.2467 66.9234 28.4165C66.6908 28.5862 66.5182 28.8256 66.4306 29.0999Z" fill="black"/>
<path d="M70.1494 25.1521H71.1127V25.3575H70.7444V26.446H70.5201V25.3575H70.1494V25.1521Z" fill="black"/>
<path d="M71.9204 26.1225L71.5709 25.1521H71.3018V26.446H71.5166V25.7235C71.5163 25.6572 71.5123 25.591 71.5048 25.5251L71.8401 26.446H72.003L72.3359 25.5251C72.3284 25.591 72.3244 25.6572 72.3241 25.7235V26.446H72.539V25.1521H72.2698L71.9204 26.1225Z" fill="black"/>
<defs>
<filter id="filter0_d_51_303" x="0" y="0" width="105" height="105" filterUnits="userSpaceOnUse" color-interpolation-filters="sRGB">
<feFlood flood-opacity="0" result="BackgroundImageFix"/>
<feColorMatrix in="SourceAlpha" type="matrix" values="0 0 0 0 0 0 0 0 0 0 0 0 0 0 0 0 0 0 127 0" result="hardAlpha"/>
<feOffset dy="5"/>
<feGaussianBlur stdDeviation="5"/>
<feComposite in2="hardAlpha" operator="out"/>
<feColorMatrix type="matrix" values="0 0 0 0 0 0 0 0 0 0 0 0 0 0 0 0 0 0 0.5 0"/>
<feBlend mode="normal" in2="BackgroundImageFix" result="effect1_dropShadow_51_303"/>
<feBlend mode="normal" in="SourceGraphic" in2="effect1_dropShadow_51_303" result="shape"/>
</filter>
</defs>
</svg>
